<svg width="42" height="20" viewBox="0 0 42 20" fill="none" xmlns="http://www.w3.org/2000/svg">
<path d="M3.45017 2.39998C3.1188 2.15146 2.64869 2.21861 2.40017 2.54998C2.15164 2.88135 2.2188 3.35146 2.55017 3.59998L20.5376 17.0906C20.5801 17.1239 20.6256 17.1521 20.6733 17.1752C20.8824 17.2767 21.124 17.2733 21.3271 17.1752C21.3747 17.1521 21.4203 17.1239 21.4628 17.0906L39.4502 3.59998C39.7816 3.35146 39.8487 2.88135 39.6002 2.54998C39.3517 2.21861 38.8816 2.15146 38.5502 2.39998L21.0002 15.5625L3.45017 2.39998Z" fill="#434141"/>
<path fill-rule="evenodd" clip-rule="evenodd" d="M38.5502 2.39998C38.8816 2.15146 39.3517 2.21861 39.6002 2.54998C39.8487 2.88135 39.7816 3.35146 39.4502 3.59998L21.4628 17.0906C21.4203 17.1239 21.3747 17.1521 21.3271 17.1752C21.124 17.2733 20.8824 17.2767 20.6733 17.1752C20.6256 17.1521 20.5801 17.1239 20.5376 17.0906L2.55017 3.59998C2.2188 3.35146 2.15164 2.88135 2.40017 2.54998C2.64869 2.21861 3.1188 2.15146 3.45017 2.39998L21.0002 15.5625L38.5502 2.39998ZM21.0002 13.0625L4.65016 0.799979C3.43514 -0.111291 1.71143 0.134952 0.800162 1.34998C-0.111108 2.56501 0.135135 4.28871 1.35016 5.19998L19.3258 18.6817C19.4762 18.7971 19.6363 18.8954 19.8032 18.976C20.5744 19.3491 21.457 19.3336 22.1971 18.976C22.364 18.8954 22.5242 18.7971 22.6745 18.6817L40.6502 5.19998C41.8652 4.28871 42.1115 2.56501 41.2002 1.34998C40.2889 0.134955 38.5652 -0.111296 37.3502 0.799985L21.0002 13.0625Z" fill="#434141"/>
</svg>
