<svg width="14" height="13" viewBox="0 0 14 13" fill="none" xmlns="http://www.w3.org/2000/svg">
<path fill-rule="evenodd" clip-rule="evenodd" d="M7.88424 0.919672L9.11128 3.37101C9.23154 3.61167 9.46366 3.77854 9.73284 3.81715L12.4778 4.21226C13.156 4.31018 13.4258 5.13212 12.935 5.60308L10.9501 7.51037C10.755 7.69793 10.6662 7.96754 10.7124 8.23233L11.1808 10.925C11.2962 11.5911 10.5872 12.0993 9.98105 11.7842L7.52767 10.512C7.28715 10.3872 6.9991 10.3872 6.75788 10.512L4.3045 11.7842C3.69833 12.0993 2.98937 11.5911 3.10543 10.925L3.57318 8.23233C3.61932 7.96754 3.53053 7.69793 3.33546 7.51037L1.35052 5.60308C0.859706 5.13212 1.12958 4.31018 1.80778 4.21226L4.55271 3.81715C4.82189 3.77854 5.05471 3.61167 5.17497 3.37101L6.40131 0.919672C6.70475 0.31356 7.5808 0.31356 7.88424 0.919672Z" fill="#FFBD11" stroke="#FFBD11" stroke-width="0.842827" stroke-linecap="round" stroke-linejoin="round"/>
</svg>
