<svg width="167" height="164" fill="none" xmlns="http://www.w3.org/2000/svg"><path fill-rule="evenodd" clip-rule="evenodd" d="M110.724 129.653c7.622-15.673 4.092-34.463-4.777-49.455-8.323-14.071-23.28-21.8-39.297-25.055-16.285-3.308-33.803-2.822-46.786 7.566C6.405 73.475.002 90.727.646 107.952c.64 17.158 8.312 33.844 22.531 43.449 13.566 9.164 30.68 7.177 46.572 3.229 16.329-4.057 33.613-9.839 40.975-24.977Z" fill="url(#a)"/><path fill-rule="evenodd" clip-rule="evenodd" d="M149.144 15.486c14.371 12.305 18.988 32.54 16.647 51.303-2.197 17.61-13.743 31.778-28.281 41.95-14.781 10.341-32.431 17.438-49.852 12.715-18.059-4.895-31.899-19.299-38.712-36.725-6.787-17.36-6.371-37.292 3.628-53.008 9.54-14.994 27.438-20.422 44.968-23.369 18.012-3.028 37.722-4.751 51.602 7.134Z" fill="url(#b)"/><path fill-rule="evenodd" clip-rule="evenodd" d="M116.57 5.092c22.859 9.196 36.987 32.24 41.917 56.368 4.626 22.645-3.717 44.937-17.418 63.545-13.929 18.919-32.751 35.03-56.215 36.461-24.322 1.484-47.401-10.522-63.07-29.186C6.178 113.688-1.613 88.92 4.177 65.362 9.701 42.886 29.523 28.73 49.926 17.79 70.889 6.55 94.49-3.79 116.57 5.092Z" fill="#F4F3EC" stroke="url(#c)" stroke-width="2.955"/><defs><linearGradient id="a" x1="114.839" y1="53.325" x2="3.427" y2="181.295" gradientUnits="userSpaceOnUse"><stop offset=".422" stop-color="#EF5DA8"/><stop offset="1" stop-color="#FFDA44"/></linearGradient><linearGradient id="b" x1="173.825" y1="1.128" x2="12.97" y2="135.352" gradientUnits="userSpaceOnUse"><stop offset=".317" stop-color="#5DA0EF"/><stop offset="1" stop-color="#44FF78"/></linearGradient><linearGradient id="c" x1="195.437" y1="32.681" x2="-71.698" y2="92.411" gradientUnits="userSpaceOnUse"><stop offset=".317" stop-color="#EF5DCF"/><stop offset="1" stop-color="#5EFF44"/></linearGradient></defs></svg>