<svg width="18" height="20" fill="none" xmlns="http://www.w3.org/2000/svg"><path fill-rule="evenodd" clip-rule="evenodd" d="M0 14.87V7.257h18v7.674C18 18.07 16.024 20 12.863 20H5.127C1.996 20 0 18.03 0 14.87Zm4.96-2.46a.822.822 0 0 1-.85-.799c0-.46.356-.84.81-.861.445 0 .81.351.82.8a.822.822 0 0 1-.78.86Zm4.06 0a.822.822 0 0 1-.85-.799c0-.46.356-.84.81-.861.445 0 .81.351.82.8a.822.822 0 0 1-.78.86Zm4.03 3.68a.847.847 0 0 1-.82-.85.831.831 0 0 1 .81-.85h.01c.465 0 .84.38.84.85s-.375.85-.84.85Zm-4.88-.85c.02.46.395.82.85.8a.821.821 0 0 0 .78-.86.817.817 0 0 0-.82-.8.855.855 0 0 0-.81.86Zm-4.07 0c.02.46.395.82.85.8a.821.821 0 0 0 .78-.86.817.817 0 0 0-.82-.8.855.855 0 0 0-.81.86Zm8.14-3.64c0-.46.356-.83.81-.84.445 0 .8.36.82.8a.82.82 0 0 1-.79.85.814.814 0 0 1-.84-.8v-.01Z" fill="url(#a)"/><path opacity=".4" d="M.003 7.257C.016 6.67.066 5.505.16 5.13c.474-2.109 2.084-3.449 4.386-3.64h8.911c2.282.201 3.912 1.55 4.386 3.64.092.365.142 1.54.155 2.127H.003Z" fill="url(#b)"/><path d="M5.305 4.59c.434 0 .76-.329.76-.77V.771A.748.748 0 0 0 5.305 0c-.435 0-.761.33-.761.771V3.82c0 .441.326.77.76.77Z" fill="url(#c)"/><path d="M12.695 4.59c.425 0 .761-.329.761-.77V.771a.754.754 0 0 0-.76-.771c-.435 0-.761.33-.761.771V3.82c0 .441.326.77.76.77Z" fill="url(#d)"/><defs><linearGradient id="a" x1="0" y1="7.257" x2="3.578" y2="23.23" gradientUnits="userSpaceOnUse"><stop stop-color="#FF6B3B"/><stop offset="1" stop-color="#EF4526"/></linearGradient><linearGradient id="b" x1=".003" y1="1.49" x2=".765" y2="9.005" gradientUnits="userSpaceOnUse"><stop stop-color="#FF6B3B"/><stop offset="1" stop-color="#EF4526"/></linearGradient><linearGradient id="c" x1="4.544" y1="0" x2="7.562" y2="3.161" gradientUnits="userSpaceOnUse"><stop stop-color="#FF6B3B"/><stop offset="1" stop-color="#EF4526"/></linearGradient><linearGradient id="d" x1="11.935" y1="0" x2="14.953" y2="3.161" gradientUnits="userSpaceOnUse"><stop stop-color="#FF6B3B"/><stop offset="1" stop-color="#EF4526"/></linearGradient></defs></svg>