<svg width="1440" height="378" fill="none" xmlns="http://www.w3.org/2000/svg"><path fill="#393665" d="M-12 0h1466v378H-12z"/><path d="M29.275 24.566c-1.736 1.01-6.983 3.472-11.561.428-4.49-2.986-7.394-1.996-10.3-1.006m-31.802 25.868c1.736-1.01 6.983-3.472 11.56-.428 4.49 2.986 7.395 1.996 10.3 1.006m-21.86-25.868c1.736 1.01 6.983 3.472 11.56.428 4.49-2.986 7.395-1.996 10.3-1.006m31.803 25.868c-1.736-1.01-6.983-3.472-11.561-.428-4.49 2.986-7.394 1.996-10.3 1.006m-32.63-13.053h56.338m-28.17 6.676V30.706m107.517-6.14c-1.736 1.01-6.983 3.472-11.56.428-4.49-2.986-7.395-1.996-10.3-1.006M56.806 49.856c1.736-1.01 6.983-3.472 11.561-.428 4.49 2.986 7.394 1.996 10.3 1.006M56.805 24.566c1.736 1.01 6.983 3.472 11.561.428 4.49-2.986 7.394-1.996 10.3-1.006m31.802 25.868c-1.736-1.01-6.983-3.472-11.56-.428-4.49 2.986-7.395 1.996-10.3 1.006M55.977 37.381h56.339m-28.17 6.676V30.706m107.517-6.14c-1.736 1.01-6.983 3.472-11.561.428-4.489-2.986-7.394-1.996-10.3-1.006m-31.803 25.868c1.737-1.01 6.984-3.472 11.562-.428 4.489 2.986 7.394 1.996 10.299 1.006m-21.861-25.868c1.737 1.01 6.984 3.472 11.562.428 4.489-2.986 7.394-1.996 10.299-1.006m31.803 25.868c-1.736-1.01-6.983-3.472-11.561-.428-4.489 2.986-7.394 1.996-10.3 1.006m-32.631-13.053h56.339m-28.169 6.676V30.706M521.1 24.566c-1.736 1.01-6.983 3.472-11.561.428-4.489-2.986-7.394-1.996-10.299-1.006m-31.803 25.868c1.736-1.01 6.983-3.472 11.561-.428 4.489 2.986 7.394 1.996 10.299 1.006m-21.86-25.868c1.736 1.01 6.983 3.472 11.561.428 4.489-2.986 7.394-1.996 10.299-1.006M521.1 49.856c-1.736-1.01-6.983-3.472-11.561-.428-4.489 2.986-7.394 1.996-10.299 1.006m-32.632-13.053h56.339m-28.169 6.676V30.706m107.516-6.14c-1.736 1.01-6.983 3.472-11.561.428-4.489-2.986-7.394-1.996-10.299-1.006m-31.803 25.868c1.736-1.01 6.983-3.472 11.561-.428 4.489 2.986 7.394 1.996 10.299 1.006m-21.86-25.868c1.736 1.01 6.983 3.472 11.561.428 4.489-2.986 7.394-1.996 10.299-1.006m31.803 25.868c-1.736-1.01-6.983-3.472-11.561-.428-4.489 2.986-7.394 1.996-10.299 1.006m-32.632-13.053h56.339m-28.169 6.676V30.706m107.516-6.14c-1.736 1.01-6.983 3.472-11.561.428-4.489-2.986-7.394-1.996-10.299-1.006m-31.803 25.868c1.736-1.01 6.983-3.472 11.561-.428 4.489 2.986 7.394 1.996 10.299 1.006m-21.86-25.868c1.736 1.01 6.983 3.472 11.561.428 4.489-2.986 7.394-1.996 10.299-1.006m31.803 25.868c-1.736-1.01-6.983-3.472-11.561-.428-4.489 2.986-7.394 1.996-10.299 1.006m-32.632-13.053h56.339m-28.169 6.676V30.706M1046.29 24.566c-1.74 1.01-6.98 3.472-11.56.428-4.49-2.986-7.4-1.996-10.3-1.006m-31.803 25.868c1.736-1.01 6.983-3.472 11.563-.428 4.49 2.986 7.39 1.996 10.3 1.006m-21.863-25.868c1.736 1.01 6.983 3.472 11.563.428 4.49-2.986 7.39-1.996 10.3-1.006m31.8 25.868c-1.74-1.01-6.98-3.472-11.56-.428-4.49 2.986-7.4 1.996-10.3 1.006m-32.632-13.053h56.342m-28.17 6.676V30.706m107.51-6.14c-1.73 1.01-6.98 3.472-11.56.428-4.49-2.986-7.39-1.996-10.3-1.006m-31.8 25.868c1.74-1.01 6.98-3.472 11.56-.428 4.49 2.986 7.4 1.996 10.3 1.006m-21.86-25.868c1.74 1.01 6.98 3.472 11.56.428 4.49-2.986 7.4-1.996 10.3-1.006m31.8 25.868c-1.73-1.01-6.98-3.472-11.56-.428-4.49 2.986-7.39 1.996-10.3 1.006m-32.63-13.053h56.34m-28.17 6.676V30.706m107.52-6.14c-1.74 1.01-6.98 3.472-11.56.428-4.49-2.986-7.4-1.996-10.3-1.006m-31.81 25.868c1.74-1.01 6.99-3.472 11.57-.428 4.49 2.986 7.39 1.996 10.3 1.006m-21.87-25.868c1.74 1.01 6.99 3.472 11.57.428 4.49-2.986 7.39-1.996 10.3-1.006m31.8 25.868c-1.74-1.01-6.98-3.472-11.56-.428-4.49 2.986-7.4 1.996-10.3 1.006m-32.63-13.053h56.33m-28.16 6.676V30.706M275.188 24.566c-1.736 1.01-6.983 3.472-11.561.428-4.49-2.986-7.395-1.996-10.3-1.006m-31.803 25.868c1.736-1.01 6.983-3.472 11.561-.428 4.49 2.986 7.395 1.996 10.3 1.006m-21.861-25.868c1.736 1.01 6.983 3.472 11.561.428 4.49-2.986 7.395-1.996 10.3-1.006m31.803 25.868c-1.736-1.01-6.983-3.472-11.561-.428-4.49 2.986-7.395 1.996-10.3 1.006m-32.631-13.053h56.338m-28.169 6.676V30.706m107.517-6.14c-1.736 1.01-6.983 3.472-11.561.428-4.49-2.986-7.395-1.996-10.3-1.006m-31.803 25.868c1.737-1.01 6.983-3.472 11.562-.428 4.489 2.986 7.394 1.996 10.299 1.006m-21.861-25.868c1.737 1.01 6.983 3.472 11.562.428 4.489-2.986 7.394-1.996 10.299-1.006m31.803 25.868c-1.736-1.01-6.983-3.472-11.561-.428-4.49 2.986-7.395 1.996-10.3 1.006M301.89 37.381h56.338m-28.169 6.676V30.706m107.517-6.14c-1.737 1.01-6.984 3.472-11.562.428-4.489-2.986-7.394-1.996-10.299-1.006m-31.803 25.868c1.736-1.01 6.983-3.472 11.561-.428 4.489 2.986 7.394 1.996 10.3 1.006m-21.861-25.868c1.736 1.01 6.983 3.472 11.561.428 4.489-2.986 7.394-1.996 10.299-1.006m31.804 25.868c-1.737-1.01-6.984-3.472-11.562-.428-4.489 2.986-7.394 1.996-10.299 1.006m-32.631-13.053h56.338m-28.169 6.676V30.706M767.013 24.566c-1.736 1.01-6.983 3.472-11.561.428-4.49-2.986-7.395-1.996-10.3-1.006m-31.803 25.868c1.737-1.01 6.983-3.472 11.562-.428 4.489 2.986 7.394 1.996 10.299 1.006m-21.861-25.868c1.737 1.01 6.983 3.472 11.562.428 4.489-2.986 7.394-1.996 10.299-1.006m31.803 25.868c-1.736-1.01-6.983-3.472-11.561-.428-4.49 2.986-7.395 1.996-10.3 1.006m-32.631-13.053h56.338m-28.169 6.676V30.706m107.517-6.14c-1.736 1.01-6.983 3.472-11.561.428-4.489-2.986-7.395-1.996-10.3-1.006m-31.803 25.868c1.737-1.01 6.983-3.472 11.562-.428 4.489 2.986 7.394 1.996 10.299 1.006m-21.861-25.868c1.737 1.01 6.983 3.472 11.562.428 4.489-2.986 7.394-1.996 10.299-1.006m31.803 25.868c-1.736-1.01-6.983-3.472-11.561-.428-4.489 2.986-7.395 1.996-10.3 1.006m-32.631-13.053h56.338m-28.169 6.676V30.706m107.517-6.14c-1.737 1.01-6.983 3.472-11.562.428-4.489-2.986-7.394-1.996-10.299-1.006m-31.803 25.868c1.736-1.01 6.983-3.472 11.561-.428 4.489 2.986 7.395 1.996 10.3 1.006m-21.861-25.868c1.736 1.01 6.983 3.472 11.561.428 4.489-2.986 7.395-1.996 10.3-1.006m31.803 25.868c-1.737-1.01-6.983-3.472-11.562-.428-4.489 2.986-7.394 1.996-10.299 1.006m-32.631-13.053h56.338m-28.169 6.676V30.706M1292.2 24.566c-1.73 1.01-6.98 3.472-11.56.428-4.49-2.986-7.39-1.996-10.3-1.006m-31.8 25.868c1.74-1.01 6.98-3.472 11.56-.428 4.49 2.986 7.39 1.996 10.3 1.006m-21.86-25.868c1.74 1.01 6.98 3.472 11.56.428 4.49-2.986 7.39-1.996 10.3-1.006m31.8 25.868c-1.73-1.01-6.98-3.472-11.56-.428-4.49 2.986-7.39 1.996-10.3 1.006m-32.63-13.053h56.34m-28.17 6.676V30.706m107.52-6.14c-1.74 1.01-6.99 3.472-11.56.428-4.49-2.986-7.4-1.996-10.3-1.006m-31.81 25.868c1.74-1.01 6.99-3.472 11.56-.428 4.49 2.986 7.4 1.996 10.3 1.006m-21.86-25.868c1.74 1.01 6.99 3.472 11.56.428 4.49-2.986 7.4-1.996 10.3-1.006m31.81 25.868c-1.74-1.01-6.99-3.472-11.56-.428-4.49 2.986-7.4 1.996-10.3 1.006m-32.63-13.053h56.33m-28.17 6.676V30.706m107.52-6.14c-1.74 1.01-6.98 3.472-11.56.428-4.49-2.986-7.39-1.996-10.3-1.006m-31.8 25.868c1.73-1.01 6.98-3.472 11.56-.428 4.49 2.986 7.39 1.996 10.3 1.006m-21.86-25.868c1.73 1.01 6.98 3.472 11.56.428 4.49-2.986 7.39-1.996 10.3-1.006m31.8 25.868c-1.74-1.01-6.98-3.472-11.56-.428-4.49 2.986-7.39 1.996-10.3 1.006m-32.63-13.053h56.34m-28.17 6.676V30.706M29.275 260.592c-1.736 1.01-6.983 3.472-11.561.428-4.49-2.985-7.394-1.996-10.3-1.006m-31.802 25.868c1.736-1.009 6.983-3.472 11.56-.427 4.49 2.985 7.395 1.995 10.3 1.006m-21.86-25.869c1.736 1.01 6.983 3.472 11.56.428 4.49-2.985 7.395-1.996 10.3-1.006m31.803 25.868c-1.736-1.009-6.983-3.472-11.561-.427-4.49 2.985-7.394 1.995-10.3 1.006m-32.63-13.053h56.338m-28.17 6.676v-13.352m107.517-6.14c-1.736 1.01-6.983 3.472-11.56.428-4.49-2.985-7.395-1.996-10.3-1.006m-31.803 25.868c1.736-1.009 6.983-3.472 11.56-.427 4.49 2.985 7.395 1.995 10.3 1.006m-21.86-25.869c1.736 1.01 6.983 3.472 11.56.428 4.49-2.985 7.395-1.996 10.3-1.006m31.803 25.868c-1.736-1.009-6.983-3.472-11.56-.427-4.49 2.985-7.395 1.995-10.3 1.006m-32.632-13.053h56.339m-28.17 6.676v-13.352m107.517-6.14c-1.736 1.01-6.983 3.472-11.561.428-4.49-2.985-7.395-1.996-10.3-1.006m-31.803 25.868c1.737-1.009 6.983-3.472 11.562-.427 4.489 2.985 7.394 1.995 10.299 1.006m-21.861-25.869c1.737 1.01 6.983 3.472 11.562.428 4.489-2.985 7.394-1.996 10.299-1.006m31.803 25.868c-1.736-1.009-6.983-3.472-11.561-.427-4.489 2.985-7.395 1.995-10.3 1.006m-32.631-13.053h56.338m-28.169 6.676v-13.352M521.1 260.592c-1.736 1.01-6.983 3.472-11.561.428-4.489-2.985-7.394-1.996-10.299-1.006m-31.803 25.868c1.736-1.009 6.983-3.472 11.561-.427 4.489 2.985 7.394 1.995 10.299 1.006m-21.86-25.869c1.736 1.01 6.983 3.472 11.561.428 4.489-2.985 7.394-1.996 10.299-1.006m31.803 25.868c-1.736-1.009-6.983-3.472-11.561-.427-4.489 2.985-7.394 1.995-10.299 1.006m-32.632-13.053h56.339m-28.169 6.676v-13.352m107.516-6.14c-1.736 1.01-6.983 3.472-11.561.428-4.489-2.985-7.394-1.996-10.299-1.006m-31.803 25.868c1.736-1.009 6.983-3.472 11.561-.427 4.489 2.985 7.394 1.995 10.299 1.006m-21.86-25.869c1.736 1.01 6.983 3.472 11.561.428 4.489-2.985 7.394-1.996 10.299-1.006m31.803 25.868c-1.736-1.009-6.983-3.472-11.561-.427-4.489 2.985-7.394 1.995-10.299 1.006m-32.632-13.053h56.339m-28.169 6.676v-13.352m107.516-6.14c-1.736 1.01-6.983 3.472-11.561.428-4.489-2.985-7.394-1.996-10.3-1.006m-31.803 25.868c1.737-1.009 6.984-3.472 11.562-.427 4.489 2.985 7.394 1.995 10.299 1.006m-21.861-25.869c1.737 1.01 6.984 3.472 11.562.428 4.489-2.985 7.394-1.996 10.299-1.006m31.803 25.868c-1.736-1.009-6.983-3.472-11.561-.427-4.489 2.985-7.394 1.995-10.299 1.006m-32.632-13.053h56.339m-28.169 6.676v-13.352M1046.29 260.592c-1.74 1.01-6.98 3.472-11.56.428-4.49-2.985-7.4-1.996-10.3-1.006m-31.803 25.868c1.736-1.009 6.983-3.472 11.563-.427 4.49 2.985 7.39 1.995 10.3 1.006m-21.863-25.869c1.736 1.01 6.983 3.472 11.563.428 4.49-2.985 7.39-1.996 10.3-1.006m31.8 25.868c-1.74-1.009-6.98-3.472-11.56-.427-4.49 2.985-7.4 1.995-10.3 1.006m-32.632-13.053h56.342m-28.17 6.676v-13.352m107.51-6.14c-1.73 1.01-6.98 3.472-11.56.428-4.49-2.985-7.39-1.996-10.3-1.006m-31.8 25.868c1.74-1.009 6.98-3.472 11.56-.427 4.49 2.985 7.4 1.995 10.3 1.006m-21.86-25.869c1.74 1.01 6.98 3.472 11.56.428 4.49-2.985 7.4-1.996 10.3-1.006m31.8 25.868c-1.73-1.009-6.98-3.472-11.56-.427-4.49 2.985-7.39 1.995-10.3 1.006m-32.63-13.053h56.34m-28.17 6.676v-13.352m107.52-6.14c-1.74 1.01-6.98 3.472-11.56.428-4.49-2.985-7.4-1.996-10.3-1.006m-31.81 25.868c1.74-1.009 6.99-3.472 11.57-.427 4.49 2.985 7.39 1.995 10.3 1.006m-21.87-25.869c1.74 1.01 6.99 3.472 11.57.428 4.49-2.985 7.39-1.996 10.3-1.006m31.8 25.868c-1.74-1.009-6.98-3.472-11.56-.427-4.49 2.985-7.4 1.995-10.3 1.006m-32.63-13.053h56.33m-28.16 6.676v-13.352M275.188 260.592c-1.737 1.01-6.983 3.472-11.561.428-4.49-2.985-7.395-1.996-10.3-1.006m-31.803 25.868c1.736-1.009 6.983-3.472 11.561-.427 4.49 2.985 7.395 1.995 10.3 1.006m-21.861-25.869c1.736 1.01 6.983 3.472 11.561.428 4.49-2.985 7.395-1.996 10.3-1.006m31.803 25.868c-1.737-1.009-6.983-3.472-11.561-.427-4.49 2.985-7.395 1.995-10.3 1.006m-32.631-13.053h56.338m-28.169 6.676v-13.352m107.517-6.14c-1.736 1.01-6.983 3.472-11.561.428-4.49-2.985-7.395-1.996-10.3-1.006m-31.803 25.868c1.737-1.009 6.983-3.472 11.561-.427 4.49 2.985 7.395 1.995 10.3 1.006m-21.861-25.869c1.737 1.01 6.983 3.472 11.561.428 4.49-2.985 7.395-1.996 10.3-1.006m31.803 25.868c-1.736-1.009-6.983-3.472-11.561-.427-4.49 2.985-7.395 1.995-10.3 1.006m-32.631-13.053h56.338m-28.169 6.676v-13.352m107.516-6.14c-1.736 1.01-6.983 3.472-11.561.428-4.489-2.985-7.394-1.996-10.299-1.006m-31.803 25.868c1.736-1.009 6.983-3.472 11.561-.427 4.489 2.985 7.394 1.995 10.299 1.006m-21.86-25.869c1.736 1.01 6.983 3.472 11.561.428 4.489-2.985 7.394-1.996 10.299-1.006m31.803 25.868c-1.736-1.009-6.983-3.472-11.561-.427-4.489 2.985-7.394 1.995-10.299 1.006m-32.631-13.053h56.338m-28.169 6.676v-13.352M767.013 260.592c-1.736 1.01-6.983 3.472-11.561.428-4.49-2.985-7.395-1.996-10.3-1.006m-31.803 25.868c1.736-1.009 6.983-3.472 11.561-.427 4.49 2.985 7.395 1.995 10.3 1.006m-21.861-25.869c1.736 1.01 6.983 3.472 11.561.428 4.49-2.985 7.395-1.996 10.3-1.006m31.803 25.868c-1.736-1.009-6.983-3.472-11.561-.427-4.49 2.985-7.395 1.995-10.3 1.006m-32.631-13.053h56.338m-28.169 6.676v-13.352m107.517-6.14c-1.736 1.01-6.983 3.472-11.561.428-4.49-2.985-7.395-1.996-10.3-1.006m-31.803 25.868c1.737-1.009 6.983-3.472 11.562-.427 4.489 2.985 7.394 1.995 10.299 1.006m-21.861-25.869c1.737 1.01 6.983 3.472 11.562.428 4.489-2.985 7.394-1.996 10.299-1.006m31.803 25.868c-1.736-1.009-6.983-3.472-11.561-.427-4.49 2.985-7.395 1.995-10.3 1.006m-32.631-13.053h56.338m-28.169 6.676v-13.352m107.517-6.14c-1.737 1.01-6.984 3.472-11.562.428-4.489-2.985-7.394-1.996-10.299-1.006m-31.803 25.868c1.736-1.009 6.983-3.472 11.561-.427 4.489 2.985 7.394 1.995 10.3 1.006m-21.861-25.869c1.736 1.01 6.983 3.472 11.561.428 4.489-2.985 7.394-1.996 10.299-1.006m31.804 25.868c-1.737-1.009-6.984-3.472-11.562-.427-4.489 2.985-7.394 1.995-10.299 1.006m-32.631-13.053h56.338m-28.169 6.676v-13.352M1292.2 260.592c-1.73 1.01-6.98 3.472-11.56.428-4.49-2.985-7.39-1.996-10.3-1.006m-31.8 25.868c1.74-1.009 6.98-3.472 11.56-.427 4.49 2.985 7.39 1.995 10.3 1.006m-21.86-25.869c1.74 1.01 6.98 3.472 11.56.428 4.49-2.985 7.39-1.996 10.3-1.006m31.8 25.868c-1.73-1.009-6.98-3.472-11.56-.427-4.49 2.985-7.39 1.995-10.3 1.006m-32.63-13.053h56.34m-28.17 6.676v-13.352m107.52-6.14c-1.74 1.01-6.99 3.472-11.56.428-4.49-2.985-7.4-1.996-10.3-1.006m-31.81 25.868c1.74-1.009 6.99-3.472 11.56-.427 4.49 2.985 7.4 1.995 10.3 1.006m-21.86-25.869c1.74 1.01 6.99 3.472 11.56.428 4.49-2.985 7.4-1.996 10.3-1.006m31.81 25.868c-1.74-1.009-6.99-3.472-11.56-.427-4.49 2.985-7.4 1.995-10.3 1.006m-32.63-13.053h56.33m-28.17 6.676v-13.352m107.52-6.14c-1.74 1.01-6.98 3.472-11.56.428-4.49-2.985-7.39-1.996-10.3-1.006m-31.8 25.868c1.73-1.009 6.98-3.472 11.56-.427 4.49 2.985 7.39 1.995 10.3 1.006m-21.86-25.869c1.73 1.01 6.98 3.472 11.56.428 4.49-2.985 7.39-1.996 10.3-1.006m31.8 25.868c-1.74-1.009-6.98-3.472-11.56-.427-4.49 2.985-7.39 1.995-10.3 1.006m-32.63-13.053h56.34m-28.17 6.676v-13.352M29.275 144.433c-1.736 1.01-6.983 3.472-11.561.428-4.49-2.986-7.394-1.996-10.3-1.006m-31.802 25.868c1.736-1.009 6.983-3.472 11.56-.427 4.49 2.985 7.395 1.995 10.3 1.005m-21.86-25.868c1.736 1.01 6.983 3.472 11.56.428 4.49-2.986 7.395-1.996 10.3-1.006m31.803 25.868c-1.736-1.009-6.983-3.472-11.561-.427-4.49 2.985-7.394 1.995-10.3 1.005m-32.63-13.053h56.338m-28.17 6.676v-13.351m107.517-6.14c-1.736 1.01-6.983 3.472-11.56.428-4.49-2.986-7.395-1.996-10.3-1.006m-31.803 25.868c1.736-1.009 6.983-3.472 11.56-.427 4.49 2.985 7.395 1.995 10.3 1.005m-21.86-25.868c1.736 1.01 6.983 3.472 11.56.428 4.49-2.986 7.395-1.996 10.3-1.006m31.803 25.868c-1.736-1.009-6.983-3.472-11.56-.427-4.49 2.985-7.395 1.995-10.3 1.005m-32.632-13.053h56.339m-28.17 6.676v-13.351m107.517-6.14c-1.736 1.01-6.983 3.472-11.561.428-4.49-2.986-7.395-1.996-10.3-1.006m-31.803 25.868c1.737-1.009 6.983-3.472 11.562-.427 4.489 2.985 7.394 1.995 10.299 1.005m-21.861-25.868c1.737 1.01 6.983 3.472 11.562.428 4.489-2.986 7.394-1.996 10.299-1.006m31.803 25.868c-1.736-1.009-6.983-3.472-11.561-.427-4.489 2.985-7.395 1.995-10.3 1.005m-32.631-13.053h56.338m-28.169 6.676v-13.351M521.1 144.433c-1.736 1.01-6.983 3.472-11.561.428-4.489-2.986-7.394-1.996-10.299-1.006m-31.803 25.868c1.736-1.009 6.983-3.472 11.561-.427 4.489 2.985 7.394 1.995 10.299 1.005m-21.86-25.868c1.736 1.01 6.983 3.472 11.561.428 4.489-2.986 7.394-1.996 10.299-1.006m31.803 25.868c-1.736-1.009-6.983-3.472-11.561-.427-4.489 2.985-7.394 1.995-10.299 1.005m-32.632-13.053h56.339m-28.169 6.676v-13.351m107.516-6.14c-1.736 1.01-6.983 3.472-11.561.428-4.489-2.986-7.394-1.996-10.299-1.006m-31.803 25.868c1.736-1.009 6.983-3.472 11.561-.427 4.489 2.985 7.394 1.995 10.299 1.005m-21.86-25.868c1.736 1.01 6.983 3.472 11.561.428 4.489-2.986 7.394-1.996 10.299-1.006m31.803 25.868c-1.736-1.009-6.983-3.472-11.561-.427-4.489 2.985-7.394 1.995-10.299 1.005m-32.632-13.053h56.339m-28.169 6.676v-13.351m107.516-6.14c-1.736 1.01-6.983 3.472-11.561.428-4.489-2.986-7.394-1.996-10.3-1.006m-31.803 25.868c1.737-1.009 6.984-3.472 11.562-.427 4.489 2.985 7.394 1.995 10.299 1.005m-21.861-25.868c1.737 1.01 6.984 3.472 11.562.428 4.489-2.986 7.394-1.996 10.299-1.006m31.803 25.868c-1.736-1.009-6.983-3.472-11.561-.427-4.489 2.985-7.394 1.995-10.299 1.005m-32.632-13.053h56.339m-28.169 6.676v-13.351M1046.29 144.433c-1.74 1.01-6.98 3.472-11.56.428-4.49-2.986-7.4-1.996-10.3-1.006m-31.803 25.868c1.736-1.009 6.983-3.472 11.563-.427 4.49 2.985 7.39 1.995 10.3 1.005m-21.863-25.868c1.736 1.01 6.983 3.472 11.563.428 4.49-2.986 7.39-1.996 10.3-1.006m31.8 25.868c-1.74-1.009-6.98-3.472-11.56-.427-4.49 2.985-7.4 1.995-10.3 1.005m-32.632-13.053h56.342m-28.17 6.676v-13.351m107.51-6.14c-1.73 1.01-6.98 3.472-11.56.428-4.49-2.986-7.39-1.996-10.3-1.006m-31.8 25.868c1.74-1.009 6.98-3.472 11.56-.427 4.49 2.985 7.4 1.995 10.3 1.005m-21.86-25.868c1.74 1.01 6.98 3.472 11.56.428 4.49-2.986 7.4-1.996 10.3-1.006m31.8 25.868c-1.73-1.009-6.98-3.472-11.56-.427-4.49 2.985-7.39 1.995-10.3 1.005m-32.63-13.053h56.34m-28.17 6.676v-13.351m107.52-6.14c-1.74 1.01-6.98 3.472-11.56.428-4.49-2.986-7.4-1.996-10.3-1.006m-31.81 25.868c1.74-1.009 6.99-3.472 11.57-.427 4.49 2.985 7.39 1.995 10.3 1.005m-21.87-25.868c1.74 1.01 6.99 3.472 11.57.428 4.49-2.986 7.39-1.996 10.3-1.006m31.8 25.868c-1.74-1.009-6.98-3.472-11.56-.427-4.49 2.985-7.4 1.995-10.3 1.005m-32.63-13.053h56.33m-28.16 6.676v-13.351M275.188 144.433c-1.737 1.01-6.983 3.472-11.561.428-4.49-2.986-7.395-1.996-10.3-1.006m-31.803 25.868c1.736-1.009 6.983-3.472 11.561-.427 4.49 2.985 7.395 1.995 10.3 1.005m-21.861-25.868c1.736 1.01 6.983 3.472 11.561.428 4.49-2.986 7.395-1.996 10.3-1.006m31.803 25.868c-1.737-1.009-6.983-3.472-11.561-.427-4.49 2.985-7.395 1.995-10.3 1.005m-32.631-13.053h56.338m-28.169 6.676v-13.351m107.517-6.14c-1.736 1.01-6.983 3.472-11.561.428-4.49-2.986-7.395-1.996-10.3-1.006m-31.803 25.868c1.737-1.009 6.983-3.472 11.561-.427 4.49 2.985 7.395 1.995 10.3 1.005m-21.861-25.868c1.737 1.01 6.983 3.472 11.561.428 4.49-2.986 7.395-1.996 10.3-1.006m31.803 25.868c-1.736-1.009-6.983-3.472-11.561-.427-4.49 2.985-7.395 1.995-10.3 1.005m-32.631-13.053h56.338m-28.169 6.676v-13.351m107.516-6.14c-1.736 1.01-6.983 3.472-11.561.428-4.489-2.986-7.394-1.996-10.299-1.006m-31.803 25.868c1.736-1.009 6.983-3.472 11.561-.427 4.489 2.985 7.394 1.995 10.299 1.005m-21.86-25.868c1.736 1.01 6.983 3.472 11.561.428 4.489-2.986 7.394-1.996 10.299-1.006m31.803 25.868c-1.736-1.009-6.983-3.472-11.561-.427-4.489 2.985-7.394 1.995-10.299 1.005m-32.631-13.053h56.338m-28.169 6.676v-13.351M767.013 144.433c-1.736 1.01-6.983 3.472-11.561.428-4.49-2.986-7.395-1.996-10.3-1.006m-31.803 25.868c1.736-1.009 6.983-3.472 11.561-.427 4.49 2.985 7.395 1.995 10.3 1.005m-21.861-25.868c1.736 1.01 6.983 3.472 11.561.428 4.49-2.986 7.395-1.996 10.3-1.006m31.803 25.868c-1.736-1.009-6.983-3.472-11.561-.427-4.49 2.985-7.395 1.995-10.3 1.005m-32.631-13.053h56.338m-28.169 6.676v-13.351m107.517-6.14c-1.736 1.01-6.983 3.472-11.561.428-4.49-2.986-7.395-1.996-10.3-1.006m-31.803 25.868c1.737-1.009 6.983-3.472 11.562-.427 4.489 2.985 7.394 1.995 10.299 1.005m-21.861-25.868c1.737 1.01 6.983 3.472 11.562.428 4.489-2.986 7.394-1.996 10.299-1.006m31.803 25.868c-1.736-1.009-6.983-3.472-11.561-.427-4.49 2.985-7.395 1.995-10.3 1.005m-32.631-13.053h56.338m-28.169 6.676v-13.351m107.517-6.14c-1.737 1.01-6.984 3.472-11.562.428-4.489-2.986-7.394-1.996-10.299-1.006m-31.803 25.868c1.736-1.009 6.983-3.472 11.561-.427 4.489 2.985 7.394 1.995 10.3 1.005m-21.861-25.868c1.736 1.01 6.983 3.472 11.561.428 4.489-2.986 7.394-1.996 10.299-1.006m31.804 25.868c-1.737-1.009-6.984-3.472-11.562-.427-4.489 2.985-7.394 1.995-10.299 1.005m-32.631-13.053h56.338m-28.169 6.676v-13.351M1292.2 144.433c-1.73 1.01-6.98 3.472-11.56.428-4.49-2.986-7.39-1.996-10.3-1.006m-31.8 25.868c1.74-1.009 6.98-3.472 11.56-.427 4.49 2.985 7.39 1.995 10.3 1.005m-21.86-25.868c1.74 1.01 6.98 3.472 11.56.428 4.49-2.986 7.39-1.996 10.3-1.006m31.8 25.868c-1.73-1.009-6.98-3.472-11.56-.427-4.49 2.985-7.39 1.995-10.3 1.005m-32.63-13.053h56.34m-28.17 6.676v-13.351m107.52-6.14c-1.74 1.01-6.99 3.472-11.56.428-4.49-2.986-7.4-1.996-10.3-1.006m-31.81 25.868c1.74-1.009 6.99-3.472 11.56-.427 4.49 2.985 7.4 1.995 10.3 1.005m-21.86-25.868c1.74 1.01 6.99 3.472 11.56.428 4.49-2.986 7.4-1.996 10.3-1.006m31.81 25.868c-1.74-1.009-6.99-3.472-11.56-.427-4.49 2.985-7.4 1.995-10.3 1.005m-32.63-13.053h56.33m-28.17 6.676v-13.351m107.52-6.14c-1.74 1.01-6.98 3.472-11.56.428-4.49-2.986-7.39-1.996-10.3-1.006m-31.8 25.868c1.73-1.009 6.98-3.472 11.56-.427 4.49 2.985 7.39 1.995 10.3 1.005m-21.86-25.868c1.73 1.01 6.98 3.472 11.56.428 4.49-2.986 7.39-1.996 10.3-1.006m31.8 25.868c-1.74-1.009-6.98-3.472-11.56-.427-4.49 2.985-7.39 1.995-10.3 1.005m-32.63-13.053h56.34m-28.17 6.676v-13.351M70.055 85.118c-1.737 1.01-6.983 3.472-11.562.427-4.489-2.985-7.394-1.995-10.299-1.005m-31.803 25.868c1.736-1.01 6.983-3.472 11.561-.428 4.49 2.986 7.395 1.996 10.3 1.006m-21.86-25.868c1.735 1.01 6.982 3.472 11.56.427 4.49-2.985 7.395-1.995 10.3-1.005m31.803 25.868c-1.737-1.01-6.983-3.472-11.562-.428-4.489 2.986-7.394 1.996-10.299 1.006M15.563 97.933H71.9m-28.169 6.676V91.257m107.517-6.14c-1.736 1.01-6.983 3.473-11.561.428-4.49-2.985-7.395-1.995-10.3-1.005m-31.803 25.868c1.736-1.01 6.983-3.472 11.561-.428 4.49 2.986 7.395 1.996 10.3 1.006m-21.86-25.868c1.735 1.01 6.982 3.472 11.56.427 4.49-2.985 7.395-1.995 10.3-1.005m31.803 25.868c-1.736-1.01-6.983-3.472-11.561-.428-4.49 2.986-7.395 1.996-10.3 1.006M96.757 97.933h56.338m-28.169 6.676V91.257m107.516-6.14c-1.736 1.01-6.983 3.473-11.561.428-4.489-2.985-7.394-1.995-10.299-1.005m-31.803 25.868c1.736-1.01 6.983-3.472 11.561-.428 4.489 2.986 7.394 1.996 10.299 1.006m-21.86-25.868c1.736 1.01 6.983 3.472 11.561.427 4.489-2.985 7.394-1.995 10.299-1.005m31.803 25.868c-1.736-1.01-6.983-3.472-11.561-.428-4.489 2.986-7.394 1.996-10.299 1.006M177.95 97.933h56.339m-28.169 6.676V91.257M561.88 85.118c-1.736 1.01-6.983 3.472-11.561.427-4.49-2.985-7.395-1.995-10.3-1.005m-31.803 25.868c1.736-1.01 6.983-3.472 11.561-.428 4.49 2.986 7.395 1.996 10.3 1.006m-21.861-25.868c1.736 1.01 6.983 3.472 11.561.427 4.49-2.985 7.395-1.995 10.3-1.005m31.803 25.868c-1.736-1.01-6.983-3.472-11.561-.428-4.49 2.986-7.395 1.996-10.3 1.006m-32.631-13.053h56.338m-28.169 6.676V91.257m107.517-6.14c-1.736 1.01-6.983 3.473-11.561.428-4.49-2.985-7.395-1.995-10.3-1.005m-31.803 25.868c1.737-1.01 6.983-3.472 11.561-.428 4.49 2.986 7.395 1.996 10.3 1.006M589.41 85.118c1.737 1.01 6.983 3.472 11.561.427 4.49-2.985 7.395-1.995 10.3-1.005m31.803 25.868c-1.736-1.01-6.983-3.472-11.561-.428-4.49 2.986-7.395 1.996-10.3 1.006m-32.631-13.053h56.338m-28.169 6.676V91.257m107.516-6.14c-1.736 1.01-6.983 3.473-11.561.428-4.489-2.985-7.394-1.995-10.299-1.005m-31.803 25.868c1.736-1.01 6.983-3.472 11.561-.428 4.489 2.986 7.394 1.996 10.299 1.006m-21.86-25.868c1.736 1.01 6.983 3.472 11.561.427 4.489-2.985 7.394-1.995 10.299-1.005m31.803 25.868c-1.736-1.01-6.983-3.472-11.561-.428-4.489 2.986-7.394 1.996-10.299 1.006m-32.631-13.053h56.338m-28.169 6.676V91.257M1087.07 85.118c-1.74 1.01-6.98 3.472-11.56.427-4.49-2.985-7.4-1.995-10.3-1.005m-31.8 25.868c1.73-1.01 6.98-3.472 11.56-.428 4.49 2.986 7.39 1.996 10.3 1.006m-21.86-25.868c1.73 1.01 6.98 3.472 11.56.427 4.49-2.985 7.39-1.995 10.3-1.005m31.8 25.868c-1.74-1.01-6.98-3.472-11.56-.428-4.49 2.986-7.4 1.996-10.3 1.006m-32.63-13.053h56.34m-28.17 6.676V91.257m107.51-6.14c-1.73 1.01-6.98 3.473-11.56.428-4.49-2.985-7.39-1.995-10.3-1.005m-31.8 25.868c1.74-1.01 6.98-3.472 11.56-.428 4.49 2.986 7.4 1.996 10.3 1.006m-21.86-25.868c1.74 1.01 6.98 3.472 11.56.427 4.49-2.985 7.4-1.995 10.3-1.005m31.8 25.868c-1.73-1.01-6.98-3.472-11.56-.428-4.49 2.986-7.39 1.996-10.3 1.006m-32.63-13.053h56.34m-28.17 6.676V91.257m107.52-6.14c-1.74 1.01-6.99 3.473-11.56.428-4.49-2.985-7.4-1.995-10.3-1.005m-31.81 25.868c1.74-1.01 6.99-3.472 11.57-.428 4.48 2.986 7.39 1.996 10.29 1.006m-21.86-25.868c1.74 1.01 6.99 3.472 11.57.427 4.48-2.985 7.39-1.995 10.29-1.005m31.81 25.868c-1.74-1.01-6.99-3.472-11.56-.428-4.49 2.986-7.4 1.996-10.3 1.006m-32.63-13.053h56.33m-28.16 6.676V91.257M315.967 85.118c-1.736 1.01-6.983 3.472-11.561.427-4.489-2.985-7.394-1.995-10.299-1.005m-31.803 25.868c1.736-1.01 6.983-3.472 11.561-.428 4.489 2.986 7.394 1.996 10.299 1.006m-21.86-25.868c1.736 1.01 6.983 3.472 11.561.427 4.489-2.985 7.394-1.995 10.299-1.005m31.803 25.868c-1.736-1.01-6.983-3.472-11.561-.428-4.489 2.986-7.394 1.996-10.299 1.006m-32.632-13.053h56.339m-28.169 6.676V91.257m107.516-6.14c-1.736 1.01-6.983 3.473-11.561.428-4.489-2.985-7.394-1.995-10.299-1.005m-31.803 25.868c1.736-1.01 6.983-3.472 11.561-.428 4.489 2.986 7.394 1.996 10.299 1.006m-21.86-25.868c1.736 1.01 6.983 3.472 11.561.427 4.489-2.985 7.394-1.995 10.299-1.005m31.803 25.868c-1.736-1.01-6.983-3.472-11.561-.428-4.489 2.986-7.394 1.996-10.299 1.006m-32.632-13.053h56.339m-28.169 6.676V91.257m107.516-6.14c-1.736 1.01-6.983 3.473-11.561.428-4.489-2.985-7.395-1.995-10.3-1.005m-31.803 25.868c1.737-1.01 6.983-3.472 11.562-.428 4.489 2.986 7.394 1.996 10.299 1.006m-21.861-25.868c1.737 1.01 6.983 3.472 11.562.427 4.489-2.985 7.394-1.995 10.299-1.005m31.803 25.868c-1.736-1.01-6.983-3.472-11.561-.428-4.489 2.986-7.395 1.996-10.3 1.006m-32.631-13.053h56.338m-28.169 6.676V91.257M807.792 85.118c-1.736 1.01-6.983 3.472-11.561.427-4.489-2.985-7.394-1.995-10.299-1.005m-31.803 25.868c1.736-1.01 6.983-3.472 11.561-.428 4.489 2.986 7.394 1.996 10.299 1.006m-21.86-25.868c1.736 1.01 6.983 3.472 11.561.427 4.489-2.985 7.394-1.995 10.299-1.005m31.803 25.868c-1.736-1.01-6.983-3.472-11.561-.428-4.489 2.986-7.394 1.996-10.299 1.006M753.3 97.933h56.339m-28.169 6.676V91.257m107.516-6.14c-1.736 1.01-6.983 3.473-11.561.428-4.489-2.985-7.394-1.995-10.299-1.005m-31.803 25.868c1.736-1.01 6.983-3.472 11.561-.428 4.489 2.986 7.394 1.996 10.299 1.006m-21.86-25.868c1.736 1.01 6.983 3.472 11.561.427 4.489-2.985 7.394-1.995 10.299-1.005m31.803 25.868c-1.736-1.01-6.983-3.472-11.561-.428-4.489 2.986-7.394 1.996-10.299 1.006m-32.632-13.053h56.339m-28.169 6.676V91.257m107.516-6.14c-1.736 1.01-6.983 3.473-11.561.428-4.489-2.985-7.394-1.995-10.299-1.005m-31.803 25.868c1.736-1.01 6.983-3.472 11.561-.428 4.489 2.986 7.394 1.996 10.299 1.006m-21.86-25.868c1.736 1.01 6.983 3.472 11.561.427 4.489-2.985 7.394-1.995 10.299-1.005m31.803 25.868c-1.736-1.01-6.983-3.472-11.561-.428-4.489 2.986-7.394 1.996-10.299 1.006m-32.632-13.053h56.339m-28.169 6.676V91.257M1332.98 85.118c-1.73 1.01-6.98 3.472-11.56.427-4.49-2.985-7.39-1.995-10.3-1.005m-31.8 25.868c1.73-1.01 6.98-3.472 11.56-.428 4.49 2.986 7.39 1.996 10.3 1.006m-21.86-25.868c1.73 1.01 6.98 3.472 11.56.427 4.49-2.985 7.39-1.995 10.3-1.005m31.8 25.868c-1.73-1.01-6.98-3.472-11.56-.428-4.49 2.986-7.39 1.996-10.3 1.006m-32.63-13.053h56.34m-28.17 6.676V91.257m107.52-6.14c-1.74 1.01-6.99 3.473-11.56.428-4.49-2.985-7.4-1.995-10.3-1.005m-31.81 25.868c1.74-1.01 6.99-3.472 11.56-.428 4.49 2.986 7.4 1.996 10.3 1.006m-21.86-25.868c1.74 1.01 6.99 3.472 11.56.427 4.49-2.985 7.4-1.995 10.3-1.005m31.81 25.868c-1.74-1.01-6.99-3.472-11.56-.428-4.49 2.986-7.4 1.996-10.3 1.006m-32.64-13.053h56.34m-28.17 6.676V91.257m107.52-6.14c-1.74 1.01-6.98 3.473-11.56.428-4.49-2.985-7.4-1.995-10.3-1.005m-31.8 25.868c1.73-1.01 6.98-3.472 11.56-.428 4.49 2.986 7.39 1.996 10.3 1.006m-21.86-25.868c1.73 1.01 6.98 3.472 11.56.427 4.49-2.985 7.39-1.995 10.3-1.005m31.8 25.868c-1.74-1.01-6.98-3.472-11.56-.428-4.49 2.986-7.4 1.996-10.3 1.006m-32.63-13.053h56.34m-28.17 6.676V91.257M70.055 321.144c-1.737 1.01-6.983 3.472-11.562.428-4.489-2.986-7.394-1.996-10.299-1.006m-31.803 25.868c1.736-1.01 6.983-3.472 11.561-.427 4.49 2.985 7.395 1.995 10.3 1.005m-21.86-25.868c1.735 1.01 6.982 3.472 11.56.428 4.49-2.986 7.395-1.996 10.3-1.006m31.803 25.868c-1.737-1.01-6.983-3.472-11.562-.427-4.489 2.985-7.394 1.995-10.299 1.005m-32.631-13.053H71.9m-28.169 6.676v-13.351m107.517-6.14c-1.736 1.01-6.983 3.472-11.561.428-4.49-2.986-7.395-1.996-10.3-1.006m-31.803 25.868c1.736-1.009 6.983-3.472 11.561-.427 4.49 2.985 7.395 1.995 10.3 1.005m-21.86-25.868c1.735 1.01 6.982 3.472 11.56.428 4.49-2.986 7.395-1.996 10.3-1.006m31.803 25.868c-1.736-1.009-6.983-3.472-11.561-.427-4.49 2.985-7.395 1.995-10.3 1.005m-32.631-13.053h56.338m-28.169 6.676v-13.351m107.516-6.14c-1.736 1.01-6.983 3.472-11.561.428-4.489-2.986-7.394-1.996-10.299-1.006m-31.803 25.868c1.736-1.009 6.983-3.472 11.561-.427 4.489 2.985 7.394 1.995 10.299 1.005m-21.86-25.868c1.736 1.01 6.983 3.472 11.561.428 4.489-2.986 7.394-1.996 10.299-1.006m31.803 25.868c-1.736-1.009-6.983-3.472-11.561-.427-4.489 2.985-7.394 1.995-10.299 1.005m-32.632-13.053h56.339m-28.169 6.676v-13.351M561.88 321.144c-1.736 1.01-6.983 3.472-11.561.428-4.49-2.986-7.395-1.996-10.3-1.006m-31.803 25.868c1.736-1.01 6.983-3.472 11.561-.427 4.49 2.985 7.395 1.995 10.3 1.005m-21.861-25.868c1.736 1.01 6.983 3.472 11.561.428 4.49-2.986 7.395-1.996 10.3-1.006m31.803 25.868c-1.736-1.01-6.983-3.472-11.561-.427-4.49 2.985-7.395 1.995-10.3 1.005m-32.631-13.053h56.338m-28.169 6.676v-13.351m107.517-6.14c-1.736 1.01-6.983 3.472-11.561.428-4.49-2.986-7.395-1.996-10.3-1.006m-31.803 25.868c1.737-1.009 6.983-3.472 11.561-.427 4.49 2.985 7.395 1.995 10.3 1.005m-21.861-25.868c1.737 1.01 6.983 3.472 11.561.428 4.49-2.986 7.395-1.996 10.3-1.006m31.803 25.868c-1.736-1.009-6.983-3.472-11.561-.427-4.49 2.985-7.395 1.995-10.3 1.005m-32.631-13.053h56.338m-28.169 6.676v-13.351m107.516-6.14c-1.736 1.01-6.983 3.472-11.561.428-4.489-2.986-7.394-1.996-10.299-1.006m-31.803 25.868c1.736-1.009 6.983-3.472 11.561-.427 4.489 2.985 7.394 1.995 10.299 1.005m-21.86-25.868c1.736 1.01 6.983 3.472 11.561.428 4.489-2.986 7.394-1.996 10.299-1.006m31.803 25.868c-1.736-1.009-6.983-3.472-11.561-.427-4.489 2.985-7.394 1.995-10.299 1.005m-32.631-13.053h56.338m-28.169 6.676v-13.351M1087.07 321.144c-1.74 1.01-6.98 3.472-11.56.428-4.49-2.986-7.4-1.996-10.3-1.006m-31.8 25.868c1.73-1.01 6.98-3.472 11.56-.427 4.49 2.985 7.39 1.995 10.3 1.005m-21.86-25.868c1.73 1.01 6.98 3.472 11.56.428 4.49-2.986 7.39-1.996 10.3-1.006m31.8 25.868c-1.74-1.01-6.98-3.472-11.56-.427-4.49 2.985-7.4 1.995-10.3 1.005m-32.63-13.053h56.34m-28.17 6.676v-13.351m107.51-6.14c-1.73 1.01-6.98 3.472-11.56.428-4.49-2.986-7.39-1.996-10.3-1.006m-31.8 25.868c1.74-1.009 6.98-3.472 11.56-.427 4.49 2.985 7.4 1.995 10.3 1.005m-21.86-25.868c1.74 1.01 6.98 3.472 11.56.428 4.49-2.986 7.4-1.996 10.3-1.006m31.8 25.868c-1.73-1.009-6.98-3.472-11.56-.427-4.49 2.985-7.39 1.995-10.3 1.005m-32.63-13.053h56.34m-28.17 6.676v-13.351m107.52-6.14c-1.74 1.01-6.99 3.472-11.56.428-4.49-2.986-7.4-1.996-10.3-1.006m-31.81 25.868c1.74-1.009 6.99-3.472 11.57-.427 4.48 2.985 7.39 1.995 10.29 1.005m-21.86-25.868c1.74 1.01 6.99 3.472 11.57.428 4.48-2.986 7.39-1.996 10.29-1.006m31.81 25.868c-1.74-1.009-6.99-3.472-11.56-.427-4.49 2.985-7.4 1.995-10.3 1.005m-32.63-13.053h56.33m-28.16 6.676v-13.351M315.967 321.144c-1.736 1.01-6.983 3.472-11.561.428-4.489-2.986-7.394-1.996-10.299-1.006m-31.803 25.868c1.736-1.01 6.983-3.472 11.561-.427 4.489 2.985 7.394 1.995 10.299 1.005m-21.86-25.868c1.736 1.01 6.983 3.472 11.561.428 4.489-2.986 7.394-1.996 10.299-1.006m31.803 25.868c-1.736-1.01-6.983-3.472-11.561-.427-4.489 2.985-7.394 1.995-10.299 1.005m-32.632-13.053h56.339m-28.169 6.676v-13.351m107.516-6.14c-1.736 1.01-6.983 3.472-11.561.428-4.489-2.986-7.394-1.996-10.299-1.006m-31.803 25.868c1.736-1.009 6.983-3.472 11.561-.427 4.489 2.985 7.394 1.995 10.299 1.005m-21.86-25.868c1.736 1.01 6.983 3.472 11.561.428 4.489-2.986 7.394-1.996 10.299-1.006m31.803 25.868c-1.736-1.009-6.983-3.472-11.561-.427-4.489 2.985-7.394 1.995-10.299 1.005m-32.632-13.053h56.339m-28.169 6.676v-13.351m107.516-6.14c-1.736 1.01-6.983 3.472-11.561.428-4.489-2.986-7.395-1.996-10.3-1.006m-31.803 25.868c1.737-1.009 6.983-3.472 11.562-.427 4.489 2.985 7.394 1.995 10.299 1.005m-21.861-25.868c1.737 1.01 6.983 3.472 11.562.428 4.489-2.986 7.394-1.996 10.299-1.006m31.803 25.868c-1.736-1.009-6.983-3.472-11.561-.427-4.489 2.985-7.395 1.995-10.3 1.005m-32.631-13.053h56.338m-28.169 6.676v-13.351M807.792 321.144c-1.736 1.01-6.983 3.472-11.561.428-4.489-2.986-7.394-1.996-10.299-1.006m-31.803 25.868c1.736-1.01 6.983-3.472 11.561-.427 4.489 2.985 7.394 1.995 10.299 1.005m-21.86-25.868c1.736 1.01 6.983 3.472 11.561.428 4.489-2.986 7.394-1.996 10.299-1.006m31.803 25.868c-1.736-1.01-6.983-3.472-11.561-.427-4.489 2.985-7.394 1.995-10.299 1.005M753.3 333.959h56.339m-28.169 6.676v-13.351m107.516-6.14c-1.736 1.01-6.983 3.472-11.561.428-4.489-2.986-7.394-1.996-10.299-1.006m-31.803 25.868c1.736-1.009 6.983-3.472 11.561-.427 4.489 2.985 7.394 1.995 10.299 1.005m-21.86-25.868c1.736 1.01 6.983 3.472 11.561.428 4.489-2.986 7.394-1.996 10.299-1.006m31.803 25.868c-1.736-1.009-6.983-3.472-11.561-.427-4.489 2.985-7.394 1.995-10.299 1.005m-32.632-13.053h56.339m-28.169 6.676v-13.351m107.516-6.14c-1.736 1.01-6.983 3.472-11.561.428-4.489-2.986-7.394-1.996-10.299-1.006m-31.803 25.868c1.736-1.009 6.983-3.472 11.561-.427 4.489 2.985 7.394 1.995 10.299 1.005m-21.86-25.868c1.736 1.01 6.983 3.472 11.561.428 4.489-2.986 7.394-1.996 10.299-1.006m31.803 25.868c-1.736-1.009-6.983-3.472-11.561-.427-4.489 2.985-7.394 1.995-10.299 1.005m-32.632-13.053h56.339m-28.169 6.676v-13.351M1332.98 321.144c-1.73 1.01-6.98 3.472-11.56.428-4.49-2.986-7.39-1.996-10.3-1.006m-31.8 25.868c1.73-1.01 6.98-3.472 11.56-.427 4.49 2.985 7.39 1.995 10.3 1.005m-21.86-25.868c1.73 1.01 6.98 3.472 11.56.428 4.49-2.986 7.39-1.996 10.3-1.006m31.8 25.868c-1.73-1.01-6.98-3.472-11.56-.427-4.49 2.985-7.39 1.995-10.3 1.005m-32.63-13.053h56.34m-28.17 6.676v-13.351m107.52-6.14c-1.74 1.01-6.99 3.472-11.56.428-4.49-2.986-7.4-1.996-10.3-1.006m-31.81 25.868c1.74-1.009 6.99-3.472 11.56-.427 4.49 2.985 7.4 1.995 10.3 1.005m-21.86-25.868c1.74 1.01 6.99 3.472 11.56.428 4.49-2.986 7.4-1.996 10.3-1.006m31.81 25.868c-1.74-1.009-6.99-3.472-11.56-.427-4.49 2.985-7.4 1.995-10.3 1.005m-32.64-13.053h56.34m-28.17 6.676v-13.351m107.52-6.14c-1.74 1.01-6.98 3.472-11.56.428-4.49-2.986-7.4-1.996-10.3-1.006m-31.8 25.868c1.73-1.009 6.98-3.472 11.56-.427 4.49 2.985 7.39 1.995 10.3 1.005m-21.86-25.868c1.73 1.01 6.98 3.472 11.56.428 4.49-2.986 7.39-1.996 10.3-1.006m31.8 25.868c-1.74-1.009-6.98-3.472-11.56-.427-4.49 2.985-7.4 1.995-10.3 1.005m-32.63-13.053h56.34m-28.17 6.676v-13.351M70.055 204.984c-1.737 1.01-6.983 3.472-11.562.428-4.489-2.986-7.394-1.996-10.299-1.006m-31.803 25.868c1.736-1.01 6.983-3.472 11.561-.428 4.49 2.986 7.395 1.996 10.3 1.006m-21.86-25.868c1.735 1.01 6.982 3.472 11.56.428 4.49-2.986 7.395-1.996 10.3-1.006m31.803 25.868c-1.737-1.01-6.983-3.472-11.562-.428-4.489 2.986-7.394 1.996-10.299 1.006m-32.631-13.053H71.9m-28.169 6.676v-13.351m107.517-6.14c-1.736 1.01-6.983 3.472-11.561.428-4.49-2.986-7.395-1.996-10.3-1.006m-31.803 25.868c1.736-1.01 6.983-3.472 11.561-.428 4.49 2.986 7.395 1.996 10.3 1.006m-21.86-25.868c1.735 1.01 6.982 3.472 11.56.428 4.49-2.986 7.395-1.996 10.3-1.006m31.803 25.868c-1.736-1.01-6.983-3.472-11.561-.428-4.49 2.986-7.395 1.996-10.3 1.006m-32.631-13.053h56.338m-28.169 6.676v-13.351m107.516-6.14c-1.736 1.01-6.983 3.472-11.561.428-4.489-2.986-7.394-1.996-10.299-1.006m-31.803 25.868c1.736-1.01 6.983-3.472 11.561-.428 4.489 2.986 7.394 1.996 10.299 1.006m-21.86-25.868c1.736 1.01 6.983 3.472 11.561.428 4.489-2.986 7.394-1.996 10.299-1.006m31.803 25.868c-1.736-1.01-6.983-3.472-11.561-.428-4.489 2.986-7.394 1.996-10.299 1.006m-32.632-13.053h56.339m-28.169 6.676v-13.351M561.88 204.984c-1.736 1.01-6.983 3.472-11.561.428-4.49-2.986-7.395-1.996-10.3-1.006m-31.803 25.868c1.736-1.01 6.983-3.472 11.561-.428 4.49 2.986 7.395 1.996 10.3 1.006m-21.861-25.868c1.736 1.01 6.983 3.472 11.561.428 4.49-2.986 7.395-1.996 10.3-1.006m31.803 25.868c-1.736-1.01-6.983-3.472-11.561-.428-4.49 2.986-7.395 1.996-10.3 1.006m-32.631-13.053h56.338m-28.169 6.676v-13.351m107.517-6.14c-1.736 1.01-6.983 3.472-11.561.428-4.49-2.986-7.395-1.996-10.3-1.006m-31.803 25.868c1.737-1.01 6.983-3.472 11.561-.428 4.49 2.986 7.395 1.996 10.3 1.006m-21.861-25.868c1.737 1.01 6.983 3.472 11.561.428 4.49-2.986 7.395-1.996 10.3-1.006m31.803 25.868c-1.736-1.01-6.983-3.472-11.561-.428-4.49 2.986-7.395 1.996-10.3 1.006m-32.631-13.053h56.338m-28.169 6.676v-13.351m107.516-6.14c-1.736 1.01-6.983 3.472-11.561.428-4.489-2.986-7.394-1.996-10.299-1.006m-31.803 25.868c1.736-1.01 6.983-3.472 11.561-.428 4.489 2.986 7.394 1.996 10.299 1.006m-21.86-25.868c1.736 1.01 6.983 3.472 11.561.428 4.489-2.986 7.394-1.996 10.299-1.006m31.803 25.868c-1.736-1.01-6.983-3.472-11.561-.428-4.489 2.986-7.394 1.996-10.299 1.006m-32.631-13.053h56.338m-28.169 6.676v-13.351M1087.07 204.984c-1.74 1.01-6.98 3.472-11.56.428-4.49-2.986-7.4-1.996-10.3-1.006m-31.8 25.868c1.73-1.01 6.98-3.472 11.56-.428 4.49 2.986 7.39 1.996 10.3 1.006m-21.86-25.868c1.73 1.01 6.98 3.472 11.56.428 4.49-2.986 7.39-1.996 10.3-1.006m31.8 25.868c-1.74-1.01-6.98-3.472-11.56-.428-4.49 2.986-7.4 1.996-10.3 1.006m-32.63-13.053h56.34m-28.17 6.676v-13.351m107.51-6.14c-1.73 1.01-6.98 3.472-11.56.428-4.49-2.986-7.39-1.996-10.3-1.006m-31.8 25.868c1.74-1.01 6.98-3.472 11.56-.428 4.49 2.986 7.4 1.996 10.3 1.006m-21.86-25.868c1.74 1.01 6.98 3.472 11.56.428 4.49-2.986 7.4-1.996 10.3-1.006m31.8 25.868c-1.73-1.01-6.98-3.472-11.56-.428-4.49 2.986-7.39 1.996-10.3 1.006m-32.63-13.053h56.34m-28.17 6.676v-13.351m107.52-6.14c-1.74 1.01-6.99 3.472-11.56.428-4.49-2.986-7.4-1.996-10.3-1.006m-31.81 25.868c1.74-1.01 6.99-3.472 11.57-.428 4.48 2.986 7.39 1.996 10.29 1.006m-21.86-25.868c1.74 1.01 6.99 3.472 11.57.428 4.48-2.986 7.39-1.996 10.29-1.006m31.81 25.868c-1.74-1.01-6.99-3.472-11.56-.428-4.49 2.986-7.4 1.996-10.3 1.006m-32.63-13.053h56.33m-28.16 6.676v-13.351M315.967 204.984c-1.736 1.01-6.983 3.472-11.561.428-4.489-2.986-7.394-1.996-10.299-1.006m-31.803 25.868c1.736-1.01 6.983-3.472 11.561-.428 4.489 2.986 7.394 1.996 10.299 1.006m-21.86-25.868c1.736 1.01 6.983 3.472 11.561.428 4.489-2.986 7.394-1.996 10.299-1.006m31.803 25.868c-1.736-1.01-6.983-3.472-11.561-.428-4.489 2.986-7.394 1.996-10.299 1.006m-32.632-13.053h56.339m-28.169 6.676v-13.351m107.516-6.14c-1.736 1.01-6.983 3.472-11.561.428-4.489-2.986-7.394-1.996-10.299-1.006m-31.803 25.868c1.736-1.01 6.983-3.472 11.561-.428 4.489 2.986 7.394 1.996 10.299 1.006m-21.86-25.868c1.736 1.01 6.983 3.472 11.561.428 4.489-2.986 7.394-1.996 10.299-1.006m31.803 25.868c-1.736-1.01-6.983-3.472-11.561-.428-4.489 2.986-7.394 1.996-10.299 1.006m-32.632-13.053h56.339m-28.169 6.676v-13.351m107.516-6.14c-1.736 1.01-6.983 3.472-11.561.428-4.489-2.986-7.395-1.996-10.3-1.006m-31.803 25.868c1.737-1.01 6.983-3.472 11.562-.428 4.489 2.986 7.394 1.996 10.299 1.006m-21.861-25.868c1.737 1.01 6.983 3.472 11.562.428 4.489-2.986 7.394-1.996 10.299-1.006m31.803 25.868c-1.736-1.01-6.983-3.472-11.561-.428-4.489 2.986-7.395 1.996-10.3 1.006m-32.631-13.053h56.338m-28.169 6.676v-13.351M807.792 204.984c-1.736 1.01-6.983 3.472-11.561.428-4.489-2.986-7.394-1.996-10.299-1.006m-31.803 25.868c1.736-1.01 6.983-3.472 11.561-.428 4.489 2.986 7.394 1.996 10.299 1.006m-21.86-25.868c1.736 1.01 6.983 3.472 11.561.428 4.489-2.986 7.394-1.996 10.299-1.006m31.803 25.868c-1.736-1.01-6.983-3.472-11.561-.428-4.489 2.986-7.394 1.996-10.299 1.006M753.3 217.799h56.339m-28.169 6.676v-13.351m107.516-6.14c-1.736 1.01-6.983 3.472-11.561.428-4.489-2.986-7.394-1.996-10.299-1.006m-31.803 25.868c1.736-1.01 6.983-3.472 11.561-.428 4.489 2.986 7.394 1.996 10.299 1.006m-21.86-25.868c1.736 1.01 6.983 3.472 11.561.428 4.489-2.986 7.394-1.996 10.299-1.006m31.803 25.868c-1.736-1.01-6.983-3.472-11.561-.428-4.489 2.986-7.394 1.996-10.299 1.006m-32.632-13.053h56.339m-28.169 6.676v-13.351m107.516-6.14c-1.736 1.01-6.983 3.472-11.561.428-4.489-2.986-7.394-1.996-10.299-1.006m-31.803 25.868c1.736-1.01 6.983-3.472 11.561-.428 4.489 2.986 7.394 1.996 10.299 1.006m-21.86-25.868c1.736 1.01 6.983 3.472 11.561.428 4.489-2.986 7.394-1.996 10.299-1.006m31.803 25.868c-1.736-1.01-6.983-3.472-11.561-.428-4.489 2.986-7.394 1.996-10.299 1.006m-32.632-13.053h56.339m-28.169 6.676v-13.351M1332.98 204.984c-1.73 1.01-6.98 3.472-11.56.428-4.49-2.986-7.39-1.996-10.3-1.006m-31.8 25.868c1.73-1.01 6.98-3.472 11.56-.428 4.49 2.986 7.39 1.996 10.3 1.006m-21.86-25.868c1.73 1.01 6.98 3.472 11.56.428 4.49-2.986 7.39-1.996 10.3-1.006m31.8 25.868c-1.73-1.01-6.98-3.472-11.56-.428-4.49 2.986-7.39 1.996-10.3 1.006m-32.63-13.053h56.34m-28.17 6.676v-13.351m107.52-6.14c-1.74 1.01-6.99 3.472-11.56.428-4.49-2.986-7.4-1.996-10.3-1.006m-31.81 25.868c1.74-1.01 6.99-3.472 11.56-.428 4.49 2.986 7.4 1.996 10.3 1.006m-21.86-25.868c1.74 1.01 6.99 3.472 11.56.428 4.49-2.986 7.4-1.996 10.3-1.006m31.81 25.868c-1.74-1.01-6.99-3.472-11.56-.428-4.49 2.986-7.4 1.996-10.3 1.006m-32.64-13.053h56.34m-28.17 6.676v-13.351m107.52-6.14c-1.74 1.01-6.98 3.472-11.56.428-4.49-2.986-7.4-1.996-10.3-1.006m-31.8 25.868c1.73-1.01 6.98-3.472 11.56-.428 4.49 2.986 7.39 1.996 10.3 1.006m-21.86-25.868c1.73 1.01 6.98 3.472 11.56.428 4.49-2.986 7.39-1.996 10.3-1.006m31.8 25.868c-1.74-1.01-6.98-3.472-11.56-.428-4.49 2.986-7.4 1.996-10.3 1.006m-32.63-13.053h56.34m-28.17 6.676v-13.351" stroke="#fff" stroke-opacity=".03" stroke-width="4" stroke-linejoin="round"/></svg>