<svg width="411" height="487" fill="none" xmlns="http://www.w3.org/2000/svg"><path d="M194.823 455.524c-.692-16.278 11.943-30.034 28.221-30.726l225.35-9.576c16.277-.692 30.034 11.943 30.725 28.221l1.253 29.473-254.823 10.829c-16.278.692-30.034-11.943-30.726-28.221Z" fill="#EF9A5D"/><path d="M171.58 440.497c-.692-16.277 11.943-30.034 28.221-30.726l247.913-10.535c16.277-.691 30.034 11.943 30.725 28.221l1.253 29.474-277.386 11.787c-16.278.692-30.035-11.943-30.726-28.221Z" fill="#EF5DA8"/><path d="M148.252 423.472c-.691-16.277 11.944-30.034 28.221-30.725l270.477-11.494c16.277-.692 30.034 11.943 30.726 28.22l1.252 29.474-299.95 12.746c-16.277.692-30.034-11.943-30.726-28.221Z" fill="#5DA0EF"/><path d="M208.531 31.852c.67 16.279-11.983 30.018-28.262 30.688L4.062 69.793c-16.279.67-30.019-11.983-30.689-28.261l-1.213-29.475L177.843 3.59c16.278-.67 30.018 11.983 30.688 28.262Z" fill="#EF9A5D"/><path d="M227.852 47.07c.67 16.279-11.983 30.019-28.262 30.689L4.72 85.779C-11.56 86.45-25.3 73.798-25.97 57.52l-1.213-29.476 224.346-9.235c16.278-.67 30.018 11.984 30.688 28.262Z" fill="#EF5DA8"/><path d="M247.256 64.287c.67 16.279-11.984 30.018-28.262 30.688L5.46 103.765c-16.279.67-30.019-11.983-30.689-28.262l-1.213-29.475 243.009-10.003c16.279-.67 30.018 11.983 30.689 28.262Z" fill="#5DA0EF"/><path fill="#fff" d="m-22 62.246 441.676-18.221 15.817 383.388-441.676 18.22z"/></svg>