<svg width="391" height="250" fill="none" xmlns="http://www.w3.org/2000/svg"><path d="M74.983.865h-26.52v121.622h16.64V36.483h.347l13.866 86.004h18.027l12.827-87.22h.347v87.22h18.027V.865h-26.521L89.197 87.217h-.347L74.983.865ZM161.48 18.24h32.934V.865h-52.001v121.622h52.001v-17.375H161.48V69.495h26.174V52.12H161.48V18.24ZM225.297 18.24h32.933V.865h-52v121.622h52v-17.375h-32.933V69.495h26.173V52.12h-26.173V18.24ZM264.499 18.24h19.934v104.247H303.5V18.24h19.933V.865h-58.934V18.24Z" fill="#E0E0E0"/><path d="M59.91 241.943c-1.802-5.782-3.234-11.93-4.294-18.441-.969-6.615-1.716-12.802-2.243-18.559-.852.539-1.54 1.363-2.065 2.472a24.865 24.865 0 0 0-1.428 3.32 79.23 79.23 0 0 1-1.127 3.449c-.427 1.103-.96 2.066-1.6 2.887a62.477 62.477 0 0 1-6.929 7.461c-2.522 2.205-5.592 3.411-9.21 3.619-2.933.168-5.903-.299-8.91-1.402a31.056 31.056 0 0 1-8.058-4.541 29.162 29.162 0 0 1-5.994-7.013 19.133 19.133 0 0 1-2.55-8.536c-.242-4.204.199-8.497 1.32-12.877 1.117-4.479 2.547-8.632 4.289-12.46.352-.706.882-1.718 1.592-3.034l2.404-4.258c.9-1.425 1.71-2.698 2.43-3.818.715-1.218 1.21-1.982 1.487-2.293l15.018-17.783c2.022-2.373 4.619-4.14 7.79-5.303 3.262-1.266 6.305-2.079 9.13-2.437 1.455-.28 2.691-.105 3.708.523 1.012.531 1.56 1.529 1.644 2.996.067 1.173-.368 2.13-1.307 2.871-.846.637-1.894 1.187-3.142 1.651-1.25.464-2.547.931-3.893 1.401-1.352.372-2.405.825-3.16 1.358a92.448 92.448 0 0 0-13.263 15.035 130.989 130.989 0 0 0-10.359 16.928 192.438 192.438 0 0 1-2.81 10.02c-.993 3.196-1.383 6.652-1.17 10.367l.117 2.053c.154.973.24 1.605.256 1.899 1.113 2.29 2.703 4.357 4.77 6.2 2.166 1.838 4.618 2.679 7.356 2.521 1.369-.078 2.761-.599 4.177-1.564 1.416-.964 2.48-2.104 3.188-3.42.363-.511.992-1.528 1.885-3.051a98.313 98.313 0 0 0 2.664-4.862c.98-1.723 1.869-3.344 2.664-4.861.894-1.523 1.47-2.586 1.73-3.189.26-.604.609-1.36 1.047-2.268a25.87 25.87 0 0 0 1.307-2.871c.438-.908.785-1.712 1.039-2.413.346-.805.516-1.256.51-1.354l-.033-.587a62.3 62.3 0 0 1-4.048 1.262c-1.357.275-2.77.454-4.236.538-.88.05-1.86.058-2.942.022a16.799 16.799 0 0 1-2.984-.712 7.757 7.757 0 0 1-2.439-1.479c-.626-.651-.972-1.563-1.04-2.736a12.733 12.733 0 0 1 .046-1.768c.059-.69.223-1.239.494-1.647.743-.73 1.742-1.277 2.996-1.644a20.448 20.448 0 0 1 4.211-.977 79.595 79.595 0 0 1 4.521-.701c1.554-.285 2.952-.709 4.195-1.271a128.441 128.441 0 0 0 3.729-1.685 63.528 63.528 0 0 1 4.437-2.168 51.06 51.06 0 0 1 4.886-2.046c1.634-.584 3.13-1.013 4.488-1.287.293-.017.69.058 1.19.226.597.162 1.198.372 1.802.632.603.26 1.112.574 1.525.943.408.27.62.553.637.846.124 2.151-.376 3.7-1.499 4.647-1.128.85-2.588 1.915-4.378 3.195.518 3.894.596 7.813.233 11.758a94.674 94.674 0 0 0-.06 11.775c.27 4.694.642 9.479 1.118 14.357a111.419 111.419 0 0 0 2.283 14.142c.11.19.284.67.524 1.441l.738 2.607c.344.863.636 1.68.877 2.451.24.771.366 1.254.377 1.45l.017.293c.079 1.369-.383 2.72-1.386 4.053-.9 1.425-2.033 2.176-3.402 2.255-1.467.084-2.913-.323-4.337-1.223-1.328-.905-2.177-2.033-2.55-3.385ZM87 193.449a113.486 113.486 0 0 0-1.644-2.996c-.338-.766-.538-1.686-.6-2.762-.05-.88.002-1.667.159-2.363a7.057 7.057 0 0 0 .297-2.519 57.686 57.686 0 0 0-.639-5.996 182.614 182.614 0 0 0-.793-6.135c-.115-.287-.471-.512-1.069-.674a24.827 24.827 0 0 1-1.949-.624c-.707-.352-1.373-.853-1.999-1.504-.528-.656-.829-1.62-.901-2.891-.068-1.174.12-2.165.565-2.976a24.522 24.522 0 0 1 1.625-2.447 33.72 33.72 0 0 0 1.478-2.439c.537-.914.771-1.958.704-3.131-.028-.489-.128-1.366-.298-2.631a900.672 900.672 0 0 1-.538-4.237 53.787 53.787 0 0 0-.382-4.098l-.16-2.787-.017-.293-.017-.293c.341-.903.592-1.653.754-2.251.26-.603.528-1.06.804-1.37.277-.31.657-.528 1.14-.654.478-.224 1.108-.358 1.89-.403 2.053-.118 3.591.186 4.614.912 1.022.727 1.76 1.616 2.213 2.669.447.956.745 1.87.893 2.745.148.874.421 1.349.818 1.424l10.029-9.845.587-.034c3.293-2.445 6.813-4.364 10.559-5.756 3.74-1.49 7.712-2.356 11.917-2.597 1.271-.073 2.795-.013 4.572.179 1.874.187 3.616.627 5.226 1.319 1.701.589 3.123 1.439 4.266 2.551 1.241 1.106 1.912 2.539 2.013 4.299.112 1.956-.018 3.974-.389 6.055a37.905 37.905 0 0 1-1.7 6.278c-.67 2-1.538 3.963-2.605 5.888-.974 1.822-2.061 3.405-3.259 4.749-.427 1.103-3.399 4.021-8.915 8.752a28635.566 28635.566 0 0 1-24.685 21.134l70.651.36c.984.042 2.309.064 3.977.067 1.76-.101 3.431-.05 5.012.153 1.679.198 3.13.704 4.354 1.516 1.218.715 1.875 1.904 1.97 3.566.051.88-.054 1.622-.313 2.225-.168.5-.436.957-.805 1.371-.276.31-.65.626-1.122.947-.375.316-.743.729-1.106 1.241l-2.494.143-2.493.143c-1.967-.084-4.034-.21-6.202-.38-2.07-.176-4.534-.378-7.392-.606-2.76-.234-6.009-.44-9.747-.618-3.738-.178-8.207-.265-13.406-.261-5.199.004-11.275.108-18.228.31-6.856.198-14.83.557-23.923 1.079-.098.005-.237.161-.415.465-.081.299-.116.546-.105.742a68.75 68.75 0 0 0 1.511 10.949 55.257 55.257 0 0 1 1.633 10.501c.039.685-.014 1.472-.159 2.364a7.26 7.26 0 0 1-.598 2.388 6.438 6.438 0 0 1-1.366 1.845c-.559.522-1.278.809-2.158.859-.587.034-1.277-.025-2.07-.175a13.203 13.203 0 0 1-2.414-1.039 15.172 15.172 0 0 1-2-1.504c-.62-.553-1.001-1.218-1.144-1.994L87 193.449Zm7.966-32.977c.14 2.444.321 4.739.542 6.885.221 2.145.503 4.483.844 7.014l.44-.025c.098-.006.337-.117.717-.335.38-.218 1.324-.861 2.832-1.929a676.207 676.207 0 0 1 6.909-5.252 1877.2 1877.2 0 0 1 13.101-10.169c1.134-.752 2.338-1.998 3.611-3.739a44.674 44.674 0 0 0 3.502-5.645c1.061-2.023 1.93-3.986 2.605-5.889.67-2 .969-3.636.896-4.907-.056-.978-.573-1.438-1.551-1.382l-2.346.134c-1.467.084-3.115.424-4.945 1.02-1.83.595-4.022 1.702-6.578 3.32-2.458 1.613-5.418 3.892-8.878 6.837-3.363 2.94-7.308 6.845-11.836 11.715l.135 2.347ZM201.699 217.768c-1.203-3.855-2.146-7.479-2.832-10.873a127.896 127.896 0 0 1-1.666-11.088c-.227-2.243-.336-4.15-.328-5.72.002-1.668-.297-3.465-.898-5.393-.12-.385-.382-.665-.784-.838a22.796 22.796 0 0 1-1.069-.674 9.712 9.712 0 0 1-.939-.976c-.321-.472-.51-1.197-.566-2.175-.045-.782.063-1.475.322-2.079.358-.609.669-1.166.934-1.672.358-.609.666-1.215.926-1.819.352-.707.503-1.5.452-2.38l-.126-2.2c-.056-.978-.249-2.634-.58-4.97-.33-2.335-.668-4.817-1.015-7.446a821.217 821.217 0 0 0-1.016-7.446c-.233-2.341-.423-3.949-.571-4.823-.193-1.657-.718-3.098-1.573-4.325-.855-1.226-1.33-2.67-1.425-4.332-.18-3.129.329-5.366 1.527-6.71 1.199-1.344 3.411-2.108 6.638-2.293.684-.04 1.239.223 1.663.787.523.559 1.078.821 1.664.788l.587-.034c.288-.115.722-.238 1.303-.369.576-.229.961-.35 1.157-.361a8660.85 8660.85 0 0 1 18.741-9.315c4.484-2.22 7.873-3.837 10.17-4.851 2.296-1.015 3.832-1.594 4.609-1.736.874-.148 1.613-.093 2.216.167 1.185.128 1.99.474 2.414 1.039.517.46.807 1.229.868 2.304a10.16 10.16 0 0 1-.271 2.959c-.238.994-.88 1.767-1.927 2.317l-18.683 10.343-.553.62-15.738 7.819c-.575.229-.889.738-.942 1.526-.053.787-.066 1.426-.038 1.915.045.782.224 2.194.538 4.236.313 2.042.632 4.182.957 6.42.319 2.14.626 4.084.923 5.833.389 1.645.632 2.465.73 2.459l.146-.008.139-.155c1.03-.844 2.666-2.262 4.906-4.255a460.719 460.719 0 0 1 6.85-6.279c2.332-2.095 4.385-3.93 6.158-5.503 1.768-1.671 2.701-2.51 2.799-2.515 1.076-.062 2.084.42 3.026 1.445.942 1.025 1.446 2.124 1.513 3.297.068 1.174-.101 2.508-.506 4.002-.404 1.495-1.122 2.664-2.153 3.508l-21.71 21.7.042.733c.028.489.01 1.029-.054 1.622l.11 1.906.084 1.467c.202 3.52.648 7.026 1.339 10.518a73.697 73.697 0 0 1 1.331 10.371l.586-.034c.098-.005.516-.422 1.253-1.249.737-.827 1.288-1.496 1.651-2.007.178-.305.582-.966 1.21-1.983a662.084 662.084 0 0 0 3.536-5.059 2953.55 2953.55 0 0 1 6.526-9.35c2.721-3.884 6.216-8.793 10.486-14.728.368-.413.873-1.031 1.512-1.852.737-.828 1.204-1.247 1.399-1.258.277-.31.858-.442 1.744-.394.977-.056 1.667.002 2.07.175.5.168 1.166.669 1.999 1.504.833.835 1.271 1.644 1.316 2.426.068 1.173-.478 2.774-1.637 4.803-1.067 1.925-2.372 3.962-3.917 6.11a324.187 324.187 0 0 1-4.641 6.3c-1.556 1.953-2.74 3.541-3.553 4.765a1213.13 1213.13 0 0 0-4.532 8.206 89.22 89.22 0 0 1-5.655 9.154 43.33 43.33 0 0 1-7.067 7.615c-2.528 2.107-5.308 3.248-8.339 3.422-1.466.084-2.556-.099-3.268-.548-.615-.456-1.448-1.291-2.498-2.506ZM263.591 214.217c-1.202-3.855-2.146-7.48-2.831-10.874a127.487 127.487 0 0 1-1.666-11.087c-.227-2.244-.336-4.15-.328-5.72.002-1.668-.297-3.466-.899-5.393-.12-.386-.381-.665-.783-.838a23.222 23.222 0 0 1-1.069-.675 9.502 9.502 0 0 1-.939-.976c-.321-.472-.51-1.197-.566-2.174-.045-.783.062-1.475.322-2.079a40.53 40.53 0 0 0 .934-1.672c.358-.609.666-1.216.926-1.819.352-.707.502-1.5.452-2.38l-.126-2.2c-.057-.978-.25-2.635-.58-4.97-.33-2.336-.669-4.818-1.016-7.446a792.033 792.033 0 0 0-1.016-7.447c-.232-2.341-.422-3.948-.571-4.823-.193-1.656-.717-3.098-1.572-4.324-.855-1.226-1.331-2.67-1.426-4.333-.179-3.128.33-5.365 1.528-6.709 1.198-1.344 3.411-2.108 6.637-2.294.685-.039 1.239.224 1.664.788.523.558 1.077.821 1.664.787l.587-.033c.287-.115.722-.238 1.303-.37.575-.229.961-.349 1.156-.36a8706.759 8706.759 0 0 1 18.742-9.316c4.483-2.219 7.873-3.836 10.169-4.851 2.296-1.014 3.833-1.593 4.609-1.736.875-.148 1.614-.092 2.217.168 1.185.128 1.989.474 2.414 1.038.517.461.806 1.229.868 2.305a10.15 10.15 0 0 1-.272 2.958c-.237.995-.879 1.768-1.927 2.318l-18.683 10.342-.553.621-15.737 7.819c-.576.229-.89.737-.943 1.525-.053.788-.065 1.426-.037 1.915.045.783.224 2.195.537 4.237a743.9 743.9 0 0 1 .957 6.419c.319 2.14.627 4.085.924 5.833.388 1.646.631 2.466.729 2.46l.147-.008.138-.156c1.031-.843 2.666-2.262 4.906-4.254a470.906 470.906 0 0 1 6.85-6.279c2.332-2.096 4.385-3.93 6.159-5.504 1.768-1.671 2.701-2.509 2.799-2.515 1.075-.061 2.084.42 3.025 1.446.942 1.025 1.447 2.124 1.514 3.297.067 1.173-.101 2.507-.506 4.002-.405 1.495-1.123 2.664-2.153 3.508l-21.71 21.699.042.734c.028.488.01 1.029-.054 1.621l.109 1.907.084 1.467c.202 3.52.649 7.025 1.34 10.517a73.73 73.73 0 0 1 1.33 10.372l.587-.034c.098-.006.515-.422 1.253-1.249.737-.827 1.287-1.496 1.65-2.008.179-.304.583-.965 1.211-1.982a640.91 640.91 0 0 0 3.535-5.059c1.631-2.35 3.807-5.467 6.527-9.35 2.72-3.884 6.215-8.794 10.485-14.728.369-.414.873-1.031 1.513-1.853.737-.827 1.203-1.246 1.399-1.257.277-.31.858-.442 1.743-.395.978-.056 1.668.003 2.07.176.5.167 1.167.669 1.999 1.504.833.835 1.272 1.644 1.317 2.426.067 1.173-.479 2.774-1.637 4.802-1.067 1.926-2.373 3.962-3.917 6.111a328.395 328.395 0 0 1-4.642 6.3c-1.555 1.953-2.739 3.541-3.552 4.765-1.246 2.23-2.756 4.965-4.532 8.206a89.1 89.1 0 0 1-5.655 9.153 43.306 43.306 0 0 1-7.068 7.616c-2.528 2.107-5.307 3.248-8.338 3.421-1.467.085-2.556-.098-3.269-.548-.615-.455-1.447-1.29-2.498-2.505ZM342.508 148.328a75.979 75.979 0 0 0-.609-2.908 34.839 34.839 0 0 0-.642-3.495 75.353 75.353 0 0 0-.461-2.916l-.214-1.165-1.174.067-16.433 5.946c-.444.811-1.253 1.249-2.426 1.317l-2.494.143c-1.369.078-2.82-.427-4.354-1.516-1.442-1.193-2.205-2.522-2.289-3.989-.062-1.075.222-2.122.85-3.139.721-1.12 1.607-1.907 2.66-2.36l23.184-8.834c.232-1.093.708-2.199 1.428-3.32.813-1.223 1.904-1.875 3.273-1.953 1.369-.079 2.513.199 3.432.833a12.498 12.498 0 0 0 3.319 1.428c.875-.148 2.324-.526 4.35-1.132a334.634 334.634 0 0 1 6.369-1.837 579.322 579.322 0 0 1 6.507-1.992 487.81 487.81 0 0 0 4.194-1.271c1.163-.263 2.029-.558 2.598-.885.57-.327 1.491-.527 2.762-.6 1.662-.095 3.401.296 5.217 1.172 1.816.877 2.78 2.293 2.893 4.249.073 1.271-.303 2.421-1.127 3.449-.829.93-1.871 1.579-3.125 1.945l-27.463 8.639.076 1.32a54.33 54.33 0 0 0 1.247 8.904 33.434 33.434 0 0 1 1.091 8.767l7.587 45.033.185 3.227c.068 1.173.089 2.398.064 3.675.067 1.173-.067 2.26-.402 3.26a5.278 5.278 0 0 1-1.47 2.586c-.748.631-1.905.992-3.469 1.082-1.174.067-2.473-.349-3.898-1.248-1.327-.905-2.079-2.039-2.255-3.402l-8.914-57.906-.067-1.174Z" fill="#FFBD11"/><path d="M325.974 74.404c7.077 5.42 11.149 7.94 12.217 7.558.783-.28 1.477-1.372 2.082-3.274 1.098-3.444 1.458-6.142 1.081-8.096-.855-4.19-.169-6.765 2.058-7.721 1.16-.576 2.251-.444 3.273.395 1.023.84 1.969 2.027 2.84 3.563.916 1.439 1.636 2.667 2.16 3.684.57.92 1.069 1.867 1.496 2.838.886 2.253 1.077 3.911.574 4.975-.432 1.037-1.19 1.95-2.273 2.74-.219.96-.447 2.006-.686 3.135a93.726 93.726 0 0 0-.755 3.281c-.523 2.355-.782 4.215-.776 5.578 1.633 2.548 3.691 4.261 6.173 5.14 2.05.793 3.419 1.59 4.106 2.388 1.348 1.525 1.799 3.01 1.351 4.455a20.14 20.14 0 0 1-1.463 3.655c-.504 1.063-1.495 1.659-2.976 1.786-1.48.128-2.637.26-3.471.398a5.366 5.366 0 0 1-2.411-.343c-1.689-.681-3.093-2.588-4.213-5.721a17.84 17.84 0 0 1-2.074 3.632c-.814 1.094-1.33 2.122-1.548 3.083a44.59 44.59 0 0 1-.839 2.709 13.056 13.056 0 0 1-1.235 2.609c-1.205 1.796-3.016 2.684-5.432 2.665-2.345-.045-4.273-.159-5.783-.342-1.537-.254-2.768-.216-3.693.115-.926.331-1.773.433-2.541.306a11.883 11.883 0 0 1-2.205-.777c-2.004-.89-3.721-1.2-5.15-.93-1.455.199-2.587-.159-3.396-1.075-.834-.986-1.323-2.016-1.465-3.089-.21-3.057-.864-5.674-1.963-7.851-1.125-2.248-1.848-4.158-2.169-5.729a26.897 26.897 0 0 1-.573-4.975c-.037-3.921.827-7.12 2.591-9.599.834-1.261 1.531-2.233 2.09-2.915.534-.753.963-1.348 1.289-1.785.788-1.165.569-2.452-.657-3.86a79.382 79.382 0 0 0-2.053-2.037c-2-1.775-3.29-3.362-3.87-4.76-.829-1.872-1.427-2.983-1.794-3.334-.366-.35-.905-.961-1.618-1.83-.641-.896-1.129-1.926-1.465-3.09-.336-1.165-.68-2.126-1.031-2.884-.575-1.16-.751-2.1-.527-2.823l.396-1.587c.086-.432-.087-1.254-.519-2.464-.362-1.236-.398-2.348-.108-3.334.264-1.058.541-2.08.831-3.068.061-.503.233-.806.518-.908.57-.203 1-.799 1.289-1.786.29-.986.775-1.762 1.457-2.327.656-.636 1.492-1.216 2.51-1.74a30.081 30.081 0 0 1 3.448-1.474c3.723-1.491 6.461-2.59 8.216-3.298 3.865-1.542 6.378-.915 7.539 1.883.351.757.628 1.421.832 1.99l.534 1.496c2.412.905 3.971 2.235 4.678 3.99.683 1.683.856 3.066.52 4.15-.36 1.012-.548 1.721-.564 2.128.056.382.115.883.176 1.503.036.55.062 1.183.077 1.9.036 1.674-.068 2.955-.312 3.846a30.996 30.996 0 0 1-.77 2.563 165.52 165.52 0 0 1-1.082 3.037c-1.19 3.637-2.17 7.521-2.942 11.652Zm-6.909-14.274c-.453-1.042-.99-1.533-1.61-1.472-.621.061-1.668.275-3.143.642-1.501.295-2.205.909-2.113 1.84.091.93.468 1.76 1.129 2.486.906.961 1.944 2.518 3.115 4.669.34-.845.706-1.618 1.098-2.32.437-.799.816-1.536 1.136-2.213.686-1.45.816-2.66.388-3.632Zm.362 40.102c.982 2.299 2.043 3.807 3.183 4.524 1.139.716 2.719 1.316 4.738 1.799 2.02.483 3.347.49 3.983.022.681-.565 1.124-1.125 1.327-1.679.249-.651.562-1.124.938-1.42l1.129-.885c1.083-.789 1.566-1.684 1.449-2.686-.286-2.146-2.041-3.687-5.266-4.622-1.49-.35-2.576-.806-3.258-1.365-.707-.63-1.425-1.74-2.153-3.326-1.791-3.214-3.376-4.615-4.754-4.203-1.21.433-1.973 2.231-2.287 5.395-.361 3.26-.037 6.076.971 8.446Z" fill="url(#a)"/><defs><linearGradient id="a" x1="338.555" y1="22.704" x2="263.864" y2="99.657" gradientUnits="userSpaceOnUse"><stop offset=".317" stop-color="#5DA0EF"/><stop offset="1" stop-color="#44FF78"/></linearGradient></defs></svg>