<svg width="28" height="28" fill="none" xmlns="http://www.w3.org/2000/svg"><path d="M27.136 14.006c0 7.345-5.985 13.327-13.334 13.327C6.453 27.333.47 21.35.47 14.006.469 6.648 6.453.666 13.802.666s13.334 5.982 13.334 13.34Z" fill="url(#a)"/><path d="M19.136 14.006c0 .337-.107.676-.319.946-.04.054-.225.273-.37.415l-.08.078c-1.114 1.18-3.885 2.956-5.29 3.525 0 .013-.835.352-1.233.363h-.053c-.61 0-1.18-.335-1.472-.88-.159-.3-.305-1.168-.318-1.18-.12-.778-.199-1.97-.199-3.28 0-1.372.08-2.618.226-3.382 0-.013.145-.713.238-.947a1.7 1.7 0 0 1 .743-.803c.265-.128.543-.195.835-.195.305.015.875.208 1.1.299 1.485.57 4.322 2.436 5.41 3.577.185.181.384.403.437.453.225.286.345.636.345 1.011Z" fill="#000"/><defs><linearGradient id="a" x1=".469" y1=".666" x2="10.565" y2="32.576" gradientUnits="userSpaceOnUse"><stop stop-color="#FF6B3B"/><stop offset="1" stop-color="#EF4526"/></linearGradient></defs></svg>