<svg width="28" height="28" fill="none" xmlns="http://www.w3.org/2000/svg"><path d="M26.57 1.438A2.585 2.585 0 0 0 23.997.77L2.543 6.97A2.552 2.552 0 0 0 .7 8.984c-.19.995.472 2.26 1.336 2.787l6.708 4.096a1.744 1.744 0 0 0 2.146-.255l7.68-7.68a.98.98 0 0 1 1.414 0 1.006 1.006 0 0 1 0 1.412l-7.694 7.682a1.747 1.747 0 0 0-.258 2.145l4.099 6.733a2.552 2.552 0 0 0 2.213 1.254c.107 0 .227 0 .334-.015a2.592 2.592 0 0 0 2.173-1.84l6.36-21.292a2.59 2.59 0 0 0-.64-2.573Z" fill="#fff"/><path opacity=".4" fill-rule="evenodd" clip-rule="evenodd" d="M2.014 20.41a.999.999 0 0 1-.707-1.707l1.82-1.82c.391-.39 1.024-.39 1.415 0 .39.39.39 1.023 0 1.414l-1.821 1.82a.992.992 0 0 1-.707.293ZM7.029 22a.999.999 0 0 1-.707-1.707l1.82-1.82c.39-.39 1.024-.39 1.415 0 .39.39.39 1.023 0 1.414l-1.821 1.82a.992.992 0 0 1-.707.293Zm.338 4.758c.195.196.45.293.707.293a.992.992 0 0 0 .707-.293l1.82-1.82c.39-.391.39-1.024 0-1.415a1.003 1.003 0 0 0-1.414 0l-1.82 1.821a.999.999 0 0 0 0 1.414Z" fill="#fff"/></svg>