<svg width="26" height="28" fill="none" xmlns="http://www.w3.org/2000/svg"><path d="M25.307 17.16c-.26-.4-.627-.8-1.104-1.053-.381-.187-.627-.493-.845-.853-.695-1.147-.286-2.654.872-3.334a2.703 2.703 0 0 0 1.009-3.773l-.913-1.574a2.817 2.817 0 0 0-3.83-1.013c-1.198.64-2.738.213-3.433-.92-.218-.373-.34-.773-.313-1.173.04-.52-.123-1.014-.368-1.414-.505-.826-1.418-1.386-2.426-1.386h-1.921a2.926 2.926 0 0 0-2.412 1.386 2.38 2.38 0 0 0-.381 1.414c.027.4-.096.8-.314 1.173-.695 1.133-2.235 1.56-3.42.92a2.833 2.833 0 0 0-3.843 1.013L.752 8.147a2.725 2.725 0 0 0 1.009 3.773c1.158.68 1.567 2.187.886 3.334-.232.36-.477.666-.859.853-.463.253-.872.653-1.09 1.053-.504.827-.477 1.867.027 2.733l.94 1.6a2.845 2.845 0 0 0 2.426 1.387c.463 0 1.008-.133 1.444-.4.34-.227.75-.306 1.2-.306 1.348 0 2.48 1.106 2.507 2.426 0 1.534 1.253 2.733 2.834 2.733h1.853c1.567 0 2.82-1.2 2.82-2.733.041-1.32 1.172-2.427 2.521-2.427.436 0 .845.08 1.2.307.436.267.967.4 1.444.4a2.84 2.84 0 0 0 2.412-1.386l.953-1.6c.491-.894.532-1.907.028-2.734Z" fill="#fff"/><path d="M13.016 17.773c-2.14 0-3.87-1.666-3.87-3.76 0-2.093 1.73-3.773 3.87-3.773s3.829 1.68 3.829 3.773c0 2.094-1.69 3.76-3.829 3.76Z" fill="#77768E"/></svg>