<svg width="1440" height="2038" fill="none" xmlns="http://www.w3.org/2000/svg"><g clip-path="url(#a)" stroke-width="13" stroke-linecap="round" stroke-linejoin="round"><path d="M-109.719 834.792C-112.913 814.5 21.023 670.47 542.335 697.534c446.383 23.173 778.815-193.154 877.515-330.776 78.97-110.097 94.43-237.334 92.3-287.19" stroke="url(#b)"/><path d="M1596.7 1460.27c-9.41 18.26-202.56 55.37-607.23-274.38-346.511-282.36-742.534-304.152-903.466-251.4-128.746 42.201-216.38 135.74-244.103 177.23" stroke="url(#c)"/><path d="M1626.87 640.598c-8.84-20.926-208.84-75.962-650.406 260.616C598.362 1189.41 182.875 1185.12 17.439 1115.05-114.909 1059-201.41 948.981-228.118 900.977" stroke="url(#d)"/><path d="M-635.625 1123.15c11.202-19.76 216.241-51.21 615.748 334.36 342.086 330.15 755.263 374.11 927.714 323.73 137.963-40.31 236.653-139.54 268.753-184.12" stroke="url(#e)"/><path d="M966.577 485.216c-5.555 19.777-187.336 94.872-649.922-147.02-396.1-207.125-788.447-149.05-935.529-65.094-117.667 67.164-184.76 176.375-203.599 222.585" stroke="url(#f)"/><path d="M-190.439 1729.91c3.199 20.29 174.927 116.17 662.673-69.84 417.642-159.28 800.476-55.63 936.716 44.98 108.98 80.49 162.81 196.81 176.11 244.91" stroke="url(#g)"/></g><g opacity=".72" filter="url(#h)"><circle cx="1124.5" cy="342" r="135" fill="url(#i)"/></g><g opacity=".72" filter="url(#j)"><circle cx="1124.5" cy="892" r="135" fill="url(#k)"/></g><g opacity=".72" filter="url(#l)"><circle cx="1124.5" cy="1442" r="135" fill="url(#m)"/></g><g opacity=".72" filter="url(#n)"><circle cx="719.5" cy="342" r="135" fill="url(#o)"/></g><g opacity=".72" filter="url(#p)"><circle cx="719.5" cy="892" r="135" fill="url(#q)"/></g><g opacity=".72" filter="url(#r)"><circle cx="719.5" cy="1442" r="135" fill="url(#s)"/></g><g opacity=".72" filter="url(#t)"><circle cx="315.5" cy="342" r="135" fill="url(#u)"/></g><g opacity=".72" filter="url(#v)"><circle cx="315.5" cy="892" r="135" fill="url(#w)"/></g><g opacity=".72" filter="url(#x)"><circle cx="315.5" cy="1442" r="135" fill="url(#y)"/></g><defs><linearGradient id="k" x1="1276" y1="745.435" x2="907.42" y2="1039.93" gradientUnits="userSpaceOnUse"><stop offset=".317" stop-color="#5DA0EF"/><stop offset="1" stop-color="#44FF78"/></linearGradient><linearGradient id="e" x1="-836.554" y1="1039.48" x2="-861.677" y2="1827.75" gradientUnits="userSpaceOnUse"><stop stop-color="#FF6BDF"/><stop offset="1" stop-color="#A400CD"/></linearGradient><linearGradient id="c" x1="-171.257" y1="1200.15" x2="92.712" y2="477.234" gradientUnits="userSpaceOnUse"><stop offset=".422" stop-color="#EF5DA8"/><stop offset="1" stop-color="#FFDA44"/></linearGradient><linearGradient id="d" x1="1836.15" y1="580.82" x2="1769.59" y2="1366.68" gradientUnits="userSpaceOnUse"><stop stop-color="#FF6BDF"/><stop offset="1" stop-color="#A400CD"/></linearGradient><linearGradient id="f" x1="-927.075" y1="605.341" x2="-724.351" y2="-362.474" gradientUnits="userSpaceOnUse"><stop offset=".317" stop-color="#5DA0EF"/><stop offset="1" stop-color="#44FF78"/></linearGradient><linearGradient id="g" x1="1676.09" y1="2071.12" x2="1588.18" y2="1086.22" gradientUnits="userSpaceOnUse"><stop offset=".317" stop-color="#5DA0EF"/><stop offset="1" stop-color="#44FF78"/></linearGradient><linearGradient id="i" x1="1276" y1="195.435" x2="907.42" y2="489.929" gradientUnits="userSpaceOnUse"><stop offset=".317" stop-color="#5DA0EF"/><stop offset="1" stop-color="#44FF78"/></linearGradient><linearGradient id="b" x1="1470.53" y1=".441" x2="1684.52" y2="739.692" gradientUnits="userSpaceOnUse"><stop offset=".422" stop-color="#EF5DA8"/><stop offset="1" stop-color="#FFDA44"/></linearGradient><linearGradient id="m" x1="1276" y1="1295.43" x2="907.42" y2="1589.93" gradientUnits="userSpaceOnUse"><stop offset=".317" stop-color="#5DA0EF"/><stop offset="1" stop-color="#44FF78"/></linearGradient><linearGradient id="o" x1="871.001" y1="195.435" x2="502.42" y2="489.929" gradientUnits="userSpaceOnUse"><stop offset=".317" stop-color="#5DA0EF"/><stop offset="1" stop-color="#44FF78"/></linearGradient><linearGradient id="q" x1="871.001" y1="745.435" x2="502.42" y2="1039.93" gradientUnits="userSpaceOnUse"><stop offset=".317" stop-color="#5DA0EF"/><stop offset="1" stop-color="#44FF78"/></linearGradient><linearGradient id="s" x1="871.001" y1="1295.43" x2="502.42" y2="1589.93" gradientUnits="userSpaceOnUse"><stop offset=".317" stop-color="#5DA0EF"/><stop offset="1" stop-color="#44FF78"/></linearGradient><linearGradient id="u" x1="467.001" y1="195.435" x2="98.42" y2="489.929" gradientUnits="userSpaceOnUse"><stop offset=".317" stop-color="#5DA0EF"/><stop offset="1" stop-color="#44FF78"/></linearGradient><linearGradient id="w" x1="467.001" y1="745.435" x2="98.42" y2="1039.93" gradientUnits="userSpaceOnUse"><stop offset=".317" stop-color="#5DA0EF"/><stop offset="1" stop-color="#44FF78"/></linearGradient><linearGradient id="y" x1="467.001" y1="1295.43" x2="98.42" y2="1589.93" gradientUnits="userSpaceOnUse"><stop offset=".317" stop-color="#5DA0EF"/><stop offset="1" stop-color="#44FF78"/></linearGradient><filter id="t" x="96.5" y="123" width="438" height="438" filterUnits="userSpaceOnUse" color-interpolation-filters="sRGB"><feFlood flood-opacity="0" result="BackgroundImageFix"/><feBlend in="SourceGraphic" in2="BackgroundImageFix" result="shape"/><feGaussianBlur stdDeviation="42" result="effect1_foregroundBlur_3982_4362"/></filter><filter id="v" x="96.5" y="673" width="438" height="438" filterUnits="userSpaceOnUse" color-interpolation-filters="sRGB"><feFlood flood-opacity="0" result="BackgroundImageFix"/><feBlend in="SourceGraphic" in2="BackgroundImageFix" result="shape"/><feGaussianBlur stdDeviation="42" result="effect1_foregroundBlur_3982_4362"/></filter><filter id="x" x="96.5" y="1223" width="438" height="438" filterUnits="userSpaceOnUse" color-interpolation-filters="sRGB"><feFlood flood-opacity="0" result="BackgroundImageFix"/><feBlend in="SourceGraphic" in2="BackgroundImageFix" result="shape"/><feGaussianBlur stdDeviation="42" result="effect1_foregroundBlur_3982_4362"/></filter><filter id="h" x="905.5" y="123" width="438" height="438" filterUnits="userSpaceOnUse" color-interpolation-filters="sRGB"><feFlood flood-opacity="0" result="BackgroundImageFix"/><feBlend in="SourceGraphic" in2="BackgroundImageFix" result="shape"/><feGaussianBlur stdDeviation="42" result="effect1_foregroundBlur_3982_4362"/></filter><filter id="l" x="905.5" y="1223" width="438" height="438" filterUnits="userSpaceOnUse" color-interpolation-filters="sRGB"><feFlood flood-opacity="0" result="BackgroundImageFix"/><feBlend in="SourceGraphic" in2="BackgroundImageFix" result="shape"/><feGaussianBlur stdDeviation="42" result="effect1_foregroundBlur_3982_4362"/></filter><filter id="n" x="500.5" y="123" width="438" height="438" filterUnits="userSpaceOnUse" color-interpolation-filters="sRGB"><feFlood flood-opacity="0" result="BackgroundImageFix"/><feBlend in="SourceGraphic" in2="BackgroundImageFix" result="shape"/><feGaussianBlur stdDeviation="42" result="effect1_foregroundBlur_3982_4362"/></filter><filter id="j" x="905.5" y="673" width="438" height="438" filterUnits="userSpaceOnUse" color-interpolation-filters="sRGB"><feFlood flood-opacity="0" result="BackgroundImageFix"/><feBlend in="SourceGraphic" in2="BackgroundImageFix" result="shape"/><feGaussianBlur stdDeviation="42" result="effect1_foregroundBlur_3982_4362"/></filter><filter id="p" x="500.5" y="673" width="438" height="438" filterUnits="userSpaceOnUse" color-interpolation-filters="sRGB"><feFlood flood-opacity="0" result="BackgroundImageFix"/><feBlend in="SourceGraphic" in2="BackgroundImageFix" result="shape"/><feGaussianBlur stdDeviation="42" result="effect1_foregroundBlur_3982_4362"/></filter><filter id="r" x="500.5" y="1223" width="438" height="438" filterUnits="userSpaceOnUse" color-interpolation-filters="sRGB"><feFlood flood-opacity="0" result="BackgroundImageFix"/><feBlend in="SourceGraphic" in2="BackgroundImageFix" result="shape"/><feGaussianBlur stdDeviation="42" result="effect1_foregroundBlur_3982_4362"/></filter><clipPath id="a"><path fill="#fff" transform="translate(-3)" d="M0 0h1449v2038H0z"/></clipPath></defs></svg>