<svg width="35" height="35" fill="none" xmlns="http://www.w3.org/2000/svg"><path d="M15.493 21.634c-.31 0-.62-.118-.858-.355l-3.29-3.29a1.211 1.211 0 0 1 0-1.714 1.211 1.211 0 0 1 1.715-.001l2.433 2.432 5.722-5.722A1.213 1.213 0 0 1 22.93 14.7L16.35 21.28a1.209 1.209 0 0 1-.858.355ZM17.132 31.264C9.327 31.264 3 24.937 3 17.132h-6c0 11.118 9.013 20.132 20.132 20.132v-6Zm14.132-14.132c0 7.805-6.327 14.132-14.132 14.132v6c11.118 0 20.132-9.014 20.132-20.132h-6ZM17.132 3c7.805 0 14.132 6.327 14.132 14.132h6C37.264 6.013 28.25-3 17.132-3v6Zm0-6C6.013-3-3 6.013-3 17.132h6C3 9.327 9.327 3 17.132 3v-6Z" fill="#B92200"/></svg>