<svg width="27" height="28" fill="none" xmlns="http://www.w3.org/2000/svg"><path d="M19.193.666H7.633C3.113.666.073 3.84.073 8.56v10.893c0 4.707 3.04 7.88 7.56 7.88h11.56c4.52 0 7.547-3.173 7.547-7.88V8.56c0-4.72-3.027-7.894-7.547-7.894Z" fill="url(#a)"/><path d="M11.824 18.33c-.299 0-.597-.113-.825-.34l-3.164-3.165a1.165 1.165 0 0 1 0-1.65 1.165 1.165 0 0 1 1.65 0l2.34 2.34 5.503-5.505a1.167 1.167 0 0 1 1.65 1.65l-6.329 6.33a1.163 1.163 0 0 1-.825.34Z" fill="#000"/><defs><linearGradient id="a" x1=".073" y1=".666" x2="10.17" y2="32.576" gradientUnits="userSpaceOnUse"><stop stop-color="#FF6B3B"/><stop offset="1" stop-color="#EF4526"/></linearGradient></defs></svg>