<svg width="28" height="28" fill="none" xmlns="http://www.w3.org/2000/svg"><path d="M27.333 14c0 7.365-5.97 13.333-13.333 13.333C6.636 27.333.667 21.365.667 14 .667 6.637 6.636.667 14 .667S27.333 6.637 27.333 14Z" fill="url(#a)"/><path d="M18.765 19.086c-.175 0-.351-.045-.512-.14l-5.235-3.123a1.005 1.005 0 0 1-.487-.86v-6.73a1 1 0 0 1 2 0v6.162l4.747 2.83a1.002 1.002 0 0 1-.513 1.86Z" fill="#2B2B2B"/><defs><linearGradient id="a" x1=".667" y1=".667" x2="10.763" y2="32.576" gradientUnits="userSpaceOnUse"><stop stop-color="#FF6B3B"/><stop offset="1" stop-color="#EF4526"/></linearGradient></defs></svg>