<svg width="1200" height="369" fill="none" xmlns="http://www.w3.org/2000/svg"><g clip-path="url(#a)"><path fill="url(#b)" d="M0 0h1200v369H0z"/><g clip-path="url(#c)" fill-rule="evenodd" clip-rule="evenodd" fill="#D5D5D5"><path d="M1349.72-224.298c28.05-.3 56.63 3.187 84.57 9.905l.9 3.593c-28.21-6.901-57.1-10.489-85.46-10.193-84.71.876-167.62 31.679-268.81 99.855-89.71 60.456-167.176 123.13-230.249 186.3-51.817 51.896-89.868 109.531-130.15 170.554-10.431 15.78-21.206 32.107-32.158 48.184-11.347 16.683-23.19 33.429-34.644 49.627-16.036 22.667-32.591 46.108-48.092 69.682-2.975 4.562-6.142 9.239-9.377 14.028-20.423 30.276-43.559 64.585-46.914 99.251-.91 9.483-.276 18.783 1.936 27.654l.005.016c15.827 63.313 108.097 95.32 147.037 106.14 70.208 19.506 143.522 28.53 215.403 35.995l-9.385 2.341c-69.116-7.311-139.402-16.396-206.926-35.15-49.066-13.637-133.708-45.874-149.336-108.526l-.004-.016c-2.302-9.228-2.997-18.908-2.046-28.753 3.439-35.514 26.833-70.182 47.475-100.777 3.222-4.79 6.371-9.459 9.353-14.006 15.517-23.628 32.104-47.077 48.133-69.776 11.458-16.183 23.285-32.921 34.638-49.578 10.926-16.05 21.701-32.377 32.116-48.153 40.379-61.163 78.514-118.937 130.572-171.056C911.539-.48 989.17-63.296 1079.06-123.881c101.76-68.551 185.23-99.527 270.66-100.417ZM1272.87 596.704c2.13-2.847 4.18-5.836 6.09-9.027 22.77-37.985 31.25-82.246 39.46-125.047 1.15-5.925 2.28-11.862 3.45-17.759 14.73-74.193 38.02-171.398 87.66-265.342 8.55-16.169 18.55-32.437 29.13-49.641 21.46-34.934 43.39-70.628 54.62-107.818l1.54 6.18c-11.74 35.665-32.74 69.852-53.33 103.345-10.55 17.164-20.51 33.389-29.01 49.464-49.46 93.582-72.65 190.485-87.34 264.45-1.18 5.883-2.31 11.804-3.44 17.742-8.27 43.081-16.82 87.621-39.88 126.111-1.27 2.117-2.6 4.135-3.97 6.099l-4.98 1.243Z"/><path d="M1345.83-170.934c38.11 3.043 79.15 17.096 109.91 42.52l1.39 5.574c-30.53-26.889-72.59-41.678-111.56-44.801-69.67-5.589-143.68 16.195-226.28 66.577C1042.44-54.165 964.229 8.91 893.139 81.369c-62.619 63.815-105.773 135.654-151.305 223.88-2.03 3.926-4.158 7.995-6.347 12.212-29.392 56.355-69.657 133.543-54.294 195.132l.005.017c2.43 9.744 6.261 18.872 11.364 27.125 34.939 56.426 105.685 76.31 176.953 89.4 67.84 12.457 137.185 15.842 205.665 16.883l-12.4 3.091c-64.592-1.263-129.866-4.969-193.891-16.728-71.995-13.222-143.541-33.383-179.169-90.912-5.273-8.541-9.23-17.969-11.746-28.055l-.004-.017c-15.667-62.805 24.921-140.633 54.564-197.448 2.189-4.217 4.313-8.284 6.332-12.192 45.677-88.508 88.988-160.587 151.893-224.689C962.036 6.413 1040.46-56.848 1117.57-103.874c83.21-50.782 157.89-72.719 228.26-67.06Z"/><path d="M1389.54-24.686c9.21 36.904.36 85.722-26.3 145.096-39.72 88.458-70.48 179.761-97.81 265.246-1.65 5.14-3.28 10.342-4.91 15.555-10.47 33.633-21.33 68.397-41.32 97.425-28.06 40.729-72.75 60.292-105.3 69.52-9 2.542-18.94 4.939-30.39 7.297-87.691 7.756-178.934 8.509-250.813-38.255-25.824-16.821-42.569-39.942-49.748-68.721l-.004-.015c-13.228-53.031 7.55-116.08 24.331-158.908 56.219-143.531 172.858-271.68 328.394-360.822 54.56-31.269 134.62-69.191 199.64-37.664 28.84 14.004 47.09 35.608 54.23 64.246ZM779.723 469.266l.004.016c7.389 29.621 24.595 53.403 51.144 70.672 72.732 47.331 164.642 46.606 253.129 38.768 11.72-2.408 21.73-4.824 30.81-7.388 33.07-9.39 78.52-29.29 107.14-70.836 20.27-29.426 31.19-64.457 41.76-98.325 1.63-5.201 3.24-10.384 4.89-15.523 27.31-85.396 58.03-176.588 97.68-264.914 26.97-60.049 35.89-109.591 26.5-147.228-7.39-29.62-26.24-51.966-56-66.417-66.45-32.214-147.54 6.133-202.77 37.781-156.186 89.505-273.337 218.245-329.842 362.492-16.944 43.23-37.899 106.97-24.445 160.902Z"/><path d="M1032.21 505.934c-39.531 3.312-110.522 1.943-145.368-43.761-9.608-12.601-16.475-27.006-20.424-42.836-10.701-42.897-.734-97.332 29.641-161.802C945.228 153.128 1050.55 55.297 1164.37 8.273c35.64-14.728 83.42-26.892 108.73-1.248 7.88 7.99 13.39 18.102 16.38 30.088 10.22 40.937-10.06 97.498-23.48 134.919-1.51 4.213-2.94 8.225-4.27 11.995-7.57 21.629-14.62 43.788-21.42 65.226-13.79 43.42-28.06 88.296-47.25 130.333-13.77 30.172-32.53 57.074-59.01 84.675-23.76 24.743-59.28 32.447-93.64 39.891-2.74.602-5.49 1.187-8.2 1.782Zm-178.725-83.371.004.017c4.394 17.55 12.031 33.585 22.74 47.614 38.804 50.901 115.353 52.488 157.531 48.896l.87-.137c2.84-.624 5.69-1.254 8.58-1.875 34.63-7.499 73.88-16.016 100.45-43.693 27.56-28.715 47.11-56.786 61.52-88.357 19.53-42.763 33.91-88.034 47.82-131.813 6.8-21.354 13.8-43.438 21.3-64.867 1.31-3.751 2.74-7.726 4.24-11.904 13.95-38.928 35.04-97.74 23.86-142.554-3.56-14.302-10.22-26.464-19.78-36.152-24.49-24.808-65.98-25.369-123.31-1.694-116.74 48.233-224.809 148.683-275.303 255.917-31.71 67.282-41.977 124.684-30.522 170.602Z"/><path d="M1165.26 160.226c7.83 31.396-3.45 79.808-7.7 98.049-10.11 43.375-43.34 145.379-133.4 155.508-45.534-1.043-62.006-28.827-67.776-51.957-5.524-22.081-3.637-50.378 5.166-77.654 11.365-35.228 32.512-68.312 61.17-95.678 14.76-14.103 66.53-59.851 112.7-56.702 15.35 1.048 25.39 10.611 29.84 28.434ZM953.149 362.633c6.05 24.252 23.296 53.364 71.151 54.439 92.4-10.367 126.23-113.995 136.5-158.069 4.3-18.432 15.71-67.408 7.68-99.581-4.83-19.379-15.87-29.785-32.83-30.946-47.53-3.238-100.22 43.305-115.23 57.631-29.057 27.747-50.513 61.305-62.046 97.067-8.976 27.836-10.878 56.796-5.225 79.459Z"/></g><g clip-path="url(#d)" fill="#AD2D16" stroke="#AD2D16" stroke-width=".617"><path d="M708.749 358.435c-1.649-1.651-1.653-4.041.003-5.655 1.653-1.651 4.043-1.65 5.696.002 1.651 1.651 1.656 4.044-.003 5.657-1.69 1.645-4.08 1.654-5.696-.004ZM664.133 291.489l-.003-.003c-1.651-1.65-1.656-4.041 0-5.655 1.611-1.653 4.044-1.652 5.655-.041 1.651 1.651 1.656 4.042-.001 5.656-1.653 1.651-3.999 1.651-5.651.043ZM692.017 308.09c1.653 1.608 1.7 3.998.088 5.654-1.608 1.653-3.999 1.699-5.655.088-1.651-1.605-1.703-4.037-.089-5.654 1.57-1.655 4.002-1.696 5.656-.088ZM708.744 336.09c-1.607-1.651-1.611-4.042.047-5.655 1.652-1.606 4.042-1.61 5.656.048 1.606 1.65 1.611 4.04-.087 5.653-1.617 1.657-4.01 1.605-5.616-.046ZM731.208 358.567c-1.693-1.604-1.791-3.994-.219-5.655 1.604-1.692 4.035-1.79 5.696-.219 1.693 1.604 1.791 3.994.22 5.655l-.004.003c-1.642 1.687-4.03 1.788-5.693.216ZM686.411 291.485l-.003-.003c-1.606-1.65-1.611-4.038.044-5.651 1.613-1.653 4.047-1.652 5.659.003 1.606 1.651 1.61 4.04-.046 5.653-1.656 1.653-4.045 1.607-5.654-.002ZM708.504 308.353c1.555-1.732 3.987-1.928 5.657-.395 1.731 1.554 1.926 3.985.393 5.654-1.556 1.733-3.945 1.923-5.653.395-1.735-1.557-1.926-3.946-.397-5.654ZM730.943 330.569c1.603-1.693 3.994-1.791 5.655-.219 1.693 1.603 1.79 3.993.219 5.654-1.599 1.688-3.991 1.837-5.657.218-1.691-1.604-1.788-3.993-.217-5.653ZM753.386 358.392c-1.612-1.656-1.565-4.046.089-5.654 1.655-1.611 4.046-1.564 5.655.089 1.61 1.655 1.564 4.044-.088 5.652-1.614 1.613-4.006 1.608-5.656-.087ZM714.391 285.831c1.651 1.651 1.655 4.043-.002 5.657-.818.818-1.816 1.238-2.826 1.238-1.011 0-2.009-.421-2.828-1.24-1.65-1.65-1.656-4.041 0-5.655 1.614-1.655 4.005-1.65 5.656 0ZM730.949 313.742c-1.61-1.656-1.563-4.046.133-5.654 1.654-1.608 4.088-1.566 5.657.134 1.608 1.656 1.561 4.046-.135 5.653-1.656 1.61-4.047 1.563-5.655-.133ZM759.083 336.09l-.003.003c-1.648 1.648-4.036 1.698-5.693.086-1.652-1.606-1.703-4.039-.088-5.656 1.609-1.652 4.04-1.698 5.695-.087 1.654 1.608 1.7 3.998.089 5.654ZM736.586 285.701c1.693 1.603 1.791 3.993.219 5.654-1.603 1.693-3.993 1.791-5.655.219-1.692-1.603-1.79-3.992-.22-5.653 1.564-1.697 3.997-1.789 5.656-.22ZM759.083 313.744l-.003.003c-1.644 1.643-4.032 1.744-5.694.127-1.647-1.602-1.749-4.035-.129-5.656 1.604-1.647 4.035-1.744 5.695-.129 1.649 1.604 1.746 3.994.131 5.655ZM753.289 291.445l-.003-.003c-1.611-1.656-1.565-4.047.089-5.655 1.656-1.612 4.047-1.565 5.655.088 1.611 1.656 1.565 4.045-.087 5.654-1.618 1.617-4.008 1.561-5.654-.084ZM647.505 352.785c1.606 1.65 1.61 4.04-.046 5.653-1.652 1.65-4.044 1.653-5.657-.005-1.606-1.65-1.611-4.038.003-5.651 1.651-1.651 4.086-1.656 5.7.003ZM647.548 330.526c1.61 1.656 1.563 4.045-.09 5.653-1.656 1.611-4.047 1.564-5.655-.089-1.612-1.656-1.565-4.046.089-5.654 1.651-1.607 4.043-1.611 5.656.09ZM664.158 358.481c-1.653-1.609-1.7-3.999-.089-5.654 1.607-1.651 4.04-1.703 5.657-.088 1.652 1.609 1.698 3.998.087 5.653-1.608 1.653-3.999 1.7-5.655.089ZM641.806 308.175c1.606-1.648 4.038-1.698 5.653-.084 1.657 1.612 1.653 4.001.048 5.651-1.609 1.696-4.002 1.743-5.659.089-1.649-1.607-1.701-4.04-.042-5.656ZM669.83 336.09l-.003.003c-.818.817-1.814 1.249-2.825 1.26-1.01.012-2.009-.398-2.829-1.217-1.65-1.606-1.701-4.039-.045-5.655 1.574-1.659 4.006-1.649 5.654-.046 1.658 1.613 1.654 4.004.048 5.655ZM686.514 358.567h-.001c-1.692-1.604-1.79-3.994-.219-5.655h.001c1.603-1.692 4.035-1.79 5.696-.219 1.693 1.604 1.791 3.994.219 5.655l-.003.003c-1.643 1.687-4.031 1.788-5.693.216ZM647.505 291.441l-.003.003c-.817.818-1.814 1.249-2.824 1.261-1.011.011-2.01-.399-2.83-1.218-1.654-1.611-1.654-4.043-.044-5.654 1.611-1.655 4.044-1.655 5.655-.045 1.657 1.613 1.652 4.003.046 5.653ZM669.658 308l.004.003c1.692 1.604 1.79 3.993.219 5.654v.001c-1.604 1.692-3.994 1.79-5.655.219h-.001c-1.692-1.604-1.79-3.994-.219-5.655 1.564-1.653 3.994-1.746 5.652-.222ZM692.179 336.09l-.003.003c-1.648 1.648-4.036 1.698-5.694.086-1.651-1.606-1.702-4.039-.087-5.656 1.609-1.652 4.04-1.698 5.695-.087 1.654 1.608 1.7 3.998.089 5.654ZM820.355 358.436c-1.651-1.65-1.656-4.042.002-5.656 1.653-1.651 4.043-1.65 5.696.002 1.651 1.651 1.656 4.042-.002 5.656-1.653 1.651-4.043 1.651-5.696-.002ZM775.637 291.489l-.003-.003c-1.651-1.65-1.656-4.041 0-5.655 1.611-1.653 4.044-1.652 5.655-.041 1.651 1.651 1.656 4.042-.001 5.656-1.653 1.651-3.999 1.651-5.651.043ZM803.554 308.09c1.653 1.608 1.7 3.998.089 5.654-1.609 1.653-3.999 1.699-5.655.088-1.652-1.606-1.703-4.039-.088-5.655 1.609-1.652 3.999-1.698 5.654-.087ZM820.283 336.093l-.002-.003c-1.607-1.651-1.611-4.042.047-5.655 1.651-1.606 4.042-1.61 5.655.048 1.606 1.65 1.611 4.039-.085 5.651-1.58 1.663-3.972 1.602-5.615-.041ZM842.812 358.567c-1.692-1.604-1.79-3.994-.219-5.655 1.604-1.692 4.036-1.79 5.697-.219 1.693 1.604 1.791 3.994.219 5.655l-.003.003c-1.643 1.687-4.031 1.788-5.694.216ZM797.916 291.485l-.003-.003c-1.606-1.65-1.61-4.039.046-5.652 1.652-1.65 4.044-1.654 5.657.004 1.606 1.651 1.611 4.04-.046 5.653-1.655 1.653-4.045 1.607-5.654-.002ZM820.042 308.353c1.555-1.732 3.987-1.928 5.656-.395 1.731 1.554 1.926 3.985.394 5.654-1.557 1.733-3.945 1.923-5.653.395h-.001c-1.734-1.557-1.925-3.946-.396-5.654ZM842.479 330.569h.001c1.603-1.693 3.993-1.79 5.654-.219 1.693 1.603 1.791 3.993.219 5.654-1.599 1.688-3.99 1.837-5.656.218-1.691-1.604-1.789-3.993-.218-5.653ZM864.989 358.391c-1.61-1.656-1.563-4.045.09-5.653 1.656-1.611 4.047-1.564 5.656.089 1.611 1.655 1.564 4.045-.089 5.654-1.652 1.606-4.044 1.611-5.657-.09ZM820.24 285.831c1.611-1.653 4.045-1.652 5.656.002 1.65 1.651 1.654 4.042-.003 5.655-1.65 1.649-4.042 1.653-5.655-.003-1.649-1.65-1.654-4.04.002-5.654ZM842.486 313.742c-1.61-1.656-1.563-4.046.133-5.654 1.654-1.608 4.088-1.566 5.657.134 1.608 1.656 1.561 4.046-.135 5.653-1.656 1.61-4.047 1.563-5.655-.133ZM870.62 336.09l-.003.003c-1.648 1.648-4.036 1.698-5.694.086-1.651-1.606-1.702-4.04-.087-5.656 1.609-1.652 4.04-1.698 5.696-.087 1.653 1.608 1.7 3.998.088 5.654ZM848.09 285.701c1.693 1.603 1.791 3.993.22 5.654h-.001c-1.603 1.693-3.993 1.791-5.654.219h-.001c-1.692-1.603-1.79-3.992-.22-5.653 1.564-1.697 3.997-1.789 5.656-.22ZM870.619 313.744l-.003.003c-1.643 1.643-4.031 1.744-5.693.127-1.647-1.602-1.749-4.035-.129-5.656 1.604-1.647 4.035-1.744 5.695-.129 1.649 1.604 1.746 3.994.13 5.655ZM864.791 291.442c-1.612-1.656-1.565-4.047.088-5.655 1.656-1.612 4.047-1.565 5.656.088 1.611 1.656 1.565 4.047-.089 5.656-1.656 1.611-4.047 1.564-5.655-.089ZM775.763 358.481c-1.654-1.609-1.7-3.999-.089-5.654 1.606-1.651 4.04-1.703 5.657-.088 1.652 1.609 1.698 3.998.087 5.653-1.609 1.653-3.999 1.7-5.655.089ZM781.366 336.09l-.003.003c-.817.817-1.813 1.249-2.824 1.26-1.01.012-2.009-.398-2.829-1.217-1.65-1.607-1.701-4.04-.043-5.656 1.613-1.655 4.002-1.65 5.652-.045 1.658 1.613 1.654 4.004.047 5.655ZM798.121 358.569v.001l-.003-.003c-1.693-1.604-1.791-3.994-.219-5.655 1.604-1.692 4.036-1.79 5.697-.219 1.693 1.604 1.79 3.994.219 5.655l-.003.003c-.816.837-1.81 1.29-2.824 1.33-1.014.04-2.024-.336-2.867-1.112ZM781.195 308l.003.003c1.693 1.604 1.791 3.993.219 5.654v.001c-1.603 1.692-3.993 1.79-5.654.219h-.001c-1.692-1.604-1.79-3.994-.219-5.655 1.564-1.653 3.994-1.746 5.652-.222ZM803.716 336.09l-.006.006c-1.684 1.64-4.072 1.7-5.692.081-1.65-1.606-1.701-4.038-.086-5.654 1.609-1.652 4.04-1.698 5.696-.087 1.653 1.608 1.7 3.998.088 5.654ZM887.142 291.489l-.003-.003c-1.651-1.65-1.656-4.041 0-5.655 1.611-1.653 4.044-1.652 5.655-.041 1.651 1.65 1.656 4.042-.001 5.656-1.653 1.651-3.999 1.65-5.651.043ZM887.368 358.481c-1.654-1.609-1.7-3.999-.089-5.655 1.606-1.651 4.04-1.702 5.657-.087 1.652 1.608 1.698 3.998.087 5.653-1.609 1.653-3.999 1.7-5.655.089ZM892.903 336.09l-.003.003c-.817.817-1.814 1.249-2.824 1.26-1.01.012-2.01-.398-2.83-1.217-1.65-1.607-1.701-4.04-.043-5.656 1.614-1.655 4.003-1.65 5.653-.045 1.658 1.613 1.654 4.004.047 5.655ZM892.732 308l.003.003c1.693 1.604 1.791 3.993.219 5.654v.001c-1.603 1.692-3.994 1.79-5.655.219-1.693-1.604-1.79-3.994-.219-5.655 1.564-1.653 3.994-1.746 5.652-.222Z"/></g><g clip-path="url(#e)" fill="#AD2D16" stroke="#AD2D16" stroke-width=".617"><path d="m256.566 27.48-.003-.003c-1.175-1.175-1.18-2.885 0-4.036 1.149-1.178 2.888-1.177 4.037-.028 1.175 1.175 1.18 2.886-.002 4.037-1.177 1.175-2.855 1.175-4.032.03ZM275.621 38.462c1.178 1.146 1.212 2.855.063 4.035-1.146 1.178-2.855 1.212-4.036.064-1.175-1.144-1.215-2.882-.063-4.036 1.12-1.181 2.859-1.21 4.036-.063ZM286.643 57.574c-1.144-1.176-1.148-2.886.034-4.036 1.176-1.144 2.886-1.148 4.037.034 1.144 1.176 1.148 2.886-.063 4.036-1.15 1.147-2.86 1.146-4.008-.034ZM271.591 27.477l-.003-.003c-1.143-1.175-1.148-2.882.032-4.033 1.149-1.178 2.89-1.177 4.039.003 1.144 1.175 1.148 2.884-.033 4.035-1.18 1.178-2.889 1.144-4.035-.002ZM286.514 38.62c1.105-1.232 2.844-1.376 4.038-.28 1.23 1.105 1.373 2.842.278 4.035-1.107 1.232-2.813 1.371-4.033.281-1.238-1.08-1.373-2.819-.283-4.036ZM301.768 57.669h-.001c-1.204-1.141-1.276-2.85-.154-4.036 1.141-1.205 2.85-1.277 4.036-.155 1.205 1.141 1.277 2.85.155 4.036-1.141 1.204-2.85 1.276-4.036.155ZM290.682 23.41l.003.003c1.175 1.175 1.18 2.886-.002 4.037-.58.58-1.292.882-2.016.882-.725 0-1.438-.302-2.019-.883-1.175-1.176-1.18-2.887.002-4.038 1.15-1.149 2.857-1.144 4.032-.001ZM305.691 42.592c-1.18 1.117-2.888 1.083-4.033-.094-1.149-1.181-1.116-2.892.093-4.038 1.178-1.145 2.918-1.116 4.038.096 1.146 1.181 1.111 2.891-.098 4.036ZM320.82 57.574l-.003.003c-1.172 1.172-2.879 1.21-4.062.06-1.176-1.144-1.214-2.883-.061-4.038 1.146-1.176 2.883-1.21 4.063-.061 1.178 1.146 1.212 2.856.063 4.036ZM305.651 23.35c1.205 1.14 1.277 2.85.155 4.035-1.141 1.205-2.851 1.277-4.036.155h-.001c-1.204-1.14-1.276-2.848-.156-4.034 1.115-1.209 2.854-1.276 4.038-.157ZM316.797 42.592l-.003-.003c-1.171-1.14-1.248-2.878-.091-4.037 1.142-1.172 2.88-1.243 4.064-.09 1.174 1.141 1.245 2.85.092 4.036l-.003.003c-1.172 1.171-2.877 1.21-4.059.091ZM316.697 27.449l-.003-.003c-1.149-1.18-1.115-2.89.063-4.036 1.181-1.149 2.891-1.115 4.037.063 1.148 1.18 1.115 2.888-.062 4.034-1.156 1.155-2.865 1.112-4.035-.058ZM245.592 53.584c1.148 1.18 1.115 2.89-.063 4.036-1.181 1.149-2.891 1.115-4.037-.063-1.149-1.18-1.115-2.89.063-4.036 1.181-1.148 2.89-1.114 4.037.063ZM241.506 38.522c1.144-1.173 2.882-1.21 4.035-.059 1.181 1.15 1.177 2.858.035 4.033-1.151 1.213-2.862 1.209-4.038.065-1.176-1.145-1.215-2.885-.032-4.04ZM260.621 57.545c-1.17 1.202-2.883 1.246-4.039.06-1.173-1.143-1.211-2.88-.031-4.034 1.121-1.18 2.858-1.207 4.036-.062 1.182 1.151 1.178 2.86.034 4.036ZM245.574 27.446l-.003.003c-.58.58-1.29.889-2.015.897-.724.008-1.438-.286-2.02-.867-1.179-1.149-1.179-2.887-.032-4.036 1.149-1.18 2.888-1.18 4.037-.032 1.181 1.15 1.177 2.86.033 4.035ZM260.541 38.401c1.204 1.141 1.277 2.85.156 4.035-1.142 1.236-2.851 1.304-4.063.188l-.003-.003c-1.204-1.14-1.277-2.85-.156-4.035 1.141-1.234 2.88-1.306 4.066-.185ZM275.696 57.574l-.003.003c-1.173 1.172-2.88 1.21-4.063.06-1.176-1.144-1.214-2.883-.061-4.038 1.146-1.176 2.883-1.21 4.063-.061 1.179 1.146 1.212 2.856.064 4.036ZM331.772 27.48l-.003-.003c-1.175-1.175-1.18-2.885 0-4.036 1.149-1.178 2.888-1.177 4.037-.028 1.175 1.175 1.18 2.886-.002 4.037-1.177 1.175-2.855 1.175-4.032.03ZM350.85 38.462c1.178 1.146 1.212 2.855.063 4.035-1.146 1.178-2.856 1.212-4.037.064-1.175-1.144-1.214-2.884-.061-4.038 1.146-1.176 2.855-1.21 4.035-.062ZM361.874 57.577l-.003-.003c-1.144-1.176-1.148-2.886.035-4.036 1.176-1.144 2.886-1.148 4.036.034 1.144 1.175 1.149 2.884-.061 4.035-1.125 1.152-2.835 1.142-4.007-.03ZM346.797 27.477l-.003-.003c-1.144-1.175-1.148-2.884.033-4.034 1.176-1.175 2.887-1.178 4.038.004 1.144 1.175 1.148 2.884-.033 4.035-1.18 1.178-2.889 1.144-4.035-.002ZM361.743 38.62c1.105-1.232 2.843-1.376 4.037-.28 1.23 1.105 1.374 2.842.278 4.035-1.106 1.232-2.813 1.371-4.033.281-1.238-1.08-1.372-2.819-.282-4.036ZM376.996 57.669c-1.204-1.141-1.277-2.85-.155-4.036 1.141-1.205 2.851-1.277 4.036-.155h.001c1.204 1.141 1.276 2.85.154 4.036-1.141 1.204-2.85 1.276-4.036.155ZM365.891 23.413c1.175 1.175 1.18 2.886-.002 4.037-1.175 1.174-2.885 1.178-4.036-.003-1.174-1.175-1.179-2.885.003-4.036 1.149-1.147 2.886-1.147 4.035.002ZM380.92 42.592c-1.181 1.117-2.888 1.083-4.034-.094-1.149-1.181-1.115-2.892.093-4.038 1.179-1.145 2.919-1.116 4.038.096 1.147 1.181 1.112 2.891-.097 4.036ZM396.049 57.574l-.003.003c-1.172 1.172-2.88 1.21-4.062.06-1.176-1.144-1.215-2.883-.062-4.038 1.147-1.176 2.884-1.21 4.064-.061 1.178 1.146 1.212 2.856.063 4.036ZM380.857 23.35c1.205 1.14 1.277 2.85.155 4.035-1.141 1.205-2.851 1.277-4.036.155h-.001c-1.203-1.14-1.276-2.848-.156-4.034 1.115-1.209 2.854-1.276 4.038-.157ZM392.025 42.592l-.003-.003c-1.171-1.14-1.247-2.878-.09-4.037 1.142-1.172 2.879-1.243 4.063-.09 1.174 1.141 1.245 2.85.092 4.036l-.003.003c-1.172 1.171-2.877 1.21-4.059.091ZM391.9 27.446c-1.149-1.18-1.115-2.89.063-4.036 1.181-1.149 2.891-1.115 4.037.063 1.149 1.18 1.115 2.89-.063 4.036-1.181 1.148-2.89 1.115-4.037-.063ZM335.85 57.546c-.58.594-1.291.913-2.016.925-.726.012-1.44-.282-2.022-.864-1.175-1.144-1.213-2.884-.031-4.037 1.147-1.175 2.854-1.208 4.034-.06 1.183 1.15 1.179 2.86.035 4.036ZM335.77 38.401c1.205 1.141 1.277 2.85.155 4.036-1.141 1.205-2.85 1.277-4.036.155-1.204-1.14-1.277-2.849-.157-4.034 1.115-1.209 2.855-1.276 4.038-.157ZM350.925 57.574l-.006.006c-1.196 1.165-2.903 1.211-4.061.056-1.174-1.144-1.212-2.883-.06-4.037 1.146-1.176 2.884-1.21 4.064-.061 1.178 1.146 1.212 2.856.063 4.036ZM305.836 12.368l-.003.003c-.592.592-1.309.91-2.036.926-.728.016-1.443-.27-2.026-.837-1.171-1.14-1.247-2.88-.09-4.038 1.142-1.172 2.879-1.242 4.064-.09 1.173 1.141 1.245 2.85.091 4.036ZM320.883 12.397l-.003.003c-1.173 1.172-2.88 1.21-4.062.06-1.176-1.144-1.215-2.884-.062-4.038 1.146-1.176 2.884-1.21 4.064-.061 1.178 1.146 1.212 2.855.063 4.036ZM241.474 8.424c1.144-1.205 2.883-1.243 4.038-.09 1.171 1.14 1.242 2.848.091 4.033-1.146 1.208-2.857 1.242-4.038.093-1.17-1.139-1.247-2.877-.091-4.036ZM260.767 12.27l-.006.006c-1.133 1.228-2.84 1.371-4.061.278h-.001c-1.231-1.105-1.375-2.843-.279-4.037 1.104-1.229 2.84-1.373 4.033-.28 1.271 1.083 1.367 2.82.314 4.032ZM275.664 12.396l-.003.003c-.58.58-1.29.89-2.015.898-.724.008-1.438-.286-2.02-.867-1.179-1.149-1.179-2.887-.032-4.036 1.149-1.18 2.888-1.18 4.037-.032 1.181 1.15 1.177 2.86.033 4.034ZM286.656 12.431l-.003-.003c-1.175-1.175-1.18-2.886.002-4.037 1.177-1.176 2.886-1.176 4.063.001 1.176 1.176 1.181 2.888-.003 4.04l-.003.002c-1.203 1.14-2.877 1.144-4.056-.003ZM381.118 12.368c-1.173 1.204-2.883 1.242-4.066.092-1.171-1.14-1.247-2.88-.09-4.038 1.142-1.172 2.879-1.242 4.064-.09 1.173 1.141 1.245 2.85.092 4.036ZM396.164 12.397l-.003.003c-1.172 1.172-2.88 1.21-4.062.06-1.176-1.144-1.214-2.884-.062-4.038 1.147-1.176 2.884-1.21 4.064-.061 1.178 1.146 1.212 2.855.063 4.036ZM336.031 12.273h-.001c-1.107 1.233-2.815 1.373-4.035.281h-.001c-1.231-1.105-1.375-2.843-.279-4.037 1.104-1.23 2.841-1.373 4.034-.28 1.237 1.081 1.371 2.819.282 4.036ZM346.907 12.43c-1.179-1.149-1.179-2.887-.031-4.036 1.148-1.18 2.887-1.18 4.036-.032 1.181 1.15 1.177 2.86.033 4.034-1.146 1.179-2.857 1.213-4.038.034ZM361.937 12.431l-.003-.003c-1.175-1.175-1.18-2.886.002-4.037 1.178-1.176 2.886-1.176 4.064.001 1.176 1.176 1.18 2.888-.003 4.04-1.177 1.144-2.883 1.144-4.06 0ZM406.978 27.48l-.003-.003c-1.175-1.175-1.18-2.885 0-4.036 1.15-1.178 2.888-1.177 4.037-.028 1.175 1.175 1.18 2.886-.002 4.037-1.177 1.175-2.854 1.175-4.032.03ZM411.078 57.545l-.003.003c-.579.58-1.29.89-2.014.898-.725.008-1.439-.286-2.021-.868-1.175-1.144-1.213-2.885-.028-4.039 1.146-1.144 2.852-1.177 4.032-.03 1.183 1.15 1.179 2.86.034 4.036ZM410.999 38.401c1.204 1.141 1.277 2.85.155 4.036-1.142 1.205-2.851 1.277-4.037.155-1.204-1.14-1.276-2.848-.156-4.034 1.115-1.209 2.854-1.276 4.038-.157ZM411.312 12.273c-1.107 1.233-2.816 1.373-4.036.281-1.232-1.105-1.376-2.843-.28-4.037 1.105-1.23 2.841-1.373 4.035-.28 1.237 1.081 1.37 2.819.281 4.036Z"/></g></g><defs><clipPath id="a"><path fill="#fff" d="M0 0h1200v369H0z"/></clipPath><clipPath id="c"><path fill="#fff" transform="rotate(75.993 874.326 785.266)" d="M0 0h787.829v1043.66H0z"/></clipPath><clipPath id="d"><path fill="#fff" transform="matrix(1 0 0 -1 640 449.883)" d="M0 0h254.683v165.883H0z"/></clipPath><clipPath id="e"><path fill="#fff" transform="matrix(1 0 0 -1 240.328 59.2)" d="M0 0h172.05v112.233H0z"/></clipPath><linearGradient id="b" x1="0" y1="0" x2="46.818" y2="481.199" gradientUnits="userSpaceOnUse"><stop stop-color="#FF6B3B"/><stop offset="1" stop-color="#EF4526"/></linearGradient></defs></svg>