<svg width="27" height="21" fill="none" xmlns="http://www.w3.org/2000/svg"><path opacity=".4" d="M26.046 3.924a1.843 1.843 0 0 0-1.831-.086l-1.976.998a2.158 2.158 0 0 0-1.184 1.941v7.778c0 .828.453 1.572 1.184 1.942l1.975.997c.268.138.554.204.841.204.344 0 .685-.097.99-.288.56-.35.893-.959.893-1.625V5.55c0-.666-.334-1.274-.892-1.626Z" fill="url(#a)"/><path d="M13.478 20.666H5.755c-3.23 0-5.484-2.226-5.484-5.414v-9.17c0-3.19 2.255-5.415 5.484-5.415h7.723c3.23 0 5.484 2.225 5.484 5.414v9.17c0 3.189-2.255 5.415-5.484 5.415Z" fill="url(#b)"/><defs><linearGradient id="a" x1="21.055" y1="3.635" x2="29.962" y2="15.411" gradientUnits="userSpaceOnUse"><stop stop-color="#FF6B3B"/><stop offset="1" stop-color="#EF4526"/></linearGradient><linearGradient id="b" x1=".271" y1=".667" x2="8.268" y2="24.287" gradientUnits="userSpaceOnUse"><stop stop-color="#FF6B3B"/><stop offset="1" stop-color="#EF4526"/></linearGradient></defs></svg>