<svg width="28" height="24" fill="none" xmlns="http://www.w3.org/2000/svg"><path fill-rule="evenodd" clip-rule="evenodd" d="M27.329 7.167h-5.647c-2.627.004-4.756 2.08-4.76 4.642-.004 2.567 2.127 4.652 4.76 4.656h5.651v.407c0 4.48-2.715 7.128-7.31 7.128H7.978C3.382 24 .667 21.351.667 16.872V7.117C.667 2.638 3.382 0 7.978 0h12.04c4.595 0 7.31 2.638 7.31 7.117v.05Zm-20.343-.01H14.521a1.008 1.008 0 0 0 1.015-1c-.002-.549-.462-.993-1.025-.99H6.986a1.008 1.008 0 0 0-1.016.991c-.002.549.453.996 1.016.998Z" fill="url(#a)"/><path opacity=".4" d="M19.383 12.396c.28 1.268 1.391 2.16 2.66 2.137h4.334a.967.967 0 0 0 .956-.978v-3.376a.97.97 0 0 0-.956-.98h-4.435c-1.445.006-2.61 1.204-2.609 2.681 0 .173.017.346.05.515Z" fill="url(#b)"/><circle cx="22" cy="11.867" r="1.333" fill="url(#c)"/><defs><linearGradient id="a" x1=".667" y1="0" x2="8.989" y2="29.224" gradientUnits="userSpaceOnUse"><stop stop-color="#FF6B3B"/><stop offset="1" stop-color="#EF4526"/></linearGradient><linearGradient id="b" x1="19.333" y1="9.2" x2="20.751" y2="15.922" gradientUnits="userSpaceOnUse"><stop stop-color="#FF6B3B"/><stop offset="1" stop-color="#EF4526"/></linearGradient><linearGradient id="c" x1="20.667" y1="10.533" x2="21.676" y2="13.724" gradientUnits="userSpaceOnUse"><stop stop-color="#FF6B3B"/><stop offset="1" stop-color="#EF4526"/></linearGradient></defs></svg>