<svg width="27" height="28" fill="none" xmlns="http://www.w3.org/2000/svg"><path opacity=".4" d="M.167 12.771c.067 3.118.253 8.45.28 9.038.095 1.257.576 2.528 1.325 3.424C2.815 26.49 4.1 27.05 5.89 27.05c2.474.014 5.202.014 7.852.014 2.66 0 5.24 0 7.42-.014 1.766 0 3.09-.576 4.12-1.818.749-.896 1.23-2.18 1.298-3.424.027-.495.16-6.283.24-9.038H.167Z" fill="#fff"/><path d="M12.494 18.512v1.726a1 1 0 0 0 2 0v-1.726a1 1 0 0 0-2 0Z" fill="#fff"/><path fill-rule="evenodd" clip-rule="evenodd" d="M11.115 17.409a1 1 0 0 1-1.103.726C6.611 17.66 3.36 16.454.616 14.642a.997.997 0 0 1-.449-.835V9.186c0-2.8 2.283-5.077 5.09-5.077h2.622C8.129 2.173 9.77.667 11.772.667h3.443c2.001 0 3.643 1.506 3.893 3.442h2.636a5.082 5.082 0 0 1 5.076 5.077v4.621c0 .336-.169.65-.448.835-2.749 1.82-6.013 3.032-9.437 3.505a1 1 0 0 1-1.107-.744 2.406 2.406 0 0 0-2.34-1.804 2.433 2.433 0 0 0-2.373 1.81Zm4.1-14.742h-3.443c-.897 0-1.646.614-1.87 1.442h7.182a1.942 1.942 0 0 0-1.869-1.442Z" fill="#fff"/></svg>