<svg width="35" height="34" viewBox="0 0 35 34" fill="none" xmlns="http://www.w3.org/2000/svg">
<path d="M17.5 22.3125C20.434 22.3125 22.8125 19.934 22.8125 17C22.8125 14.066 20.434 11.6875 17.5 11.6875C14.566 11.6875 12.1875 14.066 12.1875 17C12.1875 19.934 14.566 22.3125 17.5 22.3125Z" stroke="#555555" stroke-width="2.83333" stroke-miterlimit="10"/>
<path d="M23.3438 4.78125H11.6562C8.13543 4.78125 5.28125 7.63543 5.28125 11.1562V22.8438C5.28125 26.3646 8.13543 29.2188 11.6562 29.2188H23.3438C26.8646 29.2188 29.7188 26.3646 29.7188 22.8438V11.1562C29.7188 7.63543 26.8646 4.78125 23.3438 4.78125Z" stroke="#555555" stroke-width="2.83333" stroke-linecap="round" stroke-linejoin="round"/>
<path d="M24.4062 11.6875C25.2865 11.6875 26 10.974 26 10.0937C26 9.21355 25.2865 8.5 24.4062 8.5C23.526 8.5 22.8125 9.21355 22.8125 10.0937C22.8125 10.974 23.526 11.6875 24.4062 11.6875Z" fill="#555555"/>
</svg>
