<svg width="25" height="25" viewBox="0 0 25 25" fill="none" xmlns="http://www.w3.org/2000/svg">
<path d="M20.0754 4.72877L20.0859 4.71827L20.0839 4.71627C20.1474 4.64786 20.182 4.55755 20.1805 4.46423C20.1789 4.37091 20.1414 4.2818 20.0757 4.21552L19.5624 3.70227C19.4961 3.63656 19.407 3.59902 19.3137 3.59748C19.2204 3.59594 19.1301 3.63053 19.0617 3.69402L19.0594 3.69177L16.8489 5.90252C16.7809 5.97059 16.7427 6.0629 16.7427 6.15914C16.7427 6.25539 16.7809 6.3477 16.8489 6.41577L17.3622 6.92927H17.3624C17.4305 6.99731 17.5228 7.03553 17.6191 7.03553C17.7153 7.03553 17.8076 6.99731 17.8757 6.92927L20.0754 4.72877ZM12.1369 4.81852V4.81877H12.8627V4.81852C13.0582 4.81852 13.2164 4.66377 13.2242 4.47027H13.2257V1.34452C13.2257 1.14402 13.0632 0.981518 12.8627 0.981518V0.981018H12.1369V0.981268C11.9364 0.981268 11.7739 1.14377 11.7739 1.34427V4.47027H11.7754C11.779 4.56377 11.8187 4.65224 11.8861 4.71715C11.9535 4.78207 12.0434 4.81839 12.1369 4.81852ZM22.9032 9.99927C22.9032 9.80352 22.7484 9.64552 22.5549 9.63777V9.63627H19.4289C19.2284 9.63627 19.0659 9.79852 19.0659 9.99927V10.725C19.0659 10.9258 19.2284 11.0883 19.4289 11.0883H22.5549V11.0868C22.6484 11.0831 22.7369 11.0434 22.8018 10.976C22.8667 10.9085 22.9031 10.8186 22.9032 10.725V9.99927ZM12.4999 6.05027C9.56093 6.05027 7.17868 8.43252 7.17868 11.3715C7.17816 12.4788 7.52513 13.5584 8.17068 14.458H8.16868C8.96218 15.696 9.45793 17.336 9.49443 19.1428C9.55818 19.2475 9.67218 19.3185 9.80368 19.3185C9.81768 19.3185 9.83093 19.316 9.84443 19.3143V19.3185H15.1374V19.3143C15.1509 19.3158 15.1642 19.3185 15.1779 19.3185C15.246 19.3183 15.3127 19.299 15.3704 19.2626C15.428 19.2263 15.4742 19.1744 15.5037 19.113C15.5474 17.217 16.0964 15.5058 16.9644 14.2533C17.5029 13.4223 17.8212 12.4358 17.8212 11.3718C17.8212 8.43252 15.4389 6.05027 12.4999 6.05027ZM15.1779 22.447C15.1639 22.447 15.1509 22.4495 15.1374 22.4513V22.447H9.84443V22.4513C9.83093 22.4498 9.81768 22.447 9.80368 22.447C9.60343 22.447 9.44068 22.6093 9.44068 22.81V23.656C9.44068 23.8565 9.60318 24.019 9.80368 24.019C9.81768 24.019 9.83093 24.0165 9.84443 24.0148V24.019H15.1374V24.015C15.1509 24.0165 15.1642 24.019 15.1779 24.019C15.3784 24.019 15.5409 23.8565 15.5409 23.656V22.81C15.5409 22.6093 15.3784 22.447 15.1779 22.447ZM15.1779 20.087C15.1639 20.087 15.1509 20.0895 15.1374 20.0913V20.087H9.84443V20.0913C9.83093 20.0898 9.81768 20.087 9.80368 20.087C9.70967 20.0872 9.61939 20.1238 9.5519 20.1893C9.48441 20.2547 9.44498 20.3438 9.44193 20.4378L9.44068 20.452V21.296C9.44068 21.4965 9.60318 21.659 9.80368 21.659C9.81768 21.659 9.83093 21.6565 9.84443 21.6548V21.659H15.1374V21.655C15.1509 21.6565 15.1642 21.6593 15.1779 21.6593C15.3784 21.6593 15.5409 21.4968 15.5409 21.2963V20.45C15.5409 20.2493 15.3784 20.087 15.1779 20.087ZM5.58593 9.92127V9.91977H2.45968C2.25918 9.91977 2.09668 10.0823 2.09668 10.2825V11.0085C2.09668 11.2088 2.25918 11.3713 2.45968 11.3713H5.58593V11.37C5.67936 11.3663 5.76776 11.3267 5.83266 11.2594C5.89756 11.1921 5.93393 11.1023 5.93418 11.0088V10.2825C5.93393 10.189 5.89756 10.0992 5.83266 10.0319C5.76776 9.96458 5.67936 9.92494 5.58593 9.92127ZM5.04968 4.60377L7.26018 6.81452L7.26243 6.81227C7.40468 6.94302 7.62493 6.94202 7.76293 6.80402H7.76318L8.27643 6.29052C8.34219 6.22426 8.37978 6.13514 8.38131 6.0418C8.38285 5.94846 8.34822 5.85815 8.28468 5.78977L8.28693 5.78752L6.07618 3.57702C6.00808 3.50904 5.91578 3.47086 5.81955 3.47086C5.72333 3.47086 5.63103 3.50904 5.56293 3.57702L5.04968 4.09027C4.98162 4.15838 4.94339 4.25073 4.94339 4.34702C4.94339 4.44331 4.98162 4.53565 5.04968 4.60377Z" fill="#555555"/>
</svg>
