<svg width="35" height="34" viewBox="0 0 35 34" fill="none" xmlns="http://www.w3.org/2000/svg">
<path d="M28.125 5.3125H6.875C6.2882 5.3125 5.8125 5.7882 5.8125 6.375V27.625C5.8125 28.2118 6.2882 28.6875 6.875 28.6875H28.125C28.7118 28.6875 29.1875 28.2118 29.1875 27.625V6.375C29.1875 5.7882 28.7118 5.3125 28.125 5.3125Z" stroke="white" stroke-width="2.83333" stroke-linecap="round" stroke-linejoin="round"/>
<path d="M16.4375 14.875V23.375" stroke="white" stroke-width="2.83333" stroke-linecap="round" stroke-linejoin="round"/>
<path d="M12.1875 14.875V23.375" stroke="white" stroke-width="2.83333" stroke-linecap="round" stroke-linejoin="round"/>
<path d="M16.4375 18.5938C16.4375 17.6075 16.8293 16.6616 17.5267 15.9642C18.2241 15.2668 19.17 14.875 20.1562 14.875C21.1425 14.875 22.0884 15.2668 22.7858 15.9642C23.4832 16.6616 23.875 17.6075 23.875 18.5938V23.375" stroke="white" stroke-width="2.83333" stroke-linecap="round" stroke-linejoin="round"/>
<path d="M12.1875 12.2188C13.0677 12.2188 13.7812 11.5052 13.7812 10.625C13.7812 9.7448 13.0677 9.03125 12.1875 9.03125C11.3073 9.03125 10.5938 9.7448 10.5938 10.625C10.5938 11.5052 11.3073 12.2188 12.1875 12.2188Z" fill="white"/>
</svg>
