<svg width="188" height="21" viewBox="0 0 188 21" fill="none" xmlns="http://www.w3.org/2000/svg">
<path d="M55 1L1 1" stroke="white" stroke-width="1.5" stroke-linecap="round" stroke-linejoin="round"/>
<path d="M187 1L133 1" stroke="white" stroke-width="1.5" stroke-linecap="round" stroke-linejoin="round"/>
<path d="M76.4502 3.39998C76.1188 3.15146 75.6487 3.21861 75.4002 3.54998C75.1516 3.88135 75.2188 4.35146 75.5502 4.59998L93.5376 18.0906C93.5801 18.1239 93.6256 18.1521 93.6733 18.1752C93.8824 18.2767 94.124 18.2733 94.3271 18.1752C94.3747 18.1521 94.4203 18.1239 94.4628 18.0906L112.45 4.59998C112.782 4.35146 112.849 3.88135 112.6 3.54998C112.352 3.21861 111.882 3.15146 111.55 3.39998L94.0002 16.5625L76.4502 3.39998Z" fill="white"/>
<path fill-rule="evenodd" clip-rule="evenodd" d="M111.55 3.39998C111.882 3.15146 112.352 3.21861 112.6 3.54998C112.849 3.88135 112.782 4.35146 112.45 4.59998L94.4628 18.0906C94.4203 18.1239 94.3747 18.1521 94.3271 18.1752C94.124 18.2733 93.8824 18.2767 93.6733 18.1752C93.6256 18.1521 93.5801 18.1239 93.5376 18.0906L75.5502 4.59998C75.2188 4.35146 75.1516 3.88135 75.4002 3.54998C75.6487 3.21861 76.1188 3.15146 76.4502 3.39998L94.0002 16.5625L111.55 3.39998ZM94.0002 14.0625L77.6502 1.79998C76.4351 0.888709 74.7114 1.13495 73.8002 2.34998C72.8889 3.56501 73.1351 5.28871 74.3502 6.19998L92.3258 19.6817C92.4762 19.7971 92.6363 19.8954 92.8032 19.976C93.5744 20.3491 94.457 20.3336 95.1971 19.976C95.364 19.8954 95.5242 19.7971 95.6745 19.6817L113.65 6.19998C114.865 5.28871 115.111 3.56501 114.2 2.34998C113.289 1.13495 111.565 0.888704 110.35 1.79998L94.0002 14.0625Z" fill="white"/>
</svg>
