<svg width="32" height="15" viewBox="0 0 32 15" fill="none" xmlns="http://www.w3.org/2000/svg">
<path d="M3.7458 7.17452C4.79056 7.54175 5.89273 7.71853 6.99993 7.69646C8.10715 7.71839 9.20932 7.54146 10.2541 7.17409C11.0696 6.85602 11.3587 6.50252 11.3587 6.29909V4.74377C11.0736 4.93471 10.7677 5.09264 10.447 5.21452C9.34162 5.61033 8.17387 5.8033 6.99993 5.78415C5.82609 5.80294 4.65845 5.61029 3.55286 5.2154C3.23194 5.0935 2.92603 4.93526 2.64111 4.74377V6.2969C2.64111 6.50427 2.93118 6.85602 3.7458 7.17452ZM3.7458 10.108C4.11488 10.2487 4.49547 10.3572 4.8833 10.4321C5.58069 10.5671 6.28961 10.6334 6.99993 10.6303C7.71023 10.6336 8.41914 10.5674 9.11655 10.4326C9.50438 10.3576 9.88497 10.2491 10.2541 10.1084C11.0696 9.79034 11.3587 9.43684 11.3587 9.2334V7.75027C11.1231 7.89209 10.8754 8.01287 10.6185 8.11121C9.45726 8.52236 8.23158 8.72138 6.99993 8.69877C5.76814 8.72067 4.54245 8.52091 3.38136 8.10902C3.1246 8.01043 2.87692 7.88966 2.64111 7.74809V9.23252C2.64111 9.4364 2.93118 9.78859 3.7458 10.108V10.108ZM6.99993 13.625C9.40618 13.625 11.3587 12.862 11.3587 11.9214V10.6802C11.1443 10.8094 10.9197 10.9209 10.6872 11.0136L10.6185 11.0411C9.45749 11.4535 8.23179 11.6537 6.99993 11.6322C5.76801 11.6543 4.54221 11.4541 3.38136 11.0411C3.35774 11.0324 3.33499 11.0223 3.31268 11.0136C3.08011 10.9209 2.85551 10.8094 2.64111 10.6802V11.9214C2.64111 12.862 4.59368 13.625 6.99993 13.625Z" fill="#FFDA44"/>
<path d="M6.99993 4.78225C9.40723 4.78225 11.3587 4.01951 11.3587 3.07862C11.3587 2.13774 9.40723 1.375 6.99993 1.375C4.59262 1.375 2.64111 2.13774 2.64111 3.07862C2.64111 4.01951 4.59262 4.78225 6.99993 4.78225Z" fill="#FFDA44"/>
<g clip-path="url(#clip0_5174_333)">
<path d="M24.9406 0.503906C21.3951 0.503906 21.6165 2.04747 21.6165 2.04747L21.6204 3.64666H25.0038V4.12678H20.2766C20.2766 4.12678 18.0078 3.86846 18.0078 7.45987C18.0078 11.0514 19.988 10.924 19.988 10.924H21.1698V9.25742C21.1698 9.25742 21.1061 7.26942 23.1185 7.26942H26.4742C26.4742 7.26942 28.3596 7.3 28.3596 5.44014V2.36497C28.3596 2.36497 28.6459 0.503906 24.9406 0.503906ZM23.075 1.57933C23.1549 1.57925 23.2341 1.59501 23.308 1.62569C23.3819 1.65638 23.449 1.70138 23.5055 1.75814C23.5621 1.8149 23.6069 1.88229 23.6375 1.95646C23.668 2.03063 23.6837 2.11012 23.6837 2.19038C23.6837 2.27065 23.668 2.35014 23.6375 2.42431C23.6069 2.49848 23.5621 2.56587 23.5055 2.62263C23.449 2.67939 23.3819 2.72439 23.308 2.75508C23.2341 2.78576 23.1549 2.80152 23.075 2.80144C22.995 2.80152 22.9159 2.78576 22.842 2.75508C22.7681 2.72439 22.701 2.67939 22.6444 2.62263C22.5879 2.56587 22.5431 2.49848 22.5125 2.42431C22.4819 2.35014 22.4662 2.27065 22.4663 2.19038C22.4662 2.11012 22.4819 2.03063 22.5125 1.95646C22.5431 1.88229 22.5879 1.8149 22.6444 1.75814C22.701 1.70138 22.7681 1.65638 22.842 1.62569C22.9159 1.59501 22.995 1.57925 23.075 1.57933V1.57933Z" fill="url(#paint0_linear_5174_333)"/>
<path d="M25.0413 14.4521C28.5868 14.4521 28.3655 12.9085 28.3655 12.9085L28.3615 11.3094H24.9781V10.8292H29.7053C29.7053 10.8292 31.9741 11.0875 31.9741 7.49603C31.9741 3.90456 29.9938 4.03193 29.9938 4.03193H28.812V5.69848C28.812 5.69848 28.8757 7.68648 26.8634 7.68648H23.5077C23.5077 7.68648 21.6223 7.6559 21.6223 9.51581V12.591C21.6223 12.591 21.336 14.4521 25.0413 14.4521H25.0413ZM26.9069 13.3767C26.827 13.3768 26.7478 13.3611 26.6739 13.3304C26.6 13.2997 26.5329 13.2547 26.4764 13.1979C26.4198 13.1412 26.375 13.0738 26.3444 12.9996C26.3139 12.9254 26.2982 12.8459 26.2983 12.7657C26.2982 12.6854 26.3139 12.6059 26.3444 12.5317C26.375 12.4576 26.4198 12.3902 26.4764 12.3334C26.5329 12.2766 26.6 12.2316 26.6739 12.2009C26.7478 12.1703 26.827 12.1545 26.9069 12.1546C26.9869 12.1545 27.0661 12.1703 27.1399 12.2009C27.2138 12.2316 27.281 12.2766 27.3375 12.3334C27.394 12.3901 27.4389 12.4575 27.4694 12.5317C27.5 12.6059 27.5157 12.6854 27.5156 12.7656C27.5157 12.8459 27.5 12.9254 27.4694 12.9996C27.4389 13.0737 27.394 13.1411 27.3375 13.1979C27.281 13.2546 27.2138 13.2996 27.1399 13.3303C27.0661 13.361 26.9869 13.3768 26.9069 13.3767V13.3767Z" fill="url(#paint1_linear_5174_333)"/>
</g>
<defs>
<linearGradient id="paint0_linear_5174_333" x1="19.35" y1="1.75845" x2="26.298" y2="8.61031" gradientUnits="userSpaceOnUse">
<stop stop-color="#387EB8"/>
<stop offset="1" stop-color="#366994"/>
</linearGradient>
<linearGradient id="paint1_linear_5174_333" x1="23.5983" y1="6.17584" x2="31.0583" y2="13.2005" gradientUnits="userSpaceOnUse">
<stop stop-color="#FFE052"/>
<stop offset="1" stop-color="#FFC331"/>
</linearGradient>
<clipPath id="clip0_5174_333">
<rect width="14" height="14" fill="white" transform="translate(18 0.5)"/>
</clipPath>
</defs>
</svg>
