<svg width="264" height="42" viewBox="0 0 264 42" fill="none" xmlns="http://www.w3.org/2000/svg">
<g clip-path="url(#clip0_4913_4215)">
<path d="M51.7891 24.1725C51.7891 17.3548 57.0213 12.5659 64.1505 12.5659C68.496 12.5659 71.92 14.1536 74.1089 17.0065L69.3828 21.2222C68.0829 19.5762 66.5298 18.6223 64.5312 18.6223C61.4252 18.6223 59.3314 20.781 59.3314 24.1725C59.3314 27.5641 61.4252 29.7228 64.5312 29.7228C66.5298 29.7228 68.0829 28.771 69.3828 27.1207L74.1089 31.3385C71.9287 34.1937 68.496 35.7791 64.1505 35.7791C57.0213 35.7705 51.7891 30.9816 51.7891 24.1725Z" fill="#2B2B2B"/>
<path d="M88.4795 17.5989V23.9408C87.9561 23.8564 87.4262 23.8131 86.8941 23.8131C84.7376 23.8131 83.2148 24.7973 83.2148 27.5551V35.2597H76.0488V17.9168H82.8644V19.79C84.1341 18.3278 86.0678 17.5989 88.4795 17.5989Z" fill="#2B2B2B"/>
<path d="M108.709 28.2538H96.6592C97.1653 29.5862 98.3723 30.2848 100.148 30.2848C101.734 30.2848 102.623 29.8717 103.765 29.013L107.507 32.7874C105.826 34.6259 103.386 35.5776 99.9274 35.5776C93.5553 35.5776 89.4326 31.7405 89.4326 26.5731C89.4326 21.3019 93.6504 17.5989 99.2634 17.5989C104.401 17.5989 108.807 20.7049 108.807 26.5731C108.804 27.0814 108.742 27.7455 108.709 28.2538ZM96.5315 24.7995H102.112C101.827 23.3459 100.78 22.4829 99.3218 22.4829C97.8358 22.4807 96.8214 23.3373 96.5359 24.7973L96.5315 24.7995Z" fill="#2B2B2B"/>
<path d="M127.738 25.9393V35.2597H121.08V32.9799C120.254 34.7232 118.606 35.5798 116.172 35.5798C111.922 35.5798 109.735 33.1702 109.735 30.1874C109.735 26.8262 112.27 24.9552 117.663 24.9552H120.548C120.325 23.6228 119.313 22.9263 117.276 22.9263C115.72 22.9263 113.979 23.4324 112.837 24.289L110.553 19.5628C112.582 18.291 115.66 17.5967 118.353 17.5967C124.314 17.5988 127.738 20.1728 127.738 25.9393ZM120.574 29.6251V28.4203H118.798C117.276 28.4203 116.618 28.9264 116.618 29.8738C116.618 30.6655 117.252 31.2689 118.331 31.2689C119.304 31.2624 120.191 30.7585 120.574 29.6251Z" fill="#2B2B2B"/>
<path d="M143.626 34.6585C142.517 35.2923 140.899 35.5778 139.218 35.5778C134.429 35.5778 131.639 33.3261 131.639 28.5372V24.0988H129.262V18.8687H131.639V14.0171H138.807V18.8687H142.359V24.1009H138.807V28.4767C138.807 29.5538 139.441 30.1573 140.297 30.1573C140.87 30.1616 141.433 29.9951 141.913 29.6815L143.626 34.6585Z" fill="#2B2B2B"/>
<path d="M144.706 12.8748C144.706 10.8135 146.387 9.22803 149.017 9.22803C151.647 9.22803 153.33 10.6816 153.33 12.7472C153.33 14.9275 151.649 16.5216 149.017 16.5216C146.385 16.5216 144.706 14.9362 144.706 12.8748ZM145.433 17.9168H152.601V35.2618H145.435L145.433 17.9168Z" fill="#2B2B2B"/>
<path d="M175.084 17.917L168.108 35.262H160.685L153.709 17.9148H161.065L164.556 27.2092L168.298 17.917H175.084Z" fill="#2B2B2B"/>
<path d="M194.077 28.2538H182.027C182.536 29.5862 183.74 30.2848 185.516 30.2848C187.102 30.2848 187.991 29.8717 189.133 29.013L192.875 32.7874C191.194 34.6259 188.754 35.5776 185.296 35.5776C178.923 35.5776 174.801 31.7405 174.801 26.5731C174.801 21.3019 179.019 17.5989 184.632 17.5989C189.769 17.5989 194.177 20.7049 194.177 26.5731C194.175 27.0814 194.11 27.7455 194.077 28.2538ZM181.898 24.7995H187.478C187.193 23.3459 186.146 22.4829 184.688 22.4829C183.202 22.4807 182.187 23.3373 181.902 24.7973L181.898 24.7995Z" fill="#2B2B2B"/>
<path d="M218.529 13.0654V35.262H211.045V27.0816H204.128V35.262H196.648V13.0654H204.128V20.9301H211.034V13.0654H218.529Z" fill="#2B2B2B"/>
<path d="M240.886 17.917V35.262H234.069V33.6116C232.769 34.944 231.025 35.5778 229.161 35.5778C225.006 35.5778 221.867 33.1358 221.867 27.4925V17.917H229.035V26.2575C229.035 28.7319 229.892 29.5539 231.285 29.5539C232.522 29.5539 233.727 28.6368 233.727 26.0671V17.917H240.886Z" fill="#2B2B2B"/>
<path d="M264.003 26.5734C264.003 32.1539 260.168 35.5779 255.633 35.5779C253.476 35.5779 251.923 35.0069 250.876 33.8324V35.26H244.061V11.7332H251.227V19.083C252.273 18.0685 253.731 17.5927 255.635 17.5927C260.168 17.5992 264.003 20.9929 264.003 26.5734ZM256.744 26.5734C256.744 24.3218 255.507 23.1797 253.922 23.1797C252.336 23.1797 251.099 24.3218 251.099 26.5734C251.099 28.8251 252.336 29.9974 253.922 29.9974C255.507 29.9974 256.742 28.8251 256.744 26.5734Z" fill="#2B2B2B"/>
<path d="M20.8793 -0.0488281C9.34844 -0.0488281 0 9.29961 0 20.8305C0 32.3614 9.34844 41.7098 20.8793 41.7098C32.4102 41.7098 41.7587 32.3657 41.7587 20.8305C41.7587 9.29528 32.4081 -0.0488281 20.8793 -0.0488281ZM29.382 20.8586C28.7245 21.3345 27.9739 21.6654 27.1801 21.8298L27.0503 21.8558V27.4968H22.9277V21.5638L22.2874 21.4124C21.5131 21.2328 20.7128 21.049 20.0012 21.0057C19.8433 20.9992 19.6854 21.0014 19.5275 21.0144L19.3761 21.0273V31.9504H15.2599V22.3965L13.9881 23.3006L11.6088 19.935L12.9325 18.9898C13.5901 18.5139 14.3406 18.183 15.1344 18.0186L15.2642 17.9927V10.8764H19.3869V16.8982L19.5556 16.8917C19.6508 16.8874 19.7481 16.8874 19.8433 16.8874C19.9839 16.8852 20.1245 16.8917 20.265 16.9068H20.278C21.1064 16.9566 21.9305 17.082 22.7373 17.281L22.932 17.3286V10.8353H27.0547V17.4519L28.3265 16.5478L30.7101 19.9112L29.382 20.8586Z" fill="#2B2B2B"/>
</g>
<defs>
<clipPath id="clip0_4913_4215">
<rect width="264" height="42" fill="white"/>
</clipPath>
</defs>
</svg>
