<svg width="35" height="35" viewBox="0 0 35 35" fill="none" xmlns="http://www.w3.org/2000/svg">
<path d="M15.4931 21.6344C15.1826 21.6344 14.8721 21.5165 14.6351 21.2795L11.3458 17.9902C10.8717 17.5162 10.8717 16.7483 11.3458 16.2756C11.8198 15.8015 12.5864 15.8002 13.0604 16.2742L15.4931 18.7069L21.215 12.9849C21.6891 12.5109 22.4556 12.5109 22.9296 12.9849C23.4037 13.459 23.4037 14.2269 22.9296 14.701L16.3511 21.2795C16.1141 21.5165 15.8036 21.6344 15.4931 21.6344" fill="url(#paint0_linear_4920_15531)"/>
<path d="M17.1318 31.2637C9.32704 31.2637 3 24.9366 3 17.1318H-3C-3 28.2503 6.01333 37.2637 17.1318 37.2637V31.2637ZM31.2637 17.1318C31.2637 24.9366 24.9366 31.2637 17.1318 31.2637V37.2637C28.2503 37.2637 37.2637 28.2503 37.2637 17.1318H31.2637ZM17.1318 3C24.9366 3 31.2637 9.32704 31.2637 17.1318H37.2637C37.2637 6.01333 28.2503 -3 17.1318 -3V3ZM17.1318 -3C6.01333 -3 -3 6.01333 -3 17.1318H3C3 9.32704 9.32704 3 17.1318 3V-3Z" fill="url(#paint1_linear_4920_15531)"/>
<defs>
<linearGradient id="paint0_linear_4920_15531" x1="9.58323" y1="12.3194" x2="17.6191" y2="25.0815" gradientUnits="userSpaceOnUse">
<stop stop-color="#FF6BDF"/>
<stop offset="1" stop-color="#A400CD"/>
</linearGradient>
<linearGradient id="paint1_linear_4920_15531" x1="-3.92105" y1="-1.1796" x2="29.6015" y2="37.8129" gradientUnits="userSpaceOnUse">
<stop stop-color="#FF6BDF"/>
<stop offset="1" stop-color="#A400CD"/>
</linearGradient>
</defs>
</svg>
