<svg width="62" height="61" viewBox="0 0 62 61" fill="none" xmlns="http://www.w3.org/2000/svg">
<path d="M29.3714 27.3548C29.677 27.2347 29.8734 26.9292 29.8734 26.6018V6.80749C29.8734 6.36009 29.5133 6 29.0659 6C23.6863 6 18.6013 8.06237 14.7275 11.8052C14.5748 11.9579 14.4875 12.1544 14.4766 12.3726C14.4766 12.5908 14.5529 12.7982 14.7057 12.9509L28.4767 27.1693C28.6294 27.3329 28.8477 27.4202 29.055 27.4202C29.175 27.4093 29.2732 27.3984 29.3714 27.3548ZM28.2584 24.6049L16.4516 12.4162C19.7361 9.49183 23.8718 7.81139 28.2584 7.6368V24.6049Z" fill="#231F20"/>
<path d="M28.9984 30.8358C29.0202 30.5957 28.9438 30.3666 28.7692 30.192L14.9983 15.9736C14.8455 15.8209 14.6491 15.7336 14.4309 15.7227C14.2126 15.7227 14.0053 15.799 13.8525 15.9518C9.80417 19.8692 7.57812 25.1288 7.57812 30.7485C7.57812 35.0478 8.88756 39.1616 11.3755 42.6644C11.5283 42.8826 11.7902 43.0026 12.0411 43.0026C12.2048 43.0026 12.3685 42.959 12.5103 42.8499L28.6601 31.4032C28.8565 31.2832 28.9765 31.0758 28.9984 30.8358ZM12.2485 41.0712C10.2516 37.994 9.20401 34.4476 9.20401 30.7594C9.20401 25.849 11.0481 21.2441 14.4199 17.6977L26.9578 30.6393L12.2485 41.0712Z" fill="#231F20"/>
<path d="M53.3882 30.1159C53.3446 29.7777 53.29 29.4503 53.2355 29.112C53.1045 28.3809 52.9299 27.6717 52.7335 27.006C52.6462 26.7114 52.5589 26.4168 52.4607 26.1222C52.2425 25.4893 52.0024 24.8673 51.7187 24.2562C51.5987 23.9943 51.4786 23.7324 51.3477 23.4705C51.064 22.9031 50.7475 22.3466 50.4093 21.801C50.2565 21.5609 50.1146 21.3318 49.951 21.1026C49.569 20.5352 49.1435 19.9787 48.707 19.4549C48.5324 19.2476 48.3578 19.0403 48.1723 18.8329C47.7686 18.3856 47.3321 17.9491 46.8738 17.5235C46.6774 17.338 46.47 17.1525 46.2627 16.9779C45.7935 16.5742 45.3024 16.1922 44.8114 15.8321C44.5823 15.6685 44.3531 15.5048 44.124 15.3629C43.5784 15.0028 43.0328 14.6755 42.4981 14.3809C42.2471 14.2499 41.9961 14.119 41.7342 13.988C41.0795 13.6716 40.392 13.377 39.7046 13.126C39.4209 13.0278 39.1263 12.9186 38.8426 12.8313C38.166 12.624 37.4785 12.4385 36.7693 12.2967C36.4419 12.2312 36.1145 12.1766 35.7872 12.1221C35.0233 12.002 34.2159 11.9257 33.4084 11.8929C33.1247 11.882 32.8519 11.8711 32.5682 11.8711C31.9025 11.8711 31.3678 12.4058 31.3678 13.0714V32.2547L15.7309 43.3413C15.4691 43.5268 15.2945 43.8105 15.2399 44.1269C15.1853 44.4434 15.2617 44.7598 15.4472 45.0217L15.5236 45.1199C15.8619 45.5892 16.2438 46.0693 16.6803 46.5712C16.8549 46.7786 17.0404 46.9859 17.2259 47.1823C17.6296 47.6188 18.077 48.0553 18.5462 48.4699C18.7536 48.6554 18.9609 48.83 19.1682 49.0046C19.7466 49.4847 20.2813 49.8885 20.8159 50.2486C21.0124 50.3795 21.2088 50.4995 21.4052 50.6305L21.5252 50.7069C22.0708 51.0451 22.6273 51.3616 23.1948 51.6453C23.4566 51.7762 23.7076 51.8963 23.9695 52.0163C24.5478 52.2782 25.1589 52.5183 25.8464 52.7474C26.141 52.8456 26.4247 52.9438 26.7193 53.0202C27.4504 53.2385 28.1379 53.4021 28.8253 53.5222C29.1636 53.5876 29.491 53.6313 29.8292 53.6749C30.7349 53.795 31.6515 53.8604 32.5136 53.8604C32.5245 53.8604 32.5791 53.8604 32.59 53.8604C32.9719 53.8604 33.3429 53.8495 33.7139 53.8277C34.7069 53.7731 35.7108 53.6531 36.6929 53.4567C37.1839 53.3585 37.6859 53.2385 38.2206 53.0857C39.7482 52.6601 41.2214 52.0709 42.5854 51.318C43.9603 50.565 45.2697 49.6593 46.4591 48.6009C47.1248 48.0116 47.7576 47.3787 48.336 46.724C49.3944 45.5237 50.3111 44.2252 51.0531 42.8502C51.7951 41.4862 52.3952 40.0131 52.8208 38.4854C52.9736 37.9508 53.0936 37.4488 53.1918 36.9578C53.3882 35.9757 53.5083 34.9718 53.5628 33.9788C53.5847 33.6078 53.5956 33.2259 53.5956 32.8549V32.8003C53.5737 31.9492 53.5083 31.0435 53.3882 30.1159ZM51.926 33.9242C51.8715 34.8408 51.7624 35.7684 51.5769 36.674C51.4896 37.1214 51.3804 37.5797 51.2386 38.0817C50.8457 39.4893 50.3001 40.8533 49.6127 42.1082C48.9252 43.374 48.085 44.5743 47.1029 45.6874C46.5682 46.2875 45.9899 46.8768 45.3679 47.4224C44.2658 48.3935 43.0655 49.2447 41.7997 49.9321C40.5339 50.6196 39.1808 51.1652 37.7732 51.558C37.2821 51.6999 36.8238 51.809 36.3655 51.8963C35.4598 52.0818 34.5323 52.1909 33.6157 52.2455C33.2665 52.2673 32.9282 52.2782 32.5791 52.2782C32.5682 52.2782 32.5354 52.2782 32.5245 52.2782C31.7061 52.2782 30.8659 52.2127 30.0257 52.1036C29.7201 52.06 29.4037 52.0163 29.0981 51.9618C28.4652 51.8417 27.8323 51.689 27.1558 51.4925C26.883 51.4162 26.6102 51.3289 26.3483 51.2307C25.7154 51.0124 25.148 50.7942 24.6242 50.5541C24.3842 50.445 24.1441 50.325 23.904 50.2049C23.3912 49.943 22.8674 49.6484 22.3654 49.3429L22.2454 49.2665C22.0708 49.1574 21.8853 49.0483 21.7107 48.9282C21.2306 48.6009 20.7286 48.2189 20.194 47.7825C19.9975 47.6188 19.812 47.4551 19.6156 47.2805C19.1791 46.8877 18.7754 46.4948 18.4044 46.0911C18.2298 45.9056 18.0661 45.7201 17.9024 45.5346C17.5751 45.1527 17.2805 44.7926 17.0186 44.4325L32.6554 33.3459C32.8737 33.1931 32.9937 32.9422 32.9937 32.6803V13.5079C33.1138 13.5079 33.2338 13.5188 33.3538 13.5188C34.1067 13.5515 34.8378 13.617 35.5471 13.7261C35.8527 13.7698 36.1582 13.8243 36.4528 13.8898C37.0966 14.0208 37.7404 14.1844 38.3624 14.3809C38.6243 14.4682 38.8971 14.5554 39.159 14.6537C39.7919 14.8828 40.4248 15.1556 41.0359 15.4502C41.2759 15.5703 41.5051 15.6903 41.7451 15.8103C42.2362 16.0722 42.749 16.3777 43.251 16.716C43.4692 16.8579 43.6766 16.9997 43.8839 17.1525C44.3422 17.4799 44.7896 17.84 45.2261 18.211C45.4116 18.3746 45.608 18.5383 45.7935 18.7129C46.2081 19.1057 46.6119 19.5095 46.9829 19.9241C47.1575 20.1096 47.3212 20.3061 47.4849 20.5025C47.8886 20.9935 48.2814 21.5064 48.6306 22.0302C48.7725 22.2375 48.9143 22.4557 49.0453 22.674C49.3617 23.1759 49.6454 23.6997 49.9073 24.2126C50.0273 24.4526 50.1365 24.6927 50.2565 24.9437C50.5075 25.5002 50.7366 26.0785 50.933 26.6678C51.0203 26.9406 51.1076 27.2024 51.184 27.4862C51.3695 28.1081 51.5223 28.7519 51.6423 29.4285C51.6969 29.734 51.7514 30.0396 51.7842 30.356C51.8933 31.2071 51.9588 32.0474 51.9588 32.8549V32.9094C51.9588 33.2368 51.9479 33.586 51.926 33.9242Z" fill="#231F20"/>
</svg>
