<svg width="62" height="61" viewBox="0 0 62 61" fill="none" xmlns="http://www.w3.org/2000/svg">
<path d="M13.4091 28.9943C12.9652 28.9601 12.5667 29.2789 12.5098 29.7115C12.4415 30.1554 12.7375 30.5653 13.1701 30.6563C16.312 31.3394 19.1352 31.6467 21.7193 31.6467C33.9113 31.6467 40.2293 24.6685 44.7145 17.2576L47.4238 18.8855C47.7084 19.0563 48.0613 19.0449 48.3345 18.8627C48.6077 18.6806 48.7444 18.3505 48.6874 18.0203L46.9457 7.70665C46.9002 7.4562 46.7408 7.22853 46.5131 7.10331C46.2855 6.97809 46.0122 6.9667 45.7732 7.06916L36.5409 10.9852C36.2336 11.1104 36.0287 11.4064 36.0287 11.7365C36.0173 12.0666 36.1994 12.374 36.5068 12.522L39.2958 13.8766C31.8508 30.2465 14.1605 29.0512 13.4091 28.9943ZM41.1628 13.8197C41.3335 13.4099 41.1628 12.9318 40.753 12.7269L38.9088 11.8276L45.4544 9.04994L46.718 16.5063L44.8511 15.3907C44.6576 15.2769 44.4299 15.2427 44.2022 15.2996C43.9859 15.3565 43.7924 15.4932 43.6786 15.6867C39.1478 23.3821 33.2283 30.2238 21.1501 29.9847C27.6616 28.5845 36.5865 24.6685 41.1628 13.8197Z" fill="#231F20"/>
<path d="M16.1174 39.7861C14.4895 39.7861 13.2031 41.3798 13.2031 43.4175V49.7811C13.2031 51.8188 14.4781 53.4125 16.1174 53.4125H20.1017C21.741 53.4125 23.0159 51.8188 23.0159 49.7811V43.4175C23.0159 41.3798 21.741 39.7861 20.1017 39.7861H16.1174ZM21.3198 43.4175V49.7811C21.3198 50.817 20.7506 51.7163 20.1017 51.7163H16.1174C15.4685 51.7163 14.8993 50.8056 14.8993 49.7811V43.4175C14.8993 42.3816 15.4685 41.4823 16.1174 41.4823H20.1017C20.7506 41.4709 21.3198 42.3816 21.3198 43.4175Z" fill="#231F20"/>
<path d="M28.1486 33.8203C26.5207 33.8203 25.2344 35.414 25.2344 37.4517V49.769C25.2344 51.8067 26.5094 53.4004 28.1486 53.4004H32.1329C33.7608 53.4004 35.0472 51.8067 35.0472 49.769V37.4517C35.0472 35.414 33.7722 33.8203 32.1329 33.8203H28.1486ZM33.3396 37.4517V49.769C33.3396 50.8049 32.7704 51.7042 32.1216 51.7042H28.1372C27.4884 51.7042 26.9192 50.7935 26.9192 49.769V37.4517C26.9192 36.4158 27.4884 35.5165 28.1372 35.5165H32.1216C32.7704 35.5165 33.3396 36.4158 33.3396 37.4517Z" fill="#231F20"/>
<path d="M45.3517 26.6719H41.3674C39.7395 26.6719 38.4531 28.2656 38.4531 30.3033V49.7809C38.4531 51.8186 39.7281 53.4124 41.3674 53.4124H45.3517C46.991 53.4124 48.2659 51.8186 48.2659 49.7809V30.2919C48.2545 28.2656 46.9796 26.6719 45.3517 26.6719ZM46.5698 49.7695C46.5698 50.8055 46.0006 51.7048 45.3517 51.7048H41.3674C40.7185 51.7048 40.1493 50.7941 40.1493 49.7695V30.2919C40.1493 29.256 40.7185 28.3567 41.3674 28.3567H45.3517C46.0006 28.3567 46.5698 29.2674 46.5698 30.2919V49.7695Z" fill="#231F20"/>
</svg>
