<svg width="62" height="61" viewBox="0 0 62 61" fill="none" xmlns="http://www.w3.org/2000/svg">
<path d="M53.5396 45.7459C53.5396 45.3256 53.2549 44.946 52.8347 44.824L42.9108 42.0041C42.7888 41.977 42.6668 41.9634 42.5448 41.977C42.2601 42.0177 42.0025 42.1939 41.8805 42.4515C41.772 42.6955 41.772 42.9667 41.8941 43.1972L46.3137 52.5244C46.5035 52.9447 46.978 53.1616 47.4118 53.0532C47.7507 52.9583 47.9948 52.6736 48.0219 52.3618L48.4557 49.9621L50.5977 51.7788C51.018 52.1448 51.601 52.2669 52.1297 52.1313C52.4686 52.0499 52.7669 51.8601 52.9974 51.589C53.6074 50.8705 53.5125 49.7995 52.794 49.1894L50.6248 47.3592L52.9025 46.5593C53.2956 46.4509 53.5396 46.1255 53.5396 45.7459ZM48.8218 47.0202L52.211 49.8944C52.5364 50.1791 52.5771 50.6671 52.3059 50.9925C52.1975 51.1145 52.0619 51.2094 51.9128 51.2501C51.6687 51.3179 51.3976 51.2501 51.2078 51.0874L47.8456 48.2404L47.1407 52.1177L42.7617 42.926L52.55 45.7188L48.8218 47.0202Z" fill="#231F20"/>
<path d="M7.5 34.9006C7.5 37.4358 9.56068 39.4964 12.0959 39.4964H14.5904L7.64913 51.264C7.48644 51.5487 7.47289 51.9012 7.63557 52.1859C7.79826 52.4706 8.11007 52.6468 8.43544 52.6468H18.0339H20.1488H39.061C39.3864 52.6468 39.6982 52.4706 39.8609 52.1859C40.0236 51.9012 40.0236 51.5487 39.8473 51.264L32.9061 39.4964H35.4006C37.9358 39.4964 39.9964 37.4358 39.9964 34.9006V11.5959C39.9964 9.06068 37.9358 7 35.4006 7H12.0959C9.56068 7 7.5 9.06068 7.5 11.5959V29.6811V31.5384V34.9006ZM37.4477 50.8031H10.0623L23.755 27.5933L37.4477 50.8031ZM9.34377 11.5959C9.34377 10.0775 10.5775 8.83022 12.1094 8.83022H35.4141C36.9325 8.83022 38.1798 10.0639 38.1798 11.5959V34.9006C38.1798 36.419 36.9461 37.6662 35.4141 37.6662H31.835L24.5549 25.3292C24.3922 25.0445 24.0939 24.8819 23.7686 24.8819C23.4432 24.8819 23.1449 25.0581 22.9822 25.3292L15.7021 37.6662H12.0959C10.5775 37.6662 9.33021 36.4325 9.33021 34.9006V11.5959H9.34377Z" fill="#231F20"/>
</svg>
