<svg width="62" height="61" viewBox="0 0 62 61" fill="none" xmlns="http://www.w3.org/2000/svg">
<path d="M55.8087 50.9219C53.9127 38.0166 52.0293 25.1238 50.1333 12.2185C49.8553 10.3604 49.5898 8.4897 49.3117 6.63164C49.2359 6.12604 48.6418 5.94908 48.2247 6.01228C44.0156 6.63164 39.7939 7.25099 35.5848 7.87035C35.0792 7.94619 34.9149 8.52762 34.9654 8.95738C35.787 14.5695 36.6086 20.1943 37.4428 25.8064C33.4739 21.9891 29.505 18.1592 25.536 14.342C24.1836 13.0401 22.8184 11.7255 21.466 10.4236C21.1247 10.095 20.5559 10.0697 20.2273 10.4236C17.2695 13.4951 14.3244 16.554 11.3667 19.6255C11.038 19.9668 11.0128 20.5356 11.3667 20.8642C12.1124 21.5847 12.8455 22.2925 13.5913 23.0003C12.9846 22.7223 12.3779 22.4568 11.7712 22.1787C11.3793 22.0018 10.7726 22.0271 10.5704 22.4947C8.81341 26.3752 7.06911 30.2557 5.31216 34.1361C5.1352 34.528 5.16048 35.122 5.62816 35.3369C7.7643 36.2975 9.8878 37.2582 12.0239 38.2188C10.6715 38.2062 9.31901 38.1809 7.96654 38.1683C7.48622 38.1683 7.09439 38.5727 7.08175 39.053C7.03119 43.3127 6.98063 47.5724 6.93007 51.832C6.91743 52.3123 7.33455 52.7042 7.81487 52.7168C19.0265 52.8432 30.2507 52.9822 41.4623 53.1086C41.475 53.1592 41.475 53.1971 41.4876 53.2477C41.5635 53.7533 42.1449 53.9176 42.5747 53.867C43.5985 53.7154 44.6223 53.5637 45.6462 53.412C45.9116 53.5384 46.177 53.6522 46.4425 53.7786C46.8343 53.9555 47.441 53.9302 47.6433 53.4626C47.6812 53.3741 47.7191 53.2856 47.7697 53.1845C49.3749 53.1971 50.9802 53.2224 52.5981 53.235C53.0784 53.235 53.4703 52.8306 53.4829 52.3503C53.4829 52.3123 53.4829 52.287 53.4829 52.2491C54.0643 52.1607 54.6458 52.0848 55.2272 51.9963C55.7455 51.9205 55.9098 51.5287 55.8466 51.1368C55.8213 51.0736 55.8213 50.9978 55.8087 50.9219ZM13.2374 20.2069C15.7907 17.5652 18.3313 14.9234 20.8719 12.269C26.5346 17.7295 32.1973 23.1773 37.86 28.6377C38.7321 34.5785 39.6043 40.5066 40.4764 46.4474C32.5386 38.8129 24.6133 31.1657 16.6754 23.5312C15.5379 22.4189 14.3876 21.3192 13.2374 20.2069ZM11.6574 36.1459C10.1785 35.4759 8.69966 34.806 7.22079 34.1488C8.73758 30.7992 10.2417 27.4496 11.7585 24.1C13.6166 24.9469 15.4873 25.7811 17.3454 26.628C24.7397 33.7569 32.1467 40.8858 39.5411 48.0021C39.9961 48.4319 40.4385 48.8743 40.8936 49.304C40.8936 49.3293 40.8935 49.3419 40.9062 49.3672C31.1608 44.9559 21.4154 40.5446 11.6574 36.1459ZM13.4523 51.0104C11.8723 50.9978 10.2796 50.9725 8.68701 50.9599C8.73757 47.2943 8.77549 43.6161 8.81341 39.9505C11.2024 39.9758 13.6039 40.0137 16.0055 40.039C24.3479 43.8057 32.6902 47.585 41.0326 51.3517C31.856 51.2253 22.6541 51.1242 13.4523 51.0104ZM43.055 52.0216C41.1969 39.369 39.3388 26.7291 37.4934 14.0766C37.2659 12.5345 37.0384 10.9924 36.8108 9.46298C40.4511 8.9321 44.0788 8.40123 47.7191 7.85771C49.5772 20.5103 51.4353 33.1502 53.2807 45.8028C53.5082 47.3448 53.7357 48.8869 53.9632 50.4163C50.3356 50.9472 46.6953 51.4781 43.055 52.0216Z" fill="#231F20"/>
<path d="M47.8747 43.666C46.2442 43.666 44.9296 44.9932 44.9296 46.6111C44.9296 48.2417 46.2442 49.5562 47.8747 49.5562C49.5053 49.5562 50.8198 48.229 50.8198 46.6111C50.8325 44.9932 49.5053 43.666 47.8747 43.666ZM47.8747 48.6209C46.7624 48.6209 45.865 47.7234 45.865 46.6111C45.865 45.4988 46.7624 44.6014 47.8747 44.6014C48.987 44.6014 49.8845 45.4988 49.8845 46.6111C49.8845 47.7234 48.987 48.6209 47.8747 48.6209Z" fill="#231F20"/>
</svg>
