<svg width="55" height="32" viewBox="0 0 55 32" fill="none" xmlns="http://www.w3.org/2000/svg">
<path d="M6.7158 11.7092L2.4158 15.9992L6.7158 20.2892C6.80953 20.3822 6.88392 20.4928 6.93469 20.6146C6.98546 20.7365 7.0116 20.8672 7.0116 20.9992C7.0116 21.1312 6.98546 21.2619 6.93469 21.3838C6.88392 21.5056 6.80953 21.6162 6.7158 21.7092C6.62283 21.8029 6.51223 21.8773 6.39038 21.9281C6.26852 21.9789 6.13781 22.005 6.0058 22.005C5.87379 22.005 5.74308 21.9789 5.62122 21.9281C5.49936 21.8773 5.38876 21.8029 5.2958 21.7092L0.295798 16.7092C0.20207 16.6162 0.127676 16.5056 0.0769072 16.3838C0.0261385 16.2619 0 16.1312 0 15.9992C0 15.8672 0.0261385 15.7365 0.0769072 15.6146C0.127676 15.4928 0.20207 15.3822 0.295798 15.2892L5.2958 10.2892C5.4841 10.1009 5.7395 9.99512 6.0058 9.99512C6.2721 9.99512 6.52749 10.1009 6.7158 10.2892C6.9041 10.4775 7.00989 10.7329 7.00989 10.9992C7.00989 11.2655 6.9041 11.5209 6.7158 11.7092Z" fill="#808080"/>
<path d="M29.3449 13.5868L30.1849 13.7602L35.7449 16.5335C36.6783 16.8402 37.2916 17.7602 37.2116 18.7468V19.0935L36.0116 27.2535C35.9316 27.8268 35.6783 28.3602 35.2116 28.7335C34.7983 29.1335 34.2516 29.3335 33.6783 29.3335H24.5049C23.8516 29.3335 23.2516 29.0935 22.8116 28.6268L14.8249 20.6668L16.0249 19.3335C16.3449 19.0002 16.8516 18.8135 17.3316 18.8402H17.7183L23.0116 20.0002V6.00016C23.0116 5.29292 23.2925 4.61464 23.7926 4.11454C24.2927 3.61445 24.971 3.3335 25.6783 3.3335C26.3855 3.3335 27.0638 3.61445 27.5639 4.11454C28.064 4.61464 28.3449 5.29292 28.3449 6.00016V13.5868H29.3449V13.5868Z" fill="#555555"/>
<path d="M48.7274 10.2892C48.5391 10.1009 48.2837 9.99512 48.0174 9.99512C47.7511 9.99512 47.4957 10.1009 47.3074 10.2892C47.1191 10.4775 47.0133 10.7329 47.0133 10.9992C47.0133 11.2655 47.1191 11.5209 47.3074 11.7092L51.6074 15.9992L47.3074 20.2892C47.2137 20.3822 47.1393 20.4928 47.0885 20.6146C47.0377 20.7365 47.0116 20.8672 47.0116 20.9992C47.0116 21.1312 47.0377 21.2619 47.0885 21.3838C47.1393 21.5056 47.2137 21.6162 47.3074 21.7092C47.4004 21.8029 47.511 21.8773 47.6328 21.9281C47.7547 21.9789 47.8854 22.005 48.0174 22.005C48.1494 22.005 48.2801 21.9789 48.402 21.9281C48.5238 21.8773 48.6344 21.8029 48.7274 21.7092L53.7274 16.7092C53.8211 16.6162 53.8955 16.5056 53.9463 16.3838C53.9971 16.2619 54.0232 16.1312 54.0232 15.9992C54.0232 15.8672 53.9971 15.7365 53.9463 15.6146C53.8955 15.4928 53.8211 15.3822 53.7274 15.2892L48.7274 10.2892Z" fill="#808080"/>
</svg>
