<svg width="120" height="120" viewBox="0 0 120 120" fill="none" xmlns="http://www.w3.org/2000/svg">
<g filter="url(#filter0_d_5766_6049)">
<path d="M97.3323 94.8302C118.226 73.9372 118.226 40.0628 97.3323 19.1698C76.4388 -1.72326 42.5637 -1.72326 21.6701 19.1698C0.776618 40.0628 0.776618 73.9372 21.6701 94.8302C42.5637 115.723 76.4388 115.723 97.3323 94.8302Z" fill="url(#paint0_linear_5766_6049)"/>
</g>
<path d="M30.61 36.4906H89.5912C89.9326 36.4906 90.2106 36.7685 90.2106 37.1099V42.6618H29.9906V37.1099C29.9906 36.767 30.2682 36.4906 30.61 36.4906ZM89.5912 34.25H30.6118C29.0316 34.25 27.75 35.5313 27.75 37.1099V77.5237C27.75 79.104 29.0315 80.3854 30.6118 80.3854H89.5912C91.1717 80.3854 92.4512 79.1038 92.4512 77.5237V37.1099C92.4512 35.5316 91.1716 34.25 89.5912 34.25ZM89.5912 78.1449H30.6118C30.2682 78.1449 29.9906 77.8666 29.9906 77.5255V44.9317H90.2106V77.5237C90.2106 77.8673 89.9323 78.1449 89.5912 78.1449Z" fill="white" stroke="white" stroke-width="0.5"/>
<path d="M75.8528 42.7436C77.6026 42.7436 79.021 41.3251 79.021 39.5754C79.021 37.8257 77.6026 36.4072 75.8528 36.4072C74.103 36.4072 72.6846 37.8257 72.6846 39.5754C72.6882 41.3251 74.1049 42.7399 75.8528 42.7436ZM75.8528 38.1496C76.6417 38.1496 77.2804 38.7884 77.2804 39.5772C77.2804 40.3661 76.6417 41.0048 75.8528 41.0048C75.064 41.0048 74.4252 40.3661 74.4252 39.5772C74.438 38.7994 75.0731 38.1734 75.8528 38.1734V38.1496Z" fill="white"/>
<path d="M83.6507 42.7436C85.3986 42.7436 86.8189 41.3251 86.8189 39.5754C86.8189 37.8257 85.4004 36.4072 83.6507 36.4072C81.9009 36.4072 80.4824 37.8257 80.4824 39.5754C80.4861 41.3251 81.9027 42.7399 83.6507 42.7436ZM83.6507 38.1496C84.4395 38.1496 85.0783 38.7884 85.0783 39.5772C85.0783 40.3661 84.4395 41.0048 83.6507 41.0048C82.8618 41.0048 82.223 40.3661 82.223 39.5772C82.2358 38.7994 82.871 38.1734 83.6507 38.1734V38.1496Z" fill="white"/>
<path d="M49.3722 53.1913L49.1945 53.1925L49.1373 53.3608L45.193 64.9628L45.0806 65.2932H45.4297H46.9781H47.159L47.2156 65.1214L48.3652 61.6272H52.1251L53.3085 65.1126L53.3661 65.2822H53.5452H55.1467H55.4963L55.3833 64.9515L51.4207 53.3477L51.3625 53.1772L51.1824 53.1785L49.3722 53.1913ZM51.627 59.9687H48.8481L49.894 56.9418L49.894 56.9418L49.8957 56.9365C50.0217 56.5433 50.1347 56.1513 50.2389 55.7637C50.3396 56.1448 50.4494 56.539 50.5797 56.9519L50.5796 56.9519L50.5819 56.9587L51.627 59.9687Z" fill="white" stroke="white" stroke-width="0.5"/>
<path d="M60.0421 53.1106L60.0417 53.1106C58.962 53.1124 57.8863 53.1958 56.8201 53.3568L56.6074 53.3889V53.604V65.0211V65.2457L56.8308 65.2697C57.7437 65.3676 58.6607 65.4157 59.5798 65.4102C61.8703 65.4101 63.7529 64.8223 64.8913 63.6645L64.8913 63.6645L64.8948 63.6608C66.086 62.3994 66.7144 60.7096 66.6344 58.9769C66.7242 57.3456 66.0979 55.7552 64.9151 54.624L64.9148 54.6237C63.8334 53.593 62.2264 53.1106 60.0421 53.1106ZM59.8683 63.7041V63.704L59.8628 63.7041C59.4435 63.7133 59.0256 63.6939 58.6101 63.646V54.9089C59.1011 54.8258 59.5991 54.7869 60.0968 54.7947L60.0968 54.7948H60.1007C61.6402 54.7948 62.7493 55.217 63.4716 55.9347C64.1937 56.6521 64.5643 57.6996 64.5564 59.0219L64.5564 59.0238C64.559 60.5481 64.1384 61.7093 63.3632 62.4896C62.5882 63.2697 61.4241 63.7041 59.8683 63.7041Z" fill="white" stroke="white" stroke-width="0.5"/>
<path d="M73.7584 55.2982L74.0187 55.4421L74.1157 55.161L74.544 53.9201L74.6147 53.7152L74.4219 53.6162C73.5911 53.1893 72.6665 52.9803 71.7341 53.0084C69.3792 53.0099 67.734 54.4315 67.734 56.4082C67.734 57.2939 68.0513 58.011 68.6253 58.5903C69.1913 59.1618 69.998 59.5906 70.9685 59.9323C71.7384 60.2176 72.2418 60.5072 72.553 60.8359C72.854 61.1538 72.9906 61.5244 72.9906 62.0179C72.9906 62.4938 72.7973 62.9174 72.4372 63.2256C72.0753 63.5354 71.5296 63.7407 70.8112 63.7409C69.9081 63.732 69.0261 63.4826 68.252 63.0171L67.976 62.8512L67.8836 63.1597L67.5066 64.4189L67.4487 64.6123L67.6255 64.7096C68.571 65.23 69.6343 65.4949 70.7125 65.4837C72.1278 65.4834 73.2077 65.082 73.9368 64.4196C74.6671 63.7561 75.0226 62.8509 75.0226 61.8916C75.0226 60.9413 74.756 60.2125 74.2113 59.6245C73.6764 59.0472 72.8917 58.626 71.8974 58.2449C71.1001 57.936 70.5582 57.6596 70.2152 57.3461C69.888 57.0471 69.7367 56.71 69.7367 56.2398C69.7367 55.9019 69.8601 55.5343 70.1518 55.251C70.4413 54.97 70.9202 54.7495 71.6727 54.7493C72.4032 54.7564 73.1197 54.9451 73.7584 55.2982Z" fill="white" stroke="white" stroke-width="0.5"/>
<defs>
<filter id="filter0_d_5766_6049" x="-6" y="-2.5" width="131.003" height="131" filterUnits="userSpaceOnUse" color-interpolation-filters="sRGB">
<feFlood flood-opacity="0" result="BackgroundImageFix"/>
<feColorMatrix in="SourceAlpha" type="matrix" values="0 0 0 0 0 0 0 0 0 0 0 0 0 0 0 0 0 0 127 0" result="hardAlpha"/>
<feOffset dy="6"/>
<feGaussianBlur stdDeviation="6"/>
<feComposite in2="hardAlpha" operator="out"/>
<feColorMatrix type="matrix" values="0 0 0 0 0 0 0 0 0 0 0 0 0 0 0 0 0 0 0.25 0"/>
<feBlend mode="normal" in2="BackgroundImageFix" result="effect1_dropShadow_5766_6049"/>
<feBlend mode="normal" in="SourceGraphic" in2="effect1_dropShadow_5766_6049" result="shape"/>
</filter>
<linearGradient id="paint0_linear_5766_6049" x1="131.643" y1="-15.8432" x2="-47.9319" y2="122.181" gradientUnits="userSpaceOnUse">
<stop stop-color="#EF5DA8"/>
<stop offset="1" stop-color="#FF8800"/>
</linearGradient>
</defs>
</svg>
