<svg width="46" height="37" viewBox="0 0 46 37" fill="none" xmlns="http://www.w3.org/2000/svg">
<path d="M0.5 1.90531V18.9872C0.5 19.7725 1.14224 20.4096 1.93394 20.4096H9.35414C10.191 20.4096 10.9762 20.8088 11.4656 21.4817C15.8102 27.454 10.5442 36.4829 10.5442 36.4829C20.5325 36.4829 20.5883 20.4096 20.5883 20.4096V1.90531C20.5883 1.11998 19.9461 0.48291 19.1544 0.48291H1.93394C1.14224 0.48291 0.5 1.11998 0.5 1.90531Z" fill="url(#paint0_linear_6727_428)"/>
<path d="M25.4111 1.90531V18.9872C25.4111 19.7725 26.0534 20.4096 26.8451 20.4096H34.2653C35.1022 20.4096 35.8873 20.8088 36.3768 21.4817C40.7213 27.454 35.4553 36.4829 35.4553 36.4829C45.4436 36.4829 45.4995 20.4096 45.4995 20.4096V1.90531C45.4995 1.11998 44.8572 0.48291 44.0655 0.48291H26.8459C26.0534 0.48291 25.4111 1.11998 25.4111 1.90531Z" fill="url(#paint1_linear_6727_428)"/>
<defs>
<linearGradient id="paint0_linear_6727_428" x1="-1.79886" y1="-0.75647" x2="30.7386" y2="20.3624" gradientUnits="userSpaceOnUse">
<stop stop-color="#FF6BDF"/>
<stop offset="1" stop-color="#A400CD"/>
</linearGradient>
<linearGradient id="paint1_linear_6727_428" x1="23.1123" y1="-0.75647" x2="55.6497" y2="20.3624" gradientUnits="userSpaceOnUse">
<stop stop-color="#FF6BDF"/>
<stop offset="1" stop-color="#A400CD"/>
</linearGradient>
</defs>
</svg>
