<svg width="120" height="120" viewBox="0 0 120 120" fill="none" xmlns="http://www.w3.org/2000/svg">
<g filter="url(#filter0_d_5765_6125)">
<path d="M97.3323 94.8302C118.226 73.9372 118.226 40.0628 97.3323 19.1698C76.4388 -1.72326 42.5637 -1.72326 21.6701 19.1698C0.776619 40.0628 0.776618 73.9372 21.6701 94.8302C42.5637 115.723 76.4388 115.723 97.3323 94.8302Z" fill="url(#paint0_linear_5765_6125)"/>
</g>
<path d="M59.4993 27.9485C43.4626 27.9392 30.4566 40.9333 30.4473 56.9696C30.4426 65.9151 34.5634 74.3656 41.6149 79.8714C41.6381 79.8877 41.6567 79.9086 41.68 79.9225C49.8192 86.272 60.7241 87.8105 70.3043 83.9618C75.5662 87.6246 82.799 86.3278 86.4619 81.066C89.2346 77.0825 89.2346 71.7951 86.4642 67.8093C92.4373 52.9234 85.2138 36.0131 70.3275 30.0379C66.8831 28.655 63.2086 27.9462 59.4993 27.9485ZM32.7691 56.9998C32.7645 42.2394 44.727 30.268 59.4877 30.261C74.2484 30.2563 86.2201 42.2185 86.2271 56.9789C86.2271 59.9933 85.7204 62.9867 84.7211 65.8314C80.3818 61.8665 73.7557 61.7898 69.3282 65.6571C68.8959 65.3852 68.4589 65.1203 68.0034 64.8855C72.3751 60.1885 72.1125 52.835 67.413 48.4611C62.7136 44.0871 55.3623 44.352 50.9882 49.0514C46.8373 53.5114 46.8349 60.4186 50.9836 64.8809C46.2864 67.3189 42.8444 71.6371 41.5173 76.7594C35.9463 71.7021 32.7668 64.5276 32.7691 56.9998ZM50.2026 56.9998C50.2026 51.8659 54.3652 47.7034 59.4993 47.7034C64.6333 47.7034 68.7959 51.8659 68.7959 56.9998C68.7959 62.1338 64.6333 66.2963 59.4993 66.2963C54.3652 66.2916 50.2073 62.1315 50.2026 56.9998ZM43.5323 78.4235C44.5154 73.1687 48.011 68.7319 52.8894 66.545C56.8567 69.3083 62.1233 69.313 66.0953 66.5542C66.6484 66.8006 67.1876 67.0795 67.7105 67.3863C64.2894 71.8276 64.552 78.0841 68.3357 82.2234C59.9502 85.1657 50.6512 83.741 43.5323 78.4235ZM76.9305 83.7294C71.7964 83.7294 67.6338 79.5669 67.6338 74.433C67.6338 69.299 71.7964 65.1365 76.9305 65.1365C82.0645 65.1365 86.2271 69.299 86.2271 74.433C86.2225 79.5646 82.0622 83.7224 76.9305 83.7294Z" fill="white"/>
<path d="M76.9026 79.1272C75.7328 79.0718 74.6292 78.5677 73.8211 77.7196C73.013 76.8715 72.5626 75.7445 72.5633 74.5728C72.5633 72.0561 74.6076 70.0108 77.123 70.0108C79.5701 70.0108 81.5612 71.9344 81.6752 74.3523L80.0793 73.8733C79.9551 73.3462 79.6924 72.8619 79.3184 72.4704C78.9445 72.0789 78.4728 71.7944 77.9522 71.6463C77.4315 71.4983 76.8808 71.492 76.357 71.6282C75.8331 71.7644 75.3551 72.0381 74.9724 72.4211C74.5896 72.804 74.316 73.2822 74.1799 73.8063C74.0438 74.3304 74.05 74.8814 74.198 75.4023C74.346 75.9232 74.6303 76.3951 75.0216 76.7693C75.413 77.1434 75.897 77.4062 76.4239 77.5305L76.9026 79.1272ZM84.7226 74.5728C84.7226 74.8009 84.715 75.029 84.6922 75.2571L83.1951 74.8085C83.2027 74.7325 83.2027 74.6488 83.2027 74.5728C83.2027 71.2121 80.482 68.4901 77.123 68.4901C73.764 68.4901 71.0434 71.2121 71.0434 74.5728C71.0434 77.9334 73.764 80.6554 77.123 80.6554C77.199 80.6554 77.2826 80.6554 77.3586 80.6478L77.807 82.1457C77.579 82.1685 77.351 82.1761 77.123 82.1761C72.9281 82.1761 69.5234 78.7698 69.5234 74.5728C69.5234 70.3758 72.9281 66.9695 77.123 66.9695C81.318 66.9695 84.7226 70.3758 84.7226 74.5728ZM81.8576 77.8118L84.7226 76.8538L77.123 74.5728L79.4029 82.1761L80.3605 79.3096L83.6055 82.5562L85.1102 81.0508L81.8576 77.8118Z" fill="white"/>
<circle cx="59.6792" cy="57.1253" r="9.84427" fill="white"/>
<defs>
<filter id="filter0_d_5765_6125" x="-6" y="-2.5" width="131.003" height="131" filterUnits="userSpaceOnUse" color-interpolation-filters="sRGB">
<feFlood flood-opacity="0" result="BackgroundImageFix"/>
<feColorMatrix in="SourceAlpha" type="matrix" values="0 0 0 0 0 0 0 0 0 0 0 0 0 0 0 0 0 0 127 0" result="hardAlpha"/>
<feOffset dy="6"/>
<feGaussianBlur stdDeviation="6"/>
<feComposite in2="hardAlpha" operator="out"/>
<feColorMatrix type="matrix" values="0 0 0 0 0 0 0 0 0 0 0 0 0 0 0 0 0 0 0.25 0"/>
<feBlend mode="normal" in2="BackgroundImageFix" result="effect1_dropShadow_5765_6125"/>
<feBlend mode="normal" in="SourceGraphic" in2="effect1_dropShadow_5765_6125" result="shape"/>
</filter>
<linearGradient id="paint0_linear_5765_6125" x1="131.643" y1="-15.8432" x2="-47.9319" y2="122.181" gradientUnits="userSpaceOnUse">
<stop stop-color="#EF5DA8"/>
<stop offset="1" stop-color="#FF8800"/>
</linearGradient>
</defs>
</svg>
