<svg width="120" height="120" viewBox="0 0 120 120" fill="none" xmlns="http://www.w3.org/2000/svg">
<g filter="url(#filter0_d_5766_5974)">
<path d="M97.3323 94.8302C118.226 73.9372 118.226 40.0628 97.3323 19.1698C76.4388 -1.72326 42.5637 -1.72326 21.6701 19.1698C0.776619 40.0628 0.776618 73.9372 21.6701 94.8302C42.5637 115.723 76.4388 115.723 97.3323 94.8302Z" fill="url(#paint0_linear_5766_5974)"/>
</g>
<path d="M58.9371 75.6995C55.9349 75.5575 53.1028 74.2639 51.029 72.0874C48.9553 69.9108 47.7992 67.0187 47.8011 64.0117C47.8011 57.5532 53.0473 52.3044 59.5027 52.3044C65.7825 52.3044 70.8922 57.241 71.1848 63.4459L67.0892 62.2166C66.7705 60.864 66.0964 59.6211 65.1367 58.6163C64.1771 57.6116 62.9666 56.8816 61.6305 56.5016C60.2944 56.1217 58.8811 56.1056 57.5367 56.4552C56.1923 56.8047 54.9656 57.5071 53.9834 58.4898C53.0012 59.4724 52.2992 60.6997 51.9498 62.0448C51.6005 63.3898 51.6165 64.8038 51.9963 66.1406C52.376 67.4773 53.1057 68.6884 54.1099 69.6485C55.1142 70.6086 56.3565 71.283 57.7084 71.602L58.9371 75.6995ZM79.0054 64.0117C79.0054 64.5971 78.9859 65.1824 78.9274 65.7678L75.0853 64.6166C75.1048 64.4215 75.1048 64.2068 75.1048 64.0117C75.1048 55.3873 68.1229 48.402 59.5027 48.402C50.8825 48.402 43.9005 55.3873 43.9005 64.0117C43.9005 72.6361 50.8825 79.6215 59.5027 79.6215C59.6977 79.6215 59.9122 79.6215 60.1073 79.602L61.2579 83.4459C60.6728 83.5044 60.0878 83.5239 59.5027 83.5239C48.7372 83.5239 40 74.7824 40 64.0117C40 53.241 48.7372 44.4995 59.5027 44.4995C70.2682 44.4995 79.0054 53.241 79.0054 64.0117ZM71.6529 72.3239L79.0054 69.8654L59.5027 64.0117L65.3535 83.5239L67.8108 76.1678L76.1385 84.4995L80 80.6361L71.6529 72.3239Z" fill="white"/>
<circle cx="59.8443" cy="39.3438" r="9.84427" fill="white"/>
<defs>
<filter id="filter0_d_5766_5974" x="-6" y="-2.5" width="131.003" height="131" filterUnits="userSpaceOnUse" color-interpolation-filters="sRGB">
<feFlood flood-opacity="0" result="BackgroundImageFix"/>
<feColorMatrix in="SourceAlpha" type="matrix" values="0 0 0 0 0 0 0 0 0 0 0 0 0 0 0 0 0 0 127 0" result="hardAlpha"/>
<feOffset dy="6"/>
<feGaussianBlur stdDeviation="6"/>
<feComposite in2="hardAlpha" operator="out"/>
<feColorMatrix type="matrix" values="0 0 0 0 0 0 0 0 0 0 0 0 0 0 0 0 0 0 0.25 0"/>
<feBlend mode="normal" in2="BackgroundImageFix" result="effect1_dropShadow_5766_5974"/>
<feBlend mode="normal" in="SourceGraphic" in2="effect1_dropShadow_5766_5974" result="shape"/>
</filter>
<linearGradient id="paint0_linear_5766_5974" x1="131.643" y1="-15.8432" x2="-47.9319" y2="122.181" gradientUnits="userSpaceOnUse">
<stop stop-color="#EF5DA8"/>
<stop offset="1" stop-color="#FF8800"/>
</linearGradient>
</defs>
</svg>
