<svg width="304" height="1017" viewBox="0 0 304 1017" fill="none" xmlns="http://www.w3.org/2000/svg">
<path d="M248.311 0.787109H55.9443C46.5862 0.787109 39 8.35945 39 17.7004V898.187C39 907.528 46.5862 915.1 55.9443 915.1H248.311C257.67 915.1 265.256 907.528 265.256 898.187V17.7004C265.256 8.35945 257.67 0.787109 248.311 0.787109Z" fill="#F3DDE3"/>
<path d="M248.312 1.7821H55.9444C47.1368 1.7821 39.9968 8.90901 39.9968 17.7005V898.187C39.9968 906.978 47.1368 914.105 55.9444 914.105H248.312C257.119 914.105 264.259 906.978 264.259 898.187V17.7005C264.259 8.90901 257.119 1.7821 248.312 1.7821Z" fill="#F3DDE3"/>
</svg>
