<svg width="37" height="33" viewBox="0 0 37 33" fill="none" xmlns="http://www.w3.org/2000/svg">
<path d="M9.29794 0.330285C8.69726 0.338509 7.24956 0.578734 5.60268 0.84565L6.17121 2.49253C9.45629 2.05343 9.43685 1.96513 9.677 2.30023C12.08 5.65268 14.1333 8.89073 15.2603 12.3954C17.6979 12.5756 20.6085 13.0788 22.6105 14.1787C25.1588 11.4617 29.3151 10.0059 32.7412 8.81791C33.6501 8.5027 34.6287 9.37118 35.9165 9.57066L36.2789 8.27989C35.9147 7.77036 34.1999 7.03974 33.4873 7.02995C33.1856 7.02576 32.3287 7.26546 32.0691 7.35451C27.8089 8.17709 24.3407 8.34008 19.942 9.79002C17.1586 6.95533 14.2445 4.15159 10.9004 1.28139C10.2097 0.688491 10.1758 0.318397 9.29794 0.33036V0.330285ZM15.5686 13.7596C14.4558 15.717 13.7494 16.1895 12.2252 17.2116C10.886 16.8616 9.54975 16.505 7.9816 16.6892C6.41024 16.4795 5.76956 17.0612 3.86302 17.7285C3.2853 17.5341 2.59491 17.803 2.15102 17.9923C1.42153 18.3643 0.555358 18.9105 0.747956 19.8306C1.04321 20.7811 2.25996 20.4959 2.81562 20.257C3.28254 20.0342 3.71693 19.6008 4.03857 19.2596C5.63708 19.3022 6.34691 19.2501 8.00029 18.5185C9.25211 19.027 10.8352 19.2292 12.2541 19.2641C12.3416 19.199 12.4316 19.1372 12.5238 19.079C13.3444 18.5631 14.3397 18.3659 15.2388 18.7224C16.1379 19.0788 16.715 19.8994 16.9415 20.8305C17.0752 21.3802 17.097 21.9786 17.0055 22.5904C17.3606 23.5869 17.6305 24.5022 18.2695 25.724C17.8812 27.4272 18.0045 29.1096 18.1003 30.8337L16.3971 31.4729L16.0726 32.3005H21.3222L20.7138 31.4106L19.4899 30.7932C19.7519 29.0731 20.2098 27.3727 19.9569 25.601C19.998 24.2773 19.5615 22.9538 19.3029 21.6301C20.8957 19.6683 20.0785 18.285 21.1945 16.1507C21.3558 15.8428 21.5359 15.5452 21.734 15.2596C19.6881 14.4118 17.6604 13.8511 15.5687 13.7596H15.5686ZM14.2116 19.8786C13.9085 19.8876 13.5804 19.9953 13.2402 20.2091C12.6961 20.5512 12.1649 21.1665 11.8376 21.9633C11.5104 22.7602 11.4583 23.5656 11.6085 24.1829C11.7587 24.8003 12.0788 25.2007 12.5085 25.371C12.9382 25.5413 13.4514 25.4714 13.9956 25.1294C14.5399 24.7873 15.0712 24.1719 15.3984 23.375C15.7256 22.5781 15.7776 21.7729 15.6274 21.1555C15.4772 20.5381 15.1572 20.1376 14.7275 19.9673C14.5664 19.9034 14.3935 19.8732 14.2117 19.8786H14.2116Z" fill="url(#paint0_linear_6444_8061)"/>
<defs>
<linearGradient id="paint0_linear_6444_8061" x1="-3.34849" y1="-0.770575" x2="27.2676" y2="38.8378" gradientUnits="userSpaceOnUse">
<stop stop-color="#FF6BDF"/>
<stop offset="1" stop-color="#A400CD"/>
</linearGradient>
</defs>
</svg>
