<svg width="40" height="40" viewBox="0 0 40 40" fill="none" xmlns="http://www.w3.org/2000/svg">
<path d="M25.708 19.708C25.8958 19.5202 26.0013 19.2656 26.0013 19C26.0013 18.7344 25.8958 18.4798 25.708 18.292C25.5202 18.1042 25.2656 17.9987 25 17.9987C24.7344 17.9987 24.4798 18.1042 24.292 18.292L18 24.586L15.708 22.292C15.615 22.199 15.5046 22.1253 15.3832 22.075C15.2617 22.0246 15.1315 21.9987 15 21.9987C14.8685 21.9987 14.7383 22.0246 14.6168 22.075C14.4954 22.1253 14.385 22.199 14.292 22.292C14.199 22.385 14.1253 22.4954 14.075 22.6168C14.0246 22.7383 13.9987 22.8685 13.9987 23C13.9987 23.1315 14.0246 23.2617 14.075 23.3832C14.1253 23.5046 14.199 23.615 14.292 23.708L17.292 26.708C17.3849 26.8011 17.4952 26.875 17.6167 26.9254C17.7382 26.9758 17.8685 27.0018 18 27.0018C18.1315 27.0018 18.2618 26.9758 18.3833 26.9254C18.5048 26.875 18.6151 26.8011 18.708 26.708L25.708 19.708V19.708ZM17 4C16.3793 3.99968 15.7739 4.19186 15.267 4.55006C14.7602 4.90826 14.3769 5.41484 14.17 6H11C10.2044 6 9.44129 6.31607 8.87868 6.87868C8.31607 7.44129 8 8.20435 8 9V33C8 33.7956 8.31607 34.5587 8.87868 35.1213C9.44129 35.6839 10.2044 36 11 36H29C29.7956 36 30.5587 35.6839 31.1213 35.1213C31.6839 34.5587 32 33.7956 32 33V9C32 8.20435 31.6839 7.44129 31.1213 6.87868C30.5587 6.31607 29.7956 6 29 6H25.83C25.6231 5.41484 25.2398 4.90826 24.733 4.55006C24.2261 4.19186 23.6207 3.99968 23 4H17ZM16 7C16 6.73478 16.1054 6.48043 16.2929 6.29289C16.4804 6.10536 16.7348 6 17 6H23C23.2652 6 23.5196 6.10536 23.7071 6.29289C23.8946 6.48043 24 6.73478 24 7C24 7.26522 23.8946 7.51957 23.7071 7.70711C23.5196 7.89464 23.2652 8 23 8H17C16.7348 8 16.4804 7.89464 16.2929 7.70711C16.1054 7.51957 16 7.26522 16 7ZM11 8H14.17C14.3769 8.58516 14.7602 9.09174 15.267 9.44994C15.7739 9.80814 16.3793 10.0003 17 10H23C23.6207 10.0003 24.2261 9.80814 24.733 9.44994C25.2398 9.09174 25.6231 8.58516 25.83 8H29C29.2652 8 29.5196 8.10536 29.7071 8.29289C29.8946 8.48043 30 8.73478 30 9V33C30 33.2652 29.8946 33.5196 29.7071 33.7071C29.5196 33.8946 29.2652 34 29 34H11C10.7348 34 10.4804 33.8946 10.2929 33.7071C10.1054 33.5196 10 33.2652 10 33V9C10 8.73478 10.1054 8.48043 10.2929 8.29289C10.4804 8.10536 10.7348 8 11 8V8Z" fill="url(#paint0_linear_5767_5989)"/>
<defs>
<linearGradient id="paint0_linear_5767_5989" x1="36.1811" y1="-1.78489" x2="-11.9108" y2="25.9375" gradientUnits="userSpaceOnUse">
<stop stop-color="#EF5DA8"/>
<stop offset="1" stop-color="#FF8800"/>
</linearGradient>
</defs>
</svg>
