<svg width="44" height="29" viewBox="0 0 44 29" fill="none" xmlns="http://www.w3.org/2000/svg">
<path d="M32 19.453V10.1197C31.9996 9.7105 31.8916 9.30862 31.6868 8.95437C31.482 8.60011 31.1877 8.30593 30.8333 8.10134L22.6667 3.43468C22.312 3.22988 21.9096 3.12207 21.5 3.12207C21.0904 3.12207 20.688 3.22988 20.3333 3.43468L12.1667 8.10134C11.8123 8.30593 11.518 8.60011 11.3132 8.95437C11.1084 9.30862 11.0004 9.7105 11 10.1197V19.453C11.0004 19.8622 11.1084 20.2641 11.3132 20.6183C11.518 20.9726 11.8123 21.2668 12.1667 21.4713L20.3333 26.138C20.688 26.3428 21.0904 26.4506 21.5 26.4506C21.9096 26.4506 22.312 26.3428 22.6667 26.138L30.8333 21.4713C31.1877 21.2668 31.482 20.9726 31.6868 20.6183C31.8916 20.2641 31.9996 19.8622 32 19.453Z" stroke="#2B2B2B" stroke-width="2" stroke-linecap="round" stroke-linejoin="round"/>
<path d="M16.25 5.69824L21.5 8.73158L26.75 5.69824" stroke="#2B2B2B" stroke-width="2" stroke-linecap="round" stroke-linejoin="round"/>
<path d="M16.25 23.8745V17.8195L11 14.7861" stroke="#2B2B2B" stroke-width="2" stroke-linecap="round" stroke-linejoin="round"/>
<path d="M32 14.7861L26.75 17.8195V23.8745" stroke="#2B2B2B" stroke-width="2" stroke-linecap="round" stroke-linejoin="round"/>
<path d="M11.3145 8.90625L21.4995 14.7979L31.6845 8.90625" stroke="#2B2B2B" stroke-width="2" stroke-linecap="round" stroke-linejoin="round"/>
<path d="M21.5 26.5461V14.7861" stroke="#2B2B2B" stroke-width="2" stroke-linecap="round" stroke-linejoin="round"/>
</svg>
