<svg width="120" height="120" viewBox="0 0 120 120" fill="none" xmlns="http://www.w3.org/2000/svg">
<g filter="url(#filter0_d_5766_5987)">
<path d="M97.3323 94.8302C118.226 73.9372 118.226 40.0628 97.3323 19.1698C76.4388 -1.72326 42.5637 -1.72326 21.6701 19.1698C0.776619 40.0628 0.776618 73.9372 21.6701 94.8302C42.5637 115.723 76.4388 115.723 97.3323 94.8302Z" fill="url(#paint0_linear_5766_5987)"/>
</g>
<path d="M88.7782 52.8786L82.8662 48.4071V28.6869C82.8662 28.0505 82.35 27.5366 81.7159 27.5366H40.2805C39.6441 27.5366 39.1302 28.0528 39.1302 28.6869V48.4071L33.0744 52.9871C32.1103 53.7154 31.5352 54.8681 31.5352 56.0703V82.5956C31.5352 84.7288 33.2701 86.4637 35.4034 86.4637H86.5977C88.731 86.4637 90.4659 84.7288 90.4659 82.5956V56.0703C90.4636 54.7903 89.8342 53.5999 88.7782 52.8786ZM33.8335 61.9208L44.4551 69.9517L33.8335 77.9826V61.9208ZM46.3645 68.5091L46.0345 68.2592V34.4431H75.9596V68.2592L75.6295 68.5091L63.3979 59.2619C62.7001 58.7362 61.8703 58.4581 61.0005 58.4581C60.9982 58.4581 60.9959 58.4581 60.9935 58.4581C60.1213 58.4581 59.2915 58.7362 58.5938 59.2642L46.3645 68.5091ZM88.1606 61.9208V77.9826L77.5389 69.9517L88.1606 61.9208ZM87.4133 54.7314C87.4298 54.7455 87.4487 54.7573 87.4652 54.7691C87.9012 55.0614 88.1606 55.547 88.1606 56.0703V59.0332L82.8662 63.0357V51.2923L87.4133 54.7314ZM80.5655 29.8372V64.7753L78.2626 66.5149V33.2905C78.2626 32.6541 77.7463 32.1402 77.1122 32.1402H44.8842C44.2477 32.1402 43.7338 32.6564 43.7338 33.2905V66.5173L41.4309 64.7777V29.8372H80.5655ZM34.4605 54.8233L39.1302 51.2923V63.0357L33.8358 59.0332V56.0703C33.8358 55.5776 34.0621 55.125 34.4605 54.8233ZM86.5954 84.1631H35.401C34.5383 84.1631 33.8358 83.4607 33.8358 82.5979V80.8678L59.9846 61.0958C60.2793 60.8742 60.6281 60.7563 60.9982 60.7563H61.0005C61.3683 60.7563 61.7171 60.8742 62.0118 61.0958L88.1629 80.8678V82.5979C88.1606 83.4607 87.4581 84.1631 86.5954 84.1631Z" fill="white"/>
<path d="M59.8747 52.8693L62.3167 55.3113C63.4388 56.3485 64.9828 54.8045 63.9456 53.6825L61.52 51.257C63.7358 49.2133 65.4731 48.3765 68.9335 46.9457C69.2895 46.7996 69.5464 46.4837 69.6218 46.1065C69.6972 45.7294 69.5794 45.3405 69.306 45.067L61.982 37.7433C61.711 37.4722 61.3196 37.352 60.9425 37.4274C60.5653 37.5028 60.2518 37.7598 60.1033 38.1157C58.4981 41.9933 57.6423 43.7093 54.9928 46.3564L53.364 47.9852C52.018 49.3312 52.018 51.521 53.364 52.8693L54.1772 53.6825C55.4572 55.019 57.7791 55.019 59.0614 53.6825L59.8747 52.8693ZM61.5624 40.579L66.4679 45.4843C63.9763 46.5638 62.114 47.5751 59.8911 49.6282L57.4184 47.1555C59.4716 44.935 60.4828 43.0729 61.5624 40.579ZM57.4326 52.0537C57.0083 52.4969 56.228 52.4969 55.8061 52.0537L54.9928 51.2405C54.5449 50.7926 54.5449 50.0619 54.9928 49.6117L55.8061 48.7984L58.2482 51.2405L57.4326 52.0537Z" fill="white"/>
<defs>
<filter id="filter0_d_5766_5987" x="-6" y="-2.5" width="131.003" height="131" filterUnits="userSpaceOnUse" color-interpolation-filters="sRGB">
<feFlood flood-opacity="0" result="BackgroundImageFix"/>
<feColorMatrix in="SourceAlpha" type="matrix" values="0 0 0 0 0 0 0 0 0 0 0 0 0 0 0 0 0 0 127 0" result="hardAlpha"/>
<feOffset dy="6"/>
<feGaussianBlur stdDeviation="6"/>
<feComposite in2="hardAlpha" operator="out"/>
<feColorMatrix type="matrix" values="0 0 0 0 0 0 0 0 0 0 0 0 0 0 0 0 0 0 0.25 0"/>
<feBlend mode="normal" in2="BackgroundImageFix" result="effect1_dropShadow_5766_5987"/>
<feBlend mode="normal" in="SourceGraphic" in2="effect1_dropShadow_5766_5987" result="shape"/>
</filter>
<linearGradient id="paint0_linear_5766_5987" x1="131.643" y1="-15.8432" x2="-47.9319" y2="122.181" gradientUnits="userSpaceOnUse">
<stop stop-color="#EF5DA8"/>
<stop offset="1" stop-color="#FF8800"/>
</linearGradient>
</defs>
</svg>
