<svg width="132" height="131" viewBox="0 0 132 131" fill="none" xmlns="http://www.w3.org/2000/svg">
<g filter="url(#filter0_d_5765_6167)">
<path d="M103.332 97.3302C124.226 76.4372 124.226 42.5628 103.332 21.6698C82.4388 0.77674 48.5637 0.776736 27.6701 21.6698C6.77662 42.5628 6.77662 76.4372 27.6701 97.3302C48.5637 118.223 82.4388 118.223 103.332 97.3302Z" fill="url(#paint0_linear_5765_6167)"/>
</g>
<path d="M86 55C86 47.8392 83.1554 40.9716 78.0919 35.9081C73.0284 30.8446 66.1608 28 59 28C55.4543 28 51.9433 28.6984 48.6675 30.0553C45.3918 31.4121 42.4153 33.4009 39.9081 35.9081C37.4009 38.4153 35.4121 41.3918 34.0553 44.6675C32.6984 47.9433 32 51.4543 32 55C32 58.5457 32.6984 62.0567 34.0553 65.3325C35.4121 68.6082 37.4009 71.5847 39.9081 74.0919C42.4153 76.5991 45.3918 78.5879 48.6675 79.9447C51.9433 81.3016 55.4543 82 59 82V51.1429C59 49.0969 59.8128 47.1347 61.2595 45.688C62.7062 44.2413 64.6683 43.4286 66.7143 43.4286H68.6429M49.3571 58.8571H68.6429" stroke="white" stroke-width="3.85714"/>
<path d="M72.2946 69.9873H101.55C101.719 69.9873 101.857 70.1252 101.857 70.2945V73.0483H71.9874V70.2945C71.9874 70.1244 72.125 69.9873 72.2946 69.9873ZM101.55 68.876H72.2955C71.5117 68.876 70.876 69.5116 70.876 70.2945V90.34C70.876 91.1238 71.5116 91.7594 72.2955 91.7594H101.55C102.334 91.7594 102.968 91.1237 102.968 90.34V70.2945C102.968 69.5117 102.333 68.876 101.55 68.876ZM101.55 90.6481H72.2955C72.125 90.6481 71.9874 90.5101 71.9874 90.3409V74.1742H101.857V90.34C101.857 90.5104 101.719 90.6481 101.55 90.6481Z" fill="white" stroke="white" stroke-width="0.248003"/>
<path d="M94.7355 73.0889C95.6034 73.0889 96.307 72.3853 96.307 71.5175C96.307 70.6496 95.6034 69.946 94.7355 69.946C93.8676 69.946 93.1641 70.6496 93.1641 71.5175C93.1659 72.3853 93.8685 73.0871 94.7355 73.0889ZM94.7355 70.8103C95.1268 70.8103 95.4436 71.1271 95.4436 71.5184C95.4436 71.9096 95.1268 72.2265 94.7355 72.2265C94.3442 72.2265 94.0274 71.9096 94.0274 71.5184C94.0338 71.1326 94.3488 70.8221 94.7355 70.8221V70.8103Z" fill="white"/>
<path d="M98.6027 73.0889C99.4697 73.0889 100.174 72.3853 100.174 71.5175C100.174 70.6496 99.4706 69.946 98.6027 69.946C97.7348 69.946 97.0312 70.6496 97.0312 71.5175C97.0331 72.3853 97.7357 73.0871 98.6027 73.0889ZM98.6027 70.8103C98.994 70.8103 99.3108 71.1271 99.3108 71.5184C99.3108 71.9096 98.994 72.2265 98.6027 72.2265C98.2114 72.2265 97.8946 71.9096 97.8946 71.5184C97.901 71.1326 98.216 70.8221 98.6027 70.8221V70.8103Z" fill="white"/>
<path d="M81.601 78.271L81.5129 78.2717L81.4845 78.3551L79.5281 84.1097L79.4724 84.2737H79.6455H80.4135H80.5033L80.5313 84.1884L81.1015 82.4553H82.9665L83.5534 84.1841L83.582 84.2682H83.6709H84.4652H84.6386L84.5826 84.1041L82.6171 78.3486L82.5882 78.264L82.4989 78.2647L81.601 78.271ZM82.7194 81.6327H81.3411L81.8598 80.1313L81.8598 80.1313L81.8607 80.1287C81.9232 79.9337 81.9792 79.7392 82.0309 79.547C82.0809 79.736 82.1353 79.9315 82.1999 80.1363L82.1999 80.1363L82.201 80.1397L82.7194 81.6327Z" fill="white" stroke="white" stroke-width="0.248003"/>
<path d="M86.6638 84.3317C87.7999 84.3316 88.7337 84.04 89.2983 83.4658L89.2983 83.4658L89.3001 83.464C89.8909 82.8383 90.2026 82.0001 90.1629 81.1407C90.2074 80.3315 89.8968 79.5427 89.3101 78.9816L89.31 78.9815C88.7736 78.4703 87.9765 78.231 86.8931 78.231L86.8929 78.231C86.3574 78.2319 85.8238 78.2732 85.295 78.3531L85.1895 78.369V78.4757V84.1387V84.2501L85.3002 84.262C85.7531 84.3105 86.2079 84.3344 86.6638 84.3317ZM86.6638 84.3317C86.6637 84.3317 86.6635 84.3317 86.6634 84.3317V84.2077L86.6642 84.3317C86.664 84.3317 86.6639 84.3317 86.6638 84.3317ZM86.8069 83.4854L86.8042 83.4854C86.5962 83.49 86.3889 83.4803 86.1828 83.4566V79.123C86.4264 79.0817 86.6734 79.0625 86.9202 79.0663L86.9202 79.0663H86.9222C87.6858 79.0663 88.2359 79.2758 88.5941 79.6317C88.9523 79.9876 89.1362 80.5071 89.1322 81.163L89.1322 81.164C89.1335 81.92 88.9249 82.496 88.5404 82.883C88.156 83.2699 87.5786 83.4854 86.8069 83.4854Z" fill="white" stroke="white" stroke-width="0.248003"/>
<defs>
<filter id="filter0_d_5765_6167" x="0" y="0" width="131.003" height="131" filterUnits="userSpaceOnUse" color-interpolation-filters="sRGB">
<feFlood flood-opacity="0" result="BackgroundImageFix"/>
<feColorMatrix in="SourceAlpha" type="matrix" values="0 0 0 0 0 0 0 0 0 0 0 0 0 0 0 0 0 0 127 0" result="hardAlpha"/>
<feOffset dy="6"/>
<feGaussianBlur stdDeviation="6"/>
<feComposite in2="hardAlpha" operator="out"/>
<feColorMatrix type="matrix" values="0 0 0 0 0 0 0 0 0 0 0 0 0 0 0 0 0 0 0.25 0"/>
<feBlend mode="normal" in2="BackgroundImageFix" result="effect1_dropShadow_5765_6167"/>
<feBlend mode="normal" in="SourceGraphic" in2="effect1_dropShadow_5765_6167" result="shape"/>
</filter>
<linearGradient id="paint0_linear_5765_6167" x1="137.643" y1="-13.3432" x2="-41.9319" y2="124.681" gradientUnits="userSpaceOnUse">
<stop stop-color="#EF5DA8"/>
<stop offset="1" stop-color="#FF8800"/>
</linearGradient>
</defs>
</svg>
