<svg width="120" height="120" viewBox="0 0 120 120" fill="none" xmlns="http://www.w3.org/2000/svg">
<g filter="url(#filter0_d_5765_6085)">
<path d="M97.3333 94.8302C118.227 73.9372 118.227 40.0628 97.3333 19.1698C76.4397 -1.72326 42.5646 -1.72326 21.6711 19.1698C0.777596 40.0628 0.777594 73.9372 21.6711 94.8302C42.5646 115.723 76.4398 115.723 97.3333 94.8302Z" fill="url(#paint0_linear_5765_6085)"/>
</g>
<g clip-path="url(#clip0_5765_6085)">
<path d="M86.2953 39.6426H49.8418C47.3253 39.6426 45.2852 41.752 45.2852 44.3541V67.9116C45.2852 70.5137 47.3253 72.6231 49.8418 72.6231H86.2953C88.8119 72.6231 90.852 70.5137 90.852 67.9116V44.3541C90.852 41.752 88.8119 39.6426 86.2953 39.6426Z" stroke="white" stroke-width="2" stroke-linecap="round" stroke-linejoin="round"/>
<path d="M77.2416 72.6232V35.1639C77.2416 33.922 76.7584 32.731 75.8983 31.8529C75.0382 30.9748 73.8717 30.4814 72.6553 30.4814H63.4828C62.2664 30.4814 61.0999 30.9748 60.2398 31.8529C59.3797 32.731 58.8965 33.922 58.8965 35.1639V72.6232" stroke="white" stroke-width="2" stroke-linecap="round" stroke-linejoin="round"/>
<path d="M31.1324 68.5463C31.1324 67.7758 30.9111 67.0225 30.4963 66.3818C30.0816 65.7412 29.492 65.2418 28.8023 64.9469C28.1126 64.6521 27.3537 64.5749 26.6215 64.7253C25.8893 64.8756 25.2167 65.2466 24.6888 65.7915C24.1609 66.3363 23.8015 67.0305 23.6558 67.7862C23.5102 68.542 23.5849 69.3253 23.8706 70.0372C24.1563 70.7491 24.6401 71.3575 25.2608 71.7856C25.8815 72.2137 26.6113 72.4422 27.3579 72.4422C28.358 72.439 29.3163 72.0275 30.0235 71.2976C30.7307 70.5676 31.1293 69.5786 31.1324 68.5463ZM24.5269 68.5463C24.5269 67.9684 24.693 67.4035 25.004 66.923C25.3151 66.4425 25.7572 66.0679 26.2745 65.8468C26.7918 65.6256 27.361 65.5678 27.9102 65.6805C28.4593 65.7933 28.9637 66.0715 29.3596 66.4802C29.7556 66.8888 30.0252 67.4095 30.1344 67.9763C30.2436 68.5431 30.1876 69.1306 29.9733 69.6645C29.759 70.1984 29.3962 70.6547 28.9306 70.9758C28.4651 71.2969 27.9178 71.4682 27.3579 71.4682C26.608 71.465 25.8898 71.1561 25.3595 70.6089C24.8293 70.0616 24.53 69.3203 24.5269 68.5463ZM36.6528 64.7965L38.6816 66.8784L40.7104 64.7965C40.8013 64.7262 40.9137 64.692 41.027 64.7003C41.1403 64.7086 41.2468 64.7588 41.3272 64.8417C41.4075 64.9246 41.4561 65.0346 41.4642 65.1516C41.4722 65.2685 41.4391 65.3845 41.371 65.4783L39.3539 67.5723L41.371 69.6664C41.4391 69.7602 41.4722 69.8762 41.4642 69.9931C41.4561 70.11 41.4075 70.22 41.3272 70.3029C41.2468 70.3858 41.1403 70.436 41.027 70.4443C40.9137 70.4526 40.8013 70.4185 40.7104 70.3482L38.6816 68.2663L36.6528 70.3482C36.6099 70.3938 36.5585 70.4301 36.5018 70.4549C36.4451 70.4797 36.3841 70.4925 36.3225 70.4925C36.2609 70.4925 36.1999 70.4797 36.1432 70.4549C36.0864 70.4301 36.0351 70.3938 35.9922 70.3482C35.948 70.3039 35.9128 70.2509 35.8888 70.1923C35.8648 70.1338 35.8524 70.0709 35.8524 70.0073C35.8524 69.9437 35.8648 69.8807 35.8888 69.8222C35.9128 69.7636 35.948 69.7106 35.9922 69.6664L38.0093 67.5723L35.9922 65.4783C35.948 65.434 35.9128 65.381 35.8888 65.3225C35.8648 65.2639 35.8524 65.201 35.8524 65.1374C35.8524 65.0738 35.8648 65.0109 35.8888 64.9523C35.9128 64.8937 35.948 64.8408 35.9922 64.7965C36.0351 64.7508 36.0864 64.7145 36.1432 64.6898C36.1999 64.665 36.2609 64.6522 36.3225 64.6522C36.3841 64.6522 36.4451 64.665 36.5018 64.6898C36.5585 64.7145 36.6099 64.7508 36.6528 64.7965ZM25.329 86.9058C25.2861 86.9514 25.2348 86.9877 25.1781 87.0125C25.1213 87.0373 25.0604 87.0501 24.9988 87.0501C24.9371 87.0501 24.8762 87.0373 24.8194 87.0125C24.7627 86.9877 24.7114 86.9514 24.6685 86.9058C24.6242 86.8615 24.5891 86.8085 24.5651 86.7499C24.541 86.6914 24.5287 86.6284 24.5287 86.5649C24.5287 86.5013 24.541 86.4383 24.5651 86.3798C24.5891 86.3212 24.6242 86.2682 24.6685 86.224L26.6855 84.1299L24.6685 82.0359C24.6242 81.9916 24.5891 81.9386 24.5651 81.8801C24.541 81.8215 24.5287 81.7586 24.5287 81.695C24.5287 81.6314 24.541 81.5684 24.5651 81.5099C24.5891 81.4513 24.6242 81.3984 24.6685 81.3541C24.7114 81.3084 24.7627 81.2721 24.8194 81.2473C24.8762 81.2226 24.9371 81.2098 24.9988 81.2098C25.0604 81.2098 25.1213 81.2226 25.1781 81.2473C25.2348 81.2721 25.2861 81.3084 25.329 81.3541L27.3579 83.436L29.3867 81.3541C29.4776 81.2838 29.5899 81.2496 29.7032 81.2579C29.8165 81.2662 29.9231 81.3164 30.0034 81.3993C30.0837 81.4822 30.1324 81.5922 30.1404 81.7092C30.1485 81.8261 30.1154 81.9421 30.0473 82.0359L28.0302 84.1299L30.0472 86.224C30.1154 86.3177 30.1485 86.4338 30.1404 86.5507C30.1324 86.6676 30.0837 86.7776 30.0034 86.8605C29.9231 86.9434 29.8165 86.9936 29.7032 87.0019C29.5899 87.0102 29.4776 86.9761 29.3867 86.9058L27.3579 84.8239L25.329 86.9058ZM36.3461 81.281C33.869 80.5749 31.734 78.3956 31.1442 75.9729L31.1442 75.8511C31.1455 75.7431 31.1807 75.6384 31.2445 75.5528C31.3083 75.4672 31.3973 75.4053 31.4981 75.3763C31.62 75.3464 31.7483 75.3665 31.8562 75.4324C31.964 75.4983 32.0428 75.6047 32.0761 75.7294C32.5715 77.7991 34.4824 79.7349 36.6174 80.3436C38.0918 80.7697 40.333 80.7819 42.6095 78.4322L43.6711 77.3121L40.0971 77.3121C39.9719 77.3121 39.8519 77.2608 39.7634 77.1695C39.675 77.0781 39.6252 76.9543 39.6252 76.8251C39.6252 76.6959 39.675 76.5721 39.7634 76.4807C39.8519 76.3894 39.9719 76.3381 40.0971 76.3381L44.8153 76.3381C44.9404 76.3381 45.0604 76.3894 45.1489 76.4807C45.2374 76.5721 45.2871 76.6959 45.2871 76.8251L45.2871 81.695C45.2871 81.8241 45.2374 81.948 45.1489 82.0393C45.0604 82.1307 44.9404 82.182 44.8153 82.182C44.6902 82.182 44.5701 82.1307 44.4817 82.0393C44.3932 81.948 44.3435 81.8241 44.3435 81.695L44.3435 78.006L43.2583 79.1139C41.2294 81.208 38.776 81.975 36.3461 81.281Z" fill="white"/>
<circle cx="27.6847" cy="68.6103" r="3.28142" fill="white"/>
</g>
<defs>
<filter id="filter0_d_5765_6085" x="-3.94173" y="-1.47136" width="126.888" height="126.885" filterUnits="userSpaceOnUse" color-interpolation-filters="sRGB">
<feFlood flood-opacity="0" result="BackgroundImageFix"/>
<feColorMatrix in="SourceAlpha" type="matrix" values="0 0 0 0 0 0 0 0 0 0 0 0 0 0 0 0 0 0 127 0" result="hardAlpha"/>
<feOffset dy="4.97136"/>
<feGaussianBlur stdDeviation="4.97136"/>
<feComposite in2="hardAlpha" operator="out"/>
<feColorMatrix type="matrix" values="0 0 0 0 0 0 0 0 0 0 0 0 0 0 0 0 0 0 0.25 0"/>
<feBlend mode="normal" in2="BackgroundImageFix" result="effect1_dropShadow_5765_6085"/>
<feBlend mode="normal" in="SourceGraphic" in2="effect1_dropShadow_5765_6085" result="shape"/>
</filter>
<linearGradient id="paint0_linear_5765_6085" x1="131.644" y1="-15.8432" x2="-47.9309" y2="122.181" gradientUnits="userSpaceOnUse">
<stop stop-color="#EF5DA8"/>
<stop offset="1" stop-color="#FF8800"/>
</linearGradient>
<clipPath id="clip0_5765_6085">
<rect width="72.1913" height="72.1913" fill="white" transform="translate(23.4072 20.9045)"/>
</clipPath>
</defs>
</svg>
