<svg width="45" height="29" viewBox="0 0 45 29" fill="none" xmlns="http://www.w3.org/2000/svg">
<g clip-path="url(#clip0_5854_6071)">
<path d="M20.7242 27.9754C17.0769 27.9754 13.6446 27.7767 11.0555 27.4168C7.62851 26.9387 6.29102 26.3049 6.29102 25.15V11.5333C6.29102 11.2218 6.44142 10.9317 6.69925 10.7598C6.95171 10.5826 7.27937 10.545 7.56943 10.6578L20.7242 15.6694L33.8789 10.6578C34.169 10.545 34.4913 10.5879 34.7491 10.7598C35.0016 10.9371 35.1573 11.2272 35.1573 11.5333V25.15C35.1573 26.2995 33.8198 26.9387 30.3928 27.4168C27.8038 27.7767 24.3714 27.9754 20.7242 27.9754ZM8.18178 24.8331C9.15401 25.3165 13.3867 26.09 20.7295 26.09C28.067 26.09 32.3051 25.3165 33.2773 24.8331V12.8977L21.068 17.5494C20.8531 17.63 20.6114 17.63 20.3965 17.5494L8.18715 12.8977V24.8331H8.18178Z" fill="#2B2B2B"/>
<path d="M20.7241 17.6144C20.6113 17.6144 20.4985 17.5929 20.3911 17.5499L0.607953 10.0137C0.242693 9.87407 0.000976562 9.52493 0.000976562 9.13281C0.000976562 8.74069 0.242693 8.39154 0.607953 8.25189L20.3911 0.715703C20.606 0.63513 20.8477 0.63513 21.0625 0.715703L40.8457 8.25189C41.2109 8.39154 41.4527 8.74069 41.4527 9.13281C41.4527 9.52493 41.2109 9.87407 40.8457 10.0137L21.0625 17.5499C20.9551 17.5929 20.8369 17.6144 20.7241 17.6144ZM3.58912 9.13281L20.7241 15.6592L37.8591 9.13281L20.7241 2.60646L3.58912 9.13281Z" fill="#2B2B2B"/>
<path d="M40.5073 16.6691C39.9862 16.6691 39.5673 16.2447 39.5673 15.7291V10.0783H21.6695C21.1485 10.0783 20.7295 9.65928 20.7295 9.13825C20.7295 8.61722 21.1538 8.19824 21.6695 8.19824H40.5126C41.0337 8.19824 41.4527 8.61722 41.4527 9.13825V15.7344C41.4473 16.2501 41.0283 16.6691 40.5073 16.6691Z" fill="#2B2B2B"/>
<path d="M40.5064 28.9165C39.5181 28.9165 38.5727 28.4976 37.9066 27.767C37.2405 27.0365 36.9129 26.0535 36.9988 25.0706L37.681 17.5612C37.7079 16.025 38.9648 14.7842 40.5064 14.7842C42.048 14.7842 43.3049 16.025 43.3318 17.5612L44.014 25.0706C44.1053 26.0535 43.7723 27.0365 43.1062 27.767C42.4401 28.4976 41.4948 28.9165 40.5064 28.9165ZM40.5064 16.6696C39.9854 16.6696 39.5664 17.0939 39.5664 17.6096C39.5664 17.6364 39.5664 17.6687 39.561 17.6955L38.8735 25.2424C38.8305 25.7044 38.9809 26.1502 39.2978 26.494C39.6094 26.8378 40.0391 27.0258 40.5064 27.0258C40.9737 27.0258 41.4034 26.8378 41.715 26.494C42.0319 26.1502 42.1769 25.7044 42.1393 25.2424L41.4518 17.6955C41.4518 17.6687 41.4464 17.6364 41.4464 17.6096C41.4464 17.0939 41.0274 16.6696 40.5064 16.6696Z" fill="#2B2B2B"/>
</g>
<defs>
<clipPath id="clip0_5854_6071">
<rect width="44.03" height="28.2593" fill="white" transform="translate(0 0.65625)"/>
</clipPath>
</defs>
</svg>
