<svg width="691" height="93" viewBox="0 0 691 93" fill="none" xmlns="http://www.w3.org/2000/svg">
<path d="M591.732 63.5C591.732 47.2076 578.525 34 562.232 34L0.499343 34.0001C-15.7931 34.0001 -29.0007 47.2077 -29.0007 63.5L-29.0007 93.0001L562.232 93C578.525 93 591.732 79.7924 591.732 63.5V63.5Z" fill="#EF9A5D"/>
<path d="M640.998 47.5C640.998 31.2076 627.79 18 611.498 18L0.50037 18.0001C-15.792 18.0001 -28.9996 31.2077 -28.9996 47.5001L-28.9996 77.0001L611.498 77C627.79 77 640.998 63.7924 640.998 47.5V47.5Z" fill="#EF5DA8"/>
<path d="M690.263 29.5C690.263 13.2076 677.055 1.15465e-06 660.763 2.57897e-06L0.500532 6.03009e-05C-15.7919 6.17253e-05 -28.9995 13.2077 -28.9995 29.5001L-28.9995 59.0001L660.763 59C677.055 59 690.263 45.7924 690.263 29.5V29.5Z" fill="#5DA0EF"/>
</svg>
