<svg width="120" height="120" viewBox="0 0 120 120" fill="none" xmlns="http://www.w3.org/2000/svg">
<g clip-path="url(#clip0_5766_6002)">
<g filter="url(#filter0_d_5766_6002)">
<path d="M97.3323 94.8302C118.226 73.9372 118.226 40.0628 97.3323 19.1698C76.4388 -1.72326 42.5637 -1.72326 21.6701 19.1698C0.776619 40.0628 0.776618 73.9372 21.6701 94.8302C42.5637 115.723 76.4388 115.723 97.3323 94.8302Z" fill="url(#paint0_linear_5766_6002)"/>
</g>
<g clip-path="url(#clip1_5766_6002)">
<path d="M69.9419 74.3664L76.9951 86.5972H72.2957L65.2424 74.3664H55.1675L48.1143 86.5972H43.4148L50.4681 74.3664H37.795C37.255 74.3664 36.7371 74.1516 36.3552 73.7693C35.9734 73.3871 35.7589 72.8686 35.7589 72.3279V37.6741H31.6865C31.1465 37.6741 30.6286 37.4593 30.2468 37.077C29.8649 36.6948 29.6504 36.1763 29.6504 35.6356C29.6504 35.095 29.8649 34.5765 30.2468 34.1942C30.6286 33.8119 31.1465 33.5972 31.6865 33.5972H88.699C89.239 33.5972 89.7569 33.8119 90.1388 34.1942C90.5206 34.5765 90.7351 35.095 90.7351 35.6356C90.7351 36.1763 90.5206 36.6948 90.1388 37.077C89.7569 37.4593 89.239 37.6741 88.699 37.6741H84.6267V72.3279C84.6267 72.8686 84.4121 73.3871 84.0303 73.7693C83.6484 74.1516 83.1305 74.3664 82.5905 74.3664H69.9419ZM80.5543 37.6741H39.8312V70.2895H80.5543V37.6741ZM50.012 53.9818C50.552 53.9818 51.0699 54.1965 51.4518 54.5788C51.8336 54.9611 52.0481 55.4796 52.0481 56.0202V60.0972C52.0481 60.6378 51.8336 61.1563 51.4518 61.5386C51.0699 61.9209 50.552 62.1356 50.012 62.1356C49.472 62.1356 48.954 61.9209 48.5722 61.5386C48.1903 61.1563 47.9758 60.6378 47.9758 60.0972V56.0202C47.9758 55.4796 48.1903 54.9611 48.5722 54.5788C48.954 54.1965 49.472 53.9818 50.012 53.9818ZM60.1928 49.9049C60.7328 49.9049 61.2507 50.1196 61.6325 50.5019C62.0144 50.8842 62.2289 51.4027 62.2289 51.9433V60.0972C62.2289 60.6378 62.0144 61.1563 61.6325 61.5386C61.2507 61.9209 60.7328 62.1356 60.1928 62.1356C59.6527 62.1356 59.1348 61.9209 58.753 61.5386C58.3711 61.1563 58.1566 60.6378 58.1566 60.0972V51.9433C58.1566 51.4027 58.3711 50.8842 58.753 50.5019C59.1348 50.1196 59.6527 49.9049 60.1928 49.9049ZM70.3736 45.8279C70.9136 45.8279 71.4315 46.0427 71.8133 46.425C72.1952 46.8073 72.4097 47.3258 72.4097 47.8664V60.0972C72.4097 60.6378 72.1952 61.1563 71.8133 61.5386C71.4315 61.9209 70.9136 62.1356 70.3736 62.1356C69.8335 62.1356 69.3156 61.9209 68.9338 61.5386C68.5519 61.1563 68.3374 60.6378 68.3374 60.0972V47.8664C68.3374 47.3258 68.5519 46.8073 68.9338 46.425C69.3156 46.0427 69.8335 45.8279 70.3736 45.8279Z" fill="white"/>
</g>
</g>
<defs>
<filter id="filter0_d_5766_6002" x="-6" y="-2.5" width="131.003" height="131" filterUnits="userSpaceOnUse" color-interpolation-filters="sRGB">
<feFlood flood-opacity="0" result="BackgroundImageFix"/>
<feColorMatrix in="SourceAlpha" type="matrix" values="0 0 0 0 0 0 0 0 0 0 0 0 0 0 0 0 0 0 127 0" result="hardAlpha"/>
<feOffset dy="6"/>
<feGaussianBlur stdDeviation="6"/>
<feComposite in2="hardAlpha" operator="out"/>
<feColorMatrix type="matrix" values="0 0 0 0 0 0 0 0 0 0 0 0 0 0 0 0 0 0 0.25 0"/>
<feBlend mode="normal" in2="BackgroundImageFix" result="effect1_dropShadow_5766_6002"/>
<feBlend mode="normal" in="SourceGraphic" in2="effect1_dropShadow_5766_6002" result="shape"/>
</filter>
<linearGradient id="paint0_linear_5766_6002" x1="131.643" y1="-15.8432" x2="-47.9319" y2="122.181" gradientUnits="userSpaceOnUse">
<stop stop-color="#EF5DA8"/>
<stop offset="1" stop-color="#FF8800"/>
</linearGradient>
<clipPath id="clip0_5766_6002">
<rect width="120" height="120" fill="white"/>
</clipPath>
<clipPath id="clip1_5766_6002">
<rect width="61.0847" height="53" fill="white" transform="translate(29.458 33.5)"/>
</clipPath>
</defs>
</svg>
