<svg width="36" height="36" viewBox="0 0 36 36" fill="none" xmlns="http://www.w3.org/2000/svg">
<path d="M35.6875 17.7941C35.6875 27.4819 27.7945 35.3711 18.1021 35.3711C8.40969 35.3711 0.516602 27.4819 0.516602 17.7941C0.516602 8.08948 8.40969 0.200195 18.1021 0.200195C27.7945 0.200195 35.6875 8.08948 35.6875 17.7941Z" fill="#EF9A5D"/>
<path d="M25.136 17.7937C25.136 18.2382 24.9961 18.6843 24.7163 19.0416C24.6639 19.1117 24.4191 19.4005 24.2268 19.5886L24.1218 19.6911C22.6531 21.2484 18.9986 23.5903 17.1451 24.3407C17.1451 24.3578 16.0435 24.804 15.5189 24.8194H15.449C14.6447 24.8194 13.8928 24.3766 13.5081 23.6587C13.2983 23.2638 13.1059 22.1185 13.0885 22.1031C12.9311 21.0758 12.8262 19.5031 12.8262 17.7766C12.8262 15.9664 12.9311 14.3236 13.1234 13.3151C13.1234 13.298 13.3158 12.3749 13.4382 12.0672C13.6305 11.6245 13.9802 11.2467 14.4174 11.0074C14.7671 10.8382 15.1343 10.751 15.5189 10.751C15.9211 10.7698 16.673 11.0245 16.9702 11.1441C18.9286 11.8963 22.6705 14.3578 24.1044 15.8621C24.3492 16.1014 24.6114 16.3937 24.6814 16.4604C24.9786 16.8364 25.136 17.298 25.136 17.7937Z" fill="#FBFAF5"/>
</svg>
