<svg width="44" height="28" viewBox="0 0 44 28" fill="none" xmlns="http://www.w3.org/2000/svg">
<path d="M32 18.6669V9.33354C31.9996 8.92436 31.8916 8.52249 31.6868 8.16823C31.482 7.81398 31.1877 7.5198 30.8333 7.31521L22.6667 2.64854C22.312 2.44375 21.9096 2.33594 21.5 2.33594C21.0904 2.33594 20.688 2.44375 20.3333 2.64854L12.1667 7.31521C11.8123 7.5198 11.518 7.81398 11.3132 8.16823C11.1084 8.52249 11.0004 8.92436 11 9.33354V18.6669C11.0004 19.0761 11.1084 19.4779 11.3132 19.8322C11.518 20.1864 11.8123 20.4806 12.1667 20.6852L20.3333 25.3519C20.688 25.5567 21.0904 25.6645 21.5 25.6645C21.9096 25.6645 22.312 25.5567 22.6667 25.3519L30.8333 20.6852C31.1877 20.4806 31.482 20.1864 31.6868 19.8322C31.8916 19.4779 31.9996 19.0761 32 18.6669Z" stroke="#555555" stroke-width="2" stroke-linecap="round" stroke-linejoin="round"/>
<path d="M16.25 4.91162L21.5 7.94495L26.75 4.91162" stroke="#555555" stroke-width="2" stroke-linecap="round" stroke-linejoin="round"/>
<path d="M16.25 23.0883V17.0333L11 14" stroke="#555555" stroke-width="2" stroke-linecap="round" stroke-linejoin="round"/>
<path d="M32 14L26.75 17.0333V23.0883" stroke="#555555" stroke-width="2" stroke-linecap="round" stroke-linejoin="round"/>
<path d="M11.3145 8.12012L21.4995 14.0118L31.6845 8.12012" stroke="#555555" stroke-width="2" stroke-linecap="round" stroke-linejoin="round"/>
<path d="M21.5 25.76V14" stroke="#555555" stroke-width="2" stroke-linecap="round" stroke-linejoin="round"/>
</svg>
