<svg width="32" height="33" viewBox="0 0 32 33" fill="none" xmlns="http://www.w3.org/2000/svg">
<path d="M28.3065 19.4904C28.0476 19.0904 27.6797 18.6904 27.2028 18.4371C26.8213 18.2504 26.576 17.9437 26.358 17.5837C25.6631 16.4371 26.0718 14.9304 27.2301 14.2504C28.5927 13.4904 29.0287 11.7971 28.2384 10.4771L27.3254 8.90374C26.5487 7.58374 24.8455 7.11707 23.4965 7.8904C22.2974 8.5304 20.7577 8.10374 20.0627 6.9704C19.8447 6.59707 19.7221 6.19707 19.7493 5.79707C19.7902 5.27707 19.6267 4.78374 19.3814 4.38374C18.8773 3.55707 17.9643 2.99707 16.956 2.99707H15.0347C14.04 3.02374 13.127 3.55707 12.6229 4.38374C12.364 4.78374 12.2141 5.27707 12.2413 5.79707C12.2686 6.19707 12.146 6.59707 11.9279 6.9704C11.233 8.10374 9.69326 8.5304 8.50779 7.8904C7.14518 7.11707 5.45555 7.58374 4.66523 8.90374L3.75229 10.4771C2.9756 11.7971 3.41163 13.4904 4.76062 14.2504C5.91884 14.9304 6.32762 16.4371 5.64631 17.5837C5.41467 17.9437 5.1694 18.2504 4.78787 18.4371C4.32458 18.6904 3.9158 19.0904 3.69778 19.4904C3.19362 20.3171 3.22087 21.3571 3.72503 22.2237L4.66523 23.8237C5.1694 24.6771 6.1096 25.2104 7.09068 25.2104C7.55397 25.2104 8.09901 25.0771 8.53505 24.8104C8.8757 24.5837 9.28448 24.5037 9.73414 24.5037C11.0831 24.5037 12.2141 25.6104 12.2413 26.9304C12.2413 28.4637 13.4949 29.6637 15.0756 29.6637H16.9287C18.4957 29.6637 19.7493 28.4637 19.7493 26.9304C19.7902 25.6104 20.9212 24.5037 22.2702 24.5037C22.7062 24.5037 23.115 24.5837 23.4692 24.8104C23.9053 25.0771 24.4367 25.2104 24.9136 25.2104C25.8811 25.2104 26.8213 24.6771 27.3254 23.8237L28.2793 22.2237C28.7698 21.3304 28.8107 20.3171 28.3065 19.4904" fill="url(#paint0_linear_6444_8046)"/>
<path d="M16.0163 20.1036C13.877 20.1036 12.1465 18.437 12.1465 16.3436C12.1465 14.2503 13.877 12.5703 16.0163 12.5703C18.1556 12.5703 19.8452 14.2503 19.8452 16.3436C19.8452 18.437 18.1556 20.1036 16.0163 20.1036" fill="white"/>
<defs>
<linearGradient id="paint0_linear_6444_8046" x1="0.433924" y1="2.07901" x2="26.6913" y2="31.0939" gradientUnits="userSpaceOnUse">
<stop stop-color="#FF6BDF"/>
<stop offset="1" stop-color="#A400CD"/>
</linearGradient>
</defs>
</svg>
