<svg width="17" height="22" viewBox="0 0 17 22" fill="none" xmlns="http://www.w3.org/2000/svg">
<path d="M1.41016 1.38379V2.88606H2.91242V5.89059C2.9134 6.79878 3.14956 7.69123 3.5979 8.48103C4.04624 9.27083 4.69148 9.93105 5.47079 10.3974C4.69148 10.8637 4.04624 11.524 3.5979 12.3138C3.14956 13.1036 2.9134 13.996 2.91242 14.9042V17.9087H1.41016V19.411H14.9306V17.9087H13.4283V14.9042C13.4273 13.996 13.1912 13.1036 12.7428 12.3138C12.2945 11.524 11.6492 10.8637 10.8699 10.3974C11.6492 9.93105 12.2945 9.27083 12.7428 8.48103C13.1912 7.69123 13.4273 6.79878 13.4283 5.89059V2.88606H14.9306V1.38379H1.41016ZM4.41469 2.88606H11.926V5.89059C11.926 7.97349 10.2533 9.64627 8.17036 9.64627C6.08747 9.64627 4.41469 7.97349 4.41469 5.89059V2.88606ZM5.283 6.64173C5.61801 7.93593 6.77025 8.89513 8.17036 8.89513C9.56973 8.89513 10.7227 7.93593 11.0577 6.64173H5.283ZM8.17036 11.1485C10.2533 11.1485 11.926 12.8213 11.926 14.9042V17.9087H11.1749C11.1749 16.2487 9.83037 14.9042 8.17036 14.9042C6.51036 14.9042 5.16583 16.2487 5.16583 17.9087H4.41469V14.9042C4.41469 12.8213 6.08747 11.1485 8.17036 11.1485Z" fill="#EF9A5D"/>
</svg>
