<svg width="120" height="120" viewBox="0 0 120 120" fill="none" xmlns="http://www.w3.org/2000/svg">
<g filter="url(#filter0_d_5766_5961)">
<path d="M96.8987 94.8302C117.792 73.9372 117.792 40.0628 96.8987 19.1698C76.0052 -1.72326 42.1301 -1.72326 21.2366 19.1698C0.343025 40.0628 0.343024 73.9372 21.2366 94.8302C42.1301 115.723 76.0052 115.723 96.8987 94.8302Z" fill="url(#paint0_linear_5766_5961)"/>
</g>
<path d="M80.2305 33.5H37.7689C36.8305 33.5 35.9305 33.8728 35.2669 34.5364C34.6033 35.2 34.2305 36.1 34.2305 37.0385V65.3462C34.2305 66.2846 34.6033 67.1846 35.2669 67.8482C35.9305 68.5118 36.8305 68.8846 37.7689 68.8846H51.9228V75.9615H44.8459V79.5H73.1535V75.9615H66.0766V68.8846H80.2305C81.1689 68.8846 82.0689 68.5118 82.7325 67.8482C83.3961 67.1846 83.7689 66.2846 83.7689 65.3462V37.0385C83.7689 36.1 83.3961 35.2 82.7325 34.5364C82.0689 33.8728 81.1689 33.5 80.2305 33.5ZM62.5382 75.9615H55.4612V68.8846H62.5382V75.9615ZM80.2305 65.3462H37.7689V37.0385H80.2305V65.3462Z" fill="white"/>
<path d="M52.1401 42.9721C51.0602 42.9721 50.0524 43.2735 49.1933 43.7987C49.1045 43.3237 48.9426 42.8653 48.7135 42.4399C49.791 41.8436 51.0055 41.5388 52.2369 41.5556C53.4683 41.5725 54.674 41.9104 55.7348 42.5359C56.7956 43.1614 57.6748 44.053 58.2855 45.1224C58.8963 46.1918 59.2173 47.4021 59.217 48.6336H62.7569C63.3197 48.634 63.8594 48.8578 64.2572 49.2559C64.6551 49.6541 64.8786 50.1939 64.8786 50.7567V59.249C64.8786 59.8121 64.6549 60.3521 64.2567 60.7502C63.8586 61.1484 63.3186 61.3721 62.7555 61.3721H54.2632C53.7001 61.3721 53.1601 61.1484 52.7619 60.7502C52.3638 60.3521 52.1401 59.8121 52.1401 59.249V55.7105C51.1555 55.7118 50.1816 55.5069 49.281 55.109C49.2994 54.6278 49.3093 54.1225 49.3093 53.5875V53.5379C50.1416 54.0191 51.1083 54.2951 52.1401 54.2951V50.7567C52.1401 50.1936 52.3638 49.6536 52.7619 49.2554C53.1601 48.8573 53.7001 48.6336 54.2632 48.6336H57.8017C57.8017 47.1321 57.2052 45.692 56.1434 44.6303C55.0817 43.5686 53.6416 42.9721 52.1401 42.9721ZM59.0755 50.049C58.7971 51.4086 58.1256 52.6564 57.1443 53.6378C56.163 54.6191 54.9151 55.2906 53.5555 55.569V59.249C53.5555 59.4367 53.6301 59.6167 53.7628 59.7494C53.8955 59.8821 54.0755 59.9567 54.2632 59.9567H62.7555C62.9432 59.9567 63.1232 59.8821 63.2559 59.7494C63.3886 59.6167 63.4632 59.4367 63.4632 59.249V50.7567C63.4632 50.569 63.3886 50.389 63.2559 50.2563C63.1232 50.1236 62.9432 50.049 62.7555 50.049H59.0755ZM57.6233 50.049H54.2632C54.0755 50.049 53.8955 50.1236 53.7628 50.2563C53.6301 50.389 53.5555 50.569 53.5555 50.7567V54.1168C54.5347 53.8631 55.4282 53.3522 56.1434 52.6369C56.8587 51.9217 57.3696 51.0282 57.6233 50.049ZM45.8855 40.3182C46.003 40.421 46.0832 40.5597 46.1137 40.7128C46.1442 40.8659 46.1232 41.0247 46.054 41.1646C46.042 41.206 46.0358 41.2489 46.0356 41.292C46.0356 41.3812 46.0582 41.551 46.2719 41.7633C46.3753 41.8667 46.4545 41.9403 46.5409 42.0209C46.6116 42.086 46.6866 42.154 46.7815 42.2474C46.9655 42.4229 47.1594 42.6295 47.3335 42.8886C47.6944 43.4307 47.894 44.1086 47.894 45.0951C47.894 46.3025 47.4467 47.3315 46.7489 47.9627L46.8395 48.0675C47.2358 48.5543 47.4665 49.1856 47.6109 49.8084C47.894 51.0398 47.894 52.5203 47.894 53.5521V53.5875C47.894 57.5321 47.3575 59.7699 46.7673 61.0494C46.4701 61.6934 46.1545 62.1038 45.8813 62.3614C45.7702 62.468 45.6478 62.562 45.5161 62.6417C45.4558 62.678 45.3929 62.7097 45.3279 62.7365C45.3279 62.7365 45.1679 62.7875 45.0632 62.7875C44.9585 62.7875 44.7985 62.7365 44.7985 62.7365C44.7328 62.7112 44.6697 62.6795 44.6103 62.6417C44.4786 62.562 44.3562 62.468 44.2451 62.3614C43.9719 62.1024 43.6563 61.6934 43.3591 61.0494C42.7689 59.7699 42.2324 57.5321 42.2324 53.5875V53.5521C42.2324 52.5188 42.2324 51.0398 42.5155 49.8084C42.6599 49.1856 42.8906 48.5543 43.2869 48.0675C43.3152 48.0321 43.3463 47.9967 43.3775 47.9627C42.6797 47.3315 42.2324 46.3025 42.2324 45.0951C42.2324 44.6337 42.3556 44.0831 42.5254 43.575C42.6953 43.0655 42.933 42.539 43.2076 42.1143C43.5346 41.5623 43.9946 41.0995 44.3513 40.7881C44.5468 40.6162 44.7509 40.4541 44.9627 40.3027L45.0052 40.2743L45.0179 40.2644L45.0221 40.2616L45.025 40.2602C45.1548 40.1737 45.3095 40.1325 45.4651 40.143C45.6207 40.1535 45.7685 40.2151 45.8855 40.3182ZM45.0632 47.2182C45.6109 47.2168 46.4786 46.6096 46.4786 45.0951C46.4786 44.3124 46.3243 43.9289 46.1545 43.6741C46.0512 43.5253 45.9321 43.3881 45.7992 43.2651L45.6237 43.1009C45.509 42.9933 45.3746 42.8687 45.2698 42.7654C45.115 42.6122 44.9821 42.4384 44.8749 42.2488C44.6948 42.4382 44.5362 42.6471 44.4022 42.8716C44.2041 43.1759 44.0116 43.5934 43.8686 44.0237C43.7214 44.4625 43.6478 44.8503 43.6478 45.0951C43.6478 46.6124 44.5183 47.2182 45.0632 47.2182H45.066H45.0632ZM44.3838 48.962C44.1828 49.2068 44.0158 49.5975 43.8941 50.1268C43.6506 51.1855 43.6478 52.516 43.6478 53.5875C43.6478 57.4274 44.1729 59.4358 44.6442 60.4563C44.7999 60.7918 44.9457 61.0154 45.0632 61.164C45.2304 60.9456 45.3711 60.708 45.4821 60.4563C45.9535 59.4358 46.4786 57.4274 46.4786 53.5875C46.4786 52.516 46.4757 51.1855 46.2309 50.1268C46.1092 49.5975 45.9421 49.2068 45.7426 48.962C45.6645 48.8562 45.5618 48.771 45.4435 48.7138C45.3251 48.6566 45.1946 48.6291 45.0632 48.6336H45.0604C44.9294 48.6294 44.7994 48.6571 44.6816 48.7143C44.5637 48.7715 44.4615 48.8565 44.3838 48.962Z" fill="white"/>
<defs>
<filter id="filter0_d_5766_5961" x="-6.43359" y="-2.5" width="131.003" height="131" filterUnits="userSpaceOnUse" color-interpolation-filters="sRGB">
<feFlood flood-opacity="0" result="BackgroundImageFix"/>
<feColorMatrix in="SourceAlpha" type="matrix" values="0 0 0 0 0 0 0 0 0 0 0 0 0 0 0 0 0 0 127 0" result="hardAlpha"/>
<feOffset dy="6"/>
<feGaussianBlur stdDeviation="6"/>
<feComposite in2="hardAlpha" operator="out"/>
<feColorMatrix type="matrix" values="0 0 0 0 0 0 0 0 0 0 0 0 0 0 0 0 0 0 0.25 0"/>
<feBlend mode="normal" in2="BackgroundImageFix" result="effect1_dropShadow_5766_5961"/>
<feBlend mode="normal" in="SourceGraphic" in2="effect1_dropShadow_5766_5961" result="shape"/>
</filter>
<linearGradient id="paint0_linear_5766_5961" x1="131.21" y1="-15.8432" x2="-48.3655" y2="122.181" gradientUnits="userSpaceOnUse">
<stop stop-color="#EF5DA8"/>
<stop offset="1" stop-color="#FF8800"/>
</linearGradient>
</defs>
</svg>
