<svg width="27" height="28" viewBox="0 0 27 28" fill="none" xmlns="http://www.w3.org/2000/svg">
<path opacity="0.4" d="M0.166992 13.1016C0.233659 16.2189 0.420326 21.5509 0.446992 22.1389C0.541659 23.3962 1.02299 24.6669 1.77233 25.5629C2.81499 26.8202 4.09899 27.3816 5.88966 27.3816C8.36433 27.3949 11.0923 27.3949 13.7417 27.3949C16.4017 27.3949 18.983 27.3949 21.163 27.3816C22.9283 27.3816 24.2523 26.8056 25.2817 25.5629C26.031 24.6669 26.5123 23.3829 26.5803 22.1389C26.607 21.6442 26.7403 15.8562 26.8203 13.1016H0.166992Z" fill="url(#paint0_linear_6690_609)"/>
<path d="M12.4941 18.8418V20.5671C12.4941 21.1191 12.9421 21.5671 13.4941 21.5671C14.0461 21.5671 14.4941 21.1191 14.4941 20.5671V18.8418C14.4941 18.2898 14.0461 17.8418 13.4941 17.8418C12.9421 17.8418 12.4941 18.2898 12.4941 18.8418" fill="url(#paint1_linear_6690_609)"/>
<path fill-rule="evenodd" clip-rule="evenodd" d="M11.115 17.7384C10.9817 18.2224 10.5163 18.5317 10.0123 18.4651C6.61099 17.9904 3.36033 16.7837 0.616326 14.9717C0.334992 14.7877 0.166992 14.4731 0.166992 14.1371V9.51574C0.166992 6.71574 2.44966 4.4384 5.25633 4.4384H7.87899C8.12966 2.5024 9.76966 0.99707 11.7723 0.99707H15.215C17.2163 0.99707 18.8577 2.5024 19.1083 4.4384H21.7443C24.543 4.4384 26.8203 6.71574 26.8203 9.51574V14.1371C26.8203 14.4731 26.651 14.7864 26.3723 14.9717C23.623 16.7917 20.359 18.0037 16.935 18.4771C16.8883 18.4837 16.843 18.4864 16.7977 18.4864C16.3457 18.4864 15.9417 18.1811 15.8283 17.7331C15.559 16.6717 14.595 15.9291 13.487 15.9291C12.3643 15.9291 11.411 16.6557 11.115 17.7384ZM15.215 2.99707H11.7723C10.875 2.99707 10.1257 3.6104 9.90166 4.4384H17.0843C16.8603 3.6104 16.111 2.99707 15.215 2.99707Z" fill="url(#paint2_linear_6690_609)"/>
<defs>
<linearGradient id="paint0_linear_6690_609" x1="-2.88315" y1="12.6095" x2="7.87268" y2="35.939" gradientUnits="userSpaceOnUse">
<stop stop-color="#FF6BDF"/>
<stop offset="1" stop-color="#A400CD"/>
</linearGradient>
<linearGradient id="paint1_linear_6690_609" x1="12.2653" y1="17.7135" x2="15.5777" y2="19.7821" gradientUnits="userSpaceOnUse">
<stop stop-color="#FF6BDF"/>
<stop offset="1" stop-color="#A400CD"/>
</linearGradient>
<linearGradient id="paint2_linear_6690_609" x1="-2.88315" y1="0.394961" x2="11.9294" y2="26.6525" gradientUnits="userSpaceOnUse">
<stop stop-color="#FF6BDF"/>
<stop offset="1" stop-color="#A400CD"/>
</linearGradient>
</defs>
</svg>
