<svg width="57" height="56" viewBox="0 0 57 56" fill="none" xmlns="http://www.w3.org/2000/svg">
<g clip-path="url(#clip0_5687_183)">
<path d="M31.3571 12.8415L26.9804 5.26072L16.5731 11.2693C14.0121 12.8045 11.3372 15.5249 9.62283 19.6711C7.9165 23.7682 7.76063 29.4657 10.981 34.9315C14.1053 40.4549 19.1198 43.1693 23.5163 43.7388C27.9657 44.3264 31.6615 43.3707 34.2724 41.9219L44.6781 35.9141L40.3031 28.3364L29.8974 34.3441C29.3496 34.7149 26.9194 35.4512 24.7702 35.0815C22.5692 34.6993 20.5064 33.811 18.5641 30.5554C16.7174 27.2447 16.9801 25.0117 17.7465 22.9163C18.5032 20.8669 20.3562 19.1343 20.9487 18.8447L31.3545 12.8369L31.3571 12.8415ZM36.1949 -0.0592827L28.4959 4.38572L32.8726 11.9665L40.5716 7.52147L36.1931 -0.0623154L36.1949 -0.0592827ZM53.8926 30.5941L49.5176 23.0164L41.8186 27.4614L46.1936 35.0391L53.8926 30.5941Z" fill="url(#paint0_linear_5687_183)"/>
</g>
<defs>
<linearGradient id="paint0_linear_5687_183" x1="19.8301" y1="50.2601" x2="51.6376" y2="13.1894" gradientUnits="userSpaceOnUse">
<stop stop-color="#5162FF"/>
<stop offset="1" stop-color="#778DFF"/>
</linearGradient>
<clipPath id="clip0_5687_183">
<rect width="56" height="56" fill="white" transform="translate(0.533203)"/>
</clipPath>
</defs>
</svg>
