<svg width="56" height="56" viewBox="0 0 56 56" fill="none" xmlns="http://www.w3.org/2000/svg">
<path fill-rule="evenodd" clip-rule="evenodd" d="M0 0H3.5V52.5H56V56H0V0ZM35 12.25C35 11.7859 35.1844 11.3408 35.5126 11.0126C35.8408 10.6844 36.2859 10.5 36.75 10.5H50.75C51.2141 10.5 51.6592 10.6844 51.9874 11.0126C52.3156 11.3408 52.5 11.7859 52.5 12.25V26.25C52.5 26.7141 52.3156 27.1592 51.9874 27.4874C51.6592 27.8156 51.2141 28 50.75 28C50.2859 28 49.8408 27.8156 49.5126 27.4874C49.1844 27.1592 49 26.7141 49 26.25V17.15L36.3545 32.6095C36.1997 32.7985 36.007 32.9529 35.789 33.0629C35.5709 33.1729 35.3322 33.2361 35.0882 33.2483C34.8442 33.2605 34.6004 33.2214 34.3724 33.1337C34.1445 33.046 33.9374 32.9116 33.7645 32.739L24.71 23.6845L11.914 41.279C11.6341 41.6349 11.2271 41.8685 10.7785 41.9307C10.33 41.9928 9.87484 41.8786 9.5087 41.6122C9.14256 41.3457 8.89396 40.9478 8.81514 40.5018C8.73631 40.0559 8.8334 39.5968 9.086 39.221L23.086 19.971C23.2346 19.7663 23.4258 19.5962 23.6465 19.4726C23.8671 19.3489 24.1119 19.2745 24.3641 19.2545C24.6163 19.2346 24.8698 19.2695 25.1071 19.3569C25.3445 19.4444 25.56 19.5822 25.739 19.761L34.8705 28.896L47.0575 14H36.75C36.2859 14 35.8408 13.8156 35.5126 13.4874C35.1844 13.1592 35 12.7141 35 12.25Z" fill="url(#paint0_linear_5613_536)"/>
<defs>
<linearGradient id="paint0_linear_5613_536" x1="0" y1="0" x2="21.2024" y2="67.0102" gradientUnits="userSpaceOnUse">
<stop stop-color="#5162FF"/>
<stop offset="1" stop-color="#778DFF"/>
</linearGradient>
</defs>
</svg>
