<svg width="35" height="35" viewBox="0 0 35 35" fill="none" xmlns="http://www.w3.org/2000/svg">
<path d="M17.5449 22.9004C20.4789 22.9004 22.8574 20.5219 22.8574 17.5879C22.8574 14.6539 20.4789 12.2754 17.5449 12.2754C14.6109 12.2754 12.2324 14.6539 12.2324 17.5879C12.2324 20.5219 14.6109 22.9004 17.5449 22.9004Z" stroke="#AAAAAA" stroke-width="2.83333" stroke-miterlimit="10"/>
<path d="M23.3887 5.36914H11.7012C8.18036 5.36914 5.32617 8.22333 5.32617 11.7441V23.4316C5.32617 26.9525 8.18036 29.8066 11.7012 29.8066H23.3887C26.9095 29.8066 29.7637 26.9525 29.7637 23.4316V11.7441C29.7637 8.22333 26.9095 5.36914 23.3887 5.36914Z" stroke="#AAAAAA" stroke-width="2.83333" stroke-linecap="round" stroke-linejoin="round"/>
<path d="M24.4512 12.2754C25.3314 12.2754 26.0449 11.5618 26.0449 10.6816C26.0449 9.80144 25.3314 9.08789 24.4512 9.08789C23.571 9.08789 22.8574 9.80144 22.8574 10.6816C22.8574 11.5618 23.571 12.2754 24.4512 12.2754Z" fill="#AAAAAA"/>
</svg>
