<svg width="35" height="35" viewBox="0 0 35 35" fill="none" xmlns="http://www.w3.org/2000/svg">
<path d="M28.1699 5.90039H6.91992C6.33312 5.90039 5.85742 6.37609 5.85742 6.96289V28.2129C5.85742 28.7997 6.33312 29.2754 6.91992 29.2754H28.1699C28.7567 29.2754 29.2324 28.7997 29.2324 28.2129V6.96289C29.2324 6.37609 28.7567 5.90039 28.1699 5.90039Z" stroke="#AAAAAA" stroke-width="2.83333" stroke-linecap="round" stroke-linejoin="round"/>
<path d="M16.4824 15.4629V23.9629" stroke="#AAAAAA" stroke-width="2.83333" stroke-linecap="round" stroke-linejoin="round"/>
<path d="M12.2324 15.4629V23.9629" stroke="#AAAAAA" stroke-width="2.83333" stroke-linecap="round" stroke-linejoin="round"/>
<path d="M16.4824 19.1816C16.4824 18.1954 16.8742 17.2495 17.5716 16.5521C18.269 15.8547 19.2149 15.4629 20.2012 15.4629C21.1874 15.4629 22.1333 15.8547 22.8307 16.5521C23.5281 17.2495 23.9199 18.1954 23.9199 19.1816V23.9629" stroke="#AAAAAA" stroke-width="2.83333" stroke-linecap="round" stroke-linejoin="round"/>
<path d="M12.2324 12.8066C13.1126 12.8066 13.8262 12.0931 13.8262 11.2129C13.8262 10.3327 13.1126 9.61914 12.2324 9.61914C11.3522 9.61914 10.6387 10.3327 10.6387 11.2129C10.6387 12.0931 11.3522 12.8066 12.2324 12.8066Z" fill="#AAAAAA"/>
</svg>
