<svg width="57" height="56" viewBox="0 0 57 56" fill="none" xmlns="http://www.w3.org/2000/svg">
<path d="M32.5332 42H28.5332V38C28.5316 36.4092 27.899 34.884 26.7741 33.7591C25.6492 32.6342 24.124 32.0016 22.5332 32H14.5332C12.9424 32.0016 11.4172 32.6342 10.2923 33.7591C9.16744 34.884 8.53479 36.4092 8.5332 38V42H4.5332V38C4.53638 35.3488 5.59097 32.8071 7.46564 30.9324C9.34032 29.0578 11.882 28.0032 14.5332 28H22.5332C25.1844 28.0032 27.7261 29.0578 29.6008 30.9324C31.4754 32.8071 32.53 35.3488 32.5332 38V42ZM18.5332 8C19.7199 8 20.8799 8.35189 21.8666 9.01118C22.8533 9.67047 23.6224 10.6075 24.0765 11.7039C24.5306 12.8003 24.6494 14.0067 24.4179 15.1705C24.1864 16.3344 23.615 17.4035 22.7758 18.2426C21.9367 19.0818 20.8676 19.6532 19.7037 19.8847C18.5399 20.1162 17.3335 19.9974 16.2371 19.5433C15.1407 19.0892 14.2037 18.3201 13.5444 17.3334C12.8851 16.3467 12.5332 15.1867 12.5332 14C12.5332 12.4087 13.1653 10.8826 14.2906 9.75736C15.4158 8.63214 16.9419 8 18.5332 8ZM18.5332 4C16.5554 4 14.622 4.58649 12.9775 5.6853C11.333 6.78412 10.0513 8.3459 9.29441 10.1732C8.53753 12.0004 8.3395 14.0111 8.72535 15.9509C9.1112 17.8907 10.0636 19.6725 11.4621 21.0711C12.8607 22.4696 14.6425 23.422 16.5823 23.8079C18.5221 24.1937 20.5328 23.9957 22.36 23.2388C24.1873 22.4819 25.7491 21.2002 26.8479 19.5557C27.9467 17.9112 28.5332 15.9778 28.5332 14C28.5332 11.3478 27.4796 8.8043 25.6043 6.92893C23.7289 5.05357 21.1854 4 18.5332 4ZM0.533203 48H56.5332V52H0.533203V48ZM51.1392 12C50.4277 12.0001 49.7234 12.1428 49.068 12.4196C48.4126 12.6965 47.8193 13.1019 47.3232 13.612L46.5332 14.42L45.7432 13.61C45.2471 13.1001 44.6538 12.6947 43.9983 12.4179C43.3429 12.1412 42.6387 11.9986 41.9272 11.9986C41.2157 11.9986 40.5115 12.1412 39.8561 12.4179C39.2006 12.6947 38.6073 13.1001 38.1112 13.61C37.0995 14.6546 36.5338 16.0518 36.5338 17.506C36.5338 18.9602 37.0995 20.3574 38.1112 21.402L46.5332 30L54.9532 21.404C55.9649 20.3594 56.5306 18.9622 56.5306 17.508C56.5306 16.0538 55.9649 14.6566 54.9532 13.612C54.4576 13.1024 53.865 12.6973 53.2103 12.4204C52.5556 12.1436 51.852 12.0006 51.1412 12H51.1392Z" fill="url(#paint0_linear_5613_535)"/>
<defs>
<linearGradient id="paint0_linear_5613_535" x1="0.533203" y1="4" x2="16.4959" y2="62.8583" gradientUnits="userSpaceOnUse">
<stop stop-color="#5162FF"/>
<stop offset="1" stop-color="#778DFF"/>
</linearGradient>
</defs>
</svg>
