<svg width="32" height="32" viewBox="0 0 32 32" fill="none" xmlns="http://www.w3.org/2000/svg">
<g clip-path="url(#clip0_5671_1615)">
<path d="M32.0001 12.5601C32.0008 12.1256 31.8864 11.6988 31.6686 11.3229C31.4508 10.947 31.1374 10.6355 30.7601 10.4201L17.2801 2.42007C16.8916 2.19341 16.4499 2.07397 16.0001 2.07397C15.5503 2.07397 15.1086 2.19341 14.7201 2.42007L1.22011 10.4201C0.847058 10.6414 0.538019 10.9561 0.32337 11.333C0.108721 11.71 -0.00415039 12.1363 -0.00415039 12.5701C-0.00415039 13.0039 0.108721 13.4302 0.32337 13.8071C0.538019 14.1841 0.847058 14.4987 1.22011 14.7201L5.06011 16.9601V22.5801C5.06242 23.0193 5.1777 23.4505 5.39487 23.8323C5.61203 24.2141 5.92377 24.5336 6.30011 24.7601L14.8001 29.6601C15.1796 29.8702 15.6063 29.9804 16.0401 29.9804C16.4739 29.9804 16.9006 29.8702 17.2801 29.6601L25.7801 24.7601C26.1565 24.5336 26.4682 24.2141 26.6854 23.8323C26.9025 23.4505 27.0178 23.0193 27.0201 22.5801V16.9001L29.5001 15.4401V20.8801H32.0001V12.5601ZM24.5401 22.5601L16.0001 27.4801L7.56011 22.5801V18.4401L14.7201 22.7001C15.1099 22.9228 15.5511 23.04 16.0001 23.04C16.4491 23.04 16.8903 22.9228 17.2801 22.7001L24.5201 18.3801L24.5401 22.5601ZM16.0001 20.5401L2.50011 12.5401L16.0001 4.52007L29.5001 12.5201L16.0001 20.5401Z" fill="#2B2B2B"/>
</g>
<defs>
<clipPath id="clip0_5671_1615">
<rect width="32" height="32" fill="white"/>
</clipPath>
</defs>
</svg>
