<svg width="18" height="20" viewBox="0 0 18 20" fill="none" xmlns="http://www.w3.org/2000/svg">
<path fill-rule="evenodd" clip-rule="evenodd" d="M0 14.8699V7.25694H18V14.9309C18 18.0699 16.0241 19.9999 12.8628 19.9999H5.12733C1.99561 19.9999 0 18.0299 0 14.8699ZM4.95942 12.41C4.50498 12.431 4.12957 12.07 4.10981 11.611C4.10981 11.151 4.46546 10.771 4.91991 10.75C5.36447 10.75 5.73 11.101 5.73988 11.55C5.75964 12.011 5.40399 12.391 4.95942 12.41ZM9.01977 12.41C8.56532 12.431 8.18991 12.07 8.17015 11.611C8.17015 11.151 8.52581 10.771 8.98025 10.75C9.42482 10.75 9.79035 11.101 9.80023 11.55C9.81999 12.011 9.46433 12.391 9.01977 12.41ZM13.0505 16.0899C12.596 16.0799 12.2305 15.6999 12.2305 15.2399C12.2206 14.7799 12.5861 14.4009 13.0406 14.3909H13.0505C13.5148 14.3909 13.8902 14.7709 13.8902 15.2399C13.8902 15.7099 13.5148 16.0899 13.0505 16.0899ZM8.17015 15.24C8.18991 15.7 8.56532 16.061 9.01977 16.04C9.46433 16.021 9.81999 15.641 9.80023 15.181C9.79035 14.731 9.42482 14.38 8.98025 14.38C8.52581 14.401 8.17015 14.78 8.17015 15.24ZM4.09988 15.24C4.11963 15.7 4.49505 16.061 4.94949 16.04C5.39406 16.021 5.74971 15.641 5.72995 15.181C5.72007 14.731 5.35454 14.38 4.90997 14.38C4.45553 14.401 4.09988 14.78 4.09988 15.24ZM12.2404 11.6009C12.2404 11.1409 12.5961 10.7709 13.0505 10.7609C13.4951 10.7609 13.8507 11.1199 13.8705 11.5609C13.8804 12.0209 13.5247 12.4009 13.0802 12.4099C12.6257 12.4199 12.2503 12.0699 12.2404 11.6109V11.6009Z" fill="#FFBD11"/>
<path opacity="0.4" d="M0.00341797 7.25684C0.016261 6.66984 0.0656573 5.50484 0.158522 5.12984C0.632726 3.02084 2.24305 1.68084 4.54491 1.48984H13.456C15.7381 1.69084 17.3682 3.03984 17.8424 5.12984C17.9343 5.49484 17.9837 6.66884 17.9965 7.25684H0.00341797Z" fill="#D5D5D5"/>
<path d="M5.30465 4.59C5.73933 4.59 6.06535 4.261 6.06535 3.82V0.771C6.06535 0.33 5.73933 0 5.30465 0C4.86996 0 4.54395 0.33 4.54395 0.771V3.82C4.54395 4.261 4.86996 4.59 5.30465 4.59Z" fill="#FFBD11"/>
<path d="M12.6948 4.59C13.1196 4.59 13.4555 4.261 13.4555 3.82V0.771C13.4555 0.33 13.1196 0 12.6948 0C12.2601 0 11.9341 0.33 11.9341 0.771V3.82C11.9341 4.261 12.2601 4.59 12.6948 4.59Z" fill="#FFBD11"/>
</svg>
