<svg width="24" height="24" viewBox="0 0 24 24" fill="none" xmlns="http://www.w3.org/2000/svg">
<path d="M21.3309 7.44263C20.9119 7.17867 20.3969 7.15532 19.9579 7.37867L18.4759 8.12689C17.9279 8.40303 17.5879 8.96141 17.5879 9.58273V15.4162C17.5879 16.0375 17.9279 16.5949 18.4759 16.8731L19.9569 17.6203C20.1579 17.7238 20.3729 17.7736 20.5879 17.7736C20.8459 17.7736 21.1019 17.7005 21.3309 17.5573C21.7499 17.2944 21.9999 16.8386 21.9999 16.3391V8.66191C21.9999 8.16242 21.7499 7.70658 21.3309 7.44263Z" fill="#FFBD11"/>
<path d="M11.9051 19.9999H6.11304C3.69102 19.9999 2 18.3298 2 15.9389V9.06078C2 6.6689 3.69102 4.99986 6.11304 4.99986H11.9051C14.3271 4.99986 16.0181 6.6689 16.0181 9.06078V15.9389C16.0181 18.3298 14.3271 19.9999 11.9051 19.9999Z" fill="#FFBD11"/>
</svg>
