<svg width="26" height="24" viewBox="0 0 26 24" fill="none" xmlns="http://www.w3.org/2000/svg">
<path d="M18.4249 0.312897H7.58738C3.34988 0.312897 0.499878 3.06554 0.499878 7.1598V16.609C0.499878 20.6917 3.34988 23.4443 7.58738 23.4443H18.4249C22.6624 23.4443 25.4999 20.6917 25.4999 16.609V7.1598C25.4999 3.06554 22.6624 0.312897 18.4249 0.312897Z" fill="white" fill-opacity="0.6"/>
<path d="M18.2256 14.7304L15.1432 11.8799L18.2239 9.02945C18.8165 8.48276 18.8165 7.59299 18.2239 7.0463C17.6313 6.4948 16.6731 6.4964 16.0806 7.04469L12.9981 9.89517L9.91561 7.04149C9.32303 6.4932 8.36311 6.4964 7.77053 7.04149C7.17968 7.58978 7.17968 8.47955 7.77053 9.02624L10.8547 11.8799L7.77746 14.7256C7.18488 15.2739 7.18488 16.1637 7.77746 16.7088C8.07375 16.9845 8.46015 17.1208 8.84827 17.1208C9.23813 17.1208 9.62452 16.9845 9.92081 16.7104L12.9981 13.8631L16.0823 16.7152C16.3786 16.9893 16.765 17.1256 17.1531 17.1256C17.5412 17.1256 17.9294 16.9877 18.2256 16.7152C18.8182 16.1669 18.8182 15.2787 18.2256 14.7304" fill="#060606"/>
</svg>
