<svg width="170" height="179" viewBox="0 0 170 179" fill="none" xmlns="http://www.w3.org/2000/svg">
<path fill-rule="evenodd" clip-rule="evenodd" d="M65.7425 110.727C81.4153 118.349 100.206 114.819 115.198 105.95C129.269 97.627 136.998 82.67 140.252 66.6526C143.561 50.3676 143.075 32.8498 132.687 19.8665C121.919 6.4081 104.668 0.00500679 87.444 0.648574C70.2857 1.28968 53.5996 8.96072 43.9944 23.1805C34.8309 36.7463 36.8178 53.86 40.7657 69.7521C44.822 86.081 50.6044 103.365 65.7425 110.727Z" fill="url(#paint0_linear_2762_14353)"/>
<path fill-rule="evenodd" clip-rule="evenodd" d="M119.305 161.5C107 175.871 86.7652 180.488 68.0014 178.147C50.3909 175.95 36.2232 164.404 26.0518 149.866C15.7104 135.085 8.61334 117.435 13.3362 100.014C18.2319 81.9553 32.6354 68.115 50.0617 61.3017C67.4213 54.5145 87.3531 54.9305 103.069 64.9304C118.063 74.4704 123.491 92.3681 126.438 109.898C129.466 127.91 131.19 147.62 119.305 161.5Z" fill="url(#paint1_linear_2762_14353)"/>
<path fill-rule="evenodd" clip-rule="evenodd" d="M28.5236 152.842C8.06211 137.252 0.305833 110.959 2.13057 86.3487C3.84315 63.2509 18.5354 44.3308 37.5922 30.5317C56.9675 16.502 80.4857 6.61441 104.55 12.1868C129.495 17.9631 149.386 36.3145 159.929 58.8603C170.431 81.3199 171.313 107.391 158.838 128.282C146.936 148.213 122.961 155.927 99.3049 160.385C74.9993 164.966 48.287 167.899 28.5236 152.842Z" fill="#F4F3EC" stroke="url(#paint2_linear_2762_14353)" stroke-width="2.9553"/>
<defs>
<linearGradient id="paint0_linear_2762_14353" x1="142.014" y1="0.604504" x2="19.2137" y2="118.775" gradientUnits="userSpaceOnUse">
<stop offset="0.422408" stop-color="#EF5DA8"/>
<stop offset="1" stop-color="#FFDA44"/>
</linearGradient>
<linearGradient id="paint1_linear_2762_14353" x1="135.797" y1="51.5033" x2="-29.0069" y2="177.588" gradientUnits="userSpaceOnUse">
<stop offset="0.317465" stop-color="#5DA0EF"/>
<stop offset="1" stop-color="#44FF78"/>
</linearGradient>
<linearGradient id="paint2_linear_2762_14353" x1="-43.2352" y1="103.025" x2="243.301" y2="118.719" gradientUnits="userSpaceOnUse">
<stop offset="0.317465" stop-color="#EF5DCF"/>
<stop offset="1" stop-color="#5EFF44"/>
</linearGradient>
</defs>
</svg>
