<svg width="167" height="182" viewBox="0 0 167 182" fill="none" xmlns="http://www.w3.org/2000/svg">
<path fill-rule="evenodd" clip-rule="evenodd" d="M78.2702 0.943374C58.8176 5.24249 42.754 20.7797 33.4046 38.1363C24.6298 54.426 25.7599 71.8855 31.8049 87.2027C37.951 102.776 48.4559 116.806 65.8931 120.457C83.9685 124.242 104.242 117.882 120.452 105.765C136.6 93.6937 148.266 76.1787 149.364 58.0612C150.411 40.7769 138.693 28.0876 125.788 17.7192C112.528 7.06577 97.0592 -3.20907 78.2702 0.943374Z" fill="url(#paint0_linear_2762_14377)"/>
<path fill-rule="evenodd" clip-rule="evenodd" d="M146.885 147.341C140.095 164.999 122.569 176.118 104.103 180.187C86.772 184.006 69.5587 177.863 55.111 167.564C40.4219 157.092 27.8306 142.832 26.4553 124.834C25.0297 106.178 33.9753 88.3179 48.1196 76.0691C62.2098 63.867 81.133 57.5932 99.2887 61.7612C116.609 65.7376 127.711 80.7894 136.351 96.3244C145.228 112.286 153.444 130.285 146.885 147.341Z" fill="url(#paint1_linear_2762_14377)"/>
<path fill-rule="evenodd" clip-rule="evenodd" d="M163.277 78.359C169.155 102.287 158.691 127.21 141.978 145.297C126.293 162.272 103.322 168.511 80.2162 168.249C56.724 167.983 32.6554 162.105 17.7967 143.889C2.39427 125.007 -1.32978 99.2599 4.67807 75.644C10.663 52.1184 26.2243 31.3345 48.733 22.2837C70.2067 13.6492 93.2708 21.4809 114.064 31.6601C135.428 42.1191 157.6 55.2475 163.277 78.359Z" fill="#F4F3EC" stroke="url(#paint2_linear_2762_14377)" stroke-width="2.9553"/>
<defs>
<linearGradient id="paint0_linear_2762_14377" x1="149.363" y1="1.2245e-05" x2="18.8907" y2="138.114" gradientUnits="userSpaceOnUse">
<stop offset="0.422408" stop-color="#EF5DA8"/>
<stop offset="1" stop-color="#FFDA44"/>
</linearGradient>
<linearGradient id="paint1_linear_2762_14377" x1="156.768" y1="55.2982" x2="-8.8152" y2="189.89" gradientUnits="userSpaceOnUse">
<stop offset="0.317465" stop-color="#5DA0EF"/>
<stop offset="1" stop-color="#44FF78"/>
</linearGradient>
<linearGradient id="paint2_linear_2762_14377" x1="186.913" y1="158.499" x2="-17.5206" y2="-23.5317" gradientUnits="userSpaceOnUse">
<stop offset="0.317465" stop-color="#EF5DCF"/>
<stop offset="1" stop-color="#5EFF44"/>
</linearGradient>
</defs>
</svg>
