<svg width="669" height="445" viewBox="0 0 669 445" fill="none" xmlns="http://www.w3.org/2000/svg">
<rect x="44.5" y="151.5" width="851" height="238" rx="39" stroke="url(#paint0_linear_3238_4565)" stroke-width="5"/>
<rect x="162" y="95" width="82" height="82" rx="30" stroke="url(#paint1_linear_3238_4565)" stroke-width="4"/>
<rect x="364" y="323" width="183" height="120" rx="42" stroke="url(#paint2_linear_3238_4565)" stroke-width="4"/>
<path d="M77 361.019L528 156" stroke="url(#paint3_linear_3238_4565)" stroke-width="3" stroke-linecap="round" stroke-linejoin="round"/>
<path d="M44.5 226L56.519 258.481L89 270.5L56.519 282.519L44.5 315L32.481 282.519L0 270.5L32.481 258.481L44.5 226Z" fill="url(#paint4_linear_3238_4565)"/>
<circle cx="690.5" cy="168.5" r="146" stroke="url(#paint5_linear_3238_4565)" stroke-width="45" stroke-dasharray="103 36"/>
<defs>
<linearGradient id="paint0_linear_3238_4565" x1="897.537" y1="149" x2="766.033" y2="636.025" gradientUnits="userSpaceOnUse">
<stop offset="0.422408" stop-color="#EF5DA8"/>
<stop offset="1" stop-color="#FFDA44"/>
</linearGradient>
<linearGradient id="paint1_linear_3238_4565" x1="251.256" y1="89.3162" x2="133.856" y2="183.118" gradientUnits="userSpaceOnUse">
<stop offset="0.317465" stop-color="#5DA0EF"/>
<stop offset="1" stop-color="#44FF78"/>
</linearGradient>
<linearGradient id="paint2_linear_3238_4565" x1="560.428" y1="315.688" x2="389.847" y2="521.228" gradientUnits="userSpaceOnUse">
<stop offset="0.317465" stop-color="#5DA0EF"/>
<stop offset="1" stop-color="#44FF78"/>
</linearGradient>
<linearGradient id="paint3_linear_3238_4565" x1="25.3744" y1="384.45" x2="26.1966" y2="386.25" gradientUnits="userSpaceOnUse">
<stop stop-color="#FF6BDF"/>
<stop offset="1" stop-color="#A400CD"/>
</linearGradient>
<linearGradient id="paint4_linear_3238_4565" x1="94.4392" y1="222.188" x2="-27.056" y2="319.262" gradientUnits="userSpaceOnUse">
<stop offset="0.317465" stop-color="#5DA0EF"/>
<stop offset="1" stop-color="#44FF78"/>
</linearGradient>
<linearGradient id="paint5_linear_3238_4565" x1="879.596" y1="-14.4354" x2="419.552" y2="353.137" gradientUnits="userSpaceOnUse">
<stop offset="0.317465" stop-color="#5DA0EF"/>
<stop offset="1" stop-color="#44FF78"/>
</linearGradient>
</defs>
</svg>
