<svg width="45" height="30" viewBox="0 0 45 30" fill="none" xmlns="http://www.w3.org/2000/svg">
<path d="M20.7242 28.1893C17.0769 28.1893 13.6446 27.9905 11.0555 27.6307C7.62851 27.1526 6.29102 26.5188 6.29102 25.3639V11.7472C6.29102 11.4357 6.44142 11.1456 6.69925 10.9737C6.95171 10.7964 7.27937 10.7588 7.56943 10.8716L20.7242 15.8832L33.8789 10.8716C34.169 10.7588 34.4913 10.8018 34.7491 10.9737C35.0016 11.151 35.1573 11.441 35.1573 11.7472V25.3639C35.1573 26.5134 33.8198 27.1526 30.3928 27.6307C27.8038 27.9905 24.3714 28.1893 20.7242 28.1893ZM8.18178 25.047C9.15401 25.5304 13.3867 26.3039 20.7295 26.3039C28.067 26.3039 32.3051 25.5304 33.2773 25.047V13.1116L21.068 17.7633C20.8531 17.8438 20.6114 17.8438 20.3965 17.7633L8.18715 13.1116V25.047H8.18178Z" fill="#D5D5D5"/>
<path d="M20.7241 17.8282C20.6113 17.8282 20.4985 17.8068 20.3911 17.7638L0.607953 10.2276C0.242693 10.0879 0.000976562 9.73879 0.000976562 9.34667C0.000976562 8.95456 0.242693 8.60541 0.607953 8.46575L20.3911 0.92957C20.606 0.848998 20.8477 0.848998 21.0625 0.92957L40.8457 8.46575C41.2109 8.60541 41.4527 8.95456 41.4527 9.34667C41.4527 9.73879 41.2109 10.0879 40.8457 10.2276L21.0625 17.7638C20.9551 17.8068 20.8369 17.8282 20.7241 17.8282ZM3.58912 9.34667L20.7241 15.873L37.8591 9.34667L20.7241 2.82033L3.58912 9.34667Z" fill="#D5D5D5"/>
<path d="M40.5073 16.8829C39.9862 16.8829 39.5673 16.4586 39.5673 15.9429V10.2921H21.6695C21.1485 10.2921 20.7295 9.87315 20.7295 9.35212C20.7295 8.83108 21.1538 8.41211 21.6695 8.41211H40.5126C41.0337 8.41211 41.4527 8.83108 41.4527 9.35212V15.9483C41.4473 16.464 41.0283 16.8829 40.5073 16.8829Z" fill="#D5D5D5"/>
<path d="M40.5064 29.1304C39.5181 29.1304 38.5727 28.7114 37.9066 27.9809C37.2405 27.2504 36.9129 26.2674 36.9988 25.2844L37.681 17.7751C37.7079 16.2389 38.9648 14.998 40.5064 14.998C42.048 14.998 43.3049 16.2389 43.3318 17.7751L44.014 25.2844C44.1053 26.2674 43.7723 27.2504 43.1062 27.9809C42.4401 28.7114 41.4948 29.1304 40.5064 29.1304ZM40.5064 16.8834C39.9854 16.8834 39.5664 17.3078 39.5664 17.8234C39.5664 17.8503 39.5664 17.8825 39.561 17.9094L38.8735 25.4563C38.8305 25.9183 38.9809 26.3641 39.2978 26.7079C39.6094 27.0516 40.0391 27.2396 40.5064 27.2396C40.9737 27.2396 41.4034 27.0516 41.715 26.7079C42.0319 26.3641 42.1769 25.9183 42.1393 25.4563L41.4518 17.9094C41.4518 17.8825 41.4464 17.8503 41.4464 17.8234C41.4464 17.3078 41.0274 16.8834 40.5064 16.8834Z" fill="#D5D5D5"/>
</svg>
