<svg width="59" height="50" viewBox="0 0 59 50" fill="none" xmlns="http://www.w3.org/2000/svg">
<path d="M33.9163 39.5833H29.7497V35.4167C29.748 33.7596 29.089 32.1708 27.9173 30.9991C26.7455 29.8273 25.1568 29.1683 23.4997 29.1667H15.1663C13.5092 29.1683 11.9205 29.8273 10.7488 30.9991C9.57701 32.1708 8.918 33.7596 8.91634 35.4167V39.5833H4.74967V35.4167C4.75298 32.655 5.85151 30.0074 7.8043 28.0546C9.75709 26.1018 12.4047 25.0033 15.1663 25H23.4997C26.2613 25.0033 28.9089 26.1018 30.8617 28.0546C32.8145 30.0074 33.913 32.655 33.9163 35.4167V39.5833ZM19.333 4.16667C20.5691 4.16667 21.7775 4.53322 22.8053 5.21998C23.8331 5.90674 24.6342 6.88286 25.1073 8.02489C25.5803 9.16693 25.7041 10.4236 25.4629 11.636C25.2218 12.8484 24.6265 13.962 23.7524 14.8361C22.8783 15.7102 21.7647 16.3054 20.5523 16.5466C19.3399 16.7877 18.0833 16.664 16.9412 16.1909C15.7992 15.7179 14.8231 14.9168 14.1363 13.889C13.4496 12.8612 13.083 11.6528 13.083 10.4167C13.083 8.75906 13.7415 7.16935 14.9136 5.99725C16.0857 4.82515 17.6754 4.16667 19.333 4.16667V4.16667ZM19.333 0C17.2728 0 15.2588 0.610927 13.5458 1.75552C11.8328 2.90012 10.4977 4.52698 9.70926 6.43038C8.92085 8.33378 8.71456 10.4282 9.11649 12.4489C9.51842 14.4695 10.5105 16.3256 11.9673 17.7824C13.4241 19.2392 15.2802 20.2313 17.3008 20.6332C19.3215 21.0351 21.4159 20.8288 23.3193 20.0404C25.2227 19.252 26.8496 17.9169 27.9941 16.2039C29.1387 14.4908 29.7497 12.4769 29.7497 10.4167C29.7497 7.65399 28.6522 5.00447 26.6987 3.05097C24.7452 1.09747 22.0957 0 19.333 0V0ZM0.583008 45.8333H58.9163V50H0.583008V45.8333ZM53.2976 8.33333C52.5564 8.33341 51.8228 8.48204 51.1401 8.77045C50.4573 9.05886 49.8393 9.4812 49.3226 10.0125L48.4997 10.8542L47.6768 10.0104C47.16 9.47922 46.5419 9.057 45.8592 8.76869C45.1765 8.48038 44.4429 8.33184 43.7018 8.33184C42.9606 8.33184 42.227 8.48038 41.5443 8.76869C40.8616 9.057 40.2436 9.47922 39.7268 10.0104C38.6729 11.0985 38.0836 12.5539 38.0836 14.0688C38.0836 15.5836 38.6729 17.039 39.7268 18.1271L48.4997 27.0833L57.2705 18.1292C58.3244 17.041 58.9137 15.5856 58.9137 14.0708C58.9137 12.556 58.3244 11.1006 57.2705 10.0125C56.7542 9.4817 56.1369 9.05966 55.4549 8.77126C54.773 8.48287 54.0401 8.33397 53.2997 8.33333H53.2976Z" fill="url(#paint0_linear_5711_5697)"/>
<defs>
<linearGradient id="paint0_linear_5711_5697" x1="58.8848" y1="5.03715e-06" x2="6.22805" y2="64.5868" gradientUnits="userSpaceOnUse">
<stop offset="0.422408" stop-color="#EF5DA8"/>
<stop offset="1" stop-color="#FFDA44"/>
</linearGradient>
</defs>
</svg>
