<svg width="36" height="36" viewBox="0 0 36 36" fill="none" xmlns="http://www.w3.org/2000/svg">
<path d="M35.6885 18.008C35.6885 27.6957 27.7954 35.585 18.103 35.585C8.41067 35.585 0.517578 27.6957 0.517578 18.008C0.517578 8.30335 8.41067 0.414062 18.103 0.414062C27.7954 0.414062 35.6885 8.30335 35.6885 18.008Z" fill="#00E3AE"/>
<path d="M25.137 18.0076C25.137 18.452 24.9971 18.8982 24.7173 19.2554C24.6649 19.3255 24.4201 19.6144 24.2277 19.8025L24.1228 19.905C22.654 21.4623 18.9995 23.8042 17.1461 24.5546C17.1461 24.5717 16.0445 25.0178 15.5199 25.0332H15.45C14.6456 25.0332 13.8938 24.5905 13.5091 23.8725C13.2993 23.4777 13.1069 22.3324 13.0894 22.317C12.9321 21.2896 12.8271 19.717 12.8271 17.9905C12.8271 16.1802 12.9321 14.5375 13.1244 13.5289C13.1244 13.5119 13.3167 12.5888 13.4391 12.2811C13.6315 11.8383 13.9812 11.4606 14.4183 11.2213C14.768 11.052 15.1352 10.9648 15.5199 10.9648C15.9221 10.9836 16.674 11.2383 16.9712 11.358C18.9296 12.1101 22.6715 14.5717 24.1053 16.076C24.3501 16.3153 24.6124 16.6076 24.6824 16.6742C24.9796 17.0503 25.137 17.5119 25.137 18.0076Z" fill="#FBFAF5"/>
</svg>
