<svg width="1200" height="437" viewBox="0 0 1200 437" fill="none" xmlns="http://www.w3.org/2000/svg">
<g clip-path="url(#clip0_2762_14528)">
<rect width="1200" height="437" fill="url(#paint0_linear_2762_14528)"/>
<g clip-path="url(#clip1_2762_14528)">
<path fill-rule="evenodd" clip-rule="evenodd" d="M1203.75 25.9583C1199.28 24.698 1194.81 23.4551 1190.41 22.2354C1143.48 9.17208 1094.96 -4.33445 1052.73 -30.4494C1012.78 -55.171 982.393 -88.9973 953.068 -127.942H955.683C984.583 -89.7043 1014.58 -56.5132 1053.82 -32.2356C1095.8 -6.27199 1144.18 7.19319 1190.97 20.216C1195.18 21.3861 1199.46 22.5786 1203.75 23.7801V25.9583" fill="#6FDA44"/>
<path fill-rule="evenodd" clip-rule="evenodd" d="M714.19 -77.8128C718.279 -94.9844 724.761 -111.902 733.119 -127.942H735.449C726.94 -111.771 720.349 -94.6801 716.21 -77.3192C703.843 -25.4629 710.023 29.8458 736.236 102.011C759.484 165.992 785.952 222.835 814.914 270.965C838.707 310.505 868.101 342.515 899.223 376.403C907.269 385.174 915.597 394.24 923.745 403.375C932.202 412.844 940.623 422.625 948.768 432.085C960.165 445.328 971.956 459.006 983.988 472.06C986.32 474.571 988.693 477.218 991.124 479.922C1006.5 497.002 1023.92 516.353 1044.58 523.681C1050.23 525.681 1056 526.71 1061.76 526.71H1061.77C1102.83 526.69 1136.43 475.229 1148.96 453.102C1171.57 413.208 1188.24 369.82 1203.75 327.07V333.157C1188.76 374.242 1172.5 415.771 1150.77 454.142C1134.97 482.022 1102.4 528.79 1061.77 528.79H1061.76C1055.77 528.79 1049.75 527.74 1043.89 525.66C1022.73 518.152 1005.13 498.588 989.59 481.326C987.157 478.629 984.786 475.995 982.464 473.482C970.401 460.41 958.61 446.712 947.193 433.468C939.057 424.008 930.639 414.237 922.198 404.769C914.063 395.653 905.735 386.588 897.69 377.827C866.497 343.858 837.031 311.776 813.138 272.054C784.106 223.804 757.578 166.839 734.279 102.728C707.922 30.16 701.723 -25.5225 714.19 -77.8128" fill="#6FDA44"/>
<path fill-rule="evenodd" clip-rule="evenodd" d="M1203.75 94.1484C1202.33 92.4118 1200.82 90.7066 1199.16 89.0502C1179.44 69.3656 1153.71 57.4451 1128.83 45.9175C1125.38 44.3107 1121.93 42.7172 1118.51 41.1022C1075.45 20.8105 1019.65 -8.21034 969.855 -52.8291C961.286 -60.5114 952.876 -69.091 943.984 -78.1767C925.924 -96.5994 907.47 -115.424 886.474 -127.942H890.482C910.47 -115.344 928.144 -97.3164 945.456 -79.6404C954.329 -70.5853 962.719 -62.0347 971.238 -54.3937C1020.84 -9.94693 1076.47 18.9731 1119.4 39.2043C1122.81 40.8194 1126.25 42.4129 1129.7 44.0089C1154.75 55.6176 1180.64 67.6199 1200.63 87.5659C1201.73 88.6583 1202.76 89.7788 1203.75 90.9175V94.1484" fill="#6FDA44"/>
<path fill-rule="evenodd" clip-rule="evenodd" d="M746.18 -67.3147C753.842 -90.1178 768.671 -113.033 788.88 -127.942H792.494C771.427 -113.396 755.992 -89.9673 748.149 -66.6491C734.127 -24.9668 736.156 23.5362 754.336 81.6408C771.266 135.707 797.864 193.064 831.277 247.504C860.702 295.455 897.991 332.743 944.923 373.98C947.011 375.817 949.171 377.736 951.412 379.715C981.343 406.243 1022.34 442.583 1062.28 442.583H1062.29C1068.61 442.583 1074.77 441.634 1080.58 439.775C1120.36 427.037 1143.27 386.871 1162.12 345.353C1180.05 305.83 1192.68 264.01 1203.75 222.358V230.395C1193.14 269.641 1180.93 308.93 1164 346.229C1144.97 388.172 1121.76 428.783 1081.21 441.775C1075.19 443.693 1068.83 444.673 1062.29 444.673C1062.28 444.673 1062.28 444.673 1062.28 444.673C1021.55 444.673 980.213 408.039 950.039 381.288C947.798 379.309 945.638 377.393 943.56 375.565C896.478 334.197 859.067 296.776 829.51 248.606C796.006 194.023 769.326 136.505 752.357 82.2676C734.026 23.728 732.007 -25.2107 746.18 -67.3147" fill="#6FDA44"/>
<path fill-rule="evenodd" clip-rule="evenodd" d="M842.128 -71.7275C866.062 -71.7275 894.52 -58.8875 926.71 -33.5697C974.669 4.15314 1025.73 36.8407 1073.76 66.548C1076.65 68.335 1079.57 70.1229 1082.51 71.9091C1101.45 83.4268 1121.02 95.3489 1135.7 111.975C1156.29 135.314 1161.43 165.577 1162.11 186.857C1162.29 192.74 1162.24 199.172 1161.93 206.52C1153.31 261.243 1139.88 317.066 1100.38 353.829C1086.17 367.034 1069.51 373.737 1050.84 373.737H1050.83C1016.44 373.737 981.111 351.448 957.518 334.68C878.448 278.495 817.971 187.764 787.233 79.2275C776.452 41.1508 765.491 -13.5022 794.643 -48.3977C807.585 -63.874 823.555 -71.7275 842.128 -71.7275ZM1050.83 375.826H1050.84C1070.05 375.826 1087.19 368.943 1101.78 355.364C1141.76 318.166 1155.31 261.94 1164 206.722C1164.32 199.201 1164.37 192.72 1164.19 186.785C1163.49 165.162 1158.26 134.385 1137.25 110.581C1122.37 93.7241 1102.65 81.7209 1083.58 70.1122C1080.65 68.326 1077.74 66.5481 1074.85 64.7627C1026.87 35.0836 975.871 2.43738 927.983 -35.2235C895.427 -60.8348 866.538 -73.8262 842.129 -73.8262C822.919 -73.8262 806.405 -65.7196 793.05 -49.7513C763.261 -14.0867 774.323 41.2625 785.235 79.8024C816.094 188.794 876.854 279.928 956.318 336.396C980.132 353.325 1015.86 375.826 1050.83 375.826V375.826Z" fill="#6FDA44"/>
<path fill-rule="evenodd" clip-rule="evenodd" d="M1111.67 227.257C1107.68 251.896 1096.03 295.031 1062.82 309.345C1053.66 313.292 1043.82 315.291 1033.55 315.291C1005.73 315.291 974.015 300.915 939.28 272.551C883.022 226.63 839.332 147.427 827.958 70.7694C824.393 46.7656 824.243 15.7443 843.755 4.19603C849.833 0.602944 856.847 -1.22461 864.62 -1.22461C891.169 -1.22461 922.614 19.7716 943.418 33.6618C945.76 35.2272 947.991 36.7116 950.092 38.0951C962.145 46.009 974.6 53.6888 986.653 61.1082C1011.06 76.1404 1036.29 91.6846 1059.03 109.805C1075.36 122.808 1088.92 138.362 1101.74 158.733C1113.23 177.006 1112.52 199.868 1111.84 221.977C1111.79 223.742 1111.72 225.509 1111.67 227.257ZM1033.55 323.679H1033.56C1044.95 323.669 1055.9 321.448 1066.1 317.046C1103.09 301.107 1115.71 254.612 1119.94 228.315L1119.99 227.761C1120.04 225.933 1120.09 224.096 1120.15 222.239C1120.85 199.951 1121.63 174.693 1108.78 154.252C1095.44 133.052 1081.28 116.84 1064.2 103.233C1041.06 84.8008 1015.62 69.1235 991.005 53.9614C979.002 46.5619 966.586 38.9218 954.645 31.0773C952.554 29.7054 950.344 28.231 948.022 26.6763C926.38 12.2312 893.684 -9.60352 864.621 -9.60352C855.345 -9.60352 846.906 -7.39226 839.535 -3.03177C820.658 8.14277 813.997 33.3886 819.72 72.0013C831.39 150.618 876.26 231.9 934.041 279.061C970.29 308.668 1003.77 323.679 1033.55 323.679V323.679Z" fill="#6FDA44"/>
<path fill-rule="evenodd" clip-rule="evenodd" d="M920.868 93.3711C941.229 93.3711 969.068 107.634 979.559 113.005C1004.5 125.783 1061.72 161.611 1054.19 218.139C1046.62 245.778 1027.14 251.604 1012.14 251.604C997.819 251.614 980.83 246.152 965.517 236.623C945.74 224.319 928.761 206.369 916.417 184.706C910.055 173.542 890.008 134.972 898.962 107.262C901.941 98.0458 909.309 93.3711 920.868 93.3711ZM1012.14 253.702V253.702C1027.87 253.702 1048.27 247.606 1056.22 218.554C1063.96 160.56 1005.84 124.119 980.496 111.138C969.897 105.707 941.733 91.2812 920.868 91.2812C908.3 91.2812 900.264 96.4389 896.973 106.615C887.757 135.143 908.149 174.399 914.609 185.746C927.125 207.711 944.346 225.922 964.425 238.41C980.052 248.13 997.445 253.702 1012.14 253.702V253.702Z" fill="#6FDA44"/>
<path d="M1006.5 184.664C1002.55 184.664 998.843 182.989 995.473 180.261L996.293 176.413L996.329 176.272C997.061 172.175 999.377 165.293 1006.5 165.293C1011.85 165.293 1016.19 169.644 1016.19 174.987C1016.18 180.313 1011.83 184.664 1006.5 184.664V184.664ZM1006.5 155.471C997.399 155.471 990.342 161.389 987.475 171.118C983.093 164.542 979.779 156.648 977.837 150H968.042V175.501C968.042 180.526 963.945 184.624 958.919 184.624C953.892 184.624 949.799 180.526 949.799 175.501V150H940V175.501C939.964 185.945 948.464 194.518 958.903 194.518C969.341 194.518 977.841 185.945 977.841 175.501V171.222C979.747 175.195 982.079 179.204 984.914 182.772L978.911 211H988.943L993.29 190.525C997.101 192.967 1001.48 194.498 1006.51 194.498C1017.25 194.498 1026 185.692 1026 174.946C1025.99 164.221 1017.25 155.471 1006.5 155.471V155.471Z" fill="white"/>
</g>
<g clip-path="url(#clip2_2762_14528)">
<path d="M664.132 403.097L664.132 403.097L664.129 403.094C662.478 401.444 662.473 399.053 664.129 397.44C665.74 395.786 668.173 395.787 669.784 397.398C671.435 399.049 671.44 401.441 669.783 403.054C668.13 404.705 665.784 404.705 664.132 403.097Z" fill="#5C13B9" stroke="#5C13B9" stroke-width="0.616667"/>
<path d="M692.059 419.712C693.712 421.32 693.759 423.711 692.147 425.367C690.539 427.02 688.148 427.066 686.492 425.455C684.841 423.849 684.789 421.417 686.403 419.801C687.973 418.145 690.405 418.104 692.059 419.712Z" fill="#5C13B9" stroke="#5C13B9" stroke-width="0.616667"/>
<path d="M686.411 403.094L686.411 403.094L686.408 403.091C684.802 401.441 684.797 399.052 686.452 397.439C688.065 395.786 690.499 395.787 692.111 397.442C693.717 399.093 693.721 401.482 692.065 403.095C690.409 404.749 688.02 404.703 686.411 403.094Z" fill="#5C13B9" stroke="#5C13B9" stroke-width="0.616667"/>
<path d="M708.546 419.934L708.546 419.934C710.101 418.202 712.533 418.006 714.203 419.539C715.934 421.093 716.129 423.524 714.596 425.193C713.04 426.925 710.653 427.116 708.945 425.589C707.205 424.072 707.02 421.64 708.546 419.934Z" fill="#5C13B9" stroke="#5C13B9" stroke-width="0.616667"/>
<path d="M714.387 397.396L714.387 397.396L714.39 397.399C716.041 399.049 716.045 401.441 714.388 403.055C713.57 403.872 712.572 404.293 711.562 404.293C710.551 404.293 709.553 403.872 708.734 403.053C707.083 401.402 707.078 399.011 708.736 397.397C710.349 395.786 712.736 395.79 714.387 397.396Z" fill="#5C13B9" stroke="#5C13B9" stroke-width="0.616667"/>
<path d="M736.645 425.5L736.644 425.5C734.989 427.066 732.6 427.019 730.992 425.367C729.381 423.711 729.427 421.319 731.124 419.711C732.778 418.103 735.212 418.145 736.781 419.846C738.39 421.502 738.342 423.892 736.645 425.5Z" fill="#5C13B9" stroke="#5C13B9" stroke-width="0.616667"/>
<path d="M736.585 397.31L736.585 397.31C738.278 398.913 738.376 401.303 736.805 402.964L736.804 402.964C735.201 404.657 732.811 404.755 731.149 403.183L731.149 403.183C729.457 401.58 729.359 399.191 730.929 397.531C732.493 395.834 734.926 395.741 736.585 397.31Z" fill="#5C13B9" stroke="#5C13B9" stroke-width="0.616667"/>
<path d="M753.431 425.5L753.431 425.5L753.428 425.497C751.781 423.895 751.679 421.462 753.299 419.841C754.903 418.194 757.334 418.097 758.994 419.712C760.643 421.316 760.74 423.706 759.124 425.367L759.124 425.367L759.121 425.37C757.474 427.017 755.088 427.068 753.431 425.5Z" fill="#5C13B9" stroke="#5C13B9" stroke-width="0.616667"/>
<path d="M753.289 403.053L753.289 403.053L753.286 403.05C751.675 401.394 751.721 399.004 753.375 397.396C755.031 395.785 757.422 395.831 759.03 397.484C760.641 399.14 760.595 401.529 758.943 403.137C757.325 404.754 754.935 404.698 753.289 403.053Z" fill="#5C13B9" stroke="#5C13B9" stroke-width="0.616667"/>
<path d="M641.806 419.797C643.412 418.149 645.844 418.099 647.459 419.713C649.116 421.325 649.112 423.714 647.507 425.364C645.894 427.065 643.501 427.061 641.85 425.455C640.199 423.848 640.147 421.414 641.806 419.797Z" fill="#5C13B9" stroke="#5C13B9" stroke-width="0.616667"/>
<path d="M647.505 403.05L647.505 403.05L647.502 403.053C646.685 403.87 645.688 404.302 644.678 404.313C643.667 404.324 642.668 403.915 641.848 403.096C640.194 401.485 640.194 399.053 641.804 397.441C643.415 395.787 645.848 395.787 647.459 397.397C649.116 399.01 649.111 401.399 647.505 403.05Z" fill="#5C13B9" stroke="#5C13B9" stroke-width="0.616667"/>
<path d="M669.703 419.626L669.703 419.626C671.395 421.229 671.494 423.618 669.923 425.279C668.318 427.017 665.929 427.11 664.229 425.544L664.229 425.544L664.225 425.541C662.533 423.938 662.435 421.549 664.005 419.888C665.609 418.153 668.042 418.055 669.703 419.626Z" fill="#5C13B9" stroke="#5C13B9" stroke-width="0.616667"/>
<path d="M775.637 403.097L775.637 403.097L775.634 403.094C773.983 401.444 773.978 399.053 775.634 397.44C777.245 395.786 779.678 395.787 781.289 397.398C782.94 399.049 782.945 401.441 781.288 403.054C779.635 404.705 777.289 404.705 775.637 403.097Z" fill="#5C13B9" stroke="#5C13B9" stroke-width="0.616667"/>
<path d="M803.596 419.712C805.249 421.32 805.296 423.711 803.685 425.367C802.076 427.02 799.685 427.066 798.029 425.455C796.378 423.849 796.327 421.416 797.942 419.799C799.551 418.148 801.94 418.102 803.596 419.712Z" fill="#5C13B9" stroke="#5C13B9" stroke-width="0.616667"/>
<path d="M797.916 403.095L797.916 403.095L797.913 403.092C796.307 401.441 796.302 399.052 797.959 397.439C799.61 395.789 802.002 395.785 803.615 397.443C805.222 399.094 805.226 401.483 803.57 403.096C801.914 404.75 799.525 404.704 797.916 403.095Z" fill="#5C13B9" stroke="#5C13B9" stroke-width="0.616667"/>
<path d="M820.084 419.934L820.084 419.934C821.639 418.202 824.071 418.006 825.74 419.539C827.471 421.093 827.666 423.524 826.134 425.193C824.578 426.925 822.19 427.116 820.482 425.589C818.743 424.072 818.557 421.64 820.084 419.934Z" fill="#5C13B9" stroke="#5C13B9" stroke-width="0.616667"/>
<path d="M825.894 397.399C827.545 399.049 827.55 401.441 825.893 403.055C824.242 404.704 821.851 404.708 820.238 403.052C818.588 401.401 818.584 399.01 820.241 397.397C821.852 395.787 824.283 395.788 825.894 397.399Z" fill="#5C13B9" stroke="#5C13B9" stroke-width="0.616667"/>
<path d="M848.181 425.5L848.181 425.5C846.525 427.066 844.137 427.019 842.529 425.367C840.917 423.711 840.964 421.319 842.661 419.711C844.314 418.103 846.748 418.145 848.317 419.846C849.926 421.502 849.878 423.892 848.181 425.5Z" fill="#5C13B9" stroke="#5C13B9" stroke-width="0.616667"/>
<path d="M848.09 397.31L848.09 397.31C849.783 398.913 849.88 401.303 848.309 402.964L848.309 402.964C846.705 404.657 844.315 404.755 842.654 403.183L842.654 403.183C840.962 401.58 840.864 399.191 842.434 397.53C843.998 395.834 846.431 395.741 848.09 397.31Z" fill="#5C13B9" stroke="#5C13B9" stroke-width="0.616667"/>
<path d="M864.967 425.5L864.967 425.5L864.964 425.497C863.317 423.895 863.215 421.462 864.835 419.841C866.439 418.194 868.87 418.097 870.53 419.712C872.178 421.316 872.276 423.706 870.66 425.367L870.66 425.367L870.657 425.37C869.01 427.017 866.624 427.068 864.967 425.5Z" fill="#5C13B9" stroke="#5C13B9" stroke-width="0.616667"/>
<path d="M864.791 403.05C863.179 401.394 863.226 399.004 864.879 397.396C866.535 395.785 868.926 395.831 870.535 397.484C872.146 399.14 872.1 401.53 870.446 403.139C868.79 404.75 866.399 404.703 864.791 403.05Z" fill="#5C13B9" stroke="#5C13B9" stroke-width="0.616667"/>
<path d="M781.24 419.626L781.241 419.626C782.933 421.23 783.031 423.62 781.46 425.281L781.46 425.281C779.856 426.973 777.466 427.071 775.805 425.5L775.804 425.5C774.112 423.897 774.014 421.508 775.584 419.847C777.149 418.15 779.582 418.057 781.24 419.626Z" fill="#5C13B9" stroke="#5C13B9" stroke-width="0.616667"/>
<path d="M708.749 358.434C707.1 356.784 707.096 354.393 708.752 352.78C710.405 351.129 712.795 351.129 714.448 352.781C716.099 354.433 716.103 356.825 714.445 358.439C712.755 360.084 710.365 360.093 708.749 358.434Z" fill="#5C13B9" stroke="#5C13B9" stroke-width="0.616667"/>
<path d="M736.85 380.696L736.85 380.696L736.847 380.699C736.01 381.536 735.005 381.978 733.99 382.001C732.974 382.023 731.974 381.625 731.153 380.826C729.507 379.225 729.405 376.791 731.025 375.17C732.629 373.523 735.06 373.427 736.72 375.042C738.369 376.645 738.466 379.036 736.85 380.696Z" fill="#5C13B9" stroke="#5C13B9" stroke-width="0.616667"/>
<path d="M664.133 291.489L664.133 291.489L664.13 291.486C662.479 289.836 662.474 287.445 664.13 285.831C665.741 284.178 668.174 284.179 669.785 285.79C671.436 287.44 671.441 289.832 669.784 291.446C668.131 293.097 665.785 293.096 664.133 291.489Z" fill="#5C13B9" stroke="#5C13B9" stroke-width="0.616667"/>
<path d="M692.017 308.089C693.67 309.697 693.717 312.087 692.105 313.743C690.497 315.396 688.106 315.442 686.45 313.831C684.799 312.226 684.747 309.794 686.361 308.177C687.931 306.522 690.363 306.481 692.017 308.089Z" fill="#5C13B9" stroke="#5C13B9" stroke-width="0.616667"/>
<path d="M708.744 336.09C707.137 334.439 707.133 332.048 708.791 330.435C710.443 328.829 712.833 328.825 714.447 330.483C716.053 332.133 716.058 334.523 714.36 336.136C712.743 337.793 710.35 337.74 708.744 336.09Z" fill="#5C13B9" stroke="#5C13B9" stroke-width="0.616667"/>
<path d="M731.208 358.566L731.208 358.566C729.515 356.963 729.417 354.573 730.989 352.912L730.989 352.912C732.593 351.219 735.024 351.122 736.685 352.693L736.685 352.693C738.378 354.296 738.476 356.686 736.905 358.347L736.905 358.347L736.901 358.35C735.259 360.037 732.871 360.139 731.208 358.566Z" fill="#5C13B9" stroke="#5C13B9" stroke-width="0.616667"/>
<path d="M759.159 380.738L759.159 380.738L759.156 380.741C757.509 382.388 755.12 382.439 753.463 380.826C751.812 379.22 751.76 376.787 753.375 375.17C754.984 373.518 757.415 373.472 759.071 375.083C760.724 376.691 760.771 379.082 759.159 380.738Z" fill="#5C13B9" stroke="#5C13B9" stroke-width="0.616667"/>
<path d="M686.411 291.485L686.411 291.485L686.408 291.482C684.802 289.832 684.797 287.443 686.452 285.831C688.065 284.177 690.499 284.178 692.111 285.834C693.717 287.484 693.721 289.873 692.065 291.486C690.409 293.14 688.02 293.093 686.411 291.485Z" fill="#5C13B9" stroke="#5C13B9" stroke-width="0.616667"/>
<path d="M708.504 308.353L708.504 308.352C710.059 306.62 712.491 306.425 714.161 307.957C715.892 309.512 716.087 311.943 714.554 313.612C712.998 315.344 710.609 315.535 708.901 314.007L708.901 314.006C707.166 312.45 706.975 310.061 708.504 308.353Z" fill="#5C13B9" stroke="#5C13B9" stroke-width="0.616667"/>
<path d="M730.943 330.568L730.943 330.568C732.546 328.876 734.937 328.778 736.598 330.349L736.598 330.349C738.291 331.953 738.388 334.343 736.817 336.004L736.817 336.004C735.218 337.691 732.826 337.84 731.16 336.221C729.469 334.618 729.372 332.229 730.943 330.568Z" fill="#5C13B9" stroke="#5C13B9" stroke-width="0.616667"/>
<path d="M753.386 358.391L753.386 358.391C751.774 356.736 751.821 354.346 753.475 352.737C755.13 351.126 757.521 351.173 759.13 352.826C760.74 354.481 760.694 356.87 759.042 358.479C757.428 360.091 755.036 360.086 753.386 358.391Z" fill="#5C13B9" stroke="#5C13B9" stroke-width="0.616667"/>
<path d="M714.391 285.831C716.042 287.481 716.046 289.873 714.389 291.487C713.571 292.305 712.573 292.725 711.563 292.725C710.552 292.725 709.554 292.304 708.735 291.486C707.085 289.835 707.079 287.444 708.735 285.831C710.349 284.175 712.74 284.18 714.391 285.831Z" fill="#5C13B9" stroke="#5C13B9" stroke-width="0.616667"/>
<path d="M730.949 313.742C729.339 312.086 729.386 309.695 731.082 308.087C732.736 306.48 735.17 306.522 736.739 308.222C738.347 309.878 738.3 312.267 736.604 313.875C734.948 315.484 732.557 315.437 730.949 313.742Z" fill="#5C13B9" stroke="#5C13B9" stroke-width="0.616667"/>
<path d="M759.083 336.09L759.083 336.09L759.08 336.093C757.432 337.741 755.044 337.791 753.387 336.179C751.735 334.573 751.684 332.14 753.299 330.523C754.908 328.871 757.339 328.825 758.994 330.436C760.648 332.044 760.694 334.434 759.083 336.09Z" fill="#5C13B9" stroke="#5C13B9" stroke-width="0.616667"/>
<path d="M736.586 285.7L736.586 285.7C738.279 287.304 738.377 289.694 736.805 291.355L736.805 291.355C735.202 293.047 732.812 293.145 731.15 291.574L731.15 291.574C729.458 289.971 729.36 287.582 730.93 285.921C732.494 284.224 734.927 284.131 736.586 285.7Z" fill="#5C13B9" stroke="#5C13B9" stroke-width="0.616667"/>
<path d="M759.083 313.743L759.083 313.743L759.08 313.746C757.436 315.389 755.048 315.491 753.386 313.874C751.739 312.272 751.637 309.839 753.257 308.217C754.861 306.57 757.292 306.474 758.952 308.089C760.601 309.693 760.698 312.083 759.083 313.743Z" fill="#5C13B9" stroke="#5C13B9" stroke-width="0.616667"/>
<path d="M753.289 291.445L753.289 291.445L753.286 291.442C751.675 289.786 751.721 287.395 753.375 285.786C755.031 284.175 757.422 284.222 759.03 285.875C760.641 287.531 760.595 289.92 758.943 291.529C757.325 293.146 754.935 293.09 753.289 291.445Z" fill="#5C13B9" stroke="#5C13B9" stroke-width="0.616667"/>
<path d="M641.76 375.173C643.367 373.48 645.801 373.429 647.417 375.044C649.064 376.647 649.161 379.036 647.547 380.696C645.939 382.392 643.547 382.439 641.891 380.827C640.245 379.226 640.142 376.794 641.76 375.173Z" fill="#5C13B9" stroke="#5C13B9" stroke-width="0.616667"/>
<path d="M647.505 352.784C649.111 354.435 649.115 356.824 647.459 358.437C645.807 360.087 643.415 360.091 641.802 358.433C640.196 356.783 640.191 354.394 641.805 352.781C643.456 351.13 645.891 351.126 647.505 352.784Z" fill="#5C13B9" stroke="#5C13B9" stroke-width="0.616667"/>
<path d="M670.021 380.56L670.021 380.56L670.015 380.567C668.419 382.295 666.032 382.49 664.322 380.96L664.322 380.96C662.589 379.405 662.394 376.973 663.927 375.304C665.48 373.574 667.91 373.379 669.578 374.908C671.363 376.429 671.498 378.859 670.021 380.56Z" fill="#5C13B9" stroke="#5C13B9" stroke-width="0.616667"/>
<path d="M647.548 330.526C649.158 332.182 649.111 334.571 647.458 336.179C645.802 337.79 643.411 337.743 641.803 336.09C640.191 334.434 640.238 332.044 641.892 330.436C643.543 328.829 645.935 328.825 647.548 330.526Z" fill="#5C13B9" stroke="#5C13B9" stroke-width="0.616667"/>
<path d="M664.158 358.481C662.505 356.872 662.458 354.482 664.069 352.826C665.676 351.175 668.109 351.124 669.726 352.739C671.378 354.347 671.424 356.737 669.813 358.392C668.205 360.045 665.814 360.092 664.158 358.481Z" fill="#5C13B9" stroke="#5C13B9" stroke-width="0.616667"/>
<path d="M692.118 380.738L692.118 380.738L692.115 380.741C691.298 381.558 690.302 381.99 689.291 382.001C688.281 382.013 687.282 381.603 686.462 380.784C684.807 379.173 684.807 376.741 686.417 375.129C688.028 373.475 690.461 373.475 692.073 375.085C693.729 376.698 693.725 379.088 692.118 380.738Z" fill="#5C13B9" stroke="#5C13B9" stroke-width="0.616667"/>
<path d="M641.806 308.175C643.412 306.527 645.844 306.476 647.459 308.09C649.116 309.703 649.112 312.091 647.507 313.741C645.898 315.438 643.505 315.484 641.848 313.83C640.199 312.224 640.147 309.791 641.806 308.175Z" fill="#5C13B9" stroke="#5C13B9" stroke-width="0.616667"/>
<path d="M669.83 336.09L669.83 336.09L669.827 336.093C669.009 336.91 668.013 337.342 667.002 337.353C665.992 337.364 664.993 336.955 664.173 336.136C662.523 334.53 662.472 332.097 664.128 330.481C665.702 328.822 668.134 328.832 669.782 330.435C671.44 332.048 671.436 334.439 669.83 336.09Z" fill="#5C13B9" stroke="#5C13B9" stroke-width="0.616667"/>
<path d="M686.514 358.566L686.513 358.566C684.821 356.963 684.723 354.573 686.294 352.912L686.295 352.912C687.898 351.219 690.33 351.122 691.991 352.693L691.991 352.693C693.684 354.296 693.782 356.686 692.21 358.347L692.21 358.347L692.207 358.35C690.564 360.037 688.176 360.139 686.514 358.566Z" fill="#5C13B9" stroke="#5C13B9" stroke-width="0.616667"/>
<path d="M708.745 380.785L708.745 380.785L708.742 380.782C707.091 379.132 707.086 376.74 708.744 375.126C710.397 373.475 712.786 373.475 714.439 375.128C716.09 376.779 716.095 379.172 714.436 380.785L714.436 380.785L714.433 380.788C712.741 382.39 710.399 382.394 708.745 380.785Z" fill="#5C13B9" stroke="#5C13B9" stroke-width="0.616667"/>
<path d="M647.505 291.441L647.505 291.441L647.502 291.444C646.685 292.261 645.688 292.693 644.678 292.705C643.667 292.716 642.668 292.306 641.848 291.487C640.194 289.876 640.194 287.444 641.804 285.832C643.415 284.178 645.848 284.178 647.459 285.788C649.116 287.401 649.111 289.791 647.505 291.441Z" fill="#5C13B9" stroke="#5C13B9" stroke-width="0.616667"/>
<path d="M669.658 308L669.658 308L669.662 308.003C671.354 309.607 671.452 311.996 669.881 313.657L669.881 313.658C668.277 315.35 665.887 315.448 664.226 313.877L664.225 313.877C662.533 312.273 662.435 309.883 664.006 308.222C665.57 306.569 668 306.476 669.658 308Z" fill="#5C13B9" stroke="#5C13B9" stroke-width="0.616667"/>
<path d="M692.179 336.09L692.179 336.09L692.176 336.093C690.528 337.741 688.14 337.791 686.482 336.179C684.831 334.573 684.78 332.14 686.395 330.523C688.004 328.871 690.435 328.825 692.09 330.436C693.744 332.044 693.79 334.434 692.179 336.09Z" fill="#5C13B9" stroke="#5C13B9" stroke-width="0.616667"/>
<path d="M820.355 358.436C818.704 356.785 818.699 354.394 820.357 352.78C822.01 351.129 824.4 351.129 826.053 352.781C827.704 354.432 827.709 356.824 826.051 358.437C824.398 360.089 822.008 360.088 820.355 358.436Z" fill="#5C13B9" stroke="#5C13B9" stroke-width="0.616667"/>
<path d="M848.463 380.696L848.463 380.696C846.815 382.388 844.425 382.44 842.767 380.826C841.12 379.225 841.018 376.791 842.638 375.17C844.242 373.523 846.673 373.427 848.333 375.042C849.982 376.646 850.079 379.036 848.463 380.696Z" fill="#5C13B9" stroke="#5C13B9" stroke-width="0.616667"/>
<path d="M775.637 291.489L775.637 291.489L775.634 291.486C773.983 289.836 773.978 287.445 775.634 285.831C777.245 284.178 779.678 284.179 781.289 285.79C782.94 287.44 782.945 289.832 781.288 291.446C779.635 293.097 777.289 293.096 775.637 291.489Z" fill="#5C13B9" stroke="#5C13B9" stroke-width="0.616667"/>
<path d="M803.554 308.089C805.207 309.697 805.254 312.087 803.642 313.743C802.034 315.396 799.643 315.442 797.987 313.831C796.336 312.225 796.285 309.792 797.9 308.176C799.509 306.524 801.898 306.478 803.554 308.089Z" fill="#5C13B9" stroke="#5C13B9" stroke-width="0.616667"/>
<path d="M820.283 336.093L820.283 336.093L820.281 336.09C818.674 334.439 818.67 332.048 820.328 330.435C821.979 328.829 824.37 328.825 825.983 330.483C827.589 332.132 827.594 334.521 825.898 336.134C824.318 337.797 821.926 337.735 820.283 336.093Z" fill="#5C13B9" stroke="#5C13B9" stroke-width="0.616667"/>
<path d="M842.812 358.566L842.812 358.566C841.12 356.963 841.022 354.573 842.593 352.912L842.593 352.912C844.197 351.219 846.629 351.122 848.29 352.693L848.29 352.693C849.983 354.296 850.081 356.686 848.509 358.347L848.509 358.347L848.506 358.35C846.863 360.037 844.475 360.139 842.812 358.566Z" fill="#5C13B9" stroke="#5C13B9" stroke-width="0.616667"/>
<path d="M870.773 380.738L870.773 380.738L870.77 380.741C869.122 382.388 866.734 382.439 865.076 380.826C863.425 379.22 863.373 376.787 864.989 375.17C866.598 373.518 869.029 373.472 870.684 375.083C872.338 376.691 872.384 379.082 870.773 380.738Z" fill="#5C13B9" stroke="#5C13B9" stroke-width="0.616667"/>
<path d="M797.917 291.485L797.917 291.485L797.914 291.482C796.308 289.831 796.303 287.442 797.96 285.829C799.611 284.18 802.003 284.176 803.616 285.834C805.223 287.484 805.227 289.873 803.571 291.486C801.915 293.14 799.526 293.093 797.917 291.485Z" fill="#5C13B9" stroke="#5C13B9" stroke-width="0.616667"/>
<path d="M820.042 308.353L820.042 308.353C821.597 306.621 824.029 306.425 825.698 307.957C827.429 309.512 827.624 311.943 826.092 313.612C824.535 315.344 822.147 315.535 820.439 314.007L820.438 314.006C818.704 312.45 818.513 310.061 820.042 308.353Z" fill="#5C13B9" stroke="#5C13B9" stroke-width="0.616667"/>
<path d="M842.479 330.568L842.48 330.568C844.083 328.876 846.473 328.778 848.134 330.349L848.134 330.349C849.827 331.953 849.925 334.343 848.353 336.004L848.353 336.004C846.754 337.691 844.363 337.84 842.697 336.221C841.006 334.618 840.908 332.229 842.479 330.568Z" fill="#5C13B9" stroke="#5C13B9" stroke-width="0.616667"/>
<path d="M864.989 358.39C863.379 356.734 863.426 354.345 865.079 352.737C866.735 351.126 869.126 351.173 870.735 352.826C872.346 354.482 872.299 356.872 870.646 358.48C868.994 360.087 866.602 360.091 864.989 358.39Z" fill="#5C13B9" stroke="#5C13B9" stroke-width="0.616667"/>
<path d="M820.24 285.831C821.851 284.177 824.285 284.178 825.896 285.832C827.546 287.483 827.55 289.874 825.893 291.487C824.243 293.136 821.851 293.141 820.238 291.484C818.589 289.834 818.584 287.444 820.24 285.831Z" fill="#5C13B9" stroke="#5C13B9" stroke-width="0.616667"/>
<path d="M842.486 313.742C840.876 312.086 840.923 309.695 842.619 308.087C844.273 306.48 846.707 306.522 848.276 308.222C849.884 309.878 849.837 312.267 848.141 313.875C846.485 315.484 844.094 315.437 842.486 313.742Z" fill="#5C13B9" stroke="#5C13B9" stroke-width="0.616667"/>
<path d="M870.62 336.09L870.62 336.09L870.617 336.093C868.969 337.741 866.581 337.791 864.923 336.179C863.272 334.573 863.221 332.139 864.836 330.523C866.445 328.871 868.876 328.825 870.532 330.436C872.185 332.044 872.232 334.434 870.62 336.09Z" fill="#5C13B9" stroke="#5C13B9" stroke-width="0.616667"/>
<path d="M848.09 285.7L848.091 285.7C849.783 287.304 849.881 289.694 848.31 291.355L848.309 291.355C846.706 293.047 844.316 293.145 842.655 291.574L842.654 291.574C840.962 289.971 840.864 287.582 842.434 285.921C843.999 284.224 846.432 284.131 848.09 285.7Z" fill="#5C13B9" stroke="#5C13B9" stroke-width="0.616667"/>
<path d="M870.619 313.743L870.619 313.743L870.616 313.746C868.973 315.389 866.585 315.491 864.923 313.874C863.276 312.272 863.174 309.839 864.794 308.218C866.398 306.57 868.829 306.474 870.489 308.089C872.138 309.693 872.235 312.083 870.619 313.743Z" fill="#5C13B9" stroke="#5C13B9" stroke-width="0.616667"/>
<path d="M864.791 291.442C863.179 289.786 863.226 287.395 864.879 285.786C866.535 284.175 868.926 284.222 870.535 285.875C872.146 287.531 872.1 289.922 870.446 291.53C868.79 293.142 866.399 293.095 864.791 291.442Z" fill="#5C13B9" stroke="#5C13B9" stroke-width="0.616667"/>
<path d="M781.611 380.562L781.61 380.562C780.054 382.296 777.664 382.487 775.956 380.959L775.955 380.959C774.223 379.404 774.028 376.972 775.56 375.303C777.115 373.573 779.545 373.378 781.214 374.908C782.951 376.426 783.137 378.857 781.611 380.562Z" fill="#5C13B9" stroke="#5C13B9" stroke-width="0.616667"/>
<path d="M775.763 358.481C774.109 356.872 774.063 354.482 775.674 352.826C777.28 351.175 779.714 351.124 781.331 352.739C782.983 354.347 783.029 356.737 781.418 358.392C779.809 360.045 777.419 360.092 775.763 358.481Z" fill="#5C13B9" stroke="#5C13B9" stroke-width="0.616667"/>
<path d="M798.075 380.784C796.42 379.173 796.42 376.741 798.031 375.129C799.642 373.475 802.074 373.475 803.686 375.085C805.342 376.698 805.338 379.087 803.732 380.738C802.123 382.391 799.731 382.438 798.075 380.784Z" fill="#5C13B9" stroke="#5C13B9" stroke-width="0.616667"/>
<path d="M781.366 336.09L781.366 336.09L781.363 336.093C780.546 336.91 779.55 337.342 778.539 337.353C777.529 337.364 776.53 336.955 775.71 336.136C774.06 334.529 774.009 332.096 775.667 330.48C777.28 328.825 779.669 328.83 781.319 330.435C782.977 332.048 782.973 334.439 781.366 336.09Z" fill="#5C13B9" stroke="#5C13B9" stroke-width="0.616667"/>
<path d="M798.121 358.569L798.121 358.569L798.118 358.566C796.425 356.963 796.327 354.573 797.899 352.912L797.899 352.912C799.503 351.219 801.935 351.122 803.596 352.693L803.596 352.693C805.289 354.296 805.386 356.686 803.815 358.347L803.815 358.347L803.812 358.35C802.996 359.188 802.002 359.641 800.988 359.68C799.974 359.72 798.964 359.345 798.121 358.569Z" fill="#5C13B9" stroke="#5C13B9" stroke-width="0.616667"/>
<path d="M820.359 380.785L820.359 380.785L820.356 380.782C818.705 379.132 818.7 376.74 820.357 375.126C822.01 373.475 824.4 373.475 826.053 375.128C827.704 376.779 827.708 379.172 826.05 380.785C824.397 382.393 822.011 382.393 820.359 380.785Z" fill="#5C13B9" stroke="#5C13B9" stroke-width="0.616667"/>
<path d="M781.195 308L781.195 308L781.198 308.003C782.891 309.607 782.989 311.996 781.417 313.657L781.417 313.658C779.814 315.35 777.424 315.448 775.763 313.877L775.762 313.877C774.07 312.273 773.972 309.883 775.543 308.222C777.107 306.569 779.537 306.476 781.195 308Z" fill="#5C13B9" stroke="#5C13B9" stroke-width="0.616667"/>
<path d="M803.716 336.09L803.716 336.09L803.71 336.096C802.026 337.736 799.638 337.796 798.018 336.177C796.368 334.571 796.317 332.139 797.932 330.523C799.541 328.871 801.972 328.825 803.628 330.436C805.281 332.044 805.328 334.434 803.716 336.09Z" fill="#5C13B9" stroke="#5C13B9" stroke-width="0.616667"/>
<path d="M887.142 403.097L887.142 403.097L887.139 403.094C885.488 401.444 885.483 399.053 887.139 397.44C888.75 395.786 891.183 395.787 892.794 397.398C894.445 399.049 894.45 401.441 892.793 403.054C891.14 404.705 888.794 404.705 887.142 403.097Z" fill="#5C13B9" stroke="#5C13B9" stroke-width="0.616667"/>
<path d="M892.776 419.626L892.777 419.626C894.469 421.23 894.567 423.62 892.996 425.281L892.995 425.281C891.392 426.973 889.002 427.071 887.34 425.5L887.34 425.5C885.648 423.897 885.55 421.508 887.12 419.847C888.684 418.15 891.117 418.057 892.776 419.626Z" fill="#5C13B9" stroke="#5C13B9" stroke-width="0.616667"/>
<path d="M887.142 291.489L887.142 291.489L887.139 291.486C885.488 289.836 885.483 287.445 887.139 285.831C888.75 284.178 891.183 284.179 892.794 285.79C894.445 287.44 894.45 289.832 892.793 291.446C891.14 293.097 888.794 293.096 887.142 291.489Z" fill="#5C13B9" stroke="#5C13B9" stroke-width="0.616667"/>
<path d="M893.224 380.563L893.224 380.563C891.667 382.297 889.278 382.488 887.569 380.96L887.569 380.96C885.836 379.405 885.641 376.973 887.174 375.304C888.728 373.574 891.158 373.378 892.827 374.909C894.565 376.426 894.75 378.858 893.224 380.563Z" fill="#5C13B9" stroke="#5C13B9" stroke-width="0.616667"/>
<path d="M887.368 358.48C885.714 356.871 885.668 354.481 887.279 352.825C888.885 351.174 891.319 351.123 892.936 352.738C894.588 354.346 894.634 356.736 893.023 358.391C891.414 360.044 889.024 360.091 887.368 358.48Z" fill="#5C13B9" stroke="#5C13B9" stroke-width="0.616667"/>
<path d="M892.903 336.09L892.903 336.09L892.9 336.093C892.083 336.91 891.086 337.342 890.076 337.353C889.066 337.364 888.066 336.955 887.246 336.136C885.596 334.529 885.545 332.096 887.203 330.48C888.817 328.825 891.206 328.83 892.856 330.435C894.514 332.048 894.51 334.439 892.903 336.09Z" fill="#5C13B9" stroke="#5C13B9" stroke-width="0.616667"/>
<path d="M892.732 308L892.732 308L892.735 308.003C894.428 309.607 894.526 311.996 892.954 313.657L892.954 313.658C891.351 315.35 888.96 315.448 887.299 313.877L887.299 313.877C885.606 312.273 885.509 309.883 887.08 308.222C888.644 306.569 891.074 306.476 892.732 308Z" fill="#5C13B9" stroke="#5C13B9" stroke-width="0.616667"/>
</g>
<g clip-path="url(#clip3_2762_14528)">
<path d="M256.566 27.4805L256.566 27.4805L256.563 27.4775C255.388 26.3026 255.383 24.5926 256.563 23.4414C257.712 22.2636 259.451 22.2643 260.6 23.4129C261.775 24.5882 261.78 26.2992 260.598 27.4504C259.421 28.6258 257.743 28.6256 256.566 27.4805Z" fill="#5C13B9" stroke="#5C13B9" stroke-width="0.616667"/>
<path d="M275.621 38.4617C276.799 39.6078 276.833 41.3173 275.684 42.4977C274.538 43.6756 272.829 43.7094 271.648 42.5609C270.473 41.4174 270.433 39.6791 271.585 38.5249C272.705 37.3442 274.444 37.3159 275.621 38.4617Z" fill="#5C13B9" stroke="#5C13B9" stroke-width="0.616667"/>
<path d="M286.643 57.5739C285.499 56.3981 285.495 54.6884 286.677 53.5378C287.853 52.3939 289.563 52.3899 290.714 53.5724C291.858 54.7479 291.862 56.4579 290.651 57.6084C289.501 58.755 287.791 58.7537 286.643 57.5739Z" fill="#5C13B9" stroke="#5C13B9" stroke-width="0.616667"/>
<path d="M271.591 27.4779L271.591 27.4779L271.588 27.4749C270.445 26.3001 270.44 24.5924 271.62 23.4418C272.769 22.2634 274.51 22.2644 275.659 23.4449C276.803 24.6201 276.807 26.3288 275.626 27.4794C274.446 28.6576 272.737 28.624 271.591 27.4779Z" fill="#5C13B9" stroke="#5C13B9" stroke-width="0.616667"/>
<path d="M286.514 38.6196L286.514 38.6193C287.619 37.3882 289.358 37.2442 290.552 38.3398C291.782 39.4446 291.925 41.1821 290.83 42.3754C289.723 43.6067 288.017 43.7461 286.797 42.6563C285.559 41.5758 285.424 39.8373 286.514 38.6196Z" fill="#5C13B9" stroke="#5C13B9" stroke-width="0.616667"/>
<path d="M301.768 57.6687L301.767 57.6686C300.563 56.5277 300.491 54.8185 301.613 53.6329L301.613 53.6327C302.754 52.4284 304.463 52.3563 305.649 53.4779L305.649 53.478C306.854 54.619 306.926 56.3281 305.804 57.5138L305.804 57.5139C304.663 58.7182 302.954 58.7903 301.768 57.6687Z" fill="#5C13B9" stroke="#5C13B9" stroke-width="0.616667"/>
<path d="M290.682 23.4096L290.682 23.4096L290.685 23.4126C291.86 24.588 291.865 26.2989 290.683 27.4501C290.103 28.0301 289.391 28.3318 288.667 28.3318C287.942 28.3318 287.229 28.0296 286.648 27.4486C285.473 26.2733 285.468 24.5623 286.65 23.4111C287.8 22.262 289.507 22.2668 290.682 23.4096Z" fill="#5C13B9" stroke="#5C13B9" stroke-width="0.616667"/>
<path d="M305.691 42.5924L305.691 42.5925C304.511 43.709 302.803 43.6751 301.658 42.4978C300.509 41.3171 300.542 39.6064 301.751 38.4604C302.929 37.3153 304.669 37.3445 305.789 38.5565C306.935 39.7376 306.9 41.4473 305.691 42.5924Z" fill="#5C13B9" stroke="#5C13B9" stroke-width="0.616667"/>
<path d="M320.82 57.5739L320.82 57.5739L320.817 57.5769C319.645 58.7493 317.938 58.7871 316.755 57.637C315.579 56.4931 315.541 54.7537 316.694 53.5995C317.84 52.423 319.577 52.3899 320.757 53.5379C321.935 54.684 321.969 56.3935 320.82 57.5739Z" fill="#5C13B9" stroke="#5C13B9" stroke-width="0.616667"/>
<path d="M305.651 23.35L305.651 23.3501C306.856 24.491 306.928 26.2002 305.806 27.3858L305.806 27.386C304.665 28.5903 302.955 28.6624 301.77 27.5408L301.769 27.5406C300.565 26.4002 300.493 24.6921 301.613 23.5064C302.728 22.2977 304.467 22.2306 305.651 23.35Z" fill="#5C13B9" stroke="#5C13B9" stroke-width="0.616667"/>
<path d="M316.797 42.5925L316.797 42.5925L316.794 42.5895C315.622 41.4502 315.546 39.7107 316.703 38.552C317.845 37.3801 319.582 37.3094 320.767 38.4618C321.94 39.6033 322.012 41.3127 320.859 42.4978L320.859 42.4978L320.856 42.5008C319.684 43.6726 317.979 43.7105 316.797 42.5925Z" fill="#5C13B9" stroke="#5C13B9" stroke-width="0.616667"/>
<path d="M316.697 27.449L316.697 27.449L316.694 27.446C315.545 26.2655 315.579 24.556 316.757 23.4099C317.938 22.2614 319.648 22.2952 320.794 23.4731C321.942 24.653 321.909 26.3616 320.732 27.5076C319.576 28.6619 317.867 28.6191 316.697 27.449Z" fill="#5C13B9" stroke="#5C13B9" stroke-width="0.616667"/>
<path d="M245.592 53.5844C246.74 54.7649 246.707 56.4744 245.529 57.6204C244.348 58.769 242.638 58.7352 241.492 57.5573C240.343 56.3769 240.377 54.6674 241.555 53.5213C242.736 52.3728 244.445 52.4065 245.592 53.5844Z" fill="#5C13B9" stroke="#5C13B9" stroke-width="0.616667"/>
<path d="M241.506 38.5221C242.65 37.3493 244.388 37.3118 245.541 38.4635C246.722 39.6136 246.718 41.3213 245.576 42.4965C244.425 43.7093 242.714 43.7053 241.538 42.5611C240.362 41.417 240.323 39.6762 241.506 38.5221Z" fill="#5C13B9" stroke="#5C13B9" stroke-width="0.616667"/>
<path d="M260.621 57.5457L260.621 57.5457C259.451 58.7475 257.738 58.7913 256.582 57.6058C255.409 56.4622 255.371 54.7245 256.551 53.5713C257.672 52.392 259.409 52.3643 260.587 53.5096C261.769 54.6602 261.765 56.3699 260.621 57.5457Z" fill="#5C13B9" stroke="#5C13B9" stroke-width="0.616667"/>
<path d="M245.574 27.4458L245.574 27.4459L245.571 27.4488C244.992 28.0284 244.281 28.3381 243.556 28.3463C242.832 28.3544 242.118 28.0603 241.536 27.4789C240.357 26.3304 240.357 24.592 241.505 23.4428C242.653 22.264 244.392 22.2637 245.541 23.4113C246.722 24.5619 246.718 26.2705 245.574 27.4458Z" fill="#5C13B9" stroke="#5C13B9" stroke-width="0.616667"/>
<path d="M260.541 38.4016L260.541 38.4017C261.745 39.5422 261.818 41.2505 260.697 42.4361C259.555 43.6724 257.846 43.7402 256.634 42.6238L256.634 42.6238L256.631 42.6208C255.427 41.4804 255.354 39.7721 256.475 38.5865C257.616 37.3518 259.355 37.2799 260.541 38.4016Z" fill="#5C13B9" stroke="#5C13B9" stroke-width="0.616667"/>
<path d="M275.696 57.5739L275.696 57.5739L275.693 57.5769C274.52 58.7493 272.813 58.7871 271.63 57.637C270.454 56.4931 270.416 54.7537 271.569 53.5995C272.715 52.423 274.452 52.39 275.632 53.5379C276.811 54.684 276.844 56.3935 275.696 57.5739Z" fill="#5C13B9" stroke="#5C13B9" stroke-width="0.616667"/>
<path d="M331.772 27.4805L331.772 27.4805L331.769 27.4775C330.594 26.3026 330.589 24.5927 331.769 23.4414C332.918 22.2636 334.657 22.2643 335.806 23.4129C336.981 24.5882 336.986 26.2992 335.804 27.4504C334.627 28.6258 332.949 28.6256 331.772 27.4805Z" fill="#5C13B9" stroke="#5C13B9" stroke-width="0.616667"/>
<path d="M350.85 38.4617C352.028 39.6078 352.062 41.3173 350.913 42.4977C349.767 43.6756 348.057 43.7094 346.876 42.5609C345.701 41.4169 345.662 39.6775 346.815 38.5233C347.961 37.3469 349.67 37.3137 350.85 38.4617Z" fill="#5C13B9" stroke="#5C13B9" stroke-width="0.616667"/>
<path d="M361.874 57.5769L361.874 57.5769L361.871 57.5739C360.727 56.3981 360.723 54.6884 361.906 53.5378C363.082 52.3939 364.792 52.3899 365.942 53.5724C367.086 54.7474 367.091 56.4565 365.881 57.6069C364.756 58.7594 363.046 58.7488 361.874 57.5769Z" fill="#5C13B9" stroke="#5C13B9" stroke-width="0.616667"/>
<path d="M346.797 27.4769L346.797 27.4769L346.794 27.4739C345.65 26.2986 345.646 24.59 346.827 23.4394C348.003 22.2651 349.714 22.2612 350.865 23.4439C352.009 24.6192 352.013 26.3278 350.832 27.4784C349.652 28.6567 347.943 28.623 346.797 27.4769Z" fill="#5C13B9" stroke="#5C13B9" stroke-width="0.616667"/>
<path d="M361.743 38.6196L361.743 38.6193C362.848 37.3882 364.586 37.2442 365.78 38.3398C367.01 39.4446 367.154 41.182 366.058 42.3753C364.952 43.6067 363.245 43.7461 362.025 42.6563C360.787 41.5758 360.653 39.8373 361.743 38.6196Z" fill="#5C13B9" stroke="#5C13B9" stroke-width="0.616667"/>
<path d="M376.996 57.6687L376.996 57.6686C375.792 56.5277 375.719 54.8185 376.841 53.6329L376.841 53.6327C377.982 52.4284 379.692 52.3563 380.877 53.4779L380.878 53.4781C382.082 54.619 382.154 56.3281 381.032 57.5138L381.032 57.5139C379.891 58.7182 378.182 58.7903 376.996 57.6687Z" fill="#5C13B9" stroke="#5C13B9" stroke-width="0.616667"/>
<path d="M365.891 23.4126C367.066 24.588 367.071 26.2989 365.889 27.4501C364.714 28.624 363.004 28.6283 361.853 27.4471C360.679 26.2718 360.674 24.5619 361.856 23.4111C363.005 22.2636 364.742 22.2641 365.891 23.4126Z" fill="#5C13B9" stroke="#5C13B9" stroke-width="0.616667"/>
<path d="M380.92 42.5924L380.92 42.5925C379.739 43.709 378.032 43.6751 376.886 42.4978C375.737 41.3171 375.771 39.6063 376.979 38.4604C378.158 37.3154 379.898 37.3445 381.017 38.5565C382.164 39.7376 382.129 41.4473 380.92 42.5924Z" fill="#5C13B9" stroke="#5C13B9" stroke-width="0.616667"/>
<path d="M396.049 57.5739L396.049 57.5739L396.046 57.5769C394.874 58.7493 393.166 58.7871 391.984 57.637C390.808 56.4931 390.769 54.7537 391.922 53.5995C393.069 52.423 394.806 52.3899 395.986 53.5379C397.164 54.684 397.198 56.3935 396.049 57.5739Z" fill="#5C13B9" stroke="#5C13B9" stroke-width="0.616667"/>
<path d="M380.857 23.35L380.857 23.3501C382.062 24.4911 382.134 26.2002 381.012 27.3858L381.012 27.386C379.871 28.5903 378.161 28.6624 376.976 27.5408L376.975 27.5406C375.772 26.4002 375.699 24.6921 376.819 23.5064C377.934 22.2977 379.673 22.2306 380.857 23.35Z" fill="#5C13B9" stroke="#5C13B9" stroke-width="0.616667"/>
<path d="M392.025 42.5925L392.025 42.5925L392.022 42.5895C390.851 41.4502 390.775 39.7107 391.932 38.552C393.074 37.3801 394.811 37.3094 395.995 38.4618C397.169 39.6033 397.24 41.3127 396.087 42.4978L396.087 42.4978L396.084 42.5008C394.912 43.6726 393.207 43.7105 392.025 42.5925Z" fill="#5C13B9" stroke="#5C13B9" stroke-width="0.616667"/>
<path d="M391.9 27.446C390.751 26.2655 390.785 24.556 391.963 23.4099C393.144 22.2614 394.854 22.2952 396 23.4731C397.149 24.6535 397.115 26.363 395.937 27.5091C394.756 28.6576 393.047 28.6239 391.9 27.446Z" fill="#5C13B9" stroke="#5C13B9" stroke-width="0.616667"/>
<path d="M335.85 57.5457L335.85 57.5457C335.27 58.1404 334.559 58.4588 333.834 58.4711C333.108 58.4833 332.394 58.1887 331.812 57.6073C330.637 56.4632 330.599 54.7234 331.781 53.5698C332.928 52.3948 334.635 52.3621 335.815 53.5097C336.998 54.6602 336.994 56.3699 335.85 57.5457Z" fill="#5C13B9" stroke="#5C13B9" stroke-width="0.616667"/>
<path d="M335.77 38.4017L335.77 38.4019C336.975 39.5428 337.047 41.2519 335.925 42.4376L335.925 42.4378C334.784 43.642 333.075 43.7141 331.889 42.5926L331.889 42.5924C330.685 41.452 330.612 39.7438 331.732 38.5582C332.847 37.3494 334.587 37.2823 335.77 38.4017Z" fill="#5C13B9" stroke="#5C13B9" stroke-width="0.616667"/>
<path d="M350.925 57.5739L350.925 57.574L350.919 57.5798C349.723 58.7446 348.016 58.7913 346.858 57.6356C345.684 56.4916 345.646 54.7532 346.798 53.5995C347.944 52.423 349.682 52.3899 350.862 53.5379C352.04 54.684 352.074 56.3935 350.925 57.5739Z" fill="#5C13B9" stroke="#5C13B9" stroke-width="0.616667"/>
<path d="M305.836 12.368L305.836 12.368L305.833 12.371C305.241 12.9635 304.524 13.2807 303.797 13.2969C303.069 13.3132 302.354 13.0271 301.771 12.4597C300.6 11.3203 300.524 9.58088 301.681 8.42216C302.823 7.25028 304.56 7.17957 305.745 8.33198C306.918 9.47349 306.99 11.1829 305.836 12.368Z" fill="#5C13B9" stroke="#5C13B9" stroke-width="0.616667"/>
<path d="M320.883 12.3971L320.883 12.3972L320.88 12.4001C319.707 13.5725 318 13.6104 316.818 12.4603C315.642 11.3163 315.603 9.57689 316.756 8.42268C317.902 7.24617 319.64 7.21307 320.82 8.36106C321.998 9.50716 322.032 11.2167 320.883 12.3971Z" fill="#5C13B9" stroke="#5C13B9" stroke-width="0.616667"/>
<path d="M241.473 8.42455C242.618 7.22008 244.357 7.18199 245.512 8.33437C246.683 9.47542 246.754 11.183 245.603 12.3675C244.457 13.5757 242.746 13.6094 241.565 12.4607C240.394 11.3218 240.318 9.58328 241.473 8.42455Z" fill="#5C13B9" stroke="#5C13B9" stroke-width="0.616667"/>
<path d="M260.767 12.2697L260.767 12.2698L260.761 12.2766C259.628 13.5042 257.921 13.6474 256.7 12.5544L256.699 12.5541C255.468 11.4493 255.324 9.71106 256.42 8.51731C257.524 7.28858 259.26 7.14424 260.453 8.2364C261.724 9.32052 261.82 11.0574 260.767 12.2697Z" fill="#5C13B9" stroke="#5C13B9" stroke-width="0.616667"/>
<path d="M275.664 12.397L275.664 12.397L275.661 12.4C275.081 12.9796 274.371 13.2893 273.646 13.2974C272.922 13.3056 272.208 13.0115 271.626 12.4301C270.447 11.2816 270.447 9.54315 271.594 8.39401C272.743 7.21515 274.482 7.21484 275.631 8.36243C276.812 9.51302 276.808 11.2217 275.664 12.397Z" fill="#5C13B9" stroke="#5C13B9" stroke-width="0.616667"/>
<path d="M286.656 12.432L286.656 12.432L286.653 12.429C285.478 11.2536 285.473 9.54267 286.655 8.3914C287.832 7.21536 289.541 7.21587 290.718 8.39291C291.894 9.5688 291.899 11.2807 290.715 12.432L290.715 12.432L290.712 12.4348C289.509 13.5745 287.835 13.5785 286.656 12.432Z" fill="#5C13B9" stroke="#5C13B9" stroke-width="0.616667"/>
<path d="M381.118 12.368L381.118 12.3681C379.945 13.5721 378.235 13.6105 377.052 12.4597C375.881 11.3203 375.805 9.58088 376.962 8.42216C378.104 7.25028 379.841 7.17957 381.026 8.33198C382.199 9.47349 382.271 11.1829 381.118 12.368Z" fill="#5C13B9" stroke="#5C13B9" stroke-width="0.616667"/>
<path d="M396.164 12.3971L396.164 12.3972L396.161 12.4002C394.989 13.5725 393.281 13.6104 392.099 12.4603C390.923 11.3163 390.885 9.57688 392.037 8.42266C393.184 7.24617 394.921 7.21308 396.101 8.36106C397.279 9.50715 397.313 11.2167 396.164 12.3971Z" fill="#5C13B9" stroke="#5C13B9" stroke-width="0.616667"/>
<path d="M336.031 12.2731L336.03 12.2734C334.923 13.5065 333.215 13.646 331.995 12.5544L331.994 12.5541C330.763 11.4493 330.619 9.71111 331.715 8.51738C332.819 7.28818 334.556 7.14422 335.749 8.23777C336.986 9.31837 337.12 11.0559 336.031 12.2731Z" fill="#5C13B9" stroke="#5C13B9" stroke-width="0.616667"/>
<path d="M346.907 12.4301C345.728 11.2816 345.728 9.54315 346.876 8.39402C348.024 7.21514 349.763 7.21484 350.912 8.36246C352.093 9.51304 352.089 11.2217 350.945 12.397C349.799 13.575 348.088 13.609 346.907 12.4301Z" fill="#5C13B9" stroke="#5C13B9" stroke-width="0.616667"/>
<path d="M361.937 12.432L361.937 12.432L361.934 12.429C360.759 11.2536 360.754 9.54268 361.936 8.39142C363.114 7.21537 364.822 7.21586 366 8.3929C367.176 9.5688 367.18 11.2807 365.997 12.432C364.82 13.577 363.114 13.577 361.937 12.432Z" fill="#5C13B9" stroke="#5C13B9" stroke-width="0.616667"/>
<path d="M406.978 27.4805L406.978 27.4805L406.975 27.4775C405.8 26.3026 405.795 24.5926 406.975 23.4414C408.125 22.2636 409.863 22.2643 411.012 23.4129C412.187 24.5882 412.192 26.2992 411.01 27.4504C409.833 28.6258 408.156 28.6256 406.978 27.4805Z" fill="#5C13B9" stroke="#5C13B9" stroke-width="0.616667"/>
<path d="M411.078 57.5455L411.078 57.5455L411.075 57.5485C410.496 58.128 409.785 58.4377 409.061 58.4459C408.336 58.454 407.622 58.16 407.04 57.5785C405.865 56.434 405.827 54.6932 407.012 53.5395C408.158 52.3949 409.864 52.3621 411.044 53.5094C412.227 54.66 412.223 56.3697 411.078 57.5455Z" fill="#5C13B9" stroke="#5C13B9" stroke-width="0.616667"/>
<path d="M410.999 38.4017L410.999 38.4019C412.203 39.5428 412.276 41.2519 411.154 42.4376L411.154 42.4378C410.012 43.642 408.303 43.7141 407.117 42.5926L407.117 42.5924C405.913 41.452 405.841 39.7438 406.961 38.5582C408.076 37.3494 409.815 37.2823 410.999 38.4017Z" fill="#5C13B9" stroke="#5C13B9" stroke-width="0.616667"/>
<path d="M411.312 12.2731L411.312 12.2734C410.205 13.5066 408.496 13.646 407.276 12.5544L407.276 12.5541C406.044 11.4493 405.9 9.71107 406.996 8.51732C408.101 7.2881 409.837 7.14412 411.031 8.23769C412.268 9.3183 412.401 11.0559 411.312 12.2731Z" fill="#5C13B9" stroke="#5C13B9" stroke-width="0.616667"/>
</g>
</g>
<defs>
<linearGradient id="paint0_linear_2762_14528" x1="0" y1="0" x2="65.4167" y2="567.732" gradientUnits="userSpaceOnUse">
<stop stop-color="#D842F0"/>
<stop offset="1" stop-color="#7A31D7"/>
</linearGradient>
<clipPath id="clip0_2762_14528">
<rect width="1200" height="437" fill="white"/>
</clipPath>
<clipPath id="clip1_2762_14528">
<rect width="495.747" height="656.733" fill="white" transform="translate(708 -127.942)"/>
</clipPath>
<clipPath id="clip2_2762_14528">
<rect width="254.683" height="165.883" fill="white" transform="matrix(1 0 0 -1 640 449.883)"/>
</clipPath>
<clipPath id="clip3_2762_14528">
<rect width="172.05" height="112.233" fill="white" transform="matrix(1 0 0 -1 240.328 59.2002)"/>
</clipPath>
</defs>
</svg>
