<svg width="33" height="32" viewBox="0 0 33 32" fill="none" xmlns="http://www.w3.org/2000/svg">
<path d="M22.1932 2.66626H10.6332C6.11324 2.66626 3.07324 5.83959 3.07324 10.5596V21.4529C3.07324 26.1596 6.11324 29.3329 10.6332 29.3329H22.1932C26.7132 29.3329 29.7399 26.1596 29.7399 21.4529V10.5596C29.7399 5.83959 26.7132 2.66626 22.1932 2.66626Z" fill="url(#paint0_linear_2792_5008)"/>
<path d="M14.8235 20.3305C14.5249 20.3305 14.2262 20.2171 13.9982 19.9891L10.8342 16.8251C10.3782 16.3691 10.3782 15.6305 10.8342 15.1758C11.2902 14.7198 12.0275 14.7185 12.4835 15.1745L14.8235 17.5145L20.3275 12.0105C20.7835 11.5545 21.5209 11.5545 21.9769 12.0105C22.4329 12.4665 22.4329 13.2051 21.9769 13.6611L15.6489 19.9891C15.4209 20.2171 15.1222 20.3305 14.8235 20.3305Z" fill="white"/>
<defs>
<linearGradient id="paint0_linear_2792_5008" x1="29.7255" y1="2.66626" x2="1.09015" y2="32.7717" gradientUnits="userSpaceOnUse">
<stop offset="0.422408" stop-color="#EF5DA8"/>
<stop offset="1" stop-color="#FFDA44"/>
</linearGradient>
</defs>
</svg>
