<svg width="17" height="22" viewBox="0 0 17 22" fill="none" xmlns="http://www.w3.org/2000/svg">
<path d="M1.41016 1.59863V3.1009H2.91242V6.10544C2.9134 7.01362 3.14956 7.90607 3.5979 8.69587C4.04624 9.48567 4.69148 10.1459 5.47079 10.6122C4.69148 11.0786 4.04624 11.7388 3.5979 12.5286C3.14956 13.3184 2.9134 14.2109 2.91242 15.119V18.1236H1.41016V19.6259H14.9306V18.1236H13.4283V15.119C13.4273 14.2109 13.1912 13.3184 12.7428 12.5286C12.2945 11.7388 11.6492 11.0786 10.8699 10.6122C11.6492 10.1459 12.2945 9.48567 12.7428 8.69587C13.1912 7.90607 13.4273 7.01362 13.4283 6.10544V3.1009H14.9306V1.59863H1.41016ZM4.41469 3.1009H11.926V6.10544C11.926 8.18833 10.2533 9.86111 8.17036 9.86111C6.08747 9.86111 4.41469 8.18833 4.41469 6.10544V3.1009ZM5.283 6.85657C5.61801 8.15078 6.77025 9.10997 8.17036 9.10997C9.56973 9.10997 10.7227 8.15078 11.0577 6.85657H5.283ZM8.17036 11.3634C10.2533 11.3634 11.926 13.0362 11.926 15.119V18.1236H11.1749C11.1749 16.4636 9.83037 15.119 8.17036 15.119C6.51036 15.119 5.16583 16.4636 5.16583 18.1236H4.41469V15.119C4.41469 13.0362 6.08747 11.3634 8.17036 11.3634Z" fill="#00E3AE"/>
</svg>
