<svg width="378" height="425" viewBox="0 0 378 425" fill="none" xmlns="http://www.w3.org/2000/svg">
<g clip-path="url(#clip0_3982_4364)">
<g clip-path="url(#clip1_3982_4364)">
<rect width="378" height="425" fill="url(#paint0_linear_3982_4364)"/>
<g clip-path="url(#clip2_3982_4364)">
<path d="M148.369 429.204C147.257 428.091 147.254 426.478 148.371 425.39C149.486 424.277 151.098 424.277 152.213 425.391C153.327 426.505 153.33 428.119 152.211 429.207C151.071 430.317 149.459 430.323 148.369 429.204Z" fill="#5C13B9" stroke="#5C13B9" stroke-width="0.415923"/>
<path d="M118.277 384.051L118.277 384.051L118.275 384.049C117.162 382.936 117.158 381.324 118.275 380.235C119.362 379.12 121.002 379.121 122.089 380.207C123.203 381.321 123.206 382.934 122.088 384.022C120.974 385.136 119.391 385.135 118.277 384.051Z" fill="#5C13B9" stroke="#5C13B9" stroke-width="0.415923"/>
<path d="M137.084 395.248C138.199 396.332 138.231 397.945 137.144 399.061C136.059 400.176 134.447 400.207 133.33 399.121C132.216 398.038 132.181 396.398 133.27 395.308C134.329 394.191 135.969 394.163 137.084 395.248Z" fill="#5C13B9" stroke="#5C13B9" stroke-width="0.415923"/>
<path d="M148.367 414.133C147.283 413.019 147.28 411.407 148.398 410.319C149.512 409.236 151.125 409.233 152.213 410.351C153.296 411.464 153.3 413.076 152.154 414.164C151.064 415.282 149.45 415.246 148.367 414.133Z" fill="#5C13B9" stroke="#5C13B9" stroke-width="0.415923"/>
<path d="M163.518 429.293L163.518 429.293C162.376 428.212 162.31 426.6 163.37 425.479L163.37 425.479C164.452 424.338 166.092 424.272 167.212 425.332L167.212 425.332C168.354 426.413 168.42 428.025 167.36 429.145L167.36 429.145L167.358 429.147C166.25 430.285 164.639 430.354 163.518 429.293Z" fill="#5C13B9" stroke="#5C13B9" stroke-width="0.415923"/>
<path d="M133.303 384.049L133.303 384.049L133.301 384.047C132.218 382.934 132.215 381.323 133.331 380.235C134.418 379.12 136.061 379.12 137.147 380.237C138.231 381.35 138.234 382.962 137.116 384.05C136 385.165 134.388 385.134 133.303 384.049Z" fill="#5C13B9" stroke="#5C13B9" stroke-width="0.415923"/>
<path d="M148.204 395.426L148.204 395.425C149.253 394.257 150.893 394.125 152.019 395.159C153.187 396.207 153.318 397.847 152.285 398.972C151.235 400.141 149.624 400.27 148.472 399.239L148.472 399.239C147.302 398.189 147.173 396.578 148.204 395.426Z" fill="#5C13B9" stroke="#5C13B9" stroke-width="0.415923"/>
<path d="M163.339 410.409L163.339 410.409C164.42 409.268 166.032 409.202 167.153 410.261L167.153 410.262C168.295 411.343 168.36 412.955 167.301 414.075L167.301 414.075C166.222 415.214 164.609 415.314 163.485 414.222C162.345 413.141 162.279 411.529 163.339 410.409Z" fill="#5C13B9" stroke="#5C13B9" stroke-width="0.415923"/>
<path d="M178.476 429.175L178.476 429.175C177.389 428.059 177.421 426.447 178.536 425.362C179.653 424.275 181.265 424.307 182.35 425.422C183.436 426.538 183.405 428.149 182.291 429.234C181.202 430.322 179.589 430.318 178.476 429.175Z" fill="#5C13B9" stroke="#5C13B9" stroke-width="0.415923"/>
<path d="M152.175 380.235C153.289 381.349 153.292 382.962 152.174 384.05C151.622 384.602 150.949 384.885 150.268 384.885C149.586 384.885 148.913 384.602 148.361 384.049C147.248 382.936 147.244 381.324 148.361 380.235C149.449 379.119 151.062 379.122 152.175 380.235Z" fill="#5C13B9" stroke="#5C13B9" stroke-width="0.415923"/>
<path d="M163.343 399.06C162.257 397.943 162.289 396.331 163.433 395.246C164.548 394.162 166.19 394.191 167.248 395.337C168.333 396.454 168.301 398.066 167.157 399.15C166.04 400.236 164.427 400.204 163.343 399.06Z" fill="#5C13B9" stroke="#5C13B9" stroke-width="0.415923"/>
<path d="M182.318 414.133L182.318 414.133L182.316 414.135C181.205 415.247 179.594 415.281 178.476 414.193C177.362 413.11 177.328 411.469 178.417 410.378C179.502 409.264 181.142 409.233 182.258 410.319C183.374 411.404 183.405 413.017 182.318 414.133Z" fill="#5C13B9" stroke="#5C13B9" stroke-width="0.415923"/>
<path d="M167.144 380.147L167.144 380.147C168.286 381.229 168.352 382.841 167.292 383.961L167.292 383.961C166.21 385.103 164.598 385.168 163.478 384.109L163.478 384.109C162.336 383.027 162.27 381.416 163.329 380.296C164.384 379.151 166.025 379.089 167.144 380.147Z" fill="#5C13B9" stroke="#5C13B9" stroke-width="0.415923"/>
<path d="M182.318 399.061L182.318 399.061L182.316 399.063C181.208 400.172 179.597 400.24 178.476 399.149C177.366 398.069 177.297 396.428 178.389 395.334C179.471 394.223 181.111 394.158 182.231 395.247C183.343 396.329 183.408 397.941 182.318 399.061Z" fill="#5C13B9" stroke="#5C13B9" stroke-width="0.415923"/>
<path d="M178.41 384.021L178.41 384.021L178.408 384.019C177.322 382.902 177.353 381.29 178.468 380.205C179.585 379.118 181.198 379.15 182.283 380.265C183.369 381.381 183.338 382.993 182.224 384.078C181.132 385.169 179.52 385.131 178.41 384.021Z" fill="#5C13B9" stroke="#5C13B9" stroke-width="0.415923"/>
<path d="M107.062 425.393C108.145 426.507 108.148 428.118 107.031 429.206C105.917 430.319 104.304 430.321 103.216 429.203C102.132 428.09 102.13 426.479 103.218 425.391C104.331 424.278 105.973 424.275 107.062 425.393Z" fill="#5C13B9" stroke="#5C13B9" stroke-width="0.415923"/>
<path d="M107.091 410.38C108.177 411.497 108.145 413.109 107.03 414.193C105.914 415.28 104.301 415.248 103.216 414.133C102.129 413.017 102.161 411.404 103.276 410.32C104.39 409.236 106.003 409.233 107.091 410.38Z" fill="#5C13B9" stroke="#5C13B9" stroke-width="0.415923"/>
<path d="M118.295 429.235C117.179 428.15 117.148 426.538 118.235 425.421C119.318 424.308 120.96 424.273 122.05 425.363C123.164 426.447 123.195 428.059 122.109 429.175C121.024 430.29 119.411 430.322 118.295 429.235Z" fill="#5C13B9" stroke="#5C13B9" stroke-width="0.415923"/>
<path d="M103.218 395.305C104.302 394.194 105.941 394.16 107.031 395.249C108.148 396.336 108.146 397.947 107.063 399.06C105.978 400.204 104.364 400.236 103.247 399.12C102.134 398.036 102.1 396.395 103.218 395.305Z" fill="#5C13B9" stroke="#5C13B9" stroke-width="0.415923"/>
<path d="M122.12 414.133L122.12 414.133L122.118 414.135C121.567 414.686 120.894 414.977 120.213 414.985C119.531 414.993 118.858 414.716 118.305 414.164C117.192 413.081 117.157 411.44 118.275 410.35C119.336 409.231 120.976 409.238 122.088 410.319C123.206 411.407 123.204 413.019 122.12 414.133Z" fill="#5C13B9" stroke="#5C13B9" stroke-width="0.415923"/>
<path d="M133.372 429.293L133.372 429.293C132.23 428.212 132.164 426.6 133.224 425.479L133.224 425.479C134.306 424.338 135.946 424.272 137.067 425.332L137.067 425.332C138.208 426.413 138.274 428.025 137.214 429.145L137.214 429.145L137.212 429.147C136.104 430.285 134.494 430.354 133.372 429.293Z" fill="#5C13B9" stroke="#5C13B9" stroke-width="0.415923"/>
<path d="M107.062 384.019L107.062 384.019L107.06 384.021C106.509 384.572 105.837 384.863 105.156 384.871C104.474 384.879 103.8 384.602 103.247 384.05C102.131 382.963 102.131 381.323 103.217 380.236C104.304 379.12 105.944 379.12 107.032 380.206C108.149 381.294 108.146 382.906 107.062 384.019Z" fill="#5C13B9" stroke="#5C13B9" stroke-width="0.415923"/>
<path d="M122.004 395.187L122.004 395.187L122.007 395.189C123.148 396.271 123.214 397.883 122.154 399.003L122.154 399.003C121.073 400.145 119.46 400.211 118.34 399.151L118.34 399.151C117.198 398.069 117.132 396.457 118.192 395.337C119.247 394.222 120.886 394.16 122.004 395.187Z" fill="#5C13B9" stroke="#5C13B9" stroke-width="0.415923"/>
<path d="M137.194 414.133L137.194 414.133L137.192 414.135C136.08 415.247 134.469 415.281 133.351 414.193C132.237 413.11 132.203 411.469 133.292 410.378C134.377 409.264 136.017 409.233 137.134 410.319C138.249 411.404 138.28 413.017 137.194 414.133Z" fill="#5C13B9" stroke="#5C13B9" stroke-width="0.415923"/>
<path d="M223.645 429.205C222.531 428.092 222.528 426.479 223.646 425.39C224.761 424.277 226.373 424.277 227.488 425.391C228.601 426.505 228.605 428.118 227.487 429.206C226.372 430.32 224.76 430.32 223.645 429.205Z" fill="#5C13B9" stroke="#5C13B9" stroke-width="0.415923"/>
<path d="M193.484 384.051L193.484 384.051L193.482 384.049C192.369 382.936 192.365 381.324 193.482 380.235C194.569 379.12 196.209 379.121 197.296 380.207C198.41 381.321 198.413 382.934 197.295 384.022C196.181 385.136 194.598 385.135 193.484 384.051Z" fill="#5C13B9" stroke="#5C13B9" stroke-width="0.415923"/>
<path d="M212.313 395.248C213.428 396.332 213.459 397.945 212.372 399.061C211.287 400.176 209.675 400.207 208.558 399.121C207.444 398.038 207.41 396.397 208.499 395.307C209.584 394.193 211.196 394.162 212.313 395.248Z" fill="#5C13B9" stroke="#5C13B9" stroke-width="0.415923"/>
<path d="M223.596 414.135L223.596 414.135L223.594 414.133C222.51 413.019 222.508 411.407 223.626 410.319C224.74 409.236 226.352 409.233 227.44 410.351C228.523 411.464 228.527 413.075 227.383 414.163C226.317 415.285 224.704 415.243 223.596 414.135Z" fill="#5C13B9" stroke="#5C13B9" stroke-width="0.415923"/>
<path d="M238.791 429.293L238.791 429.293C237.649 428.211 237.583 426.599 238.643 425.479L238.643 425.479C239.725 424.338 241.365 424.272 242.486 425.331L242.486 425.331C243.627 426.413 243.693 428.025 242.634 429.145L242.634 429.145L242.631 429.147C241.523 430.285 239.913 430.353 238.791 429.293Z" fill="#5C13B9" stroke="#5C13B9" stroke-width="0.415923"/>
<path d="M208.51 384.049L208.51 384.049L208.508 384.047C207.425 382.933 207.422 381.322 208.539 380.234C209.653 379.122 211.266 379.119 212.354 380.237C213.438 381.35 213.441 382.962 212.323 384.05C211.207 385.165 209.595 385.134 208.51 384.049Z" fill="#5C13B9" stroke="#5C13B9" stroke-width="0.415923"/>
<path d="M223.434 395.426L223.434 395.425C224.482 394.257 226.123 394.125 227.249 395.159C228.416 396.207 228.548 397.847 227.514 398.972C226.464 400.141 224.853 400.27 223.701 399.239L223.701 399.239C222.531 398.189 222.403 396.578 223.434 395.426Z" fill="#5C13B9" stroke="#5C13B9" stroke-width="0.415923"/>
<path d="M238.566 410.409L238.566 410.409C239.648 409.268 241.26 409.202 242.38 410.262L242.38 410.262C243.522 411.343 243.588 412.955 242.528 414.075L242.528 414.075C241.449 415.214 239.836 415.314 238.713 414.222C237.572 413.141 237.507 411.529 238.566 410.409Z" fill="#5C13B9" stroke="#5C13B9" stroke-width="0.415923"/>
<path d="M253.748 429.174C252.663 428.058 252.694 426.446 253.809 425.362C254.926 424.275 256.539 424.307 257.624 425.422C258.71 426.538 258.679 428.15 257.564 429.235C256.45 430.319 254.836 430.322 253.748 429.174Z" fill="#5C13B9" stroke="#5C13B9" stroke-width="0.415923"/>
<path d="M223.567 380.235C224.654 379.12 226.295 379.12 227.382 380.236C228.495 381.35 228.497 382.962 227.38 384.05C226.267 385.163 224.654 385.166 223.566 384.048C222.454 382.935 222.45 381.323 223.567 380.235Z" fill="#5C13B9" stroke="#5C13B9" stroke-width="0.415923"/>
<path d="M242.386 399.15C241.269 400.236 239.656 400.204 238.571 399.06C237.485 397.943 237.517 396.331 238.661 395.246C239.777 394.162 241.418 394.191 242.476 395.337C243.561 396.454 243.529 398.066 242.386 399.15Z" fill="#5C13B9" stroke="#5C13B9" stroke-width="0.415923"/>
<path d="M257.547 414.133L257.547 414.133L257.545 414.135C256.434 415.247 254.823 415.281 253.705 414.193C252.591 413.11 252.556 411.469 253.646 410.378C254.731 409.264 256.371 409.233 257.487 410.319C258.603 411.404 258.634 413.017 257.547 414.133Z" fill="#5C13B9" stroke="#5C13B9" stroke-width="0.415923"/>
<path d="M242.351 380.147L242.351 380.147C243.493 381.229 243.559 382.841 242.499 383.961L242.499 383.961C241.417 385.103 239.805 385.168 238.685 384.109L238.685 384.109C237.543 383.027 237.477 381.416 238.536 380.296C239.591 379.151 241.232 379.089 242.351 380.147Z" fill="#5C13B9" stroke="#5C13B9" stroke-width="0.415923"/>
<path d="M257.546 399.061L257.546 399.061L257.544 399.063C256.435 400.172 254.825 400.24 253.704 399.149C252.593 398.069 252.524 396.428 253.617 395.334C254.699 394.223 256.338 394.158 257.458 395.248C258.57 396.329 258.635 397.942 257.546 399.061Z" fill="#5C13B9" stroke="#5C13B9" stroke-width="0.415923"/>
<path d="M253.615 384.019C252.528 382.902 252.559 381.29 253.674 380.205C254.791 379.118 256.404 379.15 257.489 380.265C258.576 381.382 258.544 382.994 257.429 384.079C256.312 385.166 254.7 385.134 253.615 384.019Z" fill="#5C13B9" stroke="#5C13B9" stroke-width="0.415923"/>
<path d="M193.568 429.235C192.453 428.15 192.421 426.538 193.508 425.421C194.592 424.308 196.233 424.273 197.324 425.363C198.438 426.447 198.469 428.059 197.382 429.175C196.297 430.29 194.685 430.322 193.568 429.235Z" fill="#5C13B9" stroke="#5C13B9" stroke-width="0.415923"/>
<path d="M197.348 414.133L197.348 414.133L197.346 414.135C196.795 414.686 196.123 414.977 195.441 414.985C194.76 414.993 194.086 414.716 193.533 414.164C192.42 413.081 192.386 411.439 193.504 410.349C194.592 409.233 196.203 409.236 197.316 410.319C198.435 411.407 198.432 413.019 197.348 414.133Z" fill="#5C13B9" stroke="#5C13B9" stroke-width="0.415923"/>
<path d="M208.649 429.295L208.649 429.295L208.647 429.293C207.505 428.211 207.439 426.599 208.499 425.479L208.499 425.479C209.581 424.338 211.221 424.272 212.341 425.331L212.341 425.331C213.483 426.413 213.549 428.025 212.489 429.145L212.489 429.145L212.487 429.147C211.937 429.712 211.266 430.018 210.582 430.044C209.898 430.071 209.217 429.818 208.649 429.295Z" fill="#5C13B9" stroke="#5C13B9" stroke-width="0.415923"/>
<path d="M197.232 395.187L197.233 395.187L197.235 395.189C198.376 396.271 198.442 397.883 197.383 399.003L197.382 399.003C196.301 400.145 194.689 400.211 193.568 399.151L193.568 399.151C192.427 398.069 192.361 396.457 193.421 395.337C194.476 394.222 196.114 394.16 197.232 395.187Z" fill="#5C13B9" stroke="#5C13B9" stroke-width="0.415923"/>
<path d="M212.422 414.133L212.422 414.133L212.418 414.137C211.282 415.243 209.671 415.284 208.579 414.192C207.466 413.109 207.432 411.468 208.521 410.378C209.606 409.264 211.246 409.233 212.362 410.319C213.477 411.404 213.509 413.017 212.422 414.133Z" fill="#5C13B9" stroke="#5C13B9" stroke-width="0.415923"/>
<path d="M268.69 384.051L268.69 384.051L268.688 384.049C267.575 382.936 267.571 381.323 268.688 380.235C269.775 379.12 271.416 379.12 272.502 380.207C273.616 381.32 273.619 382.934 272.501 384.022C271.387 385.135 269.804 385.135 268.69 384.051Z" fill="#5C13B9" stroke="#5C13B9" stroke-width="0.415923"/>
<path d="M268.842 429.235C267.727 428.15 267.696 426.538 268.783 425.421C269.866 424.308 271.507 424.273 272.598 425.362C273.712 426.447 273.743 428.059 272.657 429.175C271.572 430.29 269.959 430.322 268.842 429.235Z" fill="#5C13B9" stroke="#5C13B9" stroke-width="0.415923"/>
<path d="M272.576 414.133L272.576 414.133L272.574 414.135C272.023 414.686 271.351 414.977 270.669 414.985C269.988 414.993 269.314 414.717 268.761 414.164C267.648 413.081 267.613 411.439 268.732 410.349C269.82 409.233 271.431 409.236 272.544 410.319C273.662 411.407 273.66 413.019 272.576 414.133Z" fill="#5C13B9" stroke="#5C13B9" stroke-width="0.415923"/>
<path d="M272.461 395.187L272.461 395.187L272.464 395.189C273.605 396.271 273.671 397.883 272.611 399.003L272.611 399.003C271.53 400.145 269.917 400.211 268.797 399.151L268.797 399.151C267.655 398.069 267.589 396.457 268.649 395.337C269.704 394.222 271.343 394.16 272.461 395.187Z" fill="#5C13B9" stroke="#5C13B9" stroke-width="0.415923"/>
</g>
<g clip-path="url(#clip3_3982_4364)">
<path d="M119.238 8.51367L119.238 8.51369L119.235 8.5107C118.06 7.33583 118.055 5.62585 119.235 4.47462C120.384 3.29677 122.123 3.29748 123.272 4.44607C124.447 5.62145 124.452 7.33238 123.27 8.48363C122.093 9.65899 120.415 9.65883 119.238 8.51367Z" fill="#5C13B9" stroke="#5C13B9" stroke-width="0.616667"/>
<path d="M138.293 19.4949C139.471 20.641 139.505 22.3505 138.356 23.531C137.21 24.7088 135.5 24.7426 134.32 23.5941C133.144 22.4506 133.105 20.7123 134.257 19.5581C135.377 18.3774 137.115 18.3491 138.293 19.4949Z" fill="#5C13B9" stroke="#5C13B9" stroke-width="0.616667"/>
<path d="M149.315 38.6073C148.17 37.4315 148.166 35.7219 149.349 34.5713C150.525 33.4273 152.235 33.4233 153.386 34.6058C154.53 35.7813 154.534 37.4914 153.323 38.6418C152.173 39.7885 150.463 39.7871 149.315 38.6073Z" fill="#5C13B9" stroke="#5C13B9" stroke-width="0.616667"/>
<path d="M134.263 8.51059L134.263 8.51061L134.26 8.50758C133.117 7.33281 133.112 5.62511 134.291 4.47456C135.441 3.29607 137.182 3.29708 138.331 4.47758C139.475 5.65286 139.479 7.36152 138.298 8.51209C137.118 9.69035 135.409 9.65674 134.263 8.51059Z" fill="#5C13B9" stroke="#5C13B9" stroke-width="0.616667"/>
<path d="M149.186 19.6531L149.186 19.6527C150.291 18.4217 152.03 18.2776 153.224 19.3732C154.454 20.4781 154.597 22.2155 153.502 23.4088C152.395 24.6402 150.689 24.7796 149.469 23.6898C148.231 22.6093 148.096 20.8708 149.186 19.6531Z" fill="#5C13B9" stroke="#5C13B9" stroke-width="0.616667"/>
<path d="M164.44 38.7022L164.439 38.702C163.235 37.5611 163.163 35.852 164.285 34.6663L164.285 34.6661C165.426 33.4619 167.135 33.3898 168.321 34.5113L168.321 34.5115C169.526 35.6524 169.598 37.3615 168.476 38.5472L168.476 38.5474C167.335 39.7517 165.625 39.8237 164.44 38.7022Z" fill="#5C13B9" stroke="#5C13B9" stroke-width="0.616667"/>
<path d="M153.354 4.44307L153.354 4.44305L153.357 4.44604C154.532 5.62141 154.537 7.33234 153.355 8.48358C152.774 9.0636 152.063 9.36522 151.338 9.36522C150.614 9.36522 149.901 9.06308 149.32 8.48208C148.145 7.30671 148.14 5.59577 149.322 4.44453C150.472 3.29548 152.179 3.3002 153.354 4.44307Z" fill="#5C13B9" stroke="#5C13B9" stroke-width="0.616667"/>
<path d="M168.363 23.6256L168.363 23.6257C167.182 24.7422 165.475 24.7083 164.33 23.531C163.181 22.3503 163.214 20.6396 164.423 19.4936C165.601 18.3486 167.341 18.3777 168.461 19.5897C169.607 20.7708 169.572 22.4805 168.363 23.6256Z" fill="#5C13B9" stroke="#5C13B9" stroke-width="0.616667"/>
<path d="M183.492 38.6074L183.492 38.6074L183.489 38.6104C182.317 39.7827 180.609 39.8206 179.427 38.6705C178.251 37.5265 178.213 35.7872 179.366 34.633C180.512 33.4565 182.249 33.4234 183.429 34.5714C184.607 35.7174 184.641 37.4269 183.492 38.6074Z" fill="#5C13B9" stroke="#5C13B9" stroke-width="0.616667"/>
<path d="M168.323 4.38294L168.323 4.3831C169.528 5.52401 169.6 7.23312 168.478 8.4188L168.478 8.41897C167.337 9.62324 165.627 9.69533 164.441 8.57377L164.441 8.57361C163.237 7.43318 163.165 5.72502 164.285 4.5394C165.4 3.33065 167.139 3.26353 168.323 4.38294Z" fill="#5C13B9" stroke="#5C13B9" stroke-width="0.616667"/>
<path d="M179.469 23.6257L179.469 23.6257L179.466 23.6227C178.294 22.4834 178.218 20.7439 179.375 19.5852C180.517 18.4133 182.254 18.3426 183.439 19.495C184.612 20.6365 184.684 22.3459 183.531 23.531L183.531 23.531L183.528 23.534C182.356 24.7058 180.651 24.7437 179.469 23.6257Z" fill="#5C13B9" stroke="#5C13B9" stroke-width="0.616667"/>
<path d="M179.369 8.48219L179.369 8.48221L179.366 8.47919C178.217 7.29872 178.251 5.58923 179.429 4.44315C180.61 3.29461 182.319 3.32837 183.466 4.50627C184.614 5.68623 184.581 7.39476 183.404 8.54083C182.248 9.69509 180.539 9.65227 179.369 8.48219Z" fill="#5C13B9" stroke="#5C13B9" stroke-width="0.616667"/>
<path d="M108.264 34.6179C109.412 35.7983 109.379 37.5078 108.2 38.6539C107.02 39.8024 105.31 39.7686 104.164 38.5908C103.015 37.4103 103.049 35.7008 104.227 34.5548C105.408 33.4062 107.117 33.44 108.264 34.6179Z" fill="#5C13B9" stroke="#5C13B9" stroke-width="0.616667"/>
<path d="M104.178 19.555C105.322 18.3823 107.06 18.3448 108.213 19.4964C109.394 20.6465 109.39 22.3542 108.248 23.5294C107.097 24.7423 105.386 24.7382 104.21 23.594C103.034 22.45 102.995 20.7092 104.178 19.555Z" fill="#5C13B9" stroke="#5C13B9" stroke-width="0.616667"/>
<path d="M123.293 38.5789L123.293 38.5789C122.123 39.7807 120.41 39.8245 119.253 38.639C118.081 37.4954 118.043 35.7577 119.223 34.6045C120.343 33.4252 122.081 33.3975 123.258 34.5429C124.441 35.6934 124.437 37.4031 123.293 38.5789Z" fill="#5C13B9" stroke="#5C13B9" stroke-width="0.616667"/>
<path d="M108.246 8.47904L108.246 8.47906L108.243 8.48205C107.663 9.06163 106.953 9.37132 106.228 9.37946C105.504 9.3876 104.79 9.09355 104.208 8.51211C103.029 7.36359 103.029 5.62519 104.176 4.47605C105.325 3.29717 107.064 3.29688 108.213 4.44451C109.394 5.59509 109.39 7.30375 108.246 8.47904Z" fill="#5C13B9" stroke="#5C13B9" stroke-width="0.616667"/>
<path d="M123.213 19.4348L123.213 19.4349C124.417 20.5754 124.49 22.2837 123.369 23.4693C122.226 24.7056 120.518 24.7734 119.306 23.657L119.306 23.657L119.303 23.654C118.099 22.5136 118.026 20.8053 119.147 19.6197C120.288 18.385 122.027 18.3131 123.213 19.4348Z" fill="#5C13B9" stroke="#5C13B9" stroke-width="0.616667"/>
<path d="M138.367 38.6074L138.367 38.6074L138.364 38.6104C137.192 39.7827 135.484 39.8206 134.302 38.6705C133.126 37.5265 133.088 35.7871 134.241 34.6329C135.387 33.4565 137.124 33.4234 138.304 34.5714C139.482 35.7174 139.516 37.4269 138.367 38.6074Z" fill="#5C13B9" stroke="#5C13B9" stroke-width="0.616667"/>
<path d="M194.444 8.51367L194.444 8.51369L194.441 8.5107C193.266 7.33583 193.261 5.62586 194.441 4.47463C195.59 3.29677 197.329 3.29747 198.478 4.44608C199.653 5.62145 199.658 7.33239 198.476 8.48363C197.299 9.65899 195.621 9.65883 194.444 8.51367Z" fill="#5C13B9" stroke="#5C13B9" stroke-width="0.616667"/>
<path d="M213.522 19.4949C214.7 20.641 214.733 22.3505 213.585 23.5309C212.439 24.7088 210.729 24.7426 209.548 23.5941C208.372 22.4501 208.334 20.7107 209.487 19.5566C210.633 18.3801 212.342 18.3469 213.522 19.4949Z" fill="#5C13B9" stroke="#5C13B9" stroke-width="0.616667"/>
<path d="M224.546 38.6103L224.546 38.6103L224.543 38.6073C223.399 37.4315 223.395 35.7219 224.578 34.5713C225.754 33.4273 227.464 33.4233 228.614 34.6058C229.758 35.7808 229.763 37.4899 228.553 38.6403C227.428 39.7929 225.718 39.7822 224.546 38.6103Z" fill="#5C13B9" stroke="#5C13B9" stroke-width="0.616667"/>
<path d="M209.469 8.51059L209.469 8.51061L209.466 8.50758C208.322 7.3323 208.318 5.62364 209.499 4.47308C210.675 3.29875 212.386 3.2949 213.537 4.47759C214.681 5.65287 214.685 7.36152 213.504 8.51208C212.324 9.69036 210.615 9.65674 209.469 8.51059Z" fill="#5C13B9" stroke="#5C13B9" stroke-width="0.616667"/>
<path d="M224.414 19.6531L224.415 19.6527C225.52 18.4217 227.258 18.2776 228.452 19.3732C229.682 20.4781 229.826 22.2155 228.73 23.4088C227.624 24.6402 225.917 24.7796 224.697 23.6898C223.459 22.6093 223.325 20.8708 224.414 19.6531Z" fill="#5C13B9" stroke="#5C13B9" stroke-width="0.616667"/>
<path d="M239.668 38.7022L239.668 38.702C238.463 37.5611 238.391 35.852 239.513 34.6663L239.513 34.6661C240.654 33.4619 242.363 33.3898 243.549 34.5113L243.549 34.5115C244.754 35.6524 244.826 37.3615 243.704 38.5472L243.704 38.5474C242.563 39.7517 240.854 39.8237 239.668 38.7022Z" fill="#5C13B9" stroke="#5C13B9" stroke-width="0.616667"/>
<path d="M228.563 4.44604C229.738 5.62141 229.743 7.33234 228.561 8.48358C227.386 9.65742 225.676 9.66177 224.525 8.48059C223.351 7.30527 223.346 5.5953 224.528 4.44455C225.677 3.29709 227.414 3.29759 228.563 4.44604Z" fill="#5C13B9" stroke="#5C13B9" stroke-width="0.616667"/>
<path d="M243.592 23.6256L243.591 23.6257C242.411 24.7422 240.704 24.7083 239.558 23.531C238.409 22.3503 238.443 20.6396 239.651 19.4936C240.83 18.3486 242.57 18.3777 243.689 19.5897C244.836 20.7708 244.8 22.4806 243.592 23.6256Z" fill="#5C13B9" stroke="#5C13B9" stroke-width="0.616667"/>
<path d="M258.721 38.6074L258.721 38.6074L258.718 38.6104C257.546 39.7827 255.838 39.8206 254.656 38.6705C253.48 37.5265 253.441 35.7872 254.594 34.633C255.741 33.4565 257.478 33.4234 258.658 34.5713C259.836 35.7174 259.87 37.4269 258.721 38.6074Z" fill="#5C13B9" stroke="#5C13B9" stroke-width="0.616667"/>
<path d="M243.529 4.38294L243.529 4.3831C244.733 5.52401 244.806 7.23312 243.684 8.4188L243.684 8.41897C242.543 9.62324 240.833 9.69533 239.648 8.57376L239.647 8.5736C238.443 7.43317 238.371 5.72503 239.491 4.5394C240.606 3.33065 242.345 3.26353 243.529 4.38294Z" fill="#5C13B9" stroke="#5C13B9" stroke-width="0.616667"/>
<path d="M254.697 23.6257L254.697 23.6257L254.694 23.6227C253.523 22.4834 253.446 20.7439 254.604 19.5852C255.746 18.4133 257.483 18.3426 258.667 19.495C259.841 20.6365 259.912 22.3459 258.759 23.531L258.759 23.531L258.756 23.534C257.584 24.7058 255.879 24.7437 254.697 23.6257Z" fill="#5C13B9" stroke="#5C13B9" stroke-width="0.616667"/>
<path d="M254.572 8.47919C253.423 7.29872 253.457 5.58922 254.635 4.44314C255.816 3.29462 257.526 3.32838 258.672 4.50626C259.821 5.68673 259.787 7.39623 258.609 8.54231C257.428 9.69084 255.718 9.65708 254.572 8.47919Z" fill="#5C13B9" stroke="#5C13B9" stroke-width="0.616667"/>
<path d="M198.521 38.5791L198.521 38.5792C197.942 39.1738 197.231 39.4923 196.505 39.5045C195.779 39.5167 195.066 39.2221 194.483 38.6407C193.309 37.4967 193.271 35.7569 194.453 34.6032C195.6 33.4283 197.307 33.3956 198.487 34.5431C199.67 35.6937 199.666 37.4033 198.521 38.5791Z" fill="#5C13B9" stroke="#5C13B9" stroke-width="0.616667"/>
<path d="M198.442 19.4349L198.442 19.4351C199.647 20.576 199.719 22.2851 198.597 23.4708L198.597 23.471C197.456 24.6752 195.746 24.7473 194.561 23.6258L194.56 23.6256C193.356 22.4852 193.284 20.777 194.404 19.5914C195.519 18.3826 197.258 18.3155 198.442 19.4349Z" fill="#5C13B9" stroke="#5C13B9" stroke-width="0.616667"/>
<path d="M213.597 38.6074L213.597 38.6074L213.591 38.6133C212.394 39.778 210.688 39.8247 209.53 38.669C208.356 37.525 208.318 35.7867 209.47 34.633C210.616 33.4565 212.354 33.4234 213.534 34.5714C214.712 35.7174 214.745 37.4269 213.597 38.6074Z" fill="#5C13B9" stroke="#5C13B9" stroke-width="0.616667"/>
<path d="M269.65 8.51367L269.65 8.51369L269.647 8.5107C268.472 7.33583 268.467 5.62585 269.647 4.47462C270.796 3.29677 272.535 3.29748 273.684 4.44608C274.859 5.62145 274.864 7.33238 273.682 8.48362C272.505 9.65899 270.827 9.65883 269.65 8.51367Z" fill="#5C13B9" stroke="#5C13B9" stroke-width="0.616667"/>
<path d="M273.75 38.5787L273.75 38.5787L273.747 38.5817C273.168 39.1612 272.457 39.4709 271.732 39.4791C271.008 39.4872 270.294 39.1932 269.712 38.6117C268.537 37.4672 268.499 35.7264 269.683 34.5727C270.83 33.4281 272.536 33.3953 273.716 34.5426C274.899 35.6932 274.895 37.4029 273.75 38.5787Z" fill="#5C13B9" stroke="#5C13B9" stroke-width="0.616667"/>
<path d="M273.671 19.4349L273.671 19.4351C274.875 20.576 274.947 22.2851 273.826 23.4708L273.825 23.471C272.684 24.6752 270.975 24.7473 269.789 23.6258L269.789 23.6256C268.585 22.4852 268.512 20.777 269.633 19.5914C270.748 18.3826 272.487 18.3155 273.671 19.4349Z" fill="#5C13B9" stroke="#5C13B9" stroke-width="0.616667"/>
</g>
<path d="M301.789 391.867C299.064 391.867 296.515 390.713 294.195 388.835L294.759 386.186L294.784 386.089C295.288 383.268 296.883 378.53 301.789 378.53C305.468 378.53 308.461 381.525 308.461 385.204C308.45 388.871 305.457 391.867 301.789 391.867V391.867ZM301.789 371.767C295.521 371.767 290.662 375.841 288.688 382.54C285.67 378.013 283.389 372.578 282.052 368H275.308V385.558C275.308 389.018 272.487 391.839 269.026 391.839C265.565 391.839 262.747 389.018 262.747 385.558V368H256V385.558C255.975 392.749 261.828 398.652 269.015 398.652C276.202 398.652 282.055 392.749 282.055 385.558V382.612C283.367 385.348 284.973 388.108 286.924 390.564L282.791 410H289.698L292.691 395.902C295.316 397.584 298.333 398.638 301.794 398.638C309.192 398.638 315.213 392.575 315.213 385.176C315.208 377.791 309.186 371.767 301.789 371.767V371.767Z" fill="white" fill-opacity="0.75"/>
</g>
<g opacity="0.41" clip-path="url(#clip4_3982_4364)">
<path fill-rule="evenodd" clip-rule="evenodd" d="M174.189 -153.813C178.278 -170.984 184.76 -187.902 193.118 -203.942H195.448C186.939 -187.771 180.348 -170.68 176.209 -153.319C163.842 -101.463 170.022 -46.154 196.236 26.0112C219.484 89.9921 245.952 146.835 274.914 194.965C298.707 234.505 328.101 266.515 359.223 300.403C367.269 309.175 375.596 318.24 383.744 327.376C392.201 336.844 400.622 346.625 408.768 356.086C420.165 369.328 431.955 383.006 443.987 396.06C446.319 398.572 448.693 401.218 451.124 403.922C466.499 421.003 483.922 440.353 504.576 447.682C510.227 449.681 516.002 450.711 521.755 450.711H521.766C562.832 450.69 596.427 399.229 608.963 377.102C631.565 337.208 648.241 293.821 663.746 251.071V257.157C648.756 298.242 632.504 339.772 610.77 378.142C594.971 406.022 562.398 452.79 521.766 452.79H521.755C515.771 452.79 509.754 451.74 503.889 449.66C482.73 442.152 465.126 422.589 449.59 405.326C447.156 402.629 444.785 399.996 442.463 397.483C430.401 384.41 418.61 370.712 407.192 357.468C399.057 348.008 390.638 338.238 382.198 328.769C374.062 319.654 365.735 310.589 357.69 301.827C326.496 267.859 297.031 235.776 273.138 196.055C244.106 147.804 217.577 90.8397 194.278 26.7282C167.922 -45.8398 161.723 -101.522 174.189 -153.813" fill="#6FDA44"/>
<path fill-rule="evenodd" clip-rule="evenodd" d="M663.746 18.1486C662.333 16.412 660.82 14.7069 659.163 13.0505C639.439 -6.63417 613.708 -18.5546 588.825 -30.0823C585.383 -31.689 581.93 -33.2826 578.509 -34.8976C535.453 -55.1892 479.651 -84.2101 429.855 -128.829C421.285 -136.511 412.875 -145.091 403.984 -154.176C385.923 -172.599 367.47 -191.424 346.474 -203.942H350.482C370.469 -191.344 388.144 -173.316 405.456 -155.64C414.329 -146.585 422.718 -138.034 431.237 -130.393C480.842 -85.9467 536.473 -57.0267 579.396 -36.7954C582.809 -35.1804 586.251 -33.5869 589.704 -31.9909C614.748 -20.3822 640.64 -8.37986 660.627 11.5661C661.727 12.6585 662.756 13.779 663.746 14.9177V18.1486" fill="#6FDA44"/>
<path fill-rule="evenodd" clip-rule="evenodd" d="M206.18 -143.315C213.841 -166.118 228.671 -189.032 248.879 -203.942H252.494C231.426 -189.396 215.991 -165.967 208.149 -142.649C194.127 -100.967 196.155 -52.4636 214.336 5.64102C231.265 59.7068 257.864 117.065 291.277 171.504C320.702 219.455 357.991 256.744 404.922 297.98C407.01 299.818 409.17 301.736 411.411 303.715C441.343 330.243 482.337 366.583 522.28 366.583H522.291C528.61 366.583 534.767 365.634 540.583 363.775C580.355 351.037 603.27 310.871 622.116 269.353C640.054 229.831 652.682 188.01 663.746 146.358V154.395C653.137 193.642 640.933 232.93 624.003 270.229C604.965 312.172 581.759 352.784 541.209 365.775C535.191 367.693 528.832 368.673 522.291 368.673C522.28 368.673 522.28 368.673 522.28 368.673C481.549 368.673 440.212 332.04 410.039 305.288C407.798 303.309 405.638 301.393 403.56 299.565C356.477 258.197 319.066 220.776 289.509 172.607C256.006 118.023 229.326 60.5057 212.357 6.26784C194.026 -52.2718 192.007 -101.21 206.18 -143.315" fill="#6FDA44"/>
<path fill-rule="evenodd" clip-rule="evenodd" d="M302.128 -147.727C326.062 -147.727 354.52 -134.887 386.71 -109.569C434.669 -71.8461 485.729 -39.1585 533.759 -9.45129C536.646 -7.66426 539.574 -5.8764 542.51 -4.09019C561.448 7.42753 581.02 19.3496 595.699 35.9754C616.291 59.3143 621.429 89.5781 622.106 110.858C622.287 116.741 622.237 123.173 621.934 130.52C613.313 185.244 599.877 241.067 560.377 277.83C546.175 291.035 529.507 297.737 510.843 297.737H510.833C476.441 297.737 441.111 275.449 417.518 258.681C338.448 202.496 277.971 111.765 247.233 3.22828C236.452 -34.8485 225.491 -89.5014 254.643 -124.397C267.585 -139.873 283.555 -147.727 302.128 -147.727ZM510.834 299.827H510.844C530.055 299.827 547.195 292.944 561.783 279.364C601.757 242.167 615.313 185.941 624.004 130.723C624.318 123.202 624.368 116.721 624.186 110.785C623.489 89.1623 618.261 58.3858 597.255 34.5821C582.375 17.7248 562.651 5.72166 543.582 -5.88702C540.654 -7.67323 537.737 -9.45116 534.849 -11.2365C486.869 -40.9157 435.872 -73.5619 387.983 -111.223C355.428 -136.834 326.538 -149.825 302.129 -149.825C282.92 -149.825 266.405 -141.719 253.05 -125.751C223.261 -90.086 234.324 -34.7367 245.236 3.80315C276.095 112.795 336.855 203.928 416.318 260.397C440.132 277.326 475.857 299.827 510.834 299.827V299.827Z" fill="#6FDA44"/>
<path fill-rule="evenodd" clip-rule="evenodd" d="M571.675 151.257C567.677 175.896 556.03 219.031 522.818 233.346C513.661 237.293 503.82 239.291 493.554 239.291C465.734 239.291 434.016 224.916 399.28 196.551C343.023 150.63 299.333 71.4277 287.958 -5.23034C284.394 -29.2341 284.243 -60.2554 303.755 -71.8037C309.833 -75.3968 316.847 -77.2244 324.621 -77.2244C351.17 -77.2244 382.615 -56.2282 403.419 -42.3379C405.761 -40.7725 407.992 -39.2882 410.092 -37.9047C422.145 -29.9908 434.601 -22.3109 446.653 -14.8916C471.063 0.14068 496.289 15.6848 519.032 33.8057C535.356 46.8078 548.923 62.3627 561.742 82.7337C573.231 101.006 572.524 123.869 571.837 145.977C571.787 147.742 571.725 149.51 571.675 151.257ZM493.554 247.679H493.564C504.949 247.669 515.902 245.449 526.098 241.047C563.086 225.108 575.713 178.612 579.943 152.315L579.993 151.761C580.044 149.934 580.094 148.096 580.154 146.239C580.85 123.951 581.628 98.6938 568.777 78.2524C555.442 57.0528 541.281 40.8405 524.2 27.2339C501.065 8.80127 475.615 -6.876 451.005 -22.0381C439.002 -29.4376 426.586 -37.0778 414.645 -44.9222C412.554 -46.2941 410.344 -47.7685 408.022 -49.3232C386.38 -63.7683 353.684 -85.603 324.621 -85.603C315.345 -85.603 306.906 -83.3918 299.535 -79.0313C280.658 -67.8567 273.997 -42.6109 279.72 -3.99822C291.39 74.618 336.26 155.9 394.041 203.061C430.29 232.668 463.774 247.679 493.554 247.679V247.679Z" fill="#6FDA44"/>
<path fill-rule="evenodd" clip-rule="evenodd" d="M380.868 17.3708C401.229 17.3708 429.068 31.634 439.559 37.0051C464.501 49.783 521.718 85.6105 514.186 142.139C506.615 169.778 487.143 175.604 472.142 175.604C457.819 175.614 440.83 170.152 425.517 160.623C405.74 148.319 388.761 130.369 376.417 108.706C370.055 97.5417 350.008 58.9713 358.962 31.2619C361.941 22.0456 369.309 17.3708 380.868 17.3708ZM472.142 177.702V177.702C487.87 177.702 508.271 171.605 516.216 142.554C523.958 84.5602 465.842 48.1191 440.496 35.1377C429.897 29.7071 401.733 15.281 380.868 15.281C368.3 15.281 360.264 20.4387 356.973 30.6151C347.757 59.1423 368.149 98.3991 374.609 109.746C387.125 131.711 404.346 149.922 424.425 162.41C440.052 172.13 457.445 177.702 472.142 177.702V177.702Z" fill="#6FDA44"/>
</g>
</g>
<defs>
<linearGradient id="paint0_linear_3982_4364" x1="0" y1="0" x2="176.672" y2="496.622" gradientUnits="userSpaceOnUse">
<stop stop-color="#D842F0"/>
<stop offset="1" stop-color="#7A31D7"/>
</linearGradient>
<clipPath id="clip0_3982_4364">
<rect width="378" height="425" rx="38" fill="white"/>
</clipPath>
<clipPath id="clip1_3982_4364">
<rect width="378" height="425" fill="white"/>
</clipPath>
<clipPath id="clip2_3982_4364">
<rect width="171.776" height="111.883" fill="white" transform="matrix(1 0 0 -1 102 490.883)"/>
</clipPath>
<clipPath id="clip3_3982_4364">
<rect width="172.05" height="112.233" fill="white" transform="matrix(1 0 0 -1 103 40.2334)"/>
</clipPath>
<clipPath id="clip4_3982_4364">
<rect width="227" height="437" fill="white" transform="translate(168 -76)"/>
</clipPath>
</defs>
</svg>
