<svg width="176" height="28" viewBox="0 0 176 28" fill="none" xmlns="http://www.w3.org/2000/svg">
<g clip-path="url(#clip0_5018_63395)">
<path d="M34.3682 16.218C34.3682 11.6936 37.8404 8.51562 42.5715 8.51562C45.4553 8.51562 47.7275 9.56922 49.1802 11.4625L46.0438 14.2601C45.1811 13.1678 44.1505 12.5348 42.8242 12.5348C40.7629 12.5348 39.3734 13.9673 39.3734 16.218C39.3734 18.4688 40.7629 19.9013 42.8242 19.9013C44.1505 19.9013 45.1811 19.2697 46.0438 18.1745L49.1802 20.9736C47.7333 22.8683 45.4553 23.9204 42.5715 23.9204C37.8404 23.9147 34.3682 20.7367 34.3682 16.218Z" fill="#D5D5D5"/>
<path d="M58.7171 11.8555V16.0641C58.3697 16.0081 58.018 15.9794 57.6649 15.9794C56.2338 15.9794 55.2233 16.6325 55.2233 18.4627V23.5756H50.4678V12.0665H54.9908V13.3095C55.8333 12.3392 57.1166 11.8555 58.7171 11.8555Z" fill="#D5D5D5"/>
<path d="M72.142 18.9263H64.1453C64.4812 19.8105 65.2822 20.2741 66.4606 20.2741C67.5128 20.2741 68.1027 20 68.8606 19.4301L71.3439 21.9349C70.2286 23.155 68.6094 23.7866 66.3142 23.7866C62.0855 23.7866 59.3496 21.2402 59.3496 17.811C59.3496 14.3129 62.1487 11.8555 65.8735 11.8555C69.2826 11.8555 72.2066 13.9167 72.2066 17.811C72.2051 18.1483 72.1635 18.589 72.142 18.9263ZM64.0606 16.6339H67.764C67.5745 15.6694 66.8798 15.0966 65.9123 15.0966C64.9262 15.0952 64.253 15.6636 64.0635 16.6325L64.0606 16.6339Z" fill="#D5D5D5"/>
<path d="M84.7692 17.3909V23.5761H80.351V22.0631C79.8027 23.2201 78.7089 23.7885 77.0941 23.7885C74.2735 23.7885 72.8223 22.1894 72.8223 20.21C72.8223 17.9794 74.5046 16.7378 78.083 16.7378H79.9979C79.85 15.8535 79.1783 15.3913 77.8261 15.3913C76.794 15.3913 75.6385 15.7272 74.8806 16.2957L73.3649 13.1593C74.7113 12.3153 76.7539 11.8545 78.5409 11.8545C82.4969 11.8559 84.7692 13.5641 84.7692 17.3909ZM80.0151 19.8368V19.0373H78.8366C77.8261 19.0373 77.3897 19.3732 77.3897 20.0019C77.3897 20.5272 77.8103 20.9277 78.5266 20.9277C79.1725 20.9234 79.761 20.589 80.0151 19.8368Z" fill="#D5D5D5"/>
<path d="M95.3138 23.1776C94.5774 23.5982 93.5038 23.7877 92.3884 23.7877C89.2104 23.7877 87.3588 22.2934 87.3588 19.1154V16.1699H85.7812V12.6991H87.3588V9.47949H92.1157V12.6991H94.4727V16.1714H92.1157V19.0752C92.1157 19.79 92.5363 20.1905 93.1047 20.1905C93.4851 20.1934 93.8583 20.0829 94.177 19.8747L95.3138 23.1776Z" fill="#D5D5D5"/>
<path d="M96.0303 8.72088C96.0303 7.35294 97.1456 6.30078 98.891 6.30078C100.637 6.30078 101.753 7.26538 101.753 8.63619C101.753 10.0831 100.638 11.141 98.891 11.141C97.1442 11.141 96.0303 10.0888 96.0303 8.72088ZM96.5126 12.0668H101.27V23.5774H96.514L96.5126 12.0668Z" fill="#D5D5D5"/>
<path d="M116.19 12.0669L111.56 23.5774H106.634L102.005 12.0654H106.887L109.203 18.2334L111.687 12.0669H116.19Z" fill="#D5D5D5"/>
<path d="M128.795 18.9263H120.799C121.136 19.8105 121.935 20.2741 123.114 20.2741C124.166 20.2741 124.756 20 125.514 19.4301L127.997 21.9349C126.882 23.155 125.263 23.7866 122.968 23.7866C118.739 23.7866 116.003 21.2402 116.003 17.811C116.003 14.3129 118.802 11.8555 122.527 11.8555C125.936 11.8555 128.861 13.9167 128.861 17.811C128.86 18.1483 128.817 18.589 128.795 18.9263ZM120.713 16.6339H124.416C124.226 15.6694 123.532 15.0966 122.564 15.0966C121.578 15.0952 120.905 15.6636 120.715 16.6325L120.713 16.6339Z" fill="#D5D5D5"/>
<path d="M145.021 8.84766V23.5778H140.054V18.1491H135.464V23.5778H130.5V8.84766H135.464V14.0668H140.047V8.84766H145.021Z" fill="#D5D5D5"/>
<path d="M159.858 12.0674V23.5779H155.333V22.4827C154.471 23.3669 153.314 23.7875 152.077 23.7875C149.319 23.7875 147.236 22.1669 147.236 18.4219V12.0674H151.993V17.6023C151.993 19.2444 152.562 19.7899 153.486 19.7899C154.307 19.7899 155.107 19.1813 155.107 17.476V12.0674H159.858Z" fill="#D5D5D5"/>
<path d="M175.199 17.8112C175.199 21.5146 172.654 23.7869 169.644 23.7869C168.213 23.7869 167.183 23.4079 166.488 22.6285V23.5758H161.965V7.96289H166.72V12.8404C167.415 12.1672 168.383 11.8514 169.646 11.8514C172.654 11.8557 175.199 14.1079 175.199 17.8112ZM170.382 17.8112C170.382 16.317 169.561 15.5591 168.509 15.5591C167.457 15.5591 166.636 16.317 166.636 17.8112C166.636 19.3055 167.457 20.0835 168.509 20.0835C169.561 20.0835 170.381 19.3055 170.382 17.8112Z" fill="#D5D5D5"/>
<path d="M13.856 0.144531C6.20384 0.144531 0 6.34837 0 14.0005C0 21.6527 6.20384 27.8566 13.856 27.8566C21.5082 27.8566 27.712 21.6556 27.712 14.0005C27.712 6.3455 21.5067 0.144531 13.856 0.144531ZM19.4986 14.0192C19.0622 14.335 18.5642 14.5546 18.0374 14.6637L17.9512 14.6809V18.4245H15.2153V14.4871L14.7905 14.3867C14.2766 14.2675 13.7455 14.1455 13.2732 14.1168C13.1685 14.1125 13.0637 14.1139 12.9589 14.1226L12.8584 14.1312V21.38H10.1268V15.0398L9.2828 15.6398L7.70385 13.4063L8.58232 12.779C9.01868 12.4632 9.51677 12.2436 10.0436 12.1345L10.1297 12.1173V7.39479H12.8656V11.391L12.9775 11.3867C13.0407 11.3838 13.1053 11.3838 13.1685 11.3838C13.2618 11.3824 13.3551 11.3867 13.4484 11.3967H13.457C14.0067 11.4297 14.5536 11.513 15.089 11.645L15.2182 11.6766V7.36751H17.9541V11.7584L18.7981 11.1584L20.38 13.3905L19.4986 14.0192Z" fill="#D5D5D5"/>
</g>
<defs>
<clipPath id="clip0_5018_63395">
<rect width="175.199" height="27.7106" fill="white" transform="translate(0 0.144531)"/>
</clipPath>
</defs>
</svg>
