<svg width="33" height="32" viewBox="0 0 33 32" fill="none" xmlns="http://www.w3.org/2000/svg">
<path d="M22.088 2.66669H10.9133C6.86 2.66669 4.5 5.04002 4.5 9.10669V22.88C4.5 27.0134 6.86 29.3334 10.9133 29.3334H22.088C26.2067 29.3334 28.5 27.0134 28.5 22.88V9.10669C28.5 5.04002 26.2067 2.66669 22.088 2.66669Z" fill="#555555"/>
<path fill-rule="evenodd" clip-rule="evenodd" d="M11.2733 8.8667V8.88003C10.6986 8.88003 10.2333 9.3467 10.2333 9.92003C10.2333 10.4934 10.6986 10.96 11.2733 10.96H15.2586C15.8333 10.96 16.2999 10.4934 16.2999 9.90537C16.2999 9.33337 15.8333 8.8667 15.2586 8.8667H11.2733ZM21.7266 16.9867H11.2733C10.6986 16.9867 10.2333 16.52 10.2333 15.9467C10.2333 15.3734 10.6986 14.9054 11.2733 14.9054H21.7266C22.2999 14.9054 22.7666 15.3734 22.7666 15.9467C22.7666 16.52 22.2999 16.9867 21.7266 16.9867ZM21.7266 23.08H11.2733C10.8733 23.1334 10.4866 22.9334 10.2733 22.6C10.0599 22.2534 10.0599 21.8134 10.2733 21.48C10.4866 21.1334 10.8733 20.9467 11.2733 20.9867H21.7266C22.2586 21.04 22.6599 21.4934 22.6599 22.04C22.6599 22.572 22.2586 23.0267 21.7266 23.08Z" fill="#D5D5D5"/>
</svg>
