<svg width="70" height="70" viewBox="0 0 70 70" fill="none" xmlns="http://www.w3.org/2000/svg">
<g opacity="0.81">
<path fill-rule="evenodd" clip-rule="evenodd" d="M35.0001 61.6419C50.7057 61.6419 63.4376 49.3119 63.4376 34.1022C63.4376 18.8924 50.7057 6.5625 35.0001 6.5625C19.2945 6.5625 6.56255 18.8924 6.56255 34.1022C6.56255 42.3745 10.3287 49.7949 16.2912 54.8431V60.4161C16.2912 62.5942 18.5098 64.0551 20.4879 63.1796L26.6722 60.4422C29.3061 61.2222 32.1025 61.6419 35.0001 61.6419Z" fill="#636363"/>
<path d="M28.1904 28.2479L19.944 39.5258C19.0598 40.735 20.6499 42.1877 21.8605 41.2767L28.9019 35.9775C29.6186 35.4381 30.6234 35.4309 31.3484 35.9598L37.6109 40.5283C38.8119 41.4044 40.5283 41.1524 41.4027 39.9716L50.0511 28.2933C50.9481 27.0821 49.3457 25.6177 48.1334 26.5406L40.6889 32.2079C39.9721 32.7536 38.962 32.7636 38.2336 32.2323L31.9915 27.6787C30.7855 26.7989 29.0611 27.0571 28.1904 28.2479Z" fill="black"/>
</g>
</svg>
