<svg width="71" height="70" viewBox="0 0 71 70" fill="none" xmlns="http://www.w3.org/2000/svg">
<g opacity="0.81">
<path d="M41.3571 4.55566L41.3291 18.0318L41.3011 31.508L40.0148 28.3796V28.3716L38.3462 58.3721C39.9868 62.3508 40.863 64.4765 40.8723 64.4845C40.8817 64.4926 41.8138 64.5407 42.9417 64.5888C46.3534 64.7332 50.5854 65.0461 53.8013 65.391C54.5471 65.4712 55.1809 65.5113 55.2275 65.4792C55.2741 65.4471 55.2835 51.7303 55.2741 34.9894L55.2462 4.55566H41.3571Z" fill="url(#paint0_linear_3009_6118)"/>
<path d="M16.2319 4.51583V34.9817C16.2319 51.7387 16.2506 65.4636 16.2785 65.4876C16.3065 65.5117 17.509 65.4074 18.9632 65.2711C20.4173 65.1347 22.4215 64.9582 23.4189 64.886C24.9476 64.7737 29.5338 64.5251 30.0558 64.517C30.2143 64.517 30.2236 63.8352 30.2423 51.6104L30.2702 38.7037L31.3795 41.3989C31.5473 41.8161 31.6032 41.9444 31.771 42.3535L33.4396 12.3609C33.0854 11.5026 33.2718 11.9518 32.871 10.9732C31.51 7.66028 30.3541 4.86076 30.3075 4.73242L30.2143 4.50781H16.2319V4.51583Z" fill="url(#paint1_linear_3009_6118)"/>
<path d="M16.2319 4.51583L30.261 38.7276V38.7115L31.3703 41.4067C37.5319 56.415 40.841 64.4686 40.8597 64.4846C40.869 64.4926 41.8012 64.5408 42.9291 64.5889C46.3408 64.7333 50.5728 65.0461 53.7888 65.391C54.5252 65.4712 55.1684 65.5114 55.2057 65.4793L41.2978 31.5002V31.5082L40.0114 28.3798C38.753 25.3236 37.914 23.2781 32.8524 10.9731C31.4914 7.66026 30.3356 4.86076 30.289 4.73241L30.1957 4.50781H23.2138L16.2319 4.51583Z" fill="#636363"/>
</g>
<defs>
<linearGradient id="paint0_linear_3009_6118" x1="61.5386" y1="50.1164" x2="39.3085" y2="59.879" gradientUnits="userSpaceOnUse">
<stop stop-color="#C4C4C4"/>
<stop offset="0.255959" stop-color="#C4C4C4"/>
<stop offset="1" stop-color="#585858"/>
</linearGradient>
<linearGradient id="paint1_linear_3009_6118" x1="9.49076" y1="17.8748" x2="33.5319" y2="7.43871" gradientUnits="userSpaceOnUse">
<stop stop-color="#C4C4C4"/>
<stop offset="0.255959" stop-color="#C4C4C4"/>
<stop offset="1" stop-color="#202020"/>
</linearGradient>
</defs>
</svg>
