<svg width="71" height="70" viewBox="0 0 71 70" fill="none" xmlns="http://www.w3.org/2000/svg">
<g opacity="0.81">
<path d="M55.0455 21.0377C55.7273 16.5926 55.0455 13.6291 52.6593 10.8937C50.0459 7.81626 45.2735 6.5625 39.1375 6.5625H21.5251C20.2752 6.5625 19.2525 7.47432 19.0252 8.72808L11.6394 55.459C11.5257 56.3709 12.2075 57.1687 13.1165 57.1687H24.0249L23.2295 61.9558C23.1159 62.7536 23.684 63.4375 24.593 63.4375H33.797C34.9333 63.4375 35.8423 62.6397 35.9559 61.6138L37.8876 49.5322C38.0012 48.5064 39.0239 47.7085 40.0465 47.7085H41.4101C50.2731 47.7085 57.3181 44.0612 59.3634 33.5753C60.1588 29.2441 59.8179 25.4828 57.5454 22.9753C56.8636 22.1775 56.0682 21.6076 55.0455 21.0377Z" fill="#A5A5A5"/>
<path d="M55.0455 21.0377C55.7273 16.5926 55.0455 13.6291 52.6593 10.8937C50.0459 7.81626 45.2735 6.5625 39.1375 6.5625H21.5251C20.2752 6.5625 19.2525 7.47432 19.0252 8.72808L11.6394 55.459C11.5257 56.3709 12.2075 57.1687 13.1165 57.1687H24.0249L26.6384 40.3C26.8656 39.0462 27.8883 38.1344 29.1382 38.1344H34.3651C44.5917 38.1344 52.5457 34.0312 54.8183 21.9495C54.9319 21.7216 54.9319 21.3796 55.0455 21.0377Z" fill="#A4A4A4"/>
<path d="M29.7063 21.1517C29.82 20.3538 30.8426 19.328 31.8653 19.328H45.728C47.3188 19.328 48.9096 19.442 50.2731 19.67C51.523 19.8979 53.7956 20.4678 54.9319 21.1517C55.6137 16.7065 54.9319 13.7431 52.5457 11.0076C50.0459 7.81626 45.2735 6.5625 39.1375 6.5625H21.5251C20.2752 6.5625 19.2525 7.47432 19.0252 8.72808L11.6394 55.459C11.5257 56.3709 12.2075 57.1687 13.1165 57.1687H24.0249L29.7063 21.1517Z" fill="#636363"/>
</g>
</svg>
