<svg width="71" height="70" viewBox="0 0 71 70" fill="none" xmlns="http://www.w3.org/2000/svg">
<g opacity="0.81" clip-path="url(#clip0_3009_6125)">
<path d="M1.89074 48.0262C-0.729087 49.8609 -0.244004 53.0215 5.73316 54.998C11.7103 56.9744 18.6576 57.3831 24.7706 56.2823C24.5959 56.2823 25.1199 56.2823 24.7706 56.2823V50.0444L18.8323 52.0625C16.5618 52.7964 14.2913 52.9798 12.0208 52.4294C10.2742 51.879 10.6235 50.7782 12.7194 49.8609L24.7706 45.4577V38.6694L8.00368 44.7238C5.90781 45.4577 3.81195 46.5585 1.89074 48.0262ZM42.4108 20.506V38.3024C49.5716 41.9718 55.1606 38.3024 55.1606 28.7621C55.1606 19.0383 51.8422 14.6351 42.2361 11.1492C37.1711 9.31452 31.9315 7.66331 26.6918 6.5625V59.5847L38.9177 63.4375V18.8548C38.9177 16.8367 38.9177 15.369 40.3149 15.9194C42.2361 16.4698 42.4108 18.4879 42.4108 20.506ZM65.116 43.8064C60.051 41.9718 54.6366 41.2379 49.397 41.7883C46.4868 41.9794 43.7556 42.8463 41.0135 43.8064V50.9617L52.3661 46.5585C54.6366 45.8246 56.9072 45.6411 59.1777 46.1915C60.9242 46.7419 60.5749 47.8427 58.4791 48.7601L41.0135 55.5484V62.5202L65.116 53.1633C66.8625 52.4294 68.4344 51.5121 69.8317 50.0444C71.0542 48.2097 70.5303 45.6411 65.116 43.8064Z" fill="#636363"/>
</g>
<defs>
<clipPath id="clip0_3009_6125">
<rect width="70" height="70" fill="white" transform="translate(0.378906)"/>
</clipPath>
</defs>
</svg>
