<svg width="33" height="32" viewBox="0 0 33 32" fill="none" xmlns="http://www.w3.org/2000/svg">
<path d="M29.0702 3.43775C28.4036 2.75642 27.4169 2.50442 26.4969 2.77109L5.04355 8.96975C4.07289 9.23909 3.38489 10.0084 3.19955 10.9844C3.01022 11.9791 3.67155 13.2431 4.53555 13.7711L11.2436 17.8671C11.9316 18.2884 12.8196 18.1831 13.3889 17.6124L21.0702 9.93109C21.4569 9.52975 22.0969 9.52975 22.4836 9.93109C22.8702 10.3164 22.8702 10.9444 22.4836 11.3444L14.7889 19.0258C14.2182 19.5964 14.1116 20.4818 14.5316 21.1711L18.6302 27.9044C19.1102 28.7031 19.9369 29.1578 20.8436 29.1578C20.9502 29.1578 21.0702 29.1578 21.1769 29.1431C22.2169 29.0111 23.0436 28.3031 23.3502 27.3031L29.7102 6.01109C29.9902 5.10442 29.7369 4.11775 29.0702 3.43775Z" fill="#555555"/>
<path opacity="0.4" fill-rule="evenodd" clip-rule="evenodd" d="M4.51432 22.4104C4.25832 22.4104 4.00232 22.3131 3.80765 22.1171C3.41698 21.7264 3.41698 21.0944 3.80765 20.7037L5.62765 18.8824C6.01832 18.4931 6.65165 18.4931 7.04232 18.8824C7.43165 19.2731 7.43165 19.9064 7.04232 20.2971L5.22098 22.1171C5.02632 22.3131 4.77032 22.4104 4.51432 22.4104ZM9.52925 24.0003C9.27325 24.0003 9.01725 23.9029 8.82258 23.7069C8.43191 23.3163 8.43191 22.6843 8.82258 22.2936L10.6426 20.4723C11.0332 20.0829 11.6666 20.0829 12.0572 20.4723C12.4466 20.8629 12.4466 21.4963 12.0572 21.8869L10.2359 23.7069C10.0412 23.9029 9.78525 24.0003 9.52925 24.0003ZM9.86751 28.7576C10.0622 28.9536 10.3182 29.0509 10.5742 29.0509C10.8302 29.0509 11.0862 28.9536 11.2808 28.7576L13.1022 26.9376C13.4915 26.5469 13.4915 25.9136 13.1022 25.5229C12.7115 25.1336 12.0782 25.1336 11.6875 25.5229L9.86751 27.3443C9.47685 27.7349 9.47685 28.3669 9.86751 28.7576Z" fill="#555555"/>
</svg>
