<svg width="33" height="32" viewBox="0 0 33 32" fill="none" xmlns="http://www.w3.org/2000/svg">
<path d="M28.8065 19.1601C28.5476 18.7601 28.1797 18.3601 27.7028 18.1068C27.3213 17.9201 27.076 17.6135 26.858 17.2535C26.1631 16.1068 26.5718 14.6001 27.7301 13.9201C29.0927 13.1601 29.5287 11.4668 28.7384 10.1468L27.8254 8.57348C27.0487 7.25348 25.3455 6.78681 23.9965 7.56014C22.7974 8.20014 21.2577 7.77348 20.5627 6.64014C20.3447 6.26681 20.2221 5.86681 20.2493 5.46681C20.2902 4.94681 20.1267 4.45348 19.8814 4.05348C19.3773 3.22681 18.4643 2.66681 17.456 2.66681H15.5347C14.54 2.69348 13.627 3.22681 13.1229 4.05348C12.864 4.45348 12.7141 4.94681 12.7413 5.46681C12.7686 5.86681 12.646 6.26681 12.4279 6.64014C11.733 7.77348 10.1933 8.20014 9.00779 7.56014C7.64518 6.78681 5.95555 7.25348 5.16523 8.57348L4.25229 10.1468C3.4756 11.4668 3.91163 13.1601 5.26062 13.9201C6.41884 14.6001 6.82762 16.1068 6.14631 17.2535C5.91467 17.6135 5.6694 17.9201 5.28787 18.1068C4.82458 18.3601 4.4158 18.7601 4.19778 19.1601C3.69362 19.9868 3.72087 21.0268 4.22503 21.8935L5.16523 23.4935C5.6694 24.3468 6.6096 24.8801 7.59068 24.8801C8.05397 24.8801 8.59901 24.7468 9.03505 24.4801C9.3757 24.2535 9.78448 24.1735 10.2341 24.1735C11.5831 24.1735 12.7141 25.2801 12.7413 26.6001C12.7413 28.1335 13.9949 29.3335 15.5756 29.3335H17.4287C18.9957 29.3335 20.2493 28.1335 20.2493 26.6001C20.2902 25.2801 21.4212 24.1735 22.7702 24.1735C23.2062 24.1735 23.615 24.2535 23.9692 24.4801C24.4053 24.7468 24.9367 24.8801 25.4136 24.8801C26.3811 24.8801 27.3213 24.3468 27.8254 23.4935L28.7793 21.8935C29.2698 21.0001 29.3107 19.9868 28.8065 19.1601Z" fill="#555555"/>
<path d="M16.5158 19.7734C14.3765 19.7734 12.646 18.1068 12.646 16.0134C12.646 13.9201 14.3765 12.2401 16.5158 12.2401C18.6551 12.2401 20.3447 13.9201 20.3447 16.0134C20.3447 18.1068 18.6551 19.7734 16.5158 19.7734Z" fill="#D5D5D5"/>
</svg>
