<svg width="71" height="70" viewBox="0 0 71 70" fill="none" xmlns="http://www.w3.org/2000/svg">
<g opacity="0.81">
<circle cx="35.4472" cy="35" r="30.625" fill="#636363"/>
<path d="M52.7946 45.9375H34.8876V24.3041C36.5467 22.7891 38.6956 21.875 41.0431 21.875C46.238 21.875 50.4602 26.3512 50.5546 31.9114C51.2552 31.645 52.0091 31.5 52.7946 31.5C56.5032 31.5 59.5097 34.7319 59.5097 38.7187C59.5097 42.7056 56.5032 45.9375 52.7946 45.9375Z" fill="black"/>
<path d="M33.2597 26.25H31.0722V45.9375H33.2597V26.25Z" fill="black"/>
<path d="M26.6972 28.4375H28.8847V45.9375H26.6972V28.4375Z" fill="black"/>
<path d="M24.5097 32.8125H22.3222V45.9375H24.5097V32.8125Z" fill="black"/>
<path d="M17.9472 30.625H20.1347V45.9375H17.9472V30.625Z" fill="black"/>
<path d="M15.7597 35H13.5722V45.9375H15.7597V35Z" fill="black"/>
</g>
</svg>
