<svg width="71" height="70" viewBox="0 0 71 70" fill="none" xmlns="http://www.w3.org/2000/svg">
<g opacity="0.81">
<path fill-rule="evenodd" clip-rule="evenodd" d="M35.0684 67.8125C51.9821 67.8125 65.6934 54.1012 65.6934 37.1875C65.6934 20.2738 51.9821 6.5625 35.0684 6.5625C18.1546 6.5625 4.44336 20.2738 4.44336 37.1875C4.44336 42.68 5.88929 47.8349 8.42127 52.2921L4.44336 67.8125L20.4446 64.1021C24.7901 66.4681 29.7722 67.8125 35.0684 67.8125ZM35.0684 63.101C49.38 63.101 60.9818 51.4991 60.9818 37.1875C60.9818 22.8759 49.38 11.274 35.0684 11.274C20.7567 11.274 9.1549 22.8759 9.1549 37.1875C9.1549 42.7133 10.8845 47.8351 13.8318 52.0411L11.5107 60.7452L20.3682 58.5308C24.5451 61.4131 29.6096 63.101 35.0684 63.101Z" fill="#BFC8D0"/>
<path d="M61.3184 35C61.3184 49.4975 49.5658 61.25 35.0684 61.25C29.5387 61.25 24.4084 59.5402 20.1773 56.6205L11.2047 58.8636L13.556 50.0465C10.5704 45.7859 8.81836 40.5975 8.81836 35C8.81836 20.5025 20.5709 8.75 35.0684 8.75C49.5658 8.75 61.3184 20.5025 61.3184 35Z" fill="#636363"/>
<path fill-rule="evenodd" clip-rule="evenodd" d="M35.0684 65.625C51.9821 65.625 65.6934 51.9137 65.6934 35C65.6934 18.0863 51.9821 4.375 35.0684 4.375C18.1546 4.375 4.44336 18.0863 4.44336 35C4.44336 40.4925 5.88929 45.6474 8.42127 50.1046L4.44336 65.625L20.4446 61.9146C24.7901 64.2806 29.7722 65.625 35.0684 65.625ZM35.0684 60.9135C49.38 60.9135 60.9818 49.3116 60.9818 35C60.9818 20.6884 49.38 9.08654 35.0684 9.08654C20.7567 9.08654 9.1549 20.6884 9.1549 35C9.1549 40.5258 10.8845 45.6476 13.8318 49.8536L11.5107 58.5577L20.3682 56.3433C24.5451 59.2256 29.6096 60.9135 35.0684 60.9135Z" fill="white"/>
<path d="M27.4122 20.7813C26.684 19.3188 25.567 19.4482 24.4386 19.4482C22.4219 19.4482 19.2773 21.8639 19.2773 26.3595C19.2773 30.044 20.9009 34.0772 26.3718 40.1105C31.6516 45.9331 38.5889 48.9452 44.3482 48.8426C50.1074 48.7401 51.2924 43.784 51.2924 42.1103C51.2924 41.3685 50.832 40.9984 50.5149 40.8978C48.5523 39.9559 44.9325 38.2009 44.1089 37.8712C43.2853 37.5414 42.8552 37.9874 42.5879 38.23C41.841 38.9418 40.3605 41.0395 39.8535 41.5113C39.3466 41.9831 38.5909 41.7443 38.2763 41.566C37.119 41.1015 33.981 39.7057 31.4797 37.281C28.3863 34.2823 28.2047 33.2506 27.6219 32.3322C27.1556 31.5975 27.4978 31.1467 27.6685 30.9497C28.335 30.1807 29.2553 28.9934 29.668 28.4033C30.0807 27.8133 29.7531 26.9175 29.5565 26.3596C28.711 23.96 27.9947 21.9513 27.4122 20.7813Z" fill="black"/>
</g>
</svg>
