<svg width="77" height="73" viewBox="0 0 77 73" fill="none" xmlns="http://www.w3.org/2000/svg">
<g opacity="0.8">
<path opacity="0.8" fill-rule="evenodd" clip-rule="evenodd" d="M22.4509 39.4382C20.4617 42.4085 19.4002 45.8986 19.4002 49.4684V52.0125C19.4002 52.9805 19.0139 53.9089 18.3263 54.5934C17.6387 55.2779 16.706 55.6625 15.7336 55.6625C14.7611 55.6625 13.8285 55.2779 13.1408 54.5934C12.4532 53.9089 12.0669 52.9805 12.0669 52.0125V49.4684C12.0669 44.457 13.5556 39.5587 16.3496 35.3867L22.4509 39.4382Z" fill="#666666" fill-opacity="0.23"/>
<path opacity="0.8" fill-rule="evenodd" clip-rule="evenodd" d="M29.6743 35.5875C26.7703 35.5875 24.0606 37.0329 22.4509 39.4382L16.3496 35.3867C17.8123 33.2033 19.7937 31.413 22.1181 30.1746C24.4424 28.9362 27.0379 28.288 29.6743 28.2875H30.4003C31.3727 28.2875 32.3054 28.672 32.993 29.3565C33.6806 30.041 34.0669 30.9694 34.0669 31.9375C34.0669 32.9055 33.6806 33.8339 32.993 34.5184C32.3054 35.2029 31.3727 35.5875 30.4003 35.5875H29.6743ZM37.7849 39.4382C39.7723 42.4057 40.8356 45.8987 40.8356 49.4684V52.0125C40.8356 52.9805 41.2219 53.9089 41.9096 54.5934C42.5972 55.2779 43.5298 55.6625 44.5023 55.6625C45.4747 55.6625 46.4074 55.2779 47.095 54.5934C47.7826 53.9089 48.1689 52.9805 48.1689 52.0125V49.4684C48.1691 44.4566 46.6789 39.5569 43.8863 35.3867L37.7849 39.4382Z" fill="#666666" fill-opacity="0.23"/>
<path opacity="0.8" fill-rule="evenodd" clip-rule="evenodd" d="M30.5581 35.5875C33.4621 35.5875 36.1718 37.0329 37.7814 39.4382L43.8864 35.3867C42.4236 33.2026 40.4417 31.4118 38.1166 30.1733C35.7915 28.9349 33.1951 28.2871 30.5581 28.2875H29.8358C28.8633 28.2875 27.9307 28.672 27.243 29.3565C26.5554 30.041 26.1691 30.9694 26.1691 31.9375C26.1691 32.9055 26.5554 33.8339 27.243 34.5184C27.9307 35.2029 28.8633 35.5875 29.8358 35.5875H30.5581ZM14.2524 53.8375C14.2524 53.3535 14.4456 52.8893 14.7894 52.547C15.1332 52.2048 15.5995 52.0125 16.0858 52.0125H41.7524C42.2387 52.0125 42.705 52.2048 43.0488 52.547C43.3926 52.8893 43.5858 53.3535 43.5858 53.8375C43.5858 54.3215 43.3926 54.7857 43.0488 55.1279C42.705 55.4702 42.2387 55.6625 41.7524 55.6625H16.0858C15.5995 55.6625 15.1332 55.4702 14.7894 55.1279C14.4456 54.7857 14.2524 54.3215 14.2524 53.8375Z" fill="#666666" fill-opacity="0.23"/>
<path opacity="0.8" d="M41.7523 20.9875C41.7523 24.1336 40.4968 27.1509 38.262 29.3756C36.0272 31.6002 32.9961 32.85 29.8356 32.85C26.6751 32.85 23.6441 31.6002 21.4093 29.3756C19.1744 27.1509 17.9189 24.1336 17.9189 20.9875C17.9189 17.8414 19.1744 14.8241 21.4093 12.5994C23.6441 10.3748 26.6751 9.125 29.8356 9.125C32.9961 9.125 36.0272 10.3748 38.262 12.5994C40.4968 14.8241 41.7523 17.8414 41.7523 20.9875Z" fill="#666666" fill-opacity="0.23"/>
<path opacity="0.8" fill-rule="evenodd" clip-rule="evenodd" d="M29.8356 25.55C31.0512 25.55 32.217 25.0693 33.0765 24.2137C33.9361 23.358 34.4189 22.1976 34.4189 20.9875C34.4189 19.7774 33.9361 18.617 33.0765 17.7613C32.217 16.9057 31.0512 16.425 29.8356 16.425C28.62 16.425 27.4542 16.9057 26.5947 17.7613C25.7352 18.617 25.2523 19.7774 25.2523 20.9875C25.2523 22.1976 25.7352 23.358 26.5947 24.2137C27.4542 25.0693 28.62 25.55 29.8356 25.55ZM29.8356 32.85C32.9961 32.85 36.0272 31.6002 38.262 29.3756C40.4968 27.1509 41.7523 24.1336 41.7523 20.9875C41.7523 17.8414 40.4968 14.8241 38.262 12.5994C36.0272 10.3748 32.9961 9.125 29.8356 9.125C26.6751 9.125 23.6441 10.3748 21.4093 12.5994C19.1744 14.8241 17.9189 17.8414 17.9189 20.9875C17.9189 24.1336 19.1744 27.1509 21.4093 29.3756C23.6441 31.6002 26.6751 32.85 29.8356 32.85Z" fill="#666666" fill-opacity="0.23"/>
<path opacity="0.8" d="M17.9189 35.5875H41.7523V53.8375H17.9189V35.5875Z" fill="#666666" fill-opacity="0.23"/>
<path opacity="0.8" fill-rule="evenodd" clip-rule="evenodd" d="M49.0344 51.3008C47.0452 54.2711 45.9837 57.7611 45.9837 61.331V63.875C45.9837 64.8431 45.5974 65.7715 44.9098 66.456C44.2221 67.1405 43.2895 67.525 42.3171 67.525C41.3446 67.525 40.412 67.1405 39.7243 66.456C39.0367 65.7715 38.6504 64.8431 38.6504 63.875V61.331C38.6504 56.3195 40.1391 51.4212 42.9331 47.2493L49.0344 51.3008ZM56.2577 47.45C53.3574 47.45 50.6441 48.8954 49.0344 51.3008L42.9331 47.2493C44.3958 45.0659 46.3772 43.2756 48.7015 42.0372C51.0259 40.7988 53.6214 40.1506 56.2577 40.15H56.9837C57.9562 40.15 58.8888 40.5346 59.5764 41.2191C60.2641 41.9036 60.6504 42.832 60.6504 43.8C60.6504 44.7681 60.2641 45.6965 59.5764 46.381C58.8888 47.0655 57.9562 47.45 56.9837 47.45H56.2577ZM64.3684 51.3008C66.3557 54.2682 67.4191 57.7613 67.4191 61.331V63.875C67.4191 64.8431 67.8054 65.7715 68.493 66.456C69.1806 67.1405 70.1133 67.525 71.0857 67.525C72.0582 67.525 72.9908 67.1405 73.6784 66.456C74.3661 65.7715 74.7524 64.8431 74.7524 63.875V61.331C74.7525 56.3192 73.2624 51.4194 70.4697 47.2493L64.3684 51.3008Z" fill="#666666" fill-opacity="0.23"/>
<path opacity="0.8" fill-rule="evenodd" clip-rule="evenodd" d="M57.1413 47.45C60.0453 47.45 62.7586 48.8954 64.3646 51.3008L70.4696 47.2493C69.0066 45.0654 67.0246 43.2747 64.6995 42.0363C62.3745 40.7979 59.7782 40.15 57.1413 40.15H56.4189C55.4465 40.15 54.5139 40.5346 53.8262 41.2191C53.1386 41.9036 52.7523 42.832 52.7523 43.8C52.7523 44.7681 53.1386 45.6965 53.8262 46.381C54.5139 47.0655 55.4465 47.45 56.4189 47.45H57.1413ZM39.9189 65.7C39.9189 65.216 40.1121 64.7518 40.4559 64.4096C40.7997 64.0673 41.266 63.875 41.7523 63.875H71.0856C71.5718 63.875 72.0382 64.0673 72.382 64.4096C72.7258 64.7518 72.9189 65.216 72.9189 65.7C72.9189 66.184 72.7258 66.6482 72.382 66.9905C72.0382 67.3328 71.5718 67.525 71.0856 67.525H41.7523C41.266 67.525 40.7997 67.3328 40.4559 66.9905C40.1121 66.6482 39.9189 66.184 39.9189 65.7Z" fill="#666666" fill-opacity="0.23"/>
<path opacity="0.8" d="M68.3358 32.85C68.3358 35.9962 67.0803 39.0135 64.8455 41.2381C62.6107 43.4628 59.5796 44.7125 56.4191 44.7125C53.2586 44.7125 50.2276 43.4628 47.9928 41.2381C45.7579 39.0135 44.5024 35.9962 44.5024 32.85C44.5024 29.7039 45.7579 26.6866 47.9928 24.462C50.2276 22.2373 53.2586 20.9875 56.4191 20.9875C59.5796 20.9875 62.6107 22.2373 64.8455 24.462C67.0803 26.6866 68.3358 29.7039 68.3358 32.85Z" fill="#666666" fill-opacity="0.23"/>
<path opacity="0.8" fill-rule="evenodd" clip-rule="evenodd" d="M56.4191 37.4125C57.6347 37.4125 58.8005 36.9319 59.66 36.0762C60.5196 35.2206 61.0024 34.0601 61.0024 32.85C61.0024 31.64 60.5196 30.4795 59.66 29.6239C58.8005 28.7682 57.6347 28.2875 56.4191 28.2875C55.2035 28.2875 54.0377 28.7682 53.1782 29.6239C52.3187 30.4795 51.8358 31.64 51.8358 32.85C51.8358 34.0601 52.3187 35.2206 53.1782 36.0762C54.0377 36.9319 55.2035 37.4125 56.4191 37.4125ZM56.4191 44.7125C59.5796 44.7125 62.6107 43.4628 64.8455 41.2381C67.0803 39.0135 68.3358 35.9962 68.3358 32.85C68.3358 29.7039 67.0803 26.6866 64.8455 24.462C62.6107 22.2373 59.5796 20.9875 56.4191 20.9875C53.2586 20.9875 50.2276 22.2373 47.9928 24.462C45.7579 26.6866 44.5024 29.7039 44.5024 32.85C44.5024 35.9962 45.7579 39.0135 47.9928 41.2381C50.2276 43.4628 53.2586 44.7125 56.4191 44.7125Z" fill="#666666" fill-opacity="0.23"/>
<path opacity="0.8" d="M43.5854 46.5375H67.4188V64.7875H43.5854V46.5375Z" fill="#666666" fill-opacity="0.23"/>
</g>
<path fill-rule="evenodd" clip-rule="evenodd" d="M12.32 36.416C10.1131 39.7131 8.93554 43.5865 8.93571 47.5485V51.0999C8.93571 51.5839 8.74255 52.0481 8.39874 52.3904C8.05492 52.7327 7.58861 52.9249 7.10238 52.9249C6.61615 52.9249 6.14983 52.7327 5.80601 52.3904C5.4622 52.0481 5.26904 51.5839 5.26904 51.0999V47.5521C5.27016 42.8672 6.66465 38.2874 9.27671 34.3902L9.67271 33.7989C9.80633 33.5995 9.9781 33.4283 10.1782 33.295C10.3783 33.1616 10.6028 33.0689 10.839 33.0219C11.0751 32.975 11.3182 32.9748 11.5544 33.0214C11.7906 33.068 12.0152 33.1604 12.2155 33.2934C12.4159 33.4264 12.5879 33.5974 12.7218 33.7966C12.8557 33.9958 12.9489 34.2193 12.9961 34.4543C13.0433 34.6894 13.0434 34.9314 12.9966 35.1665C12.9499 35.4016 12.857 35.6253 12.7234 35.8247L12.3274 36.416H12.32Z" fill="#2B2B2B"/>
<path fill-rule="evenodd" clip-rule="evenodd" d="M22.6599 30.5322C18.6633 30.5322 14.9343 32.5178 12.7196 35.8247L9.66895 33.8026C11.0944 31.6742 13.0256 29.929 15.2912 28.7218C17.5567 27.5146 20.0866 26.8827 22.6563 26.8822H23.4629C23.9492 26.8822 24.4155 27.0745 24.7593 27.4167C25.1031 27.759 25.2963 28.2232 25.2963 28.7072C25.2963 29.1912 25.1031 29.6554 24.7593 29.9977C24.4155 30.3399 23.9492 30.5322 23.4629 30.5322H22.6563H22.6599ZM33.9459 36.3722C35.6693 38.9491 36.5896 41.9713 36.5896 45.0665H40.2563C40.2571 41.2523 39.1228 37.5232 36.9966 34.3501L36.6299 33.8026C36.5 33.5955 36.3297 33.4164 36.129 33.276C35.9284 33.1356 35.7014 33.0367 35.4617 32.9852C35.2219 32.9337 34.9742 32.9306 34.7332 32.9761C34.4922 33.0216 34.2629 33.1147 34.0587 33.2501C33.8545 33.3854 33.6797 33.5601 33.5446 33.7639C33.4095 33.9677 33.3169 34.1964 33.2722 34.4365C33.2275 34.6766 33.2316 34.9231 33.2844 35.1616C33.3371 35.4 33.4374 35.6255 33.5793 35.8247L33.9459 36.3722Z" fill="#2B2B2B"/>
<path fill-rule="evenodd" clip-rule="evenodd" d="M23.6429 30.5322C27.6359 30.5322 31.3649 32.5178 33.5796 35.8247L36.6303 33.8026C35.2048 31.6742 33.2736 29.929 31.0081 28.7218C28.7425 27.5146 26.2126 26.8827 23.6429 26.8822H22.8363C22.5955 26.8822 22.3571 26.9294 22.1347 27.0211C21.9122 27.1128 21.7101 27.2473 21.5399 27.4167C21.3697 27.5862 21.2346 27.7874 21.1425 28.0088C21.0504 28.2302 21.0029 28.4675 21.0029 28.7072C21.0029 28.9469 21.0504 29.1842 21.1425 29.4056C21.2346 29.627 21.3697 29.8282 21.5399 29.9977C21.7101 30.1671 21.9122 30.3016 22.1347 30.3933C22.3571 30.485 22.5955 30.5322 22.8363 30.5322H23.6429Z" fill="#2B2B2B"/>
<path fill-rule="evenodd" clip-rule="evenodd" d="M22.9167 26.4625C24.0001 26.4625 25.0729 26.25 26.0738 25.8373C27.0747 25.4246 27.9842 24.8197 28.7503 24.0571C29.5164 23.2945 30.1241 22.3891 30.5387 21.3927C30.9533 20.3964 31.1667 19.3284 31.1667 18.25C31.1667 17.1715 30.9533 16.1035 30.5387 15.1072C30.1241 14.1108 29.5164 13.2054 28.7503 12.4428C27.9842 11.6802 27.0747 11.0753 26.0738 10.6626C25.0729 10.2499 24.0001 10.0375 22.9167 10.0375C20.7286 10.0375 18.6302 10.9027 17.083 12.4428C15.5359 13.983 14.6667 16.0719 14.6667 18.25C14.6667 20.428 15.5359 22.5169 17.083 24.0571C18.6302 25.5972 20.7286 26.4625 22.9167 26.4625ZM22.9167 30.1125C26.0772 30.1125 29.1082 28.8627 31.343 26.638C33.5778 24.4134 34.8333 21.3961 34.8333 18.25C34.8333 15.1038 33.5778 12.0865 31.343 9.8619C29.1082 7.63725 26.0772 6.38745 22.9167 6.38745C19.7562 6.38745 16.7251 7.63725 14.4903 9.8619C12.2555 12.0865 11 15.1038 11 18.25C11 21.3961 12.2555 24.4134 14.4903 26.638C16.7251 28.8627 19.7562 30.1125 22.9167 30.1125ZM38.5293 48.1289C36.3217 51.427 35.1441 55.3018 35.145 59.265V63.0391C35.145 63.5231 34.9518 63.9873 34.608 64.3296C34.2642 64.6718 33.7979 64.8641 33.3117 64.8641C32.8254 64.8641 32.3591 64.6718 32.0153 64.3296C31.6715 63.9873 31.4783 63.5231 31.4783 63.0391V59.265C31.478 54.582 32.8699 50.0037 35.4787 46.1068L35.9663 45.3768C36.2367 44.974 36.6567 44.6947 37.1339 44.6003C37.6111 44.5058 38.1065 44.6039 38.511 44.8731C38.9155 45.1422 39.1961 45.5602 39.291 46.0353C39.3859 46.5103 39.2873 47.0034 39.017 47.4062L38.5293 48.1289Z" fill="#2B2B2B"/>
<path fill-rule="evenodd" clip-rule="evenodd" d="M49.2066 41.975C47.1897 41.9747 45.2039 42.4703 43.4256 43.4178C41.6473 44.3653 40.1317 45.7353 39.0133 47.4062L35.9663 45.3804C37.4193 43.2103 39.388 41.4309 41.6978 40.2001C44.0075 38.9693 46.5868 38.3252 49.2066 38.325H50.028C50.5142 38.325 50.9805 38.5172 51.3243 38.8595C51.6682 39.2017 51.8613 39.6659 51.8613 40.15C51.8613 40.634 51.6682 41.0982 51.3243 41.4404C50.9805 41.7827 50.5142 41.975 50.028 41.975H49.2066ZM60.8923 48.1289C63.1013 51.4266 64.2801 55.3014 64.2803 59.265V63.0391C64.2803 63.5231 64.4735 63.9873 64.8173 64.3296C65.1611 64.6718 65.6274 64.8641 66.1136 64.8641C66.5999 64.8641 67.0662 64.6718 67.41 64.3296C67.7538 63.9873 67.947 63.5231 67.947 63.0391V59.265C67.9462 54.5817 66.553 50.0033 63.943 46.1068L63.4553 45.3768C63.185 44.974 62.765 44.6947 62.2878 44.6003C61.8106 44.5058 61.3152 44.6039 60.9106 44.8731C60.5061 45.1422 60.2255 45.5602 60.1306 46.0353C60.0357 46.5103 60.1343 47.0034 60.4046 47.4062L60.8923 48.1289Z" fill="#2B2B2B"/>
<path fill-rule="evenodd" clip-rule="evenodd" d="M50.215 41.975C52.2319 41.9747 54.2178 42.4703 55.996 43.4178C57.7743 44.3653 59.2899 45.7353 60.4083 47.4062L63.459 45.3804C62.0056 43.2098 60.0363 41.43 57.7259 40.1992C55.4155 38.9684 52.8354 38.3246 50.215 38.325H49.39C48.9037 38.325 48.4374 38.5172 48.0936 38.8595C47.7498 39.2017 47.5566 39.6659 47.5566 40.15C47.5566 40.634 47.7498 41.0982 48.0936 41.4404C48.4374 41.7827 48.9037 41.975 49.39 41.975H50.215Z" fill="#2B2B2B"/>
<path fill-rule="evenodd" clip-rule="evenodd" d="M49.5002 38.325C50.5836 38.325 51.6564 38.1126 52.6573 37.6999C53.6582 37.2871 54.5677 36.6822 55.3338 35.9196C56.0999 35.157 56.7076 34.2517 57.1222 33.2553C57.5368 32.2589 57.7502 31.191 57.7502 30.1125C57.7502 29.034 57.5368 27.9661 57.1222 26.9697C56.7076 25.9733 56.0999 25.068 55.3338 24.3054C54.5677 23.5428 53.6582 22.9379 52.6573 22.5251C51.6564 22.1124 50.5836 21.9 49.5002 21.9C47.3121 21.9 45.2137 22.7652 43.6665 24.3054C42.1194 25.8455 41.2502 27.9344 41.2502 30.1125C41.2502 32.2906 42.1194 34.3795 43.6665 35.9196C45.2137 37.4598 47.3121 38.325 49.5002 38.325ZM49.5002 41.975C52.6607 41.975 55.6917 40.7252 57.9265 38.5006C60.1613 36.2759 61.4168 33.2586 61.4168 30.1125C61.4168 26.9664 60.1613 23.9491 57.9265 21.7244C55.6917 19.4998 52.6607 18.25 49.5002 18.25C46.3397 18.25 43.3086 19.4998 41.0738 21.7244C38.839 23.9491 37.5835 26.9664 37.5835 30.1125C37.5835 33.2586 38.839 36.2759 41.0738 38.5006C43.3086 40.7252 46.3397 41.975 49.5002 41.975Z" fill="#2B2B2B"/>
</svg>
