<svg width="42" height="42" viewBox="0 0 42 42" fill="none" xmlns="http://www.w3.org/2000/svg">
<path d="M33.7268 7.94429L33.7444 7.92665L33.741 7.92329C33.8477 7.80836 33.9058 7.65665 33.9032 7.49987C33.9006 7.3431 33.8376 7.19339 33.7272 7.08203L32.8649 6.21977C32.7536 6.10938 32.6038 6.04631 32.4471 6.04372C32.2903 6.04114 32.1386 6.09925 32.0237 6.20591L32.0199 6.20213L28.3062 9.91619C28.1919 10.0305 28.1277 10.1856 28.1277 10.3473C28.1277 10.509 28.1919 10.6641 28.3062 10.7784L29.1685 11.6411H29.1689C29.2833 11.7554 29.4384 11.8197 29.6 11.8197C29.7617 11.8197 29.9168 11.7554 30.0312 11.6411L33.7268 7.94429V7.94429ZM20.3901 8.09507V8.09549H21.6093V8.09507C21.9378 8.09507 22.2036 7.83509 22.2167 7.51001H22.2192V2.25875C22.2192 1.92191 21.9462 1.64891 21.6093 1.64891V1.64807H20.3901V1.64849C20.0532 1.64849 19.7802 1.92149 19.7802 2.25833V7.51001H19.7828C19.7888 7.66709 19.8555 7.81572 19.9687 7.92478C20.0819 8.03384 20.2329 8.09486 20.3901 8.09507ZM38.4774 16.7987C38.4774 16.4699 38.2174 16.2044 37.8923 16.1914V16.1889H32.6406C32.3038 16.1889 32.0308 16.4615 32.0308 16.7987V18.018C32.0308 18.3552 32.3038 18.6282 32.6406 18.6282H37.8923V18.6257C38.0494 18.6195 38.1981 18.5528 38.3071 18.4396C38.4162 18.3263 38.4772 18.1752 38.4774 18.018V16.7987ZM20.9999 10.1644C16.0624 10.1644 12.0602 14.1666 12.0602 19.1041C12.0594 20.9644 12.6423 22.778 13.7268 24.2894H13.7234C15.0565 26.3693 15.8894 29.1245 15.9507 32.1598C16.0578 32.3358 16.2493 32.4551 16.4702 32.4551C16.4937 32.4551 16.516 32.4509 16.5387 32.4479V32.4551H25.4309V32.4479C25.4536 32.4504 25.4759 32.4551 25.499 32.4551C25.6134 32.4548 25.7254 32.4222 25.8222 32.3611C25.919 32.3001 25.9967 32.213 26.0462 32.1098C26.1197 28.9245 27.042 26.0496 28.5003 23.9454C29.405 22.5494 29.9396 20.892 29.9396 19.1045C29.9396 14.1666 25.9374 10.1644 20.9999 10.1644V10.1644ZM25.499 37.7109C25.4754 37.7109 25.4536 37.7151 25.4309 37.7181V37.7109H16.5387V37.7181C16.516 37.7156 16.4937 37.7109 16.4702 37.7109C16.1338 37.7109 15.8604 37.9835 15.8604 38.3208V39.7421C15.8604 40.0789 16.1334 40.3519 16.4702 40.3519C16.4937 40.3519 16.516 40.3477 16.5387 40.3448V40.3519H25.4309V40.3452C25.4536 40.3477 25.4759 40.3519 25.499 40.3519C25.8358 40.3519 26.1088 40.0789 26.1088 39.7421V38.3208C26.1088 37.9835 25.8358 37.7109 25.499 37.7109V37.7109ZM25.499 33.7461C25.4754 33.7461 25.4536 33.7503 25.4309 33.7533V33.7461H16.5387V33.7533C16.516 33.7508 16.4937 33.7461 16.4702 33.7461C16.3123 33.7464 16.1606 33.808 16.0472 33.9179C15.9338 34.0279 15.8676 34.1776 15.8625 34.3354L15.8604 34.3593V35.7773C15.8604 36.1141 16.1334 36.3871 16.4702 36.3871C16.4937 36.3871 16.516 36.3829 16.5387 36.38V36.3871H25.4309V36.3804C25.4536 36.3829 25.4759 36.3875 25.499 36.3875C25.8358 36.3875 26.1088 36.1145 26.1088 35.7777V34.356C26.1088 34.0187 25.8358 33.7461 25.499 33.7461V33.7461ZM9.3844 16.6677V16.6652H4.1323C3.79546 16.6652 3.52246 16.9382 3.52246 17.2746V18.4943C3.52246 18.8307 3.79546 19.1037 4.1323 19.1037H9.3844V19.1016C9.54137 19.0954 9.68988 19.0288 9.79891 18.9157C9.90793 18.8026 9.96904 18.6518 9.96946 18.4947V17.2746C9.96904 17.1175 9.90793 16.9666 9.79891 16.8536C9.68988 16.7405 9.54137 16.6739 9.3844 16.6677V16.6677ZM8.4835 7.73429L12.1971 11.4483L12.2009 11.4446C12.4399 11.6642 12.8099 11.6625 13.0418 11.4307H13.0422L13.9044 10.568C14.0149 10.4567 14.0781 10.307 14.0806 10.1502C14.0832 9.99338 14.0251 9.84165 13.9183 9.72677L13.9221 9.72299L10.208 6.00935C10.0936 5.89514 9.93855 5.831 9.77689 5.831C9.61523 5.831 9.46017 5.89514 9.34576 6.00935L8.4835 6.87161C8.36916 6.98604 8.30494 7.14119 8.30494 7.30295C8.30494 7.46471 8.36916 7.61986 8.4835 7.73429V7.73429Z" fill="#2B2B2B"/>
</svg>
