<svg width="117" height="53" viewBox="0 0 117 53" fill="none" xmlns="http://www.w3.org/2000/svg">
<path d="M3.88 52.06C3.18 52.06 2.45667 51.5933 1.71 50.66C0.963333 49.7733 0.59 48.6533 0.59 47.3C0.59 46.2267 0.846667 45.1767 1.36 44.15C2.29333 42.19 3.22667 40.6033 4.16 39.39C4.48667 38.9233 4.72 38.5267 4.86 38.2C5.04667 37.8733 5.16333 37.43 5.21 36.87C5.86333 36.03 6.72667 34.5133 7.8 32.32C9.62 29.38 12.21 24.8533 15.57 18.74C16.0367 17.9 16.9467 16.2433 18.3 13.77C19.7 11.2967 20.6333 9.82666 21.1 9.36L21.45 8.87C21.31 9.10333 21.5433 8.56667 22.15 7.26C22.8033 5.95333 23.48 4.78667 24.18 3.76C24.9267 2.68666 25.58 2.15 26.14 2.15C26.7467 2.15 27.4467 2.40666 28.24 2.92C29.0333 3.38667 29.71 4.11 30.27 5.09C30.8767 6.02333 31.18 7.14333 31.18 8.45C31.18 9.01 31.1567 9.45333 31.11 9.78L30.41 14.54L30.06 16.08C29.4533 19.16 28.5433 23.3833 27.33 28.75C26.2567 33.51 25.72 36.38 25.72 37.36C25.72 37.64 25.7667 37.8733 25.86 38.06C25.9533 38.2 26.07 38.27 26.21 38.27C26.3033 38.27 26.5367 38.13 26.91 37.85C27.2833 37.5233 27.61 37.0567 27.89 36.45L28.8 35.05L29.99 33.3C31.2967 31.48 32.9067 29.03 34.82 25.95C36.7333 22.8233 39.8367 17.48 44.13 9.92C45.0167 8.61333 45.74 7.47 46.3 6.49C47.0467 5.27666 47.77 4.13333 48.47 3.06C49.17 1.98667 49.7067 1.31 50.08 1.03C50.5467 0.656666 51.13 0.469999 51.83 0.469999C52.53 0.516665 53.2533 0.773331 54 1.24C54.7933 1.70666 55.4467 2.36 55.96 3.2C56.52 4.04 56.8 4.95 56.8 5.93C56.8 7.05 56.45 9.10333 55.75 12.09C55.0967 15.0767 54.3267 17.97 53.44 20.77C53.2533 21.75 52.67 24.06 51.69 27.7C50.9433 30.4067 50.3833 32.5533 50.01 34.14C49.6833 35.7267 49.52 37.01 49.52 37.99V38.55C48.82 39.81 48.47 42.33 48.47 46.11C48.2833 47.65 47.9333 48.84 47.42 49.68C46.9067 50.5667 46.4867 51.01 46.16 51.01L45.95 50.94C45.7167 50.94 45.4833 51.0333 45.25 51.22C45.0633 51.4533 44.7833 51.57 44.41 51.57C43.2433 51.57 42.4733 51.15 42.1 50.31C41.7733 49.47 41.61 48.3267 41.61 46.88C41.61 46.04 41.6333 45.34 41.68 44.78C41.82 43.5667 43.3133 37.2433 46.16 25.81C48.4 16.85 49.52 12.16 49.52 11.74L48.54 13.42C47.6067 15.1933 46.44 17.27 45.04 19.65L40.14 28.82C39.5333 29.66 39.02 30.4767 38.6 31.27C38.2267 32.0633 38.0167 32.53 37.97 32.67C37.41 33.79 36.29 35.4 34.61 37.5C34.05 38.2 33.7233 38.6433 33.63 38.83C33.3967 39.3433 32.65 40.2533 31.39 41.56C30.13 42.82 28.8 43.9867 27.4 45.06C26 46.0867 24.8333 46.6 23.9 46.6C22.64 46.6 21.4967 45.9933 20.47 44.78C19.49 43.5667 19 42.0967 19 40.37C19 39.11 19.2333 37.01 19.7 34.07C20.4467 30.85 21.24 27.5833 22.08 24.27C22.92 20.9567 23.5033 18.7867 23.83 17.76C23.97 17.34 24.04 16.8733 24.04 16.36C24.04 16.0333 23.9933 15.8233 23.9 15.73C23.8533 15.73 23.7833 15.7767 23.69 15.87C23.6433 15.9633 23.5733 16.08 23.48 16.22C22.78 17.34 21.6833 19.3 20.19 22.1C18.6967 24.9 17.0867 28.19 15.36 31.97C8.68667 44.2433 4.86 50.94 3.88 52.06ZM64.4497 18.74C63.983 18.4133 63.6097 17.9933 63.3297 17.48C63.0497 16.9667 62.8864 16.4767 62.8397 16.01C62.793 15.5433 62.8397 15.2633 62.9797 15.17C63.2597 14.8433 63.5397 14.4 63.8197 13.84C64.0997 13.28 64.3097 12.8833 64.4497 12.65C64.823 11.81 65.1264 11.2033 65.3597 10.83C65.6864 10.1767 65.9897 9.82667 66.2697 9.78C66.643 9.59333 66.9464 9.5 67.1797 9.5C67.7864 9.5 68.4397 9.71 69.1397 10.13C69.8864 10.55 70.4464 11.04 70.8197 11.6C71.1464 12.3467 71.3097 13 71.3097 13.56C71.3097 14.68 70.773 15.9167 69.6997 17.27C69.233 17.8767 68.673 18.3433 68.0197 18.67C67.3664 18.9967 66.713 19.16 66.0597 19.16C65.4064 19.16 64.8697 19.02 64.4497 18.74ZM56.8897 46.81C56.2364 46.1567 55.9097 44.99 55.9097 43.31C55.9097 42.4233 56.0264 41.7467 56.2597 41.28C56.2597 41.0467 56.3064 40.7667 56.3997 40.44C56.493 40.1133 56.5397 39.9033 56.5397 39.81C56.493 39.53 56.6797 38.76 57.0997 37.5C57.6597 36.24 58.3597 34.3033 59.1997 31.69C60.0864 29.0767 60.693 27.21 61.0197 26.09C61.0197 25.8567 61.113 25.67 61.2997 25.53C61.4864 25.3433 61.7664 25.2267 62.1397 25.18C62.653 24.9933 63.3064 25.2267 64.0997 25.88C64.893 26.4867 65.5464 27.1867 66.0597 27.98C66.3397 28.26 66.4797 28.6333 66.4797 29.1C66.4797 29.8 66.1764 30.78 65.5697 32.04C65.3364 32.5533 65.103 33.1833 64.8697 33.93C64.683 34.6767 64.5197 35.3767 64.3797 36.03C63.8197 37.29 63.3764 38.4567 63.0497 39.53C62.9097 40.1367 62.8164 40.6033 62.7697 40.93C62.443 42.6567 62.1397 43.7767 61.8597 44.29C61.5797 45.4567 61.183 46.3433 60.6697 46.95C60.1564 47.51 59.573 47.79 58.9197 47.79C58.1264 47.79 57.4497 47.4633 56.8897 46.81ZM94.3599 46.32C91.4199 46.2267 89.9499 44.57 89.9499 41.35C89.9499 40.4633 90.0199 39.6 90.1599 38.76C90.2533 37.7333 90.2999 37.01 90.2999 36.59V36.24V35.47C90.1599 34.5367 89.8566 34.07 89.3899 34.07C88.5499 34.07 86.9866 34.8867 84.6999 36.52C82.4599 38.1067 80.1033 40.02 77.6299 42.26C76.8833 43.0533 76.2533 43.8 75.7399 44.5C75.2733 45.1067 74.9233 45.48 74.6899 45.62C74.4566 45.76 74.0833 45.83 73.5699 45.83C72.9166 45.7367 72.1699 45.2467 71.3299 44.36C70.4899 43.4733 69.9299 42.68 69.6499 41.98C69.6499 40.6733 69.8833 39.4367 70.3499 38.27C70.8166 37.0567 71.5166 35.54 72.4499 33.72C72.8699 32.32 73.4066 30.92 74.0599 29.52C74.7599 27.8867 75.2499 26.65 75.5299 25.81C75.8566 24.9233 76.0666 24.0133 76.1599 23.08C76.1599 23.0333 76.1366 23.01 76.0899 23.01C76.0899 22.8233 76.1599 22.66 76.2999 22.52C76.4399 22.38 76.6033 22.31 76.7899 22.31C76.8833 22.17 77.1633 22.1 77.6299 22.1C78.8433 22.1 79.8933 22.4267 80.7799 23.08C81.6666 23.7333 82.1099 24.7367 82.1099 26.09C82.1099 26.79 81.9699 27.4667 81.6899 28.12C81.4566 28.7267 80.9899 29.7533 80.2899 31.2L79.5199 32.74C79.3799 33.02 79.1699 33.44 78.8899 34C78.6099 34.5133 78.4699 34.84 78.4699 34.98C79.6366 34.1867 81.0133 33.1367 82.5999 31.83C84.9333 29.9633 86.8466 28.5167 88.3399 27.49C89.8333 26.4633 90.9299 25.95 91.6299 25.95C92.2366 25.95 93.0766 26.3 94.1499 27C95.2699 27.6533 95.9233 28.26 96.1099 28.82C96.1099 29.1467 96.0633 29.6367 95.9699 30.29C95.9233 30.9433 95.8766 31.5267 95.8299 32.04L95.8999 34.21C95.9466 34.5833 95.9699 35.1433 95.9699 35.89C95.9699 37.3833 95.8766 38.4333 95.6899 39.04C95.7366 39.0867 95.7833 39.1567 95.8299 39.25C95.8766 39.3433 95.8999 39.4133 95.8999 39.46L95.8299 39.6C95.8766 40.0667 96.1333 40.8133 96.5999 41.84C97.0666 42.8667 97.2999 43.4267 97.2999 43.52C97.2999 44.0333 96.9499 44.6167 96.2499 45.27C95.5966 45.8767 94.9666 46.2267 94.3599 46.32ZM113.959 18.88C113.819 19.02 113.679 19.09 113.539 19.09C113.352 19.09 113.049 18.95 112.629 18.67C112.162 18.6233 111.532 18.2267 110.739 17.48C109.992 16.7333 109.619 16.2433 109.619 16.01C109.572 15.45 109.619 14.6567 109.759 13.63C109.899 12.5567 110.155 11.6 110.529 10.76C110.949 9.92 111.485 9.47667 112.139 9.43C112.465 9.47667 112.909 9.59333 113.469 9.78C114.029 9.92 114.659 10.13 115.359 10.41C116.245 12.1833 116.689 13.7 116.689 14.96C116.689 16.8267 115.779 18.1333 113.959 18.88ZM107.519 47.93C106.399 47.93 105.419 47.3467 104.579 46.18C103.785 45.0133 103.295 43.5667 103.109 41.84C103.295 40.1133 103.435 38.8533 103.529 38.06C104.042 35.7733 104.672 33.09 105.419 30.01C106.212 26.8833 106.679 25.1567 106.819 24.83C107.052 24.41 107.425 24.2 107.939 24.2C108.452 24.2 109.012 24.41 109.619 24.83C110.272 25.2033 110.809 25.74 111.229 26.44C111.602 26.9533 111.789 27.5367 111.789 28.19C111.789 29.17 111.322 31.2233 110.389 34.35C109.735 36.6833 109.315 38.34 109.129 39.32C108.942 40.3 108.872 41.35 108.919 42.47C108.732 44.57 108.545 46.0167 108.359 46.81C108.172 47.6033 107.892 47.9767 107.519 47.93Z" fill="url(#paint0_linear_5467_10790)"/>
<defs>
<linearGradient id="paint0_linear_5467_10790" x1="-2" y1="-19" x2="22.9455" y2="91.1968" gradientUnits="userSpaceOnUse">
<stop stop-color="#FF6B3B"/>
<stop offset="1" stop-color="#EF4526"/>
</linearGradient>
</defs>
</svg>
