<svg width="69" height="67" viewBox="0 0 69 67" fill="none" xmlns="http://www.w3.org/2000/svg">
<g clip-path="url(#clip0_5434_10771)">
<g opacity="0.8">
<path opacity="0.8" fill-rule="evenodd" clip-rule="evenodd" d="M25.5747 22.28C25.5747 15.845 30.6237 10.4 37.1247 10.4C43.6257 10.4 48.6747 15.845 48.6747 22.28C48.6747 28.715 43.6257 34.16 37.1247 34.16C30.6237 34.16 25.5747 28.715 25.5747 22.28Z" fill="#666666" fill-opacity="0.23"/>
<path opacity="0.8" fill-rule="evenodd" clip-rule="evenodd" d="M37.1709 30.4211C26.5284 30.4211 17.3247 38.5754 17.3247 49.4489L17.3313 56.6033C17.3322 57.4768 17.6793 58.3144 18.2967 58.9323C18.914 59.5503 19.7512 59.8983 20.6247 59.9H53.6247C54.4999 59.9 55.3393 59.5524 55.9582 58.9335C56.577 58.3146 56.9247 57.4753 56.9247 56.6V49.4489C56.9247 38.5985 47.8332 30.4211 37.1709 30.4211Z" fill="#666666" fill-opacity="0.23"/>
</g>
<path fill-rule="evenodd" clip-rule="evenodd" d="M31.3498 10.4C29.1618 10.4 27.0633 11.2692 25.5162 12.8163C23.969 14.3635 23.0998 16.4619 23.0998 18.65C23.0998 20.838 23.969 22.9364 25.5162 24.4836C27.0633 26.0308 29.1618 26.9 31.3498 26.9C33.5378 26.9 35.6363 26.0308 37.1834 24.4836C38.7306 22.9364 39.5998 20.838 39.5998 18.65C39.5998 16.4619 38.7306 14.3635 37.1834 12.8163C35.6363 11.2692 33.5378 10.4 31.3498 10.4ZM19.7998 18.65C19.7998 17.1332 20.0986 15.6313 20.679 14.23C21.2594 12.8287 22.1102 11.5554 23.1827 10.4829C24.2552 9.41038 25.5285 8.55961 26.9298 7.97917C28.3311 7.39872 29.833 7.09998 31.3498 7.09998C32.8666 7.09998 34.3685 7.39872 35.7698 7.97917C37.1711 8.55961 38.4444 9.41038 39.5169 10.4829C40.5894 11.5554 41.4402 12.8287 42.0206 14.23C42.6011 15.6313 42.8998 17.1332 42.8998 18.65C42.8998 21.7132 41.6829 24.651 39.5169 26.8171C37.3508 28.9831 34.4131 30.2 31.3498 30.2C28.2866 30.2 25.3488 28.9831 23.1827 26.8171C21.0167 24.651 19.7998 21.7132 19.7998 18.65Z" fill="#2B2B2B"/>
<path fill-rule="evenodd" clip-rule="evenodd" d="M11.5498 48.35C11.5498 37.3874 20.3608 26.9 31.3498 26.9C42.3388 26.9 51.1498 37.3874 51.1498 48.35V54.95C51.1498 55.3876 50.976 55.8073 50.6665 56.1168C50.3571 56.4262 49.9374 56.6 49.4998 56.6C49.0622 56.6 48.6425 56.4262 48.3331 56.1168C48.0236 55.8073 47.8498 55.3876 47.8498 54.95V48.35C47.8498 38.8691 40.1938 30.2 31.3498 30.2C22.5058 30.2 14.8498 38.8691 14.8498 48.35V54.95C14.8498 55.3876 14.676 55.8073 14.3665 56.1168C14.0571 56.4262 13.6374 56.6 13.1998 56.6C12.7622 56.6 12.3425 56.4262 12.0331 56.1168C11.7236 55.8073 11.5498 55.3876 11.5498 54.95V48.35Z" fill="#2B2B2B"/>
<path d="M68.4892 14.5778C68.3848 14.3219 68.1852 14.1186 67.9339 14.0124C67.8103 13.9587 67.6775 13.9302 67.5432 13.9286H62.4018C62.1291 13.9286 61.8675 14.0389 61.6747 14.2353C61.4819 14.4317 61.3735 14.698 61.3735 14.9757C61.3735 15.2534 61.4819 15.5198 61.6747 15.7161C61.8675 15.9125 62.1291 16.0228 62.4018 16.0228H65.065L59.317 21.8762L55.9339 18.4207C55.8384 18.3226 55.7246 18.2447 55.5993 18.1915C55.474 18.1383 55.3396 18.111 55.2039 18.111C55.0681 18.111 54.9337 18.1383 54.8084 18.1915C54.6831 18.2447 54.5694 18.3226 54.4738 18.4207L48.3042 24.7034C48.2078 24.8007 48.1313 24.9165 48.0791 25.0441C48.0269 25.1717 48 25.3086 48 25.4468C48 25.5851 48.0269 25.7219 48.0791 25.8495C48.1313 25.9771 48.2078 26.0929 48.3042 26.1903C48.3998 26.2884 48.5135 26.3663 48.6388 26.4195C48.7641 26.4726 48.8985 26.5 49.0342 26.5C49.17 26.5 49.3044 26.4726 49.4297 26.4195C49.555 26.3663 49.6687 26.2884 49.7643 26.1903L55.2039 20.6406L58.5869 24.0961C58.6825 24.1942 58.7962 24.2721 58.9215 24.3253C59.0468 24.3784 59.1812 24.4058 59.317 24.4058C59.4527 24.4058 59.5871 24.3784 59.7124 24.3253C59.8377 24.2721 59.9515 24.1942 60.047 24.0961L66.5149 17.4992V20.2113C66.5149 20.489 66.6232 20.7553 66.8161 20.9517C67.0089 21.1481 67.2704 21.2584 67.5432 21.2584C67.8159 21.2584 68.0774 21.1481 68.2703 20.9517C68.4631 20.7553 68.5714 20.489 68.5714 20.2113V14.9757C68.5698 14.8389 68.5419 14.7037 68.4892 14.5778Z" fill="#666666" fill-opacity="0.23"/>
<path d="M60.4052 24.4449L66.0149 18.7234V20.2113C66.0149 20.6187 66.1737 21.0112 66.4593 21.302C66.7452 21.5931 67.1349 21.7584 67.5432 21.7584C67.9514 21.7584 68.3411 21.5931 68.627 21.302C68.9126 21.0112 69.0714 20.6187 69.0714 20.2113V14.9757H69.0715L69.0714 14.9698C69.069 14.7696 69.0283 14.5717 68.9513 14.3869C68.7978 14.012 68.5039 13.7112 68.1308 13.5528C67.9471 13.4733 67.7495 13.4311 67.5493 13.4286L67.5493 13.4286H67.5432H62.4018C61.9935 13.4286 61.6038 13.5938 61.3179 13.885C61.0324 14.1758 60.8735 14.5683 60.8735 14.9757C60.8735 15.3831 61.0324 15.7756 61.3179 16.0665C61.6038 16.3576 61.9935 16.5228 62.4018 16.5228H63.8732L59.3175 21.162L56.2921 18.0718C56.292 18.0717 56.2918 18.0715 56.2917 18.0714C56.1501 17.9262 55.9813 17.8104 55.7946 17.7312C55.6077 17.6519 55.4069 17.611 55.2039 17.611C55.0008 17.611 54.8 17.6519 54.6131 17.7312C54.4266 17.8104 54.2578 17.926 54.1164 18.0711C54.1161 18.0713 54.1159 18.0716 54.1156 18.0718L47.9489 24.3516C47.9486 24.3519 47.9483 24.3521 47.9481 24.3524C47.8056 24.4965 47.693 24.6673 47.6163 24.8548C47.5395 25.0427 47.5 25.2438 47.5 25.4468C47.5 25.6498 47.5395 25.851 47.6163 26.0389C47.6929 26.2261 47.8053 26.3967 47.9474 26.5406C48.0888 26.6853 48.2573 26.8008 48.4435 26.8798C48.6304 26.9591 48.8312 27 49.0342 27C49.2373 27 49.4381 26.9591 49.625 26.8798C49.8116 26.8006 49.9803 26.6849 50.1218 26.5398C50.122 26.5396 50.1223 26.5394 50.1225 26.5391L55.2037 21.3551L58.2287 24.4449C58.2288 24.445 58.2289 24.4451 58.229 24.4453C58.3706 24.5905 58.5395 24.7063 58.7262 24.7856C58.9131 24.8648 59.1139 24.9058 59.317 24.9058C59.52 24.9058 59.7208 24.8648 59.9077 24.7856C60.0943 24.7064 60.2631 24.5907 60.4046 24.4455C60.4048 24.4453 60.405 24.4451 60.4052 24.4449Z" stroke="#666666" stroke-opacity="0.23"/>
<path d="M68.4892 11.1492C68.3848 10.8933 68.1852 10.69 67.9339 10.5838C67.8103 10.5301 67.6775 10.5017 67.5432 10.5H62.4018C62.1291 10.5 61.8675 10.6103 61.6747 10.8067C61.4819 11.0031 61.3735 11.2694 61.3735 11.5471C61.3735 11.8248 61.4819 12.0912 61.6747 12.2875C61.8675 12.4839 62.1291 12.5942 62.4018 12.5942H65.065L59.317 18.4476L55.9339 14.9921C55.8384 14.894 55.7246 14.8161 55.5993 14.7629C55.474 14.7098 55.3396 14.6824 55.2039 14.6824C55.0681 14.6824 54.9337 14.7098 54.8084 14.7629C54.6831 14.8161 54.5694 14.894 54.4738 14.9921L48.3042 21.2748C48.2078 21.3721 48.1313 21.4879 48.0791 21.6155C48.0269 21.7431 48 21.88 48 22.0182C48 22.1565 48.0269 22.2933 48.0791 22.4209C48.1313 22.5485 48.2078 22.6644 48.3042 22.7617C48.3998 22.8598 48.5135 22.9377 48.6388 22.9909C48.7641 23.0441 48.8985 23.0714 49.0342 23.0714C49.17 23.0714 49.3044 23.0441 49.4297 22.9909C49.555 22.9377 49.6687 22.8598 49.7643 22.7617L55.2039 17.212L58.5869 20.6675C58.6825 20.7656 58.7962 20.8435 58.9215 20.8967C59.0468 20.9498 59.1812 20.9772 59.317 20.9772C59.4527 20.9772 59.5871 20.9498 59.7124 20.8967C59.8377 20.8435 59.9515 20.7656 60.047 20.6675L66.5149 14.0707V16.7827C66.5149 17.0604 66.6232 17.3267 66.8161 17.5231C67.0089 17.7195 67.2704 17.8298 67.5432 17.8298C67.8159 17.8298 68.0774 17.7195 68.2703 17.5231C68.4631 17.3267 68.5714 17.0604 68.5714 16.7827V11.5471C68.5698 11.4103 68.5419 11.2751 68.4892 11.1492Z" fill="#2B2B2B"/>
</g>
<defs>
<clipPath id="clip0_5434_10771">
<rect width="69" height="66" fill="white" transform="translate(0 0.5)"/>
</clipPath>
</defs>
</svg>
