<svg width="65" height="63" viewBox="0 0 65 63" fill="none" xmlns="http://www.w3.org/2000/svg">
<g opacity="0.8">
<path opacity="0.8" d="M34.0475 20.9599C34.0475 25.4115 30.5808 29.0199 26.3094 29.0199C22.038 29.0199 18.5713 25.4115 18.5713 20.9599C18.5713 16.5083 22.038 12.8999 26.3094 12.8999C30.5808 12.8999 34.0475 16.5083 34.0475 20.9599Z" fill="#666666" fill-opacity="0.23"/>
<path opacity="0.8" fill-rule="evenodd" clip-rule="evenodd" d="M26.3094 15.9999C23.858 15.9999 21.6666 18.1048 21.6666 20.9599C21.6666 23.815 23.858 25.9199 26.3094 25.9199C28.7608 25.9199 30.9523 23.815 30.9523 20.9599C30.9523 18.1048 28.7608 15.9999 26.3094 15.9999ZM15.4761 20.9599C15.4761 14.9149 20.2118 9.79993 26.3094 9.79993C32.407 9.79993 37.1427 14.9149 37.1427 20.9599C37.1427 27.0049 32.407 32.1199 26.3094 32.1199C20.2118 32.1199 15.4761 27.0049 15.4761 20.9599Z" fill="#666666" fill-opacity="0.23"/>
<path opacity="0.8" fill-rule="evenodd" clip-rule="evenodd" d="M41.7854 53.1999V46.4822C41.7854 38.1618 34.8087 31.7076 26.3494 31.7076C17.8932 31.7076 10.833 38.1618 10.833 46.4822L10.8392 53.1999" fill="#666666" fill-opacity="0.23"/>
<path opacity="0.8" fill-rule="evenodd" clip-rule="evenodd" d="M7.73779 46.4822C7.73779 36.2677 16.3735 28.6076 26.3495 28.6076C36.3533 28.6076 44.8807 36.2894 44.8807 46.4822V53.1999C44.8807 54.0221 44.5545 54.8106 43.9741 55.392C43.3936 55.9733 42.6063 56.2999 41.7854 56.2999C40.9645 56.2999 40.1772 55.9733 39.5968 55.392C39.0163 54.8106 38.6902 54.0221 38.6902 53.1999V46.4822C38.6902 40.0342 33.2642 34.8076 26.3495 34.8076C19.4161 34.8076 13.9283 40.0528 13.9283 46.4822L13.9345 53.1968C13.9353 54.019 13.61 54.8078 13.0301 55.3898C12.4502 55.9717 11.6632 56.2991 10.8423 56.2999C10.0214 56.3008 9.2338 55.9749 8.65275 55.3942C8.0717 54.8134 7.7448 54.0252 7.74398 53.203L7.73779 46.4822ZM62.2047 13.2905C62.56 13.4884 62.8728 13.7544 63.1255 14.0733C63.3781 14.3923 63.5655 14.7579 63.677 15.1494C63.7886 15.5409 63.822 15.9506 63.7754 16.355C63.7289 16.7594 63.6032 17.1507 63.4057 17.5065L54.8102 33.0065C54.4112 33.7255 53.7434 34.2563 52.9537 34.4822C52.164 34.7081 51.317 34.6105 50.5991 34.2109C49.8812 33.8113 49.3512 33.1425 49.1257 32.3515C48.9002 31.5606 48.9976 30.7123 49.3966 29.9933L57.9952 14.4933C58.1927 14.1375 58.4583 13.8242 58.7767 13.5711C59.0952 13.3181 59.4603 13.1304 59.8512 13.0187C60.2421 12.907 60.6511 12.8736 61.0549 12.9202C61.4588 12.9668 61.8494 13.0927 62.2047 13.2905Z" fill="#666666" fill-opacity="0.23"/>
<path opacity="0.8" fill-rule="evenodd" clip-rule="evenodd" d="M41.089 22.6742C41.6018 22.0328 42.348 21.6216 43.1634 21.5309C43.9789 21.4402 44.7969 21.6775 45.4378 22.1906L54.0363 29.0788C54.3538 29.3333 54.6181 29.6478 54.8142 30.0046C55.0103 30.3613 55.1342 30.7532 55.1791 31.158C55.2239 31.5627 55.1887 31.9723 55.0755 32.3634C54.9623 32.7546 54.7732 33.1195 54.5192 33.4374C54.2652 33.7554 53.9511 34.0201 53.5949 34.2165C53.2387 34.4128 52.8474 34.537 52.4432 34.5819C52.0391 34.6268 51.6302 34.5916 51.2396 34.4782C50.8491 34.3648 50.4847 34.1755 50.1673 33.921L41.5718 27.0328C41.2543 26.7785 40.9899 26.4639 40.7937 26.1072C40.5976 25.7505 40.4735 25.3585 40.4287 24.9537C40.3839 24.549 40.4191 24.1393 40.5324 23.7482C40.6457 23.3571 40.8348 22.9921 41.089 22.6742ZM41.7854 56.2999H10.833V53.1999H41.7854V56.2999Z" fill="#666666" fill-opacity="0.23"/>
</g>
<path fill-rule="evenodd" clip-rule="evenodd" d="M21.0477 9.79995C18.9954 9.79995 17.0272 10.6165 15.576 12.0699C14.1249 13.5233 13.3096 15.4945 13.3096 17.55C13.3096 19.6054 14.1249 21.5766 15.576 23.03C17.0272 24.4834 18.9954 25.3 21.0477 25.3C23.1 25.3 25.0682 24.4834 26.5193 23.03C27.9705 21.5766 28.7858 19.6054 28.7858 17.55C28.7858 15.4945 27.9705 13.5233 26.5193 12.0699C25.0682 10.6165 23.1 9.79995 21.0477 9.79995ZM10.2144 17.55C10.2144 16.1251 10.4946 14.7142 11.039 13.3978C11.5834 12.0815 12.3814 10.8854 13.3874 9.87784C14.3933 8.87033 15.5876 8.07112 16.902 7.52586C18.2163 6.98059 19.625 6.69995 21.0477 6.69995C22.4703 6.69995 23.8791 6.98059 25.1934 7.52586C26.5078 8.07112 27.702 8.87033 28.708 9.87784C29.714 10.8854 30.512 12.0815 31.0564 13.3978C31.6008 14.7142 31.881 16.1251 31.881 17.55C31.881 20.4276 30.7397 23.1873 28.708 25.2221C26.6764 27.2568 23.9209 28.4 21.0477 28.4C18.1745 28.4 15.419 27.2568 13.3874 25.2221C11.3557 23.1873 10.2144 20.4276 10.2144 17.55Z" fill="#2B2B2B"/>
<path fill-rule="evenodd" clip-rule="evenodd" d="M2.47607 45.4499C2.47607 35.1517 10.7404 25.2999 21.0475 25.2999C31.3546 25.2999 39.6189 35.1517 39.6189 45.4499V51.6499C39.6189 52.061 39.4559 52.4553 39.1656 52.7459C38.8754 53.0366 38.4818 53.1999 38.0713 53.1999C37.6609 53.1999 37.2672 53.0366 36.977 52.7459C36.6867 52.4553 36.5237 52.061 36.5237 51.6499V45.4499C36.5237 36.5436 29.3427 28.3999 21.0475 28.3999C12.7523 28.3999 5.57131 36.5436 5.57131 45.4499V51.6499C5.57131 52.061 5.40826 52.4553 5.11803 52.7459C4.82779 53.0366 4.43415 53.1999 4.02369 53.1999C3.61324 53.1999 3.2196 53.0366 2.92936 52.7459C2.63913 52.4553 2.47607 52.061 2.47607 51.6499V45.4499ZM56.1908 11.5452C56.3685 11.6441 56.5249 11.7771 56.6512 11.9366C56.7775 12.0961 56.8713 12.2789 56.927 12.4747C56.9828 12.6704 56.9995 12.8752 56.9762 13.0775C56.9529 13.2797 56.8901 13.4753 56.7913 13.6532L48.1927 29.1532C47.9933 29.5125 47.6594 29.7777 47.2647 29.8905C46.87 30.0033 46.4467 29.9544 46.088 29.7546C45.7292 29.5548 45.4644 29.2205 45.3518 28.8252C45.2392 28.4299 45.288 28.0059 45.4875 27.6466L54.0861 12.1466C54.1848 11.9687 54.3176 11.812 54.4769 11.6855C54.6361 11.559 54.8186 11.4652 55.0141 11.4093C55.2095 11.3535 55.4141 11.3367 55.616 11.3601C55.8179 11.3834 56.0132 11.4463 56.1908 11.5452Z" fill="#2B2B2B"/>
<path fill-rule="evenodd" clip-rule="evenodd" d="M37.0344 20.5415C37.1614 20.3825 37.3184 20.2501 37.4965 20.1518C37.6746 20.0536 37.8703 19.9915 38.0723 19.969C38.2744 19.9466 38.4789 19.9642 38.6742 20.021C38.8695 20.0777 39.0516 20.1724 39.2103 20.2997L47.8089 27.191C47.9747 27.3157 48.1137 27.4725 48.2178 27.652C48.3219 27.8316 48.3889 28.0303 48.4148 28.2362C48.4408 28.4422 48.4251 28.6513 48.3688 28.8512C48.3125 29.051 48.2167 29.2374 48.0871 29.3995C47.9575 29.5615 47.7967 29.6958 47.6142 29.7944C47.4318 29.893 47.2314 29.9538 47.025 29.9734C46.8186 29.9929 46.6104 29.9707 46.4128 29.9081C46.2151 29.8455 46.032 29.7438 45.8744 29.609L37.2758 22.7208C37.117 22.5936 36.9848 22.4363 36.8868 22.258C36.7887 22.0796 36.7267 21.8836 36.7043 21.6812C36.6818 21.4788 36.6995 21.274 36.7561 21.0785C36.8127 20.8829 36.9073 20.7004 37.0344 20.5415Z" fill="#2B2B2B"/>
</svg>
