<svg width="20" height="15" viewBox="0 0 20 15" fill="none" xmlns="http://www.w3.org/2000/svg">
<path d="M19.3309 2.44263C18.9119 2.17867 18.3969 2.15532 17.9579 2.37867L16.4759 3.12689C15.9279 3.40303 15.5879 3.96141 15.5879 4.58273V10.4162C15.5879 11.0375 15.9279 11.5949 16.4759 11.8731L17.9569 12.6203C18.1579 12.7238 18.3729 12.7736 18.5879 12.7736C18.8459 12.7736 19.1019 12.7005 19.3309 12.5573C19.7499 12.2944 19.9999 11.8386 19.9999 11.3391V3.66192C19.9999 3.16242 19.7499 2.70659 19.3309 2.44263Z" fill="#FFBD11"/>
<path d="M9.9051 14.9999H4.11304C1.69102 14.9999 0 13.3298 0 10.939V4.06078C0 1.6689 1.69102 -0.000133514 4.11304 -0.000133514H9.9051C12.3271 -0.000133514 14.0181 1.6689 14.0181 4.06078V10.939C14.0181 13.3298 12.3271 14.9999 9.9051 14.9999Z" fill="#FFBD11"/>
</svg>
