<svg width="1440" height="2734" viewBox="0 0 1440 2734" fill="none" xmlns="http://www.w3.org/2000/svg">
<rect x="-2" width="1444" height="2734" fill="#221E48"/>
<g opacity="0.42">
<path d="M1069.19 834.397C1069.19 798.687 1076.22 763.327 1089.89 730.335C1103.55 697.343 1123.58 667.366 1148.84 642.116C1174.09 616.865 1204.06 596.835 1237.05 583.169C1270.05 569.504 1305.41 562.47 1341.12 562.47C1376.83 562.47 1412.19 569.504 1445.18 583.169C1478.17 596.835 1508.15 616.865 1533.4 642.116C1558.65 667.366 1578.68 697.343 1592.34 730.335C1606.01 763.327 1613.04 798.687 1613.04 834.397L1499.15 834.397C1499.15 813.644 1495.06 793.094 1487.12 773.921C1479.18 754.747 1467.54 737.326 1452.86 722.651C1438.19 707.976 1420.77 696.336 1401.59 688.394C1382.42 680.452 1361.87 676.364 1341.12 676.364C1320.36 676.364 1299.81 680.452 1280.64 688.394C1261.47 696.336 1244.05 707.976 1229.37 722.651C1214.7 737.326 1203.06 754.747 1195.11 773.921C1187.17 793.094 1183.08 813.644 1183.08 834.397H1069.19Z" fill="#C4C4C4"/>
<path d="M1069.19 834.397C1069.19 798.687 1076.22 763.327 1089.89 730.335C1103.55 697.343 1123.58 667.366 1148.84 642.116C1174.09 616.865 1204.06 596.835 1237.05 583.169C1270.05 569.504 1305.41 562.47 1341.12 562.47C1376.83 562.47 1412.19 569.504 1445.18 583.169C1478.17 596.835 1508.15 616.865 1533.4 642.116C1558.65 667.366 1578.68 697.343 1592.34 730.335C1606.01 763.327 1613.04 798.687 1613.04 834.397L1499.15 834.397C1499.15 813.644 1495.06 793.094 1487.12 773.921C1479.18 754.747 1467.54 737.326 1452.86 722.651C1438.19 707.976 1420.77 696.336 1401.59 688.394C1382.42 680.452 1361.87 676.364 1341.12 676.364C1320.36 676.364 1299.81 680.452 1280.64 688.394C1261.47 696.336 1244.05 707.976 1229.37 722.651C1214.7 737.326 1203.06 754.747 1195.11 773.921C1187.17 793.094 1183.08 813.644 1183.08 834.397H1069.19Z" fill="url(#paint0_linear_4425_4420)"/>
<circle cx="1341.12" cy="834.397" r="113.195" fill="url(#paint1_linear_4425_4420)"/>
<circle cx="1231.16" cy="1035.46" r="25.1165" fill="#4FD5AC"/>
<circle cx="1300.85" cy="1035.46" r="25.1165" fill="#4FD5AC"/>
<circle cx="1370.54" cy="1035.46" r="25.1165" fill="#4FD5AC"/>
<rect x="927.062" y="562.47" width="67.5844" height="67.5844" fill="#FFBD11"/>
<rect x="927.062" y="665.079" width="67.5844" height="67.5844" fill="#FFBD11"/>
<rect x="927.062" y="767.687" width="67.5844" height="67.5844" fill="#FFBD11"/>
<rect x="927.062" y="1010.34" width="259.519" height="50.2331" rx="25.1165" fill="#4FD5AC"/>
</g>
<circle opacity="0.42" cx="577.777" cy="670.185" r="376.007" stroke="url(#paint2_linear_4425_4420)" stroke-width="3"/>
<circle opacity="0.42" cx="827.161" cy="614.85" r="424.937" stroke="url(#paint3_linear_4425_4420)" stroke-width="3"/>
<circle opacity="0.55" cx="1015.54" cy="2350.82" r="28.2708" fill="url(#paint4_linear_4425_4420)"/>
<circle cx="1015.54" cy="2350.82" r="20.5304" fill="url(#paint5_linear_4425_4420)"/>
<circle opacity="0.55" cx="939.164" cy="2582.03" r="24.3178" fill="url(#paint6_linear_4425_4420)"/>
<circle cx="939.164" cy="2582.03" r="17.6597" fill="url(#paint7_linear_4425_4420)"/>
<circle opacity="0.55" cx="346.73" cy="2392.74" r="19.9659" fill="url(#paint8_linear_4425_4420)"/>
<circle cx="346.73" cy="2392.74" r="14.4994" fill="url(#paint9_linear_4425_4420)"/>
<circle opacity="0.42" cx="721.178" cy="2224.22" r="411.719" stroke="url(#paint10_linear_4425_4420)" stroke-width="3"/>
<circle opacity="0.42" cx="721.178" cy="2182.13" r="345.053" stroke="url(#paint11_linear_4425_4420)" stroke-width="3"/>
<circle opacity="0.42" cx="721.179" cy="2182.13" r="260.88" stroke="url(#paint12_linear_4425_4420)" stroke-width="3"/>
<circle opacity="0.55" cx="564.581" cy="2389.67" r="15.384" fill="url(#paint13_linear_4425_4420)"/>
<circle cx="564.58" cy="2389.67" r="11.1719" fill="url(#paint14_linear_4425_4420)"/>
<circle opacity="0.55" cx="625.407" cy="2512.39" r="19.1477" fill="url(#paint15_linear_4425_4420)"/>
<circle cx="625.407" cy="2512.39" r="13.9051" fill="url(#paint16_linear_4425_4420)"/>
<circle opacity="0.55" cx="395.886" cy="342.219" r="23.3701" fill="url(#paint17_linear_4425_4420)"/>
<circle cx="395.885" cy="342.219" r="16.9714" fill="url(#paint18_linear_4425_4420)"/>
<circle opacity="0.55" cx="1020.12" cy="238.283" r="32.3892" fill="url(#paint19_linear_4425_4420)"/>
<circle cx="1020.11" cy="238.283" r="23.5212" fill="url(#paint20_linear_4425_4420)"/>
<defs>
<linearGradient id="paint0_linear_4425_4420" x1="1612.75" y1="562.47" x2="1385.95" y2="1039.35" gradientUnits="userSpaceOnUse">
<stop offset="0.422408" stop-color="#EF5DA8"/>
<stop offset="1" stop-color="#FFDA44"/>
</linearGradient>
<linearGradient id="paint1_linear_4425_4420" x1="1468.15" y1="711.505" x2="1159.1" y2="958.433" gradientUnits="userSpaceOnUse">
<stop offset="0.317465" stop-color="#5DA0EF"/>
<stop offset="1" stop-color="#44FF78"/>
</linearGradient>
<linearGradient id="paint2_linear_4425_4420" x1="954.876" y1="292.677" x2="144.122" y2="1145.05" gradientUnits="userSpaceOnUse">
<stop offset="0.422408" stop-color="#EF5DA8"/>
<stop offset="1" stop-color="#FFDA44"/>
</linearGradient>
<linearGradient id="paint3_linear_4425_4420" x1="1253.14" y1="188.413" x2="337.3" y2="1151.27" gradientUnits="userSpaceOnUse">
<stop offset="0.422408" stop-color="#EF5DA8"/>
<stop offset="1" stop-color="#FFDA44"/>
</linearGradient>
<linearGradient id="paint4_linear_4425_4420" x1="1043.78" y1="2322.55" x2="983.061" y2="2386.38" gradientUnits="userSpaceOnUse">
<stop offset="0.422408" stop-color="#EF5DA8"/>
<stop offset="1" stop-color="#FFDA44"/>
</linearGradient>
<linearGradient id="paint5_linear_4425_4420" x1="1036.04" y1="2330.29" x2="991.952" y2="2376.65" gradientUnits="userSpaceOnUse">
<stop offset="0.422408" stop-color="#EF5DA8"/>
<stop offset="1" stop-color="#FFDA44"/>
</linearGradient>
<linearGradient id="paint6_linear_4425_4420" x1="963.455" y1="2557.71" x2="911.229" y2="2612.62" gradientUnits="userSpaceOnUse">
<stop offset="0.422408" stop-color="#EF5DA8"/>
<stop offset="1" stop-color="#FFDA44"/>
</linearGradient>
<linearGradient id="paint7_linear_4425_4420" x1="956.804" y1="2564.37" x2="918.877" y2="2604.25" gradientUnits="userSpaceOnUse">
<stop offset="0.422408" stop-color="#EF5DA8"/>
<stop offset="1" stop-color="#FFDA44"/>
</linearGradient>
<linearGradient id="paint8_linear_4425_4420" x1="366.674" y1="2372.78" x2="323.794" y2="2417.86" gradientUnits="userSpaceOnUse">
<stop offset="0.422408" stop-color="#EF5DA8"/>
<stop offset="1" stop-color="#FFDA44"/>
</linearGradient>
<linearGradient id="paint9_linear_4425_4420" x1="361.214" y1="2378.24" x2="330.074" y2="2410.98" gradientUnits="userSpaceOnUse">
<stop offset="0.422408" stop-color="#EF5DA8"/>
<stop offset="1" stop-color="#FFDA44"/>
</linearGradient>
<linearGradient id="paint10_linear_4425_4420" x1="1133.95" y1="1811" x2="246.5" y2="2744.01" gradientUnits="userSpaceOnUse">
<stop offset="0.422408" stop-color="#EF5DA8"/>
<stop offset="1" stop-color="#FFDA44"/>
</linearGradient>
<linearGradient id="paint11_linear_4425_4420" x1="1067.36" y1="1835.58" x2="323.082" y2="2618.06" gradientUnits="userSpaceOnUse">
<stop offset="0.422408" stop-color="#EF5DA8"/>
<stop offset="1" stop-color="#FFDA44"/>
</linearGradient>
<linearGradient id="paint12_linear_4425_4420" x1="983.276" y1="1919.75" x2="419.775" y2="2512.18" gradientUnits="userSpaceOnUse">
<stop offset="0.422408" stop-color="#EF5DA8"/>
<stop offset="1" stop-color="#FFDA44"/>
</linearGradient>
<linearGradient id="paint13_linear_4425_4420" x1="579.949" y1="2374.29" x2="546.909" y2="2409.02" gradientUnits="userSpaceOnUse">
<stop offset="0.422408" stop-color="#EF5DA8"/>
<stop offset="1" stop-color="#FFDA44"/>
</linearGradient>
<linearGradient id="paint14_linear_4425_4420" x1="575.74" y1="2378.5" x2="551.747" y2="2403.73" gradientUnits="userSpaceOnUse">
<stop offset="0.422408" stop-color="#EF5DA8"/>
<stop offset="1" stop-color="#FFDA44"/>
</linearGradient>
<linearGradient id="paint15_linear_4425_4420" x1="644.534" y1="2493.24" x2="603.412" y2="2536.47" gradientUnits="userSpaceOnUse">
<stop offset="0.422408" stop-color="#EF5DA8"/>
<stop offset="1" stop-color="#FFDA44"/>
</linearGradient>
<linearGradient id="paint16_linear_4425_4420" x1="639.297" y1="2498.48" x2="609.434" y2="2529.88" gradientUnits="userSpaceOnUse">
<stop offset="0.422408" stop-color="#EF5DA8"/>
<stop offset="1" stop-color="#FFDA44"/>
</linearGradient>
<linearGradient id="paint17_linear_4425_4420" x1="419.23" y1="318.849" x2="369.04" y2="371.617" gradientUnits="userSpaceOnUse">
<stop offset="0.422408" stop-color="#EF5DA8"/>
<stop offset="1" stop-color="#FFDA44"/>
</linearGradient>
<linearGradient id="paint18_linear_4425_4420" x1="412.839" y1="325.248" x2="376.39" y2="363.568" gradientUnits="userSpaceOnUse">
<stop offset="0.422408" stop-color="#EF5DA8"/>
<stop offset="1" stop-color="#FFDA44"/>
</linearGradient>
<linearGradient id="paint19_linear_4425_4420" x1="1052.47" y1="205.894" x2="982.909" y2="279.026" gradientUnits="userSpaceOnUse">
<stop offset="0.422408" stop-color="#EF5DA8"/>
<stop offset="1" stop-color="#FFDA44"/>
</linearGradient>
<linearGradient id="paint20_linear_4425_4420" x1="1043.61" y1="214.762" x2="993.095" y2="267.871" gradientUnits="userSpaceOnUse">
<stop offset="0.422408" stop-color="#EF5DA8"/>
<stop offset="1" stop-color="#FFDA44"/>
</linearGradient>
</defs>
</svg>
