<svg width="35" height="35" viewBox="0 0 35 35" fill="none" xmlns="http://www.w3.org/2000/svg">
<path d="M15.4931 22.1217C15.1826 22.1217 14.8721 22.0038 14.6351 21.7668L11.3458 18.4775C10.8717 18.0035 10.8717 17.2356 11.3458 16.7629C11.8198 16.2888 12.5864 16.2875 13.0604 16.7615L15.4931 19.1942L21.215 13.4722C21.6891 12.9982 22.4556 12.9982 22.9296 13.4722C23.4037 13.9463 23.4037 14.7142 22.9296 15.1883L16.3511 21.7668C16.1141 22.0038 15.8036 22.1217 15.4931 22.1217" fill="#874DDD"/>
<path d="M17.1318 31.751C9.32704 31.751 3 25.4239 3 17.6191H-3C-3 28.7376 6.01333 37.751 17.1318 37.751V31.751ZM31.2637 17.6191C31.2637 25.4239 24.9366 31.751 17.1318 31.751V37.751C28.2503 37.751 37.2637 28.7376 37.2637 17.6191H31.2637ZM17.1318 3.4873C24.9366 3.4873 31.2637 9.81434 31.2637 17.6191H37.2637C37.2637 6.50064 28.2503 -2.5127 17.1318 -2.5127V3.4873ZM17.1318 -2.5127C6.01333 -2.5127 -3 6.50064 -3 17.6191H3C3 9.81434 9.32704 3.4873 17.1318 3.4873V-2.5127Z" fill="#874DDD"/>
</svg>
