<svg width="411" height="469" viewBox="0 0 411 469" fill="none" xmlns="http://www.w3.org/2000/svg">
<path d="M-12.2969 5H767.482V336.028L-12.2969 454.291V5Z" fill="url(#paint0_linear_3842_6286)"/>
<circle cx="422.844" cy="149.844" r="158.956" stroke="#27339F" stroke-width="1.776"/>
<path d="M543.118 149.684C543.118 216.198 489.198 270.117 422.684 270.117C356.171 270.117 302.251 216.198 302.251 149.684C302.251 83.1704 356.171 29.2505 422.684 29.2505C489.198 29.2505 543.118 83.1704 543.118 149.684Z" stroke="#27339F" stroke-width="1.776"/>
<circle cx="422.684" cy="149.684" r="84.9481" stroke="#27339F" stroke-width="1.776"/>
<circle cx="422.844" cy="149.844" r="59.533" stroke="#27339F" stroke-width="1.776"/>
<ellipse cx="279.464" cy="219.696" rx="3.35672" ry="3.35674" fill="#2B2A50"/>
<ellipse cx="302.641" cy="136.737" rx="6.39375" ry="6.39376" fill="#31376A"/>
<circle cx="302.481" cy="136.577" r="3.35672" fill="#2B2A50"/>
<ellipse cx="371.534" cy="40.3508" rx="3.35672" ry="3.35672" fill="#2B2A50"/>
<ellipse cx="384.641" cy="226.409" rx="3.35672" ry="3.35673" fill="#2B2A50"/>
<ellipse cx="330.614" cy="19.5711" rx="3.35672" ry="3.35672" fill="#2B2A50"/>
<circle cx="422.684" cy="149.684" r="40.1208" fill="#283755"/>
<circle cx="422.685" cy="149.684" r="29.2646" fill="#2C3B5C"/>
<circle cx="422.448" cy="149.448" r="20.5324" fill="#37486C"/>
<path d="M-12.0269 364.919L767.482 248.006L767.482 341.158L-12.0269 459.421V364.919Z" fill="#8F9BFF"/>
<path d="M-11.8549 412.98L770.573 293.446L770.573 347.908L-11.8548 468.667L-11.8549 412.98Z" fill="#5263FF"/>
<path d="M378.981 274.491C378.981 287.464 368.464 297.981 355.491 297.981C342.517 297.981 332 287.464 332 274.491C332 261.517 342.517 251 355.491 251C368.464 251 378.981 261.517 378.981 274.491ZM336.279 274.491C336.279 285.101 344.88 293.702 355.491 293.702C366.101 293.702 374.702 285.101 374.702 274.491C374.702 263.88 366.101 255.279 355.491 255.279C344.88 255.279 336.279 263.88 336.279 274.491Z" fill="#899CFF"/>
<path d="M60.6049 59.0013C60.6049 76.2993 46.5821 90.322 29.2841 90.322C11.9862 90.322 -2.03662 76.2993 -2.03662 59.0013C-2.03662 41.7033 11.9862 27.6805 29.2841 27.6805C46.5821 27.6805 60.6049 41.7033 60.6049 59.0013ZM3.66862 59.0013C3.66862 73.1483 15.1371 84.6168 29.2841 84.6168C43.4312 84.6168 54.8996 73.1483 54.8996 59.0013C54.8996 44.8542 43.4312 33.3858 29.2841 33.3858C15.1371 33.3858 3.66862 44.8542 3.66862 59.0013Z" fill="#899CFF"/>
<circle cx="40.6243" cy="70.8816" r="4.3201" fill="#D5D5D5"/>
<circle cx="384.381" cy="294.741" r="7.56018" fill="#D5D5D5"/>
<g filter="url(#filter0_d_3842_6286)">
<rect x="41" y="222.876" width="125" height="175" rx="12" fill="#A8B1FF"/>
</g>
<path d="M58.4243 371.207V252.613H142.643" stroke="white" stroke-width="2" stroke-dasharray="8.52 8.52"/>
<circle cx="58.2676" cy="252.613" r="2.65625" fill="white"/>
<circle cx="58.2676" cy="364.8" r="2.65625" fill="white"/>
<circle cx="58.2914" cy="338.607" r="1.5551" fill="white"/>
<circle cx="58.2914" cy="313.3" r="1.5551" fill="white"/>
<circle cx="58.2914" cy="287.993" r="1.5551" fill="white"/>
<circle cx="58.2914" cy="265.62" r="1.5551" fill="white"/>
<rect x="47.1753" y="235.653" width="112.965" height="50.6142" rx="8" fill="white" fill-opacity="0.4"/>
<rect x="47.1753" y="291.402" width="112.965" height="21.2726" rx="8" fill="white" fill-opacity="0.4"/>
<rect x="47.1753" y="319.276" width="112.965" height="21.2726" rx="8" fill="white" fill-opacity="0.4"/>
<rect x="47.1753" y="347.151" width="112.965" height="21.2726" rx="8" fill="white" fill-opacity="0.4"/>
<g filter="url(#filter1_d_3842_6286)">
<rect x="16" y="339.082" width="64.1847" height="64.9182" rx="12" fill="#687CFF"/>
</g>
<path d="M31.6255 347.563V228.969H115.844" stroke="white" stroke-width="2" stroke-dasharray="8.52 8.52"/>
<circle cx="31.4692" cy="228.969" r="2.65625" fill="white"/>
<circle cx="31.4692" cy="341.157" r="2.65625" fill="white"/>
<circle cx="31.4931" cy="314.963" r="1.5551" fill="white"/>
<circle cx="31.4931" cy="289.656" r="1.5551" fill="white"/>
<circle cx="31.4931" cy="264.349" r="1.5551" fill="white"/>
<circle cx="31.4931" cy="241.976" r="1.5551" fill="white"/>
<rect x="22.2349" y="346.05" width="19.1244" height="20.1355" rx="3" fill="white" fill-opacity="0.26"/>
<rect x="43.5073" y="346.05" width="19.1244" height="20.1355" rx="3" fill="white" fill-opacity="0.12"/>
<rect x="22.2349" y="370.875" width="51.3477" height="2.48246" fill="white"/>
<rect x="22.2349" y="376.943" width="51.3477" height="2.48246" fill="white" fill-opacity="0.78"/>
<rect x="22.2349" y="383.011" width="51.3477" height="2.48246" fill="white" fill-opacity="0.6"/>
<rect x="22.2349" y="389.08" width="39.0348" height="2.48246" fill="white" fill-opacity="0.44"/>
<rect x="116" y="197.876" width="74.9999" height="99.9999" rx="12" fill="#D9DDFF"/>
<rect x="120.164" y="203.01" width="66.3853" height="59.7834" rx="6" fill="white"/>
<rect x="120.164" y="266.828" width="66.7521" height="4.40123" fill="white"/>
<rect x="120.164" y="274.53" width="66.7521" height="4.40123" fill="white" fill-opacity="0.69"/>
<rect x="120.164" y="282.233" width="44.3791" height="4.40123" fill="white" fill-opacity="0.41"/>
<defs>
<filter id="filter0_d_3842_6286" x="-1.60162" y="214.355" width="210.203" height="260.203" filterUnits="userSpaceOnUse" color-interpolation-filters="sRGB">
<feFlood flood-opacity="0" result="BackgroundImageFix"/>
<feColorMatrix in="SourceAlpha" type="matrix" values="0 0 0 0 0 0 0 0 0 0 0 0 0 0 0 0 0 0 127 0" result="hardAlpha"/>
<feOffset dy="34.0813"/>
<feGaussianBlur stdDeviation="21.3008"/>
<feColorMatrix type="matrix" values="0 0 0 0 0.133819 0 0 0 0 0.173145 0 0 0 0 0.257847 0 0 0 1 0"/>
<feBlend mode="normal" in2="BackgroundImageFix" result="effect1_dropShadow_3842_6286"/>
<feBlend mode="normal" in="SourceGraphic" in2="effect1_dropShadow_3842_6286" result="shape"/>
</filter>
<filter id="filter1_d_3842_6286" x="-18.0813" y="334.822" width="132.347" height="133.081" filterUnits="userSpaceOnUse" color-interpolation-filters="sRGB">
<feFlood flood-opacity="0" result="BackgroundImageFix"/>
<feColorMatrix in="SourceAlpha" type="matrix" values="0 0 0 0 0 0 0 0 0 0 0 0 0 0 0 0 0 0 127 0" result="hardAlpha"/>
<feOffset dy="29.8211"/>
<feGaussianBlur stdDeviation="17.0406"/>
<feColorMatrix type="matrix" values="0 0 0 0 0.158889 0 0 0 0 0.219245 0 0 0 0 0.374444 0 0 0 0.11 0"/>
<feBlend mode="normal" in2="BackgroundImageFix" result="effect1_dropShadow_3842_6286"/>
<feBlend mode="normal" in="SourceGraphic" in2="effect1_dropShadow_3842_6286" result="shape"/>
</filter>
<linearGradient id="paint0_linear_3842_6286" x1="-12.2969" y1="-4.99022" x2="782.602" y2="362.489" gradientUnits="userSpaceOnUse">
<stop stop-color="#22304C"/>
<stop offset="1" stop-color="#410291"/>
</linearGradient>
</defs>
</svg>
