<svg width="1440" height="1100" viewBox="0 0 1440 1100" fill="none" xmlns="http://www.w3.org/2000/svg">
<path d="M-3 0H1441V613L-3 832V0Z" fill="url(#paint0_linear_3842_6281)"/>
<circle cx="416" cy="452" r="295.112" stroke="#27339F" stroke-width="1.776"/>
<circle cx="415.704" cy="451.704" r="223.776" stroke="#27339F" stroke-width="1.776"/>
<circle cx="415.704" cy="451.704" r="158.064" stroke="#27339F" stroke-width="1.776"/>
<circle cx="415.999" cy="452" r="111" stroke="#27339F" stroke-width="1.776"/>
<circle cx="450.927" cy="346.624" r="11.84" fill="#1324BF"/>
<circle cx="516.343" cy="174.056" r="6.216" fill="#2B2A50"/>
<circle cx="150.487" cy="581.352" r="6.216" fill="#2B2A50"/>
<circle cx="640.071" cy="646.472" r="6.216" fill="#2B2A50"/>
<circle cx="193.407" cy="427.728" r="11.84" fill="#31376A"/>
<circle cx="193.112" cy="427.432" r="6.216" fill="#2B2A50"/>
<circle cx="450.632" cy="346.328" r="6.216" fill="#2B2A50"/>
<circle cx="320.984" cy="249.24" r="6.216" fill="#2B2A50"/>
<circle cx="345.256" cy="593.784" r="6.216" fill="#2B2A50"/>
<circle cx="245.208" cy="210.76" r="6.216" fill="#2B2A50"/>
<circle cx="415.704" cy="451.704" r="74.296" fill="#283755"/>
<circle cx="415.705" cy="451.704" r="54.1924" fill="#2C3B5C"/>
<circle cx="415.266" cy="451.267" r="38.0221" fill="#37486C"/>
<path d="M-2.50049 666.5L1441 450L1441 622.5L-2.50049 841.5V666.5Z" fill="#8F9BFF"/>
<path d="M-2.18217 755.5L1446.72 534.147L1446.72 635L-2.18206 858.622L-2.18217 755.5Z" fill="#5263FF"/>
<path d="M729 400.5C729 424.524 709.524 444 685.5 444C661.476 444 642 424.524 642 400.5C642 376.476 661.476 357 685.5 357C709.524 357 729 376.476 729 400.5ZM649.924 400.5C649.924 420.148 665.852 436.076 685.5 436.076C705.148 436.076 721.076 420.148 721.076 400.5C721.076 380.852 705.148 364.924 685.5 364.924C665.852 364.924 649.924 380.852 649.924 400.5Z" fill="#899CFF"/>
<path d="M132 100C132 132.033 106.033 158 74 158C41.9675 158 16 132.033 16 100C16 67.9675 41.9675 42 74 42C106.033 42 132 67.9675 132 100ZM26.565 100C26.565 126.198 47.8024 147.435 74 147.435C100.198 147.435 121.435 126.198 121.435 100C121.435 73.8024 100.198 52.565 74 52.565C47.8024 52.565 26.565 73.8024 26.565 100Z" fill="#899CFF"/>
<path d="M1320 556.5C1320 572.792 1306.79 586 1290.5 586C1274.21 586 1261 572.792 1261 556.5C1261 540.208 1274.21 527 1290.5 527C1306.79 527 1320 540.208 1320 556.5ZM1266.37 556.5C1266.37 569.825 1277.17 580.626 1290.5 580.626C1303.82 580.626 1314.63 569.825 1314.63 556.5C1314.63 543.175 1303.82 532.374 1290.5 532.374C1277.17 532.374 1266.37 543.175 1266.37 556.5Z" fill="#A4B2FF"/>
<path d="M1343 252.5C1343 265.479 1332.48 276 1319.5 276C1306.52 276 1296 265.479 1296 252.5C1296 239.521 1306.52 229 1319.5 229C1332.48 229 1343 239.521 1343 252.5ZM1300.28 252.5C1300.28 263.115 1308.88 271.719 1319.5 271.719C1330.11 271.719 1338.72 263.115 1338.72 252.5C1338.72 241.885 1330.11 233.281 1319.5 233.281C1308.88 233.281 1300.28 241.885 1300.28 252.5Z" fill="#899CFF"/>
<circle cx="901.296" cy="544.296" r="74.296" fill="#1324BF" fill-opacity="0.3"/>
<circle cx="901.296" cy="544.296" r="54.1924" fill="#1324BF" fill-opacity="0.35"/>
<circle cx="900.858" cy="543.859" r="38.0221" fill="#1324BF"/>
<circle cx="1298" cy="224" r="6" fill="#AAAAAA"/>
<circle cx="940" cy="548" r="6" fill="#AAAAAA"/>
<circle cx="1272" cy="594" r="8" fill="#D5D5D5"/>
<circle cx="95" cy="122" r="8" fill="#D5D5D5"/>
<circle cx="739" cy="438" r="14" fill="#D5D5D5"/>
<defs>
<linearGradient id="paint0_linear_3842_6281" x1="-3.00003" y1="-18.5" x2="1469" y2="662" gradientUnits="userSpaceOnUse">
<stop stop-color="#22304C"/>
<stop offset="1" stop-color="#410291"/>
</linearGradient>
</defs>
</svg>
