<svg width="40" height="41" viewBox="0 0 40 41" fill="none" xmlns="http://www.w3.org/2000/svg">
<g id="Iconly/Bulk/Calendar">
<g id="Calendar">
<path id="Fill 1" fill-rule="evenodd" clip-rule="evenodd" d="M5 28.6166V15.9282H35V28.7182C35 33.9499 31.7069 37.1666 26.438 37.1666H13.5456C8.32602 37.1666 5 33.8832 5 28.6166ZM13.2657 24.5167C12.5083 24.5517 11.8826 23.95 11.8497 23.185C11.8497 22.4183 12.4424 21.785 13.1998 21.75C13.9408 21.75 14.55 22.335 14.5665 23.0833C14.5994 23.8517 14.0066 24.485 13.2657 24.5167ZM20.0329 24.5167C19.2755 24.5517 18.6499 23.95 18.6169 23.185C18.6169 22.4183 19.2097 21.785 19.9671 21.75C20.708 21.75 21.3172 22.335 21.3337 23.0833C21.3666 23.8517 20.7739 24.485 20.0329 24.5167ZM26.7508 30.6497C25.9934 30.6331 25.3841 29.9997 25.3841 29.2331C25.3677 28.4664 25.9769 27.8347 26.7343 27.8181H26.7508C27.5246 27.8181 28.1503 28.4514 28.1503 29.2331C28.1503 30.0164 27.5246 30.6497 26.7508 30.6497ZM18.6169 29.2333C18.6499 29.9999 19.2755 30.6016 20.0329 30.5666C20.7739 30.5349 21.3666 29.9016 21.3337 29.1349C21.3172 28.3849 20.708 27.7999 19.9671 27.7999C19.2097 27.8349 18.6169 28.4666 18.6169 29.2333ZM11.8331 29.2333C11.8661 29.9999 12.4917 30.6016 13.2492 30.5666C13.9901 30.5349 14.5829 29.9016 14.5499 29.1349C14.5335 28.3849 13.9242 27.7999 13.1833 27.7999C12.4259 27.8349 11.8331 28.4666 11.8331 29.2333ZM25.4007 23.1682C25.4007 22.4015 25.9935 21.7848 26.7509 21.7682C27.4918 21.7682 28.0846 22.3665 28.1175 23.1015C28.134 23.8682 27.5412 24.5015 26.8003 24.5165C26.0429 24.5332 25.4172 23.9498 25.4007 23.1848V23.1682Z" fill="url(#paint0_linear_3238_5423)"/>
<path id="Fill 4" opacity="0.4" d="M5.00586 15.9281C5.02726 14.9497 5.10959 13.0081 5.26437 12.3831C6.05471 8.86807 8.73857 6.63474 12.575 6.31641H27.4268C31.2303 6.65141 33.9471 8.89974 34.7375 12.3831C34.8906 12.9914 34.9729 14.9481 34.9943 15.9281H5.00586Z" fill="url(#paint1_linear_3238_5423)"/>
<path id="Fill 6" d="M13.8416 11.4835C14.566 11.4835 15.1094 10.9352 15.1094 10.2002V5.1185C15.1094 4.3835 14.566 3.8335 13.8416 3.8335C13.1171 3.8335 12.5737 4.3835 12.5737 5.1185V10.2002C12.5737 10.9352 13.1171 11.4835 13.8416 11.4835Z" fill="url(#paint2_linear_3238_5423)"/>
<path id="Fill 9" d="M26.1585 11.4835C26.8665 11.4835 27.4263 10.9352 27.4263 10.2002V5.1185C27.4263 4.3835 26.8665 3.8335 26.1585 3.8335C25.434 3.8335 24.8906 4.3835 24.8906 5.1185V10.2002C24.8906 10.9352 25.434 11.4835 26.1585 11.4835Z" fill="url(#paint3_linear_3238_5423)"/>
</g>
</g>
<defs>
<linearGradient id="paint0_linear_3238_5423" x1="36.8334" y1="15.0185" x2="7.32388" y2="48.3233" gradientUnits="userSpaceOnUse">
<stop offset="0.317465" stop-color="#5DA0EF"/>
<stop offset="1" stop-color="#44FF78"/>
</linearGradient>
<linearGradient id="paint1_linear_3238_5423" x1="36.8271" y1="5.90469" x2="27.5301" y2="29.0808" gradientUnits="userSpaceOnUse">
<stop offset="0.317465" stop-color="#5DA0EF"/>
<stop offset="1" stop-color="#44FF78"/>
</linearGradient>
<linearGradient id="paint2_linear_3238_5423" x1="15.2644" y1="3.50581" x2="9.9648" y2="4.90932" gradientUnits="userSpaceOnUse">
<stop offset="0.317465" stop-color="#5DA0EF"/>
<stop offset="1" stop-color="#44FF78"/>
</linearGradient>
<linearGradient id="paint3_linear_3238_5423" x1="27.5813" y1="3.50581" x2="22.2817" y2="4.90932" gradientUnits="userSpaceOnUse">
<stop offset="0.317465" stop-color="#5DA0EF"/>
<stop offset="1" stop-color="#44FF78"/>
</linearGradient>
</defs>
</svg>
