<svg width="18" height="20" viewBox="0 0 18 20" fill="none" xmlns="http://www.w3.org/2000/svg">
<path fill-rule="evenodd" clip-rule="evenodd" d="M0 14.8698V7.25684H18V14.9308C18 18.0698 16.0241 19.9998 12.8628 19.9998H5.12733C1.99561 19.9998 0 18.0298 0 14.8698ZM4.95948 12.41C4.50503 12.431 4.12962 12.07 4.10986 11.611C4.10986 11.151 4.46552 10.771 4.91996 10.75C5.36453 10.75 5.73006 11.101 5.73994 11.55C5.7597 12.011 5.40405 12.391 4.95948 12.41ZM9.01954 12.41C8.56509 12.431 8.18968 12.07 8.16992 11.611C8.16992 11.151 8.52557 10.771 8.98002 10.75C9.42459 10.75 9.79012 11.101 9.8 11.55C9.81976 12.011 9.4641 12.391 9.01954 12.41ZM13.0506 16.0896C12.5962 16.0796 12.2307 15.6996 12.2307 15.2396C12.2208 14.7796 12.5863 14.4006 13.0408 14.3906H13.0506C13.515 14.3906 13.8904 14.7706 13.8904 15.2396C13.8904 15.7096 13.515 16.0896 13.0506 16.0896ZM8.16992 15.2399C8.18968 15.6999 8.56509 16.0609 9.01954 16.0399C9.4641 16.0209 9.81976 15.6409 9.8 15.1809C9.79012 14.7309 9.42459 14.3799 8.98002 14.3799C8.52557 14.4009 8.16992 14.7799 8.16992 15.2399ZM4.09961 15.2399C4.11937 15.6999 4.49478 16.0609 4.94922 16.0399C5.39379 16.0209 5.74944 15.6409 5.72968 15.1809C5.71981 14.7309 5.35427 14.3799 4.90971 14.3799C4.45526 14.4009 4.09961 14.7799 4.09961 15.2399ZM12.2402 11.6007C12.2402 11.1407 12.5959 10.7707 13.0503 10.7607C13.4949 10.7607 13.8506 11.1197 13.8703 11.5607C13.8802 12.0207 13.5245 12.4007 13.08 12.4097C12.6255 12.4197 12.2501 12.0697 12.2402 11.6107V11.6007Z" fill="url(#paint0_linear_4224_4468)"/>
<path opacity="0.4" d="M0.00341797 7.25723C0.016261 6.67023 0.0656573 5.50523 0.158522 5.13023C0.632726 3.02123 2.24305 1.68123 4.54491 1.49023H13.456C15.7381 1.69123 17.3682 3.04023 17.8424 5.13023C17.9343 5.49523 17.9837 6.66923 17.9965 7.25723H0.00341797Z" fill="url(#paint1_linear_4224_4468)"/>
<path d="M5.30465 4.59C5.73933 4.59 6.06535 4.261 6.06535 3.82V0.771C6.06535 0.33 5.73933 0 5.30465 0C4.86996 0 4.54395 0.33 4.54395 0.771V3.82C4.54395 4.261 4.86996 4.59 5.30465 4.59Z" fill="url(#paint2_linear_4224_4468)"/>
<path d="M12.6953 4.59C13.1201 4.59 13.456 4.261 13.456 3.82V0.771C13.456 0.33 13.1201 0 12.6953 0C12.2606 0 11.9346 0.33 11.9346 0.771V3.82C11.9346 4.261 12.2606 4.59 12.6953 4.59Z" fill="url(#paint3_linear_4224_4468)"/>
<defs>
<linearGradient id="paint0_linear_4224_4468" x1="17.9903" y1="7.25684" x2="5.29503" y2="26.11" gradientUnits="userSpaceOnUse">
<stop offset="0.422408" stop-color="#EF5DA8"/>
<stop offset="1" stop-color="#FFDA44"/>
</linearGradient>
<linearGradient id="paint1_linear_4224_4468" x1="17.9868" y1="1.49023" x2="14.5277" y2="12.8367" gradientUnits="userSpaceOnUse">
<stop offset="0.422408" stop-color="#EF5DA8"/>
<stop offset="1" stop-color="#FFDA44"/>
</linearGradient>
<linearGradient id="paint2_linear_4224_4468" x1="6.06453" y1="4.62411e-07" x2="2.99748" y2="1.0688" gradientUnits="userSpaceOnUse">
<stop offset="0.422408" stop-color="#EF5DA8"/>
<stop offset="1" stop-color="#FFDA44"/>
</linearGradient>
<linearGradient id="paint3_linear_4224_4468" x1="13.4552" y1="4.62411e-07" x2="10.3881" y2="1.0688" gradientUnits="userSpaceOnUse">
<stop offset="0.422408" stop-color="#EF5DA8"/>
<stop offset="1" stop-color="#FFDA44"/>
</linearGradient>
</defs>
</svg>
