<svg width="120" height="120" viewBox="0 0 120 120" fill="none" xmlns="http://www.w3.org/2000/svg">
<path d="M66.4665 23.1448C45.9256 19.8494 26.6008 33.8309 23.3054 54.3718C20.0101 74.9127 33.9916 94.2375 54.5325 97.5329C75.0734 100.828 94.397 86.8545 97.6936 66.3059C100.99 45.7572 87.0036 26.4395 66.4665 23.1448ZM75.6381 62.8189C74.3307 63.4787 72.8991 63.8537 71.438 63.9197L71.1994 63.9288L69.5873 73.9777L62.2433 72.7995L63.9389 62.2304L62.8416 61.7777C61.5135 61.2366 60.1404 60.6804 58.8851 60.4C58.6057 60.3433 58.3238 60.302 58.0388 60.28L57.7654 60.2599L54.6437 79.7181L47.3112 78.5417L50.0416 61.5225L47.5176 62.7697L44.241 56.0942L46.8692 54.7887C48.1766 54.129 49.6082 53.754 51.0693 53.688L51.3079 53.6788L53.3416 41.0021L60.6856 42.1803L58.9647 52.9074L59.2671 52.944C59.4378 52.9635 59.6112 52.9913 59.7808 53.0185C60.0318 53.0548 60.2804 53.1066 60.5266 53.1737L60.5497 53.1774C62.0112 53.5028 63.4434 53.9618 64.8237 54.5469L65.1569 54.6873L67.0126 43.1202L74.3566 44.2984L72.4657 56.0851L74.9897 54.838L78.2746 61.5108L75.6381 62.8189Z" fill="url(#paint0_linear_3238_5086)"/>
<defs>
<linearGradient id="paint0_linear_3238_5086" x1="29.5378" y1="15.5237" x2="111.805" y2="52.2021" gradientUnits="userSpaceOnUse">
<stop stop-color="#22304C"/>
<stop offset="1" stop-color="#410291"/>
</linearGradient>
</defs>
</svg>
