<svg width="325" height="326" viewBox="0 0 325 326" fill="none" xmlns="http://www.w3.org/2000/svg">
<circle cx="162.5" cy="163" r="151" stroke="url(#paint0_linear_3238_4933)" stroke-width="9.2638"/>
<path d="M179.214 313.072C149.208 316.414 118.89 310.684 92.1729 296.623C65.4562 282.562 43.568 260.815 29.3344 234.189C15.1007 207.564 9.17522 177.283 12.3229 147.257C15.4707 117.23 27.5471 88.8366 46.9929 65.742C66.4387 42.6474 92.3611 25.9123 121.413 17.6973C150.465 9.48238 181.313 10.1648 209.973 19.6566C238.633 29.1483 263.79 47.0135 282.195 70.9455C300.601 94.8775 311.41 123.777 313.226 153.914" stroke="url(#paint1_linear_3238_4933)" stroke-width="22.2331" stroke-linecap="round"/>
<path d="M136.128 109.473L98.8469 198.847H81.7383L112.636 124.795H77.3973V109.473H136.128ZM205.401 165.14V178.419H193.91V198.847H178.206V178.419H133.647L182.802 109.473H193.91V165.14H205.401ZM178.206 165.14V137.69L158.926 165.14H178.206ZM224.568 180.735C221.492 180.735 219.069 179.658 217.301 177.505C215.57 175.352 214.705 172.525 214.705 169.026C214.705 165.604 215.609 162.854 217.416 160.778C219.223 158.701 221.607 157.663 224.568 157.663C227.529 157.663 229.913 158.701 231.721 160.778C233.528 162.854 234.432 165.604 234.432 169.026C234.432 172.487 233.547 175.313 231.778 177.505C230.009 179.658 227.606 180.735 224.568 180.735ZM224.568 175.717C225.837 175.717 226.818 175.14 227.51 173.986C228.202 172.794 228.548 171.141 228.548 169.026C228.548 166.949 228.183 165.373 227.452 164.296C226.76 163.219 225.799 162.681 224.568 162.681C223.338 162.681 222.357 163.219 221.627 164.296C220.934 165.373 220.588 166.949 220.588 169.026C220.588 173.487 221.915 175.717 224.568 175.717ZM247.64 158.47H253.351L229.586 198.847H223.818L247.64 158.47ZM252.543 199.654C249.467 199.654 247.044 198.578 245.275 196.424C243.545 194.271 242.68 191.444 242.68 187.945C242.68 184.523 243.584 181.773 245.391 179.697C247.198 177.62 249.582 176.582 252.543 176.582C255.504 176.582 257.888 177.62 259.696 179.697C261.503 181.773 262.407 184.523 262.407 187.945C262.407 191.406 261.522 194.232 259.753 196.424C257.984 198.578 255.581 199.654 252.543 199.654ZM252.543 194.636C253.812 194.636 254.793 194.059 255.485 192.906C256.177 191.714 256.523 190.06 256.523 187.945C256.523 185.869 256.158 184.292 255.427 183.215C254.735 182.139 253.774 181.6 252.543 181.6C251.313 181.6 250.332 182.139 249.602 183.215C248.909 184.292 248.563 185.869 248.563 187.945C248.563 192.406 249.89 194.636 252.543 194.636Z" fill="white"/>
<defs>
<linearGradient id="paint0_linear_3238_4933" x1="313.337" y1="12" x2="-10.9585" y2="352.944" gradientUnits="userSpaceOnUse">
<stop offset="0.422408" stop-color="#EF5DA8"/>
<stop offset="1" stop-color="#FFDA44"/>
</linearGradient>
<linearGradient id="paint1_linear_3238_4933" x1="331.957" y1="-0.93614" x2="-80.308" y2="328.461" gradientUnits="userSpaceOnUse">
<stop offset="0.317465" stop-color="#5DA0EF"/>
<stop offset="1" stop-color="#44FF78"/>
</linearGradient>
</defs>
</svg>
