<svg width="319" height="319" viewBox="0 0 319 319" fill="none" xmlns="http://www.w3.org/2000/svg">
<circle cx="162.5" cy="156" r="151" stroke="url(#paint0_linear_3238_4923)" stroke-width="9.2638"/>
<path d="M292.557 232.722C280.498 253.163 263.791 270.474 243.791 283.251C223.791 296.027 201.061 303.91 177.445 306.259C153.829 308.608 129.991 305.357 107.866 296.77C85.7414 288.183 65.9521 274.502 50.1035 256.837C34.2549 239.171 22.7935 218.019 16.6488 195.095C10.5042 172.172 9.84945 148.123 14.7377 124.899C19.6259 101.675 29.9194 79.9301 44.7833 61.4285C59.6472 42.9269 78.6628 28.1893 100.288 18.4114" stroke="url(#paint1_linear_3238_4923)" stroke-width="22.2331" stroke-linecap="round"/>
<path d="M112.125 138.095C117.062 138.095 121.531 139.244 125.531 141.542C129.532 143.84 132.638 147.032 134.852 151.118C137.15 155.204 138.299 159.843 138.299 165.035C138.299 170.652 137.107 175.632 134.724 179.973C132.341 184.314 128.936 187.676 124.51 190.059C120.084 192.443 114.892 193.634 108.933 193.634C102.805 193.634 97.3999 192.272 92.7184 189.549C88.037 186.74 84.4195 182.824 81.866 177.802C79.3124 172.78 78.0357 166.95 78.0357 160.311C78.0357 151.288 80.0785 142.819 84.1641 134.903C88.2498 126.987 93.3994 120.135 99.6129 114.347C105.912 108.559 112.338 104.006 118.892 100.686L130.255 109.623C124.042 112.688 117.573 117.114 110.848 122.902C104.124 128.604 99.1873 135.116 96.038 142.436C100.464 139.542 105.827 138.095 112.125 138.095ZM109.189 180.1C113.274 180.1 116.679 178.739 119.403 176.015C122.126 173.206 123.488 169.759 123.488 165.673C123.488 161.673 122.126 158.353 119.403 155.714C116.679 152.991 113.274 151.629 109.189 151.629C105.018 151.629 101.571 152.991 98.8469 155.714C96.2082 158.353 94.8889 161.673 94.8889 165.673C94.8889 169.759 96.2508 173.206 98.9746 176.015C101.698 178.739 105.103 180.1 109.189 180.1ZM172.71 155.714C177.647 148.139 181.009 142.436 182.797 138.606C184.669 134.775 185.606 131.158 185.606 127.753C185.606 124.093 184.542 121.242 182.414 119.199C180.371 117.071 177.52 116.007 173.86 116.007C169.774 116.007 165.986 116.986 162.496 118.944C159.007 120.901 155.602 123.54 152.282 126.86L150.239 110.389C154.24 107.155 158.411 104.729 162.752 103.112C167.093 101.495 171.902 100.686 177.179 100.686C182.371 100.686 186.797 101.792 190.457 104.006C194.117 106.133 196.841 109.027 198.629 112.688C200.501 116.348 201.438 120.391 201.438 124.817C201.438 129.839 200.331 134.988 198.118 140.266C195.99 145.543 192.202 152.31 186.755 160.566L176.285 176.526H204.629V191.847H149.218L172.71 155.714ZM223.695 173.735C220.619 173.735 218.197 172.658 216.428 170.505C214.697 168.352 213.832 165.525 213.832 162.026C213.832 158.604 214.736 155.854 216.543 153.778C218.35 151.701 220.735 150.663 223.695 150.663C226.656 150.663 229.041 151.701 230.848 153.778C232.655 155.854 233.559 158.604 233.559 162.026C233.559 165.487 232.674 168.313 230.906 170.505C229.137 172.658 226.733 173.735 223.695 173.735ZM223.695 168.717C224.964 168.717 225.945 168.14 226.637 166.986C227.329 165.794 227.675 164.141 227.675 162.026C227.675 159.949 227.31 158.373 226.58 157.296C225.887 156.219 224.926 155.681 223.695 155.681C222.465 155.681 221.484 156.219 220.754 157.296C220.062 158.373 219.716 159.949 219.716 162.026C219.716 166.487 221.042 168.717 223.695 168.717ZM246.768 151.47H252.478L228.714 191.847H222.946L246.768 151.47ZM251.67 192.654C248.594 192.654 246.172 191.578 244.403 189.424C242.672 187.271 241.807 184.444 241.807 180.945C241.807 177.523 242.711 174.773 244.518 172.697C246.325 170.62 248.71 169.582 251.67 169.582C254.631 169.582 257.015 170.62 258.823 172.697C260.63 174.773 261.534 177.523 261.534 180.945C261.534 184.406 260.649 187.232 258.88 189.424C257.112 191.578 254.708 192.654 251.67 192.654ZM251.67 187.636C252.939 187.636 253.92 187.059 254.612 185.906C255.304 184.714 255.65 183.06 255.65 180.945C255.65 178.869 255.285 177.292 254.554 176.215C253.862 175.139 252.901 174.6 251.67 174.6C250.44 174.6 249.459 175.139 248.729 176.215C248.037 177.292 247.69 178.869 247.69 180.945C247.69 185.406 249.017 187.636 251.67 187.636Z" fill="white"/>
<defs>
<linearGradient id="paint0_linear_3238_4923" x1="11.5" y1="5" x2="125.842" y2="366.376" gradientUnits="userSpaceOnUse">
<stop stop-color="#5162FF"/>
<stop offset="1" stop-color="#778DFF"/>
</linearGradient>
<linearGradient id="paint1_linear_3238_4923" x1="-23.0601" y1="-5.39702" x2="272.407" y2="338.283" gradientUnits="userSpaceOnUse">
<stop stop-color="#FF6BDF"/>
<stop offset="1" stop-color="#A400CD"/>
</linearGradient>
</defs>
</svg>
