<svg width="120" height="121" viewBox="0 0 120 121" fill="none" xmlns="http://www.w3.org/2000/svg">
<g clip-path="url(#clip0_3238_5065)">
<path d="M60.4529 114.725L28.7193 105.992L21.6475 27.3672H99.3533L92.2741 105.98L60.4529 114.725Z" fill="#264DE4"/>
<path d="M86.2132 100.974L92.2625 33.7954H60.5V108.04L86.2132 100.974Z" fill="#2965F1"/>
<path d="M37.8594 62.9565L38.7311 72.5996H60.5004V62.9565H37.8594Z" fill="#EBEBEB"/>
<path d="M36.1069 43.439L36.9912 53.082H60.5V43.439H36.1069Z" fill="#EBEBEB"/>
<path d="M60.5001 88.0007L60.4575 88.0119L49.6236 85.1121L48.9309 77.4214H39.1655L40.5283 92.5624L60.4554 98.0457L60.5001 98.0336V88.0007Z" fill="#EBEBEB"/>
<path d="M39.9351 6H51.7169V10.8842H44.8622V15.7683H51.7175V20.6522H39.9351V6Z" fill="#555555"/>
<path d="M54.0735 6H65.8557V10.2471H59.0007V11.0964H65.8557V20.8648H54.0739V16.4048H60.9288V15.5555H54.0732V6H54.0735Z" fill="#555555"/>
<path d="M68.2124 6H79.9945V10.2471H73.1396V11.0964H79.9945V20.8648H68.2124V16.4048H75.0674V15.5555H68.2127V6H68.2124Z" fill="#555555"/>
<path d="M83.079 62.9566L84.835 43.439H60.4666V53.082H74.1741L73.2889 62.9566H60.4666V72.5996H72.4455L71.3161 85.1059L60.4663 88.0088V98.041L80.4092 92.5623L80.5554 90.9331L82.8417 65.546L83.079 62.9566Z" fill="#3F3E44"/>
</g>
<defs>
<clipPath id="clip0_3238_5065">
<rect width="77.9769" height="109" fill="white" transform="translate(21.5117 6)"/>
</clipPath>
</defs>
</svg>
