<svg width="378" height="392" viewBox="0 0 378 392" fill="none" xmlns="http://www.w3.org/2000/svg">
<g clip-path="url(#clip0_3841_4756)">
<rect width="378" height="425" fill="url(#paint0_linear_3841_4756)"/>
<g opacity="0.3" clip-path="url(#clip1_3841_4756)">
<path d="M118.277 356.051L118.277 356.051L118.275 356.049C117.162 354.936 117.158 353.324 118.275 352.235C119.362 351.12 121.002 351.121 122.089 352.207C123.203 353.321 123.206 354.934 122.088 356.022C120.974 357.136 119.391 357.135 118.277 356.051Z" fill="white" stroke="white" stroke-width="0.415923"/>
<path d="M137.084 367.248C138.199 368.332 138.231 369.945 137.144 371.061C136.059 372.176 134.447 372.207 133.33 371.121C132.216 370.038 132.181 368.398 133.27 367.308C134.329 366.191 135.969 366.163 137.084 367.248Z" fill="white" stroke="white" stroke-width="0.415923"/>
<path d="M148.367 386.133C147.283 385.019 147.28 383.407 148.398 382.319C149.512 381.236 151.125 381.233 152.213 382.351C153.296 383.464 153.3 385.076 152.154 386.164C151.064 387.282 149.45 387.246 148.367 386.133Z" fill="white" stroke="white" stroke-width="0.415923"/>
<path d="M133.303 356.049L133.303 356.049L133.301 356.047C132.218 354.934 132.215 353.323 133.331 352.235C134.418 351.12 136.061 351.12 137.147 352.237C138.231 353.35 138.234 354.962 137.116 356.05C136 357.165 134.388 357.134 133.303 356.049Z" fill="white" stroke="white" stroke-width="0.415923"/>
<path d="M148.204 367.426L148.204 367.425C149.253 366.257 150.893 366.125 152.019 367.159C153.187 368.207 153.318 369.847 152.285 370.972C151.235 372.141 149.624 372.27 148.472 371.239L148.472 371.239C147.302 370.189 147.173 368.578 148.204 367.426Z" fill="white" stroke="white" stroke-width="0.415923"/>
<path d="M163.339 382.409L163.339 382.409C164.42 381.268 166.032 381.202 167.153 382.261L167.153 382.262C168.295 383.343 168.36 384.955 167.301 386.075L167.301 386.075C166.222 387.214 164.609 387.314 163.485 386.222C162.345 385.141 162.279 383.529 163.339 382.409Z" fill="white" stroke="white" stroke-width="0.415923"/>
<path d="M152.175 352.235C153.289 353.349 153.292 354.962 152.174 356.05C151.622 356.602 150.949 356.885 150.268 356.885C149.586 356.885 148.913 356.602 148.361 356.049C147.248 354.936 147.244 353.324 148.361 352.235C149.449 351.119 151.062 351.122 152.175 352.235Z" fill="white" stroke="white" stroke-width="0.415923"/>
<path d="M167.157 371.15C166.04 372.236 164.427 372.204 163.343 371.06C162.257 369.943 162.289 368.331 163.433 367.246C164.548 366.162 166.19 366.191 167.248 367.337C168.333 368.454 168.301 370.066 167.157 371.15Z" fill="white" stroke="white" stroke-width="0.415923"/>
<path d="M182.318 386.133L182.318 386.133L182.316 386.135C181.205 387.247 179.594 387.281 178.476 386.193C177.362 385.11 177.328 383.469 178.417 382.378C179.502 381.264 181.142 381.233 182.258 382.319C183.374 383.404 183.405 385.017 182.318 386.133Z" fill="white" stroke="white" stroke-width="0.415923"/>
<path d="M167.144 352.147L167.144 352.147C168.286 353.229 168.352 354.841 167.292 355.961L167.292 355.961C166.21 357.103 164.598 357.168 163.478 356.109L163.478 356.109C162.336 355.027 162.27 353.416 163.329 352.296C164.384 351.151 166.025 351.089 167.144 352.147Z" fill="white" stroke="white" stroke-width="0.415923"/>
<path d="M182.318 371.061L182.318 371.061L182.316 371.063C181.208 372.172 179.597 372.24 178.476 371.149C177.366 370.069 177.297 368.428 178.389 367.334C179.471 366.223 181.111 366.158 182.231 367.247C183.343 368.329 183.408 369.941 182.318 371.061Z" fill="white" stroke="white" stroke-width="0.415923"/>
<path d="M178.41 356.021L178.41 356.021L178.408 356.019C177.322 354.902 177.353 353.29 178.468 352.205C179.585 351.118 181.198 351.15 182.283 352.265C183.369 353.381 183.338 354.993 182.224 356.078C181.132 357.169 179.52 357.131 178.41 356.021Z" fill="white" stroke="white" stroke-width="0.415923"/>
<path d="M107.091 382.38C108.177 383.497 108.145 385.109 107.03 386.193C105.914 387.28 104.301 387.248 103.216 386.133C102.129 385.017 102.161 383.404 103.276 382.32C104.39 381.236 106.003 381.233 107.091 382.38Z" fill="white" stroke="white" stroke-width="0.415923"/>
<path d="M103.218 367.305C104.302 366.194 105.941 366.16 107.031 367.249C108.148 368.336 108.146 369.947 107.063 371.06C105.978 372.204 104.364 372.236 103.247 371.12C102.134 370.036 102.1 368.395 103.218 367.305Z" fill="white" stroke="white" stroke-width="0.415923"/>
<path d="M122.12 386.133L122.12 386.133L122.118 386.135C121.567 386.686 120.894 386.977 120.213 386.985C119.531 386.993 118.858 386.716 118.305 386.164C117.192 385.081 117.157 383.44 118.275 382.35C119.336 381.231 120.976 381.238 122.088 382.319C123.206 383.407 123.204 385.019 122.12 386.133Z" fill="white" stroke="white" stroke-width="0.415923"/>
<path d="M107.062 356.019L107.062 356.019L107.06 356.021C106.509 356.572 105.837 356.863 105.156 356.871C104.474 356.879 103.8 356.602 103.247 356.05C102.131 354.963 102.131 353.323 103.217 352.236C104.304 351.12 105.944 351.12 107.032 352.206C108.149 353.294 108.146 354.906 107.062 356.019Z" fill="white" stroke="white" stroke-width="0.415923"/>
<path d="M122.004 367.187L122.004 367.187L122.007 367.189C123.148 368.271 123.214 369.883 122.154 371.003L122.154 371.003C121.073 372.145 119.46 372.211 118.34 371.151L118.34 371.151C117.198 370.069 117.132 368.457 118.192 367.337C119.247 366.222 120.886 366.16 122.004 367.187Z" fill="white" stroke="white" stroke-width="0.415923"/>
<path d="M137.194 386.133L137.194 386.133L137.192 386.135C136.08 387.247 134.469 387.281 133.351 386.193C132.237 385.11 132.203 383.469 133.292 382.378C134.377 381.264 136.017 381.233 137.134 382.319C138.249 383.404 138.28 385.017 137.194 386.133Z" fill="white" stroke="white" stroke-width="0.415923"/>
<path d="M193.484 356.051L193.484 356.051L193.482 356.049C192.369 354.936 192.365 353.324 193.482 352.235C194.569 351.12 196.209 351.121 197.296 352.207C198.41 353.321 198.413 354.934 197.295 356.022C196.181 357.136 194.598 357.135 193.484 356.051Z" fill="white" stroke="white" stroke-width="0.415923"/>
<path d="M212.313 367.248C213.428 368.332 213.459 369.945 212.372 371.061C211.287 372.176 209.675 372.207 208.558 371.121C207.444 370.038 207.41 368.397 208.499 367.307C209.584 366.193 211.196 366.162 212.313 367.248Z" fill="white" stroke="white" stroke-width="0.415923"/>
<path d="M223.596 386.135L223.596 386.135L223.594 386.133C222.51 385.019 222.508 383.407 223.626 382.319C224.74 381.236 226.352 381.233 227.44 382.351C228.523 383.464 228.527 385.075 227.383 386.163C226.317 387.285 224.704 387.243 223.596 386.135Z" fill="white" stroke="white" stroke-width="0.415923"/>
<path d="M208.51 356.049L208.51 356.049L208.508 356.047C207.425 354.933 207.422 353.322 208.539 352.234C209.653 351.122 211.266 351.119 212.354 352.237C213.438 353.35 213.441 354.962 212.323 356.05C211.207 357.165 209.595 357.134 208.51 356.049Z" fill="white" stroke="white" stroke-width="0.415923"/>
<path d="M223.434 367.425L223.434 367.425C224.482 366.257 226.123 366.125 227.249 367.159C228.416 368.207 228.548 369.847 227.514 370.972C226.464 372.141 224.853 372.269 223.701 371.239L223.701 371.239C222.531 370.189 222.403 368.578 223.434 367.425Z" fill="white" stroke="white" stroke-width="0.415923"/>
<path d="M238.566 382.409L238.566 382.409C239.648 381.268 241.26 381.202 242.38 382.262L242.38 382.262C243.522 383.343 243.588 384.955 242.528 386.075L242.528 386.075C241.449 387.214 239.836 387.314 238.713 386.222C237.572 385.141 237.507 383.529 238.566 382.409Z" fill="white" stroke="white" stroke-width="0.415923"/>
<path d="M223.567 352.235C224.654 351.12 226.295 351.12 227.382 352.236C228.495 353.35 228.497 354.962 227.38 356.05C226.267 357.163 224.654 357.166 223.566 356.048C222.454 354.935 222.45 353.323 223.567 352.235Z" fill="white" stroke="white" stroke-width="0.415923"/>
<path d="M242.386 371.15C241.269 372.236 239.656 372.204 238.571 371.06C237.485 369.943 237.517 368.331 238.661 367.246C239.777 366.162 241.418 366.191 242.476 367.337C243.561 368.454 243.529 370.066 242.386 371.15Z" fill="white" stroke="white" stroke-width="0.415923"/>
<path d="M257.547 386.133L257.547 386.133L257.545 386.135C256.434 387.246 254.823 387.281 253.705 386.193C252.591 385.11 252.556 383.469 253.646 382.378C254.731 381.264 256.371 381.233 257.487 382.319C258.603 383.404 258.634 385.016 257.547 386.133Z" fill="white" stroke="white" stroke-width="0.415923"/>
<path d="M242.351 352.147L242.351 352.147C243.493 353.229 243.559 354.841 242.499 355.961L242.499 355.961C241.417 357.103 239.805 357.168 238.685 356.109L238.685 356.109C237.543 355.027 237.477 353.416 238.536 352.296C239.591 351.151 241.232 351.089 242.351 352.147Z" fill="white" stroke="white" stroke-width="0.415923"/>
<path d="M257.546 371.061L257.546 371.061L257.544 371.063C256.435 372.172 254.825 372.24 253.704 371.149C252.593 370.069 252.524 368.428 253.617 367.334C254.699 366.223 256.338 366.158 257.458 367.248C258.57 368.329 258.635 369.942 257.546 371.061Z" fill="white" stroke="white" stroke-width="0.415923"/>
<path d="M253.615 356.019C252.528 354.902 252.559 353.29 253.674 352.205C254.791 351.118 256.404 351.15 257.489 352.265C258.576 353.382 258.544 354.994 257.429 356.079C256.312 357.166 254.7 357.134 253.615 356.019Z" fill="white" stroke="white" stroke-width="0.415923"/>
<path d="M197.348 386.133L197.348 386.133L197.346 386.135C196.795 386.686 196.123 386.977 195.441 386.985C194.76 386.993 194.086 386.716 193.533 386.164C192.42 385.081 192.386 383.439 193.504 382.349C194.592 381.233 196.203 381.236 197.316 382.319C198.435 383.407 198.432 385.019 197.348 386.133Z" fill="white" stroke="white" stroke-width="0.415923"/>
<path d="M197.232 367.187L197.233 367.187L197.235 367.189C198.376 368.271 198.442 369.883 197.383 371.003L197.382 371.003C196.301 372.145 194.689 372.211 193.568 371.151L193.568 371.151C192.427 370.069 192.361 368.457 193.421 367.337C194.476 366.222 196.114 366.16 197.232 367.187Z" fill="white" stroke="white" stroke-width="0.415923"/>
<path d="M212.422 386.133L212.422 386.133L212.418 386.137C211.282 387.243 209.671 387.283 208.579 386.192C207.466 385.109 207.432 383.468 208.521 382.378C209.606 381.264 211.246 381.233 212.362 382.319C213.477 383.404 213.509 385.016 212.422 386.133Z" fill="white" stroke="white" stroke-width="0.415923"/>
<path d="M268.69 356.051L268.69 356.051L268.688 356.049C267.575 354.936 267.571 353.323 268.688 352.235C269.775 351.12 271.416 351.121 272.502 352.207C273.616 353.32 273.619 354.934 272.501 356.022C271.387 357.135 269.804 357.135 268.69 356.051Z" fill="white" stroke="white" stroke-width="0.415923"/>
<path d="M272.576 386.133L272.576 386.133L272.574 386.135C272.023 386.686 271.351 386.977 270.669 386.985C269.988 386.993 269.314 386.717 268.761 386.164C267.648 385.081 267.613 383.439 268.732 382.349C269.82 381.233 271.431 381.236 272.544 382.319C273.662 383.407 273.66 385.019 272.576 386.133Z" fill="white" stroke="white" stroke-width="0.415923"/>
<path d="M272.461 367.187L272.461 367.187L272.464 367.189C273.605 368.271 273.671 369.883 272.611 371.003L272.611 371.003C271.53 372.145 269.917 372.211 268.797 371.151L268.797 371.151C267.655 370.069 267.589 368.457 268.649 367.337C269.704 366.222 271.343 366.16 272.461 367.187Z" fill="white" stroke="white" stroke-width="0.415923"/>
</g>
<g opacity="0.3" clip-path="url(#clip2_3841_4756)">
<path d="M119.238 27.4802L119.238 27.4802L119.235 27.4773C118.06 26.3024 118.055 24.5924 119.235 23.4412C120.384 22.2633 122.123 22.264 123.272 23.4126C124.447 24.588 124.452 26.2989 123.27 27.4502C122.093 28.6255 120.415 28.6254 119.238 27.4802Z" fill="white" stroke="white" stroke-width="0.616667"/>
<path d="M138.293 38.4615C139.471 39.6076 139.505 41.317 138.356 42.4975C137.21 43.6754 135.5 43.7091 134.32 42.5606C133.144 41.4172 133.105 39.6788 134.257 38.5246C135.377 37.3439 137.115 37.3157 138.293 38.4615Z" fill="white" stroke="white" stroke-width="0.616667"/>
<path d="M149.315 57.5739C148.17 56.3981 148.166 54.6884 149.349 53.5378C150.525 52.3939 152.235 52.3899 153.386 53.5724C154.53 54.7479 154.534 56.4579 153.323 57.6084C152.173 58.755 150.463 58.7537 149.315 57.5739Z" fill="white" stroke="white" stroke-width="0.616667"/>
<path d="M134.263 27.4771L134.263 27.4772L134.26 27.4741C133.117 26.2994 133.112 24.5917 134.291 23.4411C135.441 22.2626 137.182 22.2636 138.331 23.4441C139.475 24.6194 139.479 26.3281 138.298 27.4786C137.118 28.6569 135.409 28.6233 134.263 27.4771Z" fill="white" stroke="white" stroke-width="0.616667"/>
<path d="M149.186 38.6196L149.186 38.6193C150.291 37.3882 152.03 37.2442 153.224 38.3398C154.454 39.4446 154.597 41.1821 153.502 42.3754C152.395 43.6067 150.689 43.7461 149.469 42.6563C148.231 41.5758 148.096 39.8373 149.186 38.6196Z" fill="white" stroke="white" stroke-width="0.616667"/>
<path d="M164.44 57.6687L164.439 57.6686C163.235 56.5277 163.163 54.8185 164.285 53.6329L164.285 53.6327C165.426 52.4284 167.135 52.3563 168.321 53.4779L168.321 53.478C169.526 54.619 169.598 56.3281 168.476 57.5138L168.476 57.5139C167.335 58.7182 165.625 58.7903 164.44 57.6687Z" fill="white" stroke="white" stroke-width="0.616667"/>
<path d="M153.354 23.4096L153.354 23.4096L153.357 23.4126C154.532 24.588 154.537 26.2989 153.355 27.4501C152.774 28.0301 152.063 28.3318 151.338 28.3318C150.614 28.3318 149.901 28.0296 149.32 27.4486C148.145 26.2733 148.14 24.5623 149.322 23.4111C150.472 22.262 152.179 22.2668 153.354 23.4096Z" fill="white" stroke="white" stroke-width="0.616667"/>
<path d="M168.363 42.5921L168.363 42.5923C167.182 43.7087 165.475 43.6749 164.33 42.4976C163.181 41.3169 163.214 39.6061 164.423 38.4601C165.601 37.3151 167.341 37.3442 168.461 38.5563C169.607 39.7373 169.572 41.4471 168.363 42.5921Z" fill="white" stroke="white" stroke-width="0.616667"/>
<path d="M183.492 57.5739L183.492 57.5739L183.489 57.5769C182.317 58.7493 180.609 58.7871 179.427 57.637C178.251 56.4931 178.213 54.7537 179.366 53.5995C180.512 52.423 182.249 52.3899 183.429 53.5379C184.607 54.684 184.641 56.3935 183.492 57.5739Z" fill="white" stroke="white" stroke-width="0.616667"/>
<path d="M168.323 23.3495L168.323 23.3496C169.528 24.4906 169.6 26.1997 168.478 27.3854L168.478 27.3855C167.337 28.5898 165.627 28.6619 164.441 27.5403L164.441 27.5402C163.237 26.3997 163.165 24.6916 164.285 23.5059C165.4 22.2972 167.139 22.2301 168.323 23.3495Z" fill="white" stroke="white" stroke-width="0.616667"/>
<path d="M179.469 42.5923L179.469 42.5923L179.466 42.5893C178.294 41.4499 178.218 39.7105 179.375 38.5518C180.517 37.3799 182.254 37.3092 183.439 38.4616C184.612 39.6031 184.684 41.3125 183.531 42.4976L183.531 42.4976L183.528 42.5006C182.356 43.6724 180.651 43.7102 179.469 42.5923Z" fill="white" stroke="white" stroke-width="0.616667"/>
<path d="M179.369 27.4487L179.369 27.4488L179.366 27.4457C178.217 26.2653 178.251 24.5558 179.429 23.4097C180.61 22.2612 182.319 22.2949 183.466 23.4728C184.614 24.6528 184.581 26.3613 183.404 27.5074C182.248 28.6616 180.539 28.6188 179.369 27.4487Z" fill="white" stroke="white" stroke-width="0.616667"/>
<path d="M108.264 53.5844C109.412 54.7649 109.379 56.4744 108.2 57.6204C107.02 58.769 105.31 58.7352 104.164 57.5573C103.015 56.3769 103.049 54.6674 104.227 53.5213C105.408 52.3728 107.117 52.4065 108.264 53.5844Z" fill="white" stroke="white" stroke-width="0.616667"/>
<path d="M104.178 38.5216C105.322 37.3488 107.06 37.3113 108.213 38.463C109.394 39.6131 109.39 41.3208 108.248 42.496C107.097 43.7089 105.386 43.7048 104.21 42.5606C103.034 41.4165 102.995 39.6758 104.178 38.5216Z" fill="white" stroke="white" stroke-width="0.616667"/>
<path d="M123.293 57.5454L123.293 57.5455C122.123 58.7473 120.41 58.7911 119.253 57.6056C118.081 56.462 118.043 54.7242 119.223 53.571C120.343 52.3918 122.081 52.3641 123.258 53.5094C124.441 54.66 124.437 56.3696 123.293 57.5454Z" fill="white" stroke="white" stroke-width="0.616667"/>
<path d="M108.246 27.4456L108.246 27.4456L108.243 27.4486C107.663 28.0282 106.953 28.3379 106.228 28.346C105.504 28.3542 104.79 28.0601 104.208 27.4787C103.029 26.3301 103.029 24.5917 104.176 23.4426C105.325 22.2637 107.064 22.2634 108.213 23.411C109.394 24.5616 109.39 26.2703 108.246 27.4456Z" fill="white" stroke="white" stroke-width="0.616667"/>
<path d="M123.213 38.4013L123.213 38.4015C124.417 39.542 124.49 41.2502 123.369 42.4359C122.226 43.6721 120.518 43.7399 119.306 42.6236L119.306 42.6236L119.303 42.6206C118.099 41.4801 118.026 39.7719 119.147 38.5862C120.288 37.3516 122.027 37.2796 123.213 38.4013Z" fill="white" stroke="white" stroke-width="0.616667"/>
<path d="M138.367 57.5739L138.367 57.5739L138.364 57.5769C137.192 58.7493 135.484 58.7871 134.302 57.637C133.126 56.4931 133.088 54.7537 134.241 53.5995C135.387 52.423 137.124 52.3899 138.304 53.5379C139.482 54.684 139.516 56.3935 138.367 57.5739Z" fill="white" stroke="white" stroke-width="0.616667"/>
<path d="M194.444 27.4802L194.444 27.4802L194.441 27.4773C193.266 26.3024 193.261 24.5924 194.441 23.4412C195.59 22.2633 197.329 22.264 198.478 23.4126C199.653 24.588 199.658 26.2989 198.476 27.4502C197.299 28.6255 195.621 28.6254 194.444 27.4802Z" fill="white" stroke="white" stroke-width="0.616667"/>
<path d="M213.522 38.4615C214.7 39.6076 214.733 41.317 213.585 42.4975C212.439 43.6754 210.729 43.7091 209.548 42.5606C208.372 41.4167 208.334 39.6773 209.487 38.5231C210.633 37.3467 212.342 37.3135 213.522 38.4615Z" fill="white" stroke="white" stroke-width="0.616667"/>
<path d="M224.546 57.5769L224.546 57.5769L224.543 57.5739C223.399 56.3981 223.395 54.6884 224.578 53.5378C225.754 52.3939 227.464 52.3899 228.614 53.5724C229.758 54.7474 229.763 56.4565 228.553 57.6069C227.428 58.7594 225.718 58.7488 224.546 57.5769Z" fill="white" stroke="white" stroke-width="0.616667"/>
<path d="M209.469 27.4771L209.469 27.4772L209.466 27.4741C208.322 26.2989 208.318 24.5902 209.499 23.4396C210.675 22.2653 212.386 22.2615 213.537 23.4441C214.681 24.6194 214.685 26.3281 213.504 27.4786C212.324 28.6569 210.615 28.6233 209.469 27.4771Z" fill="white" stroke="white" stroke-width="0.616667"/>
<path d="M224.414 38.6196L224.415 38.6193C225.52 37.3882 227.258 37.2442 228.452 38.3398C229.682 39.4446 229.826 41.1821 228.73 42.3754C227.624 43.6067 225.917 43.7461 224.697 42.6563C223.459 41.5758 223.325 39.8373 224.414 38.6196Z" fill="white" stroke="white" stroke-width="0.616667"/>
<path d="M239.668 57.6687L239.668 57.6686C238.463 56.5277 238.391 54.8185 239.513 53.6329L239.513 53.6327C240.654 52.4284 242.363 52.3563 243.549 53.4779L243.549 53.4781C244.754 54.619 244.826 56.3281 243.704 57.5138L243.704 57.5139C242.563 58.7182 240.854 58.7903 239.668 57.6687Z" fill="white" stroke="white" stroke-width="0.616667"/>
<path d="M228.563 23.4126C229.738 24.588 229.743 26.2989 228.561 27.4501C227.386 28.624 225.676 28.6283 224.525 27.4471C223.351 26.2718 223.346 24.5619 224.528 23.4111C225.677 22.2636 227.414 22.2641 228.563 23.4126Z" fill="white" stroke="white" stroke-width="0.616667"/>
<path d="M243.592 42.5921L243.591 42.5923C242.411 43.7087 240.704 43.6749 239.558 42.4976C238.409 41.3169 238.443 39.6061 239.651 38.4601C240.83 37.3151 242.57 37.3442 243.689 38.5563C244.836 39.7373 244.8 41.4471 243.592 42.5921Z" fill="white" stroke="white" stroke-width="0.616667"/>
<path d="M258.721 57.5739L258.721 57.5739L258.718 57.5769C257.546 58.7493 255.838 58.7871 254.656 57.637C253.48 56.4931 253.441 54.7537 254.594 53.5995C255.741 52.423 257.478 52.3899 258.658 53.5379C259.836 54.684 259.87 56.3935 258.721 57.5739Z" fill="white" stroke="white" stroke-width="0.616667"/>
<path d="M243.529 23.3495L243.529 23.3497C244.733 24.4906 244.806 26.1997 243.684 27.3854L243.684 27.3855C242.543 28.5898 240.833 28.6619 239.648 27.5403L239.647 27.5402C238.443 26.3997 238.371 24.6916 239.491 23.5059C240.606 22.2972 242.345 22.2301 243.529 23.3495Z" fill="white" stroke="white" stroke-width="0.616667"/>
<path d="M254.697 42.5923L254.697 42.5923L254.694 42.5893C253.523 41.4499 253.446 39.7105 254.604 38.5518C255.746 37.3799 257.483 37.3092 258.667 38.4616C259.841 39.6031 259.912 41.3125 258.759 42.4976L258.759 42.4976L258.756 42.5006C257.584 43.6724 255.879 43.7102 254.697 42.5923Z" fill="white" stroke="white" stroke-width="0.616667"/>
<path d="M254.572 27.4457C253.423 26.2653 253.457 24.5558 254.635 23.4097C255.816 22.2612 257.526 22.2949 258.672 23.4728C259.821 24.6533 259.787 26.3628 258.609 27.5089C257.428 28.6574 255.718 28.6236 254.572 27.4457Z" fill="white" stroke="white" stroke-width="0.616667"/>
<path d="M198.521 57.5457L198.521 57.5457C197.942 58.1404 197.231 58.4588 196.505 58.4711C195.779 58.4833 195.066 58.1887 194.483 57.6073C193.309 56.4632 193.271 54.7234 194.453 53.5698C195.6 52.3948 197.307 52.3621 198.487 53.5097C199.67 54.6602 199.666 56.3699 198.521 57.5457Z" fill="white" stroke="white" stroke-width="0.616667"/>
<path d="M198.442 38.4015L198.442 38.4016C199.647 39.5425 199.719 41.2517 198.597 42.4374L198.597 42.4375C197.456 43.6418 195.746 43.7139 194.561 42.5923L194.56 42.5922C193.356 41.4517 193.284 39.7435 194.404 38.5579C195.519 37.3492 197.258 37.2821 198.442 38.4015Z" fill="white" stroke="white" stroke-width="0.616667"/>
<path d="M213.597 57.5739L213.597 57.574L213.591 57.5798C212.394 58.7446 210.688 58.7913 209.53 57.6356C208.356 56.4916 208.318 54.7532 209.47 53.5995C210.616 52.423 212.354 52.3899 213.534 53.5379C214.712 54.684 214.745 56.3935 213.597 57.5739Z" fill="white" stroke="white" stroke-width="0.616667"/>
<path d="M168.508 12.368L168.508 12.368L168.505 12.371C167.913 12.9635 167.196 13.2807 166.469 13.2969C165.74 13.3132 165.026 13.0271 164.443 12.4597C163.272 11.3203 163.195 9.58088 164.353 8.42216C165.495 7.25028 167.232 7.17957 168.417 8.33198C169.59 9.47348 169.661 11.1829 168.508 12.368Z" fill="white" stroke="white" stroke-width="0.616667"/>
<path d="M183.555 12.3967L183.555 12.3967L183.552 12.3997C182.379 13.572 180.672 13.6099 179.49 12.4598C178.314 11.3158 178.275 9.5764 179.428 8.42219C180.574 7.24568 182.312 7.21258 183.492 8.36057C184.67 9.50667 184.704 11.2162 183.555 12.3967Z" fill="white" stroke="white" stroke-width="0.616667"/>
<path d="M104.145 8.42393C105.289 7.21946 107.029 7.18138 108.183 8.33378C109.355 9.47482 109.426 11.1824 108.275 12.3669C107.129 13.5751 105.418 13.6088 104.237 12.46C103.066 11.3212 102.99 9.58267 104.145 8.42393Z" fill="white" stroke="white" stroke-width="0.616667"/>
<path d="M123.439 12.2694L123.439 12.2695L123.433 12.2764C122.3 13.5039 120.593 13.6471 119.372 12.5542L119.371 12.5539C118.14 11.4491 117.996 9.71084 119.092 8.51709C120.196 7.28834 121.931 7.14399 123.125 8.23615C124.396 9.32028 124.492 11.0571 123.439 12.2694Z" fill="white" stroke="white" stroke-width="0.616667"/>
<path d="M138.336 12.3965L138.336 12.3965L138.333 12.3995C137.753 12.9791 137.043 13.2888 136.318 13.2969C135.593 13.3051 134.88 13.011 134.298 12.4296C133.119 11.2811 133.118 9.54266 134.266 8.39352C135.415 7.21466 137.154 7.21436 138.303 8.36194C139.484 9.51253 139.48 11.2212 138.336 12.3965Z" fill="white" stroke="white" stroke-width="0.616667"/>
<path d="M149.328 12.4313L149.328 12.4313L149.325 12.4283C148.149 11.2529 148.145 9.54194 149.326 8.39067C150.504 7.21463 152.213 7.21513 153.39 8.39218C154.566 9.56807 154.571 11.28 153.387 12.4313L153.387 12.4313L153.384 12.4341C152.181 13.5738 150.507 13.5778 149.328 12.4313Z" fill="white" stroke="white" stroke-width="0.616667"/>
<path d="M243.789 12.368L243.789 12.3681C242.617 13.5721 240.907 13.6105 239.724 12.4597C238.553 11.3203 238.477 9.58088 239.634 8.42216C240.776 7.25028 242.513 7.17957 243.698 8.33198C244.871 9.47349 244.943 11.1829 243.789 12.368Z" fill="white" stroke="white" stroke-width="0.616667"/>
<path d="M258.836 12.3967L258.836 12.3967L258.833 12.3997C257.661 13.572 255.953 13.6099 254.771 12.4598C253.595 11.3158 253.556 9.5764 254.709 8.42218C255.856 7.24568 257.593 7.21259 258.773 8.36057C259.951 9.50666 259.985 11.2162 258.836 12.3967Z" fill="white" stroke="white" stroke-width="0.616667"/>
<path d="M198.702 12.2729L198.702 12.2732C197.595 13.5063 195.887 13.6458 194.667 12.5542L194.666 12.5539C193.435 11.4491 193.291 9.71086 194.387 8.51713C195.491 7.28794 197.228 7.14397 198.421 8.23753C199.658 9.31813 199.792 11.0557 198.702 12.2729Z" fill="white" stroke="white" stroke-width="0.616667"/>
<path d="M209.579 12.4296C208.4 11.2811 208.4 9.54266 209.548 8.39353C210.696 7.21465 212.435 7.21435 213.584 8.36197C214.765 9.51255 214.761 11.2212 213.617 12.3965C212.471 13.5746 210.76 13.6086 209.579 12.4296Z" fill="white" stroke="white" stroke-width="0.616667"/>
<path d="M224.609 12.4313L224.609 12.4313L224.606 12.4283C223.431 11.2529 223.426 9.54195 224.608 8.39069C225.785 7.21463 227.494 7.21513 228.672 8.39217C229.848 9.56806 229.852 11.28 228.669 12.4313C227.492 13.5763 225.786 13.5763 224.609 12.4313Z" fill="white" stroke="white" stroke-width="0.616667"/>
<path d="M269.65 27.4802L269.65 27.4802L269.647 27.4773C268.472 26.3024 268.467 24.5924 269.647 23.4412C270.796 22.2633 272.535 22.264 273.684 23.4126C274.859 24.588 274.864 26.2989 273.682 27.4502C272.505 28.6255 270.827 28.6254 269.65 27.4802Z" fill="white" stroke="white" stroke-width="0.616667"/>
<path d="M273.75 57.5452L273.75 57.5452L273.747 57.5482C273.168 58.1278 272.457 58.4375 271.732 58.4456C271.008 58.4538 270.294 58.1597 269.712 57.5783C268.537 56.4337 268.499 54.6929 269.683 53.5392C270.83 52.3947 272.536 52.3618 273.716 53.5092C274.899 54.6598 274.895 56.3694 273.75 57.5452Z" fill="white" stroke="white" stroke-width="0.616667"/>
<path d="M273.671 38.4015L273.671 38.4016C274.875 39.5425 274.947 41.2517 273.826 42.4374L273.825 42.4375C272.684 43.6418 270.975 43.7139 269.789 42.5923L269.789 42.5922C268.585 41.4517 268.512 39.7436 269.633 38.5579C270.748 37.3492 272.487 37.2821 273.671 38.4015Z" fill="white" stroke="white" stroke-width="0.616667"/>
<path d="M273.984 12.2728L273.984 12.2732C272.877 13.5063 271.168 13.6458 269.948 12.5542L269.948 12.5539C268.716 11.4491 268.572 9.71083 269.668 8.51708C270.773 7.28785 272.509 7.14388 273.703 8.23746C274.939 9.31807 275.073 11.0556 273.984 12.2728Z" fill="white" stroke="white" stroke-width="0.616667"/>
</g>
</g>
<defs>
<linearGradient id="paint0_linear_3841_4756" x1="0" y1="0" x2="176.672" y2="496.622" gradientUnits="userSpaceOnUse">
<stop stop-color="#5162FF"/>
<stop offset="1" stop-color="#778DFF"/>
</linearGradient>
<clipPath id="clip0_3841_4756">
<rect width="378" height="425" fill="white"/>
</clipPath>
<clipPath id="clip1_3841_4756">
<rect width="171.776" height="111.883" fill="white" transform="matrix(1 0 0 -1 102 462.883)"/>
</clipPath>
<clipPath id="clip2_3841_4756">
<rect width="172.05" height="112.233" fill="white" transform="matrix(1 0 0 -1 103 59.2)"/>
</clipPath>
</defs>
</svg>
