<svg width="120" height="121" viewBox="0 0 120 121" fill="none" xmlns="http://www.w3.org/2000/svg">
<path d="M98.9997 26.7607L91.9043 106.248L60.0098 115.09L28.2033 106.26L21.1152 26.7607H98.9997Z" fill="#E44D26"/>
<path d="M60.0586 108.331L85.8309 101.186L91.8941 33.2607H60.0586V108.331Z" fill="#F16529"/>
<path d="M46.2637 52.7605H60.0571V43.0103H35.6079L35.8412 45.626L38.2377 72.4953H60.0571V62.745H47.1549L46.2637 52.7605Z" fill="#EBEBEB"/>
<path d="M48.4617 77.3711H38.6738L40.0397 92.6806L60.0126 98.2248L60.0575 98.2126V88.0681L60.0147 88.0794L49.1559 85.1473L48.4617 77.3711Z" fill="#EBEBEB"/>
<path d="M28.3604 5.15576H33.3153V10.0512H37.8481V5.15576H42.8034V19.9804H37.8484V15.0163H33.3156V19.9804H28.3607V5.15576H28.3604Z" fill="#555555"/>
<path d="M49.3205 10.072H44.959V5.15576H58.6406V10.072H54.2764V19.9804H49.3214V10.072H49.3211H49.3205Z" fill="#555555"/>
<path d="M60.811 5.15576H65.9776L69.1557 10.3647L72.3308 5.15576H77.4995V19.9804H72.5647V12.6325L69.1557 17.9035H69.0703L65.6592 12.6325V19.9804H60.811V5.15576Z" fill="#555555"/>
<path d="M79.9661 5.15576H84.9226V15.0804H91.8908V19.9804H79.9658V5.15576H79.9661Z" fill="#555555"/>
<path d="M60.0233 72.4964H72.0297L70.8977 85.1418L60.0229 88.077V98.2208L80.0117 92.6811L80.1583 91.0338L82.4498 65.3643L82.6876 62.7461H60.0233V72.4964Z" fill="#3F3E44"/>
<path d="M60.0249 52.7367V52.7605H83.5765L83.7719 50.5691L84.2164 45.626L84.4493 43.0103H60.0249V52.737V52.7367Z" fill="#3F3E44"/>
</svg>
