<svg width="120" height="121" viewBox="0 0 120 121" fill="none" xmlns="http://www.w3.org/2000/svg">
<path d="M10 11H110V111H10V11Z" fill="#F7DF1E"/>
<path d="M36.2938 94.5671L43.9462 89.9358C45.4228 92.5534 46.7657 94.7683 49.9872 94.7683C53.0751 94.7683 55.0224 93.5605 55.0224 88.862V56.9097H64.4196V88.9948C64.4196 98.728 58.7142 103.158 50.3899 103.158C42.8724 103.158 38.5087 99.2651 36.2935 94.5663" fill="#3F3E44"/>
<path d="M69.5238 93.56L77.1754 89.1299C79.1898 92.4193 81.8078 94.8357 86.4391 94.8357C90.3332 94.8357 92.816 92.8889 92.816 90.2037C92.816 86.9818 90.2652 85.8404 85.9691 83.9615L83.6203 82.9537C76.8402 80.0682 72.343 76.4432 72.343 68.7908C72.343 61.7424 77.7129 56.3721 86.1039 56.3721C92.0781 56.3721 96.3742 58.4533 99.4617 63.8904L92.1445 68.5896C90.5332 65.7033 88.7887 64.5623 86.1035 64.5623C83.3512 64.5623 81.6059 66.3076 81.6059 68.5896C81.6059 71.4088 83.3512 72.5506 87.3785 74.2959L89.7277 75.3025C97.716 78.7264 102.213 82.2166 102.213 90.0697C102.213 98.5283 95.568 103.16 86.6402 103.16C77.9141 103.16 72.2754 98.9979 69.5234 93.5604" fill="#3F3E44"/>
</svg>
