<svg width="28" height="28" viewBox="0 0 28 28" fill="none" xmlns="http://www.w3.org/2000/svg">
<path d="M27.1354 14.006C27.1354 21.3513 21.1509 27.3329 13.8021 27.3329C6.45331 27.3329 0.46875 21.3513 0.46875 14.006C0.46875 6.64793 6.45331 0.66626 13.8021 0.66626C21.1509 0.66626 27.1354 6.64793 27.1354 14.006Z" fill="url(#paint0_linear_4280_1788)"/>
<path d="M19.1356 14.0063C19.1356 14.3433 19.0295 14.6816 18.8174 14.9524C18.7776 15.0056 18.592 15.2246 18.4462 15.3672L18.3666 15.445C17.253 16.6257 14.4822 18.4013 13.0769 18.9703C13.0769 18.9832 12.2416 19.3215 11.8439 19.3332H11.7909C11.181 19.3332 10.611 18.9975 10.3193 18.4531C10.1602 18.1537 10.0144 17.2854 10.0011 17.2737C9.88179 16.4948 9.80225 15.3024 9.80225 13.9934C9.80225 12.6208 9.88179 11.3753 10.0276 10.6106C10.0276 10.5977 10.1735 9.89777 10.2663 9.66448C10.4121 9.3288 10.6772 9.04236 11.0087 8.86091C11.2738 8.7326 11.5522 8.6665 11.8439 8.6665C12.1488 8.68076 12.7189 8.87388 12.9443 8.9646C14.4291 9.53487 17.2663 11.4012 18.3534 12.5418C18.539 12.7232 18.7379 12.9448 18.7909 12.9954C19.0163 13.2805 19.1356 13.6305 19.1356 14.0063Z" fill="white"/>
<defs>
<linearGradient id="paint0_linear_4280_1788" x1="0.46875" y1="0.66626" x2="10.5651" y2="32.5759" gradientUnits="userSpaceOnUse">
<stop stop-color="#5162FF"/>
<stop offset="1" stop-color="#778DFF"/>
</linearGradient>
</defs>
</svg>
