<svg width="41" height="41" viewBox="0 0 41 41" fill="none" xmlns="http://www.w3.org/2000/svg">
<path opacity="0.4" d="M37.5233 20.5082C37.5233 29.6897 30.0426 37.1668 20.8566 37.1668C11.6706 37.1668 4.18994 29.6897 4.18994 20.5082C4.18994 11.3106 11.6706 3.8335 20.8566 3.8335C30.0426 3.8335 37.5233 11.3106 37.5233 20.5082Z" fill="url(#paint0_linear_3238_5420)"/>
<path d="M27.5231 20.5083C27.5231 20.9295 27.3905 21.3523 27.1254 21.6909C27.0757 21.7574 26.8437 22.0311 26.6614 22.2094L26.5619 22.3066C25.1699 23.7825 21.7064 26.002 19.9497 26.7132C19.9497 26.7294 18.9057 27.1523 18.4085 27.1668H18.3422C17.5799 27.1668 16.8673 26.7472 16.5028 26.0668C16.3039 25.6925 16.1216 24.6071 16.105 24.5925C15.9559 23.6188 15.8564 22.1284 15.8564 20.4921C15.8564 18.7764 15.9559 17.2195 16.1382 16.2636C16.1382 16.2474 16.3205 15.3726 16.4365 15.081C16.6188 14.6614 16.9502 14.3033 17.3645 14.0765C17.6959 13.9161 18.0439 13.8335 18.4085 13.8335C18.7897 13.8513 19.5023 14.0927 19.784 14.2061C21.6401 14.919 25.1865 17.2519 26.5454 18.6776C26.7774 18.9044 27.026 19.1814 27.0922 19.2446C27.374 19.601 27.5231 20.0384 27.5231 20.5083Z" fill="url(#paint1_linear_3238_5420)"/>
<defs>
<linearGradient id="paint0_linear_3238_5420" x1="39.5604" y1="2.40567" x2="-5.94339" y2="38.763" gradientUnits="userSpaceOnUse">
<stop offset="0.317465" stop-color="#5DA0EF"/>
<stop offset="1" stop-color="#44FF78"/>
</linearGradient>
<linearGradient id="paint1_linear_3238_5420" x1="28.2361" y1="13.2624" x2="10.7092" y2="25.5158" gradientUnits="userSpaceOnUse">
<stop offset="0.317465" stop-color="#5DA0EF"/>
<stop offset="1" stop-color="#44FF78"/>
</linearGradient>
</defs>
</svg>
