<svg width="144" height="145" viewBox="0 0 144 145" fill="none" xmlns="http://www.w3.org/2000/svg">
<circle cx="73.5" cy="71" r="68" stroke="url(#paint0_linear_3841_6115)" stroke-width="4.17178"/>
<path d="M132.069 105.55C126.638 114.756 119.115 122.551 110.108 128.305C101.101 134.059 90.8653 137.608 80.2302 138.666C69.595 139.724 58.8603 138.26 48.8968 134.393C38.9332 130.526 30.0215 124.365 22.8844 116.41C15.7473 108.455 10.5858 98.929 7.81869 88.6058C5.05157 78.2826 4.7567 67.4526 6.95802 56.9941C9.15933 46.5357 13.7948 36.7434 20.4885 28.4115C27.1822 20.0796 35.7455 13.4429 45.4839 9.03956" stroke="url(#paint1_linear_3841_6115)" stroke-width="10.0123" stroke-linecap="round"/>
<path d="M49.3771 88.0073C46.5789 88.0073 44.1353 87.3845 42.0463 86.1387C39.9573 84.8929 38.3378 83.1489 37.1879 80.9065C36.0379 78.645 35.463 76.0097 35.463 73.0008C35.463 69.7618 36.0283 66.7432 37.1591 63.9451C38.2899 61.1277 39.7752 58.5691 41.6151 56.2693C43.455 53.9502 45.4482 51.9379 47.5947 50.2321C49.7413 48.5264 51.8303 47.1657 53.8618 46.1499L58.979 50.1746C57.9633 50.6729 56.7367 51.3821 55.2993 52.302C53.881 53.222 52.4148 54.324 50.9008 55.6081C49.3867 56.873 47.9684 58.3008 46.646 59.8916C45.3428 61.4823 44.2791 63.2168 43.455 65.095C42.65 66.954 42.2475 68.9377 42.2475 71.0459L40.1777 68.516C41.1934 66.8678 42.5446 65.5358 44.2312 64.52C45.9177 63.5042 48.1122 62.9964 50.8145 62.9964C53.0569 62.9964 55.0693 63.5138 56.8517 64.5488C58.634 65.5837 60.0331 67.0115 61.0489 68.8323C62.0838 70.653 62.6013 72.7516 62.6013 75.1281C62.6013 77.6771 62.0647 79.9195 60.9914 81.8552C59.9181 83.7909 58.3849 85.305 56.3917 86.3974C54.4176 87.4707 52.0794 88.0073 49.3771 88.0073ZM49.4921 81.9127C51.332 81.9127 52.8652 81.2803 54.0918 80.0153C55.3184 78.7504 55.9317 77.2172 55.9317 75.4156C55.9317 73.5949 55.3184 72.0904 54.0918 70.9021C52.8652 69.6947 51.332 69.091 49.4921 69.091C47.6331 69.091 46.0902 69.6947 44.8636 70.9021C43.6562 72.0904 43.0525 73.5949 43.0525 75.4156C43.0525 77.2172 43.6562 78.7504 44.8636 80.0153C46.0902 81.2803 47.6331 81.9127 49.4921 81.9127ZM67.5186 87.2024L78.098 70.9309C79.497 68.7843 80.6182 66.9732 81.4615 65.4975C82.324 64.0217 82.9468 62.728 83.3301 61.6164C83.7135 60.5048 83.9051 59.4124 83.9051 58.3391C83.9051 56.6909 83.4356 55.3972 82.4964 54.4581C81.5765 53.519 80.2828 53.0495 78.6154 53.0495C76.6031 53.0495 74.7919 53.5478 73.182 54.5444C71.5913 55.541 70.1634 56.6717 68.8985 57.9367L67.9786 50.5196C69.7035 49.1397 71.5338 48.0664 73.4695 47.2998C75.4244 46.5332 77.638 46.1499 80.1103 46.1499C82.5444 46.1499 84.5663 46.6482 86.1762 47.6448C87.8053 48.6414 89.0223 49.9638 89.8273 51.6121C90.6322 53.2603 91.0347 55.0618 91.0347 57.0167C91.0347 58.5308 90.8239 60.0545 90.4022 61.5877C89.9806 63.1018 89.281 64.7883 88.3036 66.6474C87.3453 68.4873 86.0516 70.6434 84.4226 73.1157L79.7079 80.3028H92.4721V87.2024H67.5186ZM101.058 79.0462C100.114 79.0462 99.3091 78.8211 98.6424 78.3708C97.9844 77.9119 97.4822 77.2885 97.1358 76.5006C96.7895 75.704 96.6163 74.7949 96.6163 73.7732C96.6163 72.2233 97.0233 70.9852 97.8372 70.0587C98.6511 69.1236 99.7247 68.6561 101.058 68.6561C102.4 68.6561 103.474 69.1236 104.279 70.0587C105.093 70.9852 105.5 72.2233 105.5 73.7732C105.5 74.7949 105.322 75.704 104.967 76.5006C104.621 77.2885 104.115 77.9119 103.448 78.3708C102.79 78.8211 101.993 79.0462 101.058 79.0462ZM101.058 76.7863C101.63 76.7863 102.071 76.5266 102.383 76.0071C102.695 75.4789 102.85 74.7343 102.85 73.7732C102.85 72.8121 102.686 72.0978 102.357 71.6302C102.037 71.154 101.604 70.9159 101.058 70.9159C100.513 70.9159 100.075 71.154 99.7464 71.6302C99.426 72.0978 99.2658 72.8121 99.2658 73.7732C99.2658 74.7343 99.413 75.4789 99.7074 76.0071C100.002 76.5266 100.452 76.7863 101.058 76.7863ZM100.72 87.2024L111.448 69.0197H114.02L103.318 87.2024H100.72ZM113.656 87.566C112.712 87.566 111.907 87.3409 111.24 86.8907C110.582 86.4318 110.08 85.8084 109.734 85.0205C109.387 84.2239 109.214 83.3148 109.214 82.2931C109.214 80.7432 109.621 79.5051 110.435 78.5786C111.249 77.6435 112.323 77.176 113.656 77.176C114.998 77.176 116.072 77.6435 116.877 78.5786C117.691 79.5051 118.098 80.7432 118.098 82.2931C118.098 83.3148 117.92 84.2239 117.565 85.0205C117.219 85.8084 116.713 86.4318 116.046 86.8907C115.388 87.3409 114.591 87.566 113.656 87.566ZM113.656 85.3062C114.228 85.3062 114.669 85.0464 114.981 84.5269C115.293 83.9988 115.448 83.2542 115.448 82.2931C115.448 81.332 115.284 80.6177 114.955 80.1501C114.634 79.6739 114.202 79.4358 113.656 79.4358C113.111 79.4358 112.673 79.6739 112.344 80.1501C112.024 80.6177 111.864 81.332 111.864 82.2931C111.864 83.2542 112.011 83.9988 112.305 84.5269C112.6 85.0464 113.05 85.3062 113.656 85.3062Z" fill="white"/>
<defs>
<linearGradient id="paint0_linear_3841_6115" x1="5.5" y1="3" x2="56.9916" y2="165.739" gradientUnits="userSpaceOnUse">
<stop stop-color="#5162FF"/>
<stop offset="1" stop-color="#778DFF"/>
</linearGradient>
<linearGradient id="paint1_linear_3841_6115" x1="-10.0635" y1="-1.6821" x2="122.995" y2="153.088" gradientUnits="userSpaceOnUse">
<stop stop-color="#FF6BDF"/>
<stop offset="1" stop-color="#A400CD"/>
</linearGradient>
</defs>
</svg>
