<svg width="150" height="151" viewBox="0 0 150 151" fill="none" xmlns="http://www.w3.org/2000/svg">
<circle cx="75.5" cy="75.5" r="69.5" stroke="url(#paint0_linear_3842_6801)" stroke-width="4.2638"/>
<path d="M83.1927 144.573C69.3822 146.111 55.4277 143.474 43.1309 137.002C30.8342 130.53 20.7598 120.521 14.2085 108.266C7.65728 96.0113 4.92998 82.0741 6.37877 68.2539C7.82755 54.4338 13.3859 41.3652 22.3361 30.7356C31.2864 20.1059 43.2175 12.4033 56.5891 8.62229C69.9607 4.84123 84.1587 5.15533 97.35 9.52405C110.541 13.8928 122.12 22.1155 130.592 33.1305C139.063 44.1456 144.038 57.4472 144.874 71.3179" stroke="url(#paint1_linear_3842_6801)" stroke-width="10.2331" stroke-linecap="round"/>
<path d="M38.3281 92.8467L53.7245 55.8836L55.84 58.7631H36.3301V51.7113H63.3619L46.2026 92.8467H38.3281ZM82.7286 92.8467V83.4443H62.2197L84.8441 51.7113H89.9567V77.3328H95.2455V83.4443H89.9567V92.8467H82.7286ZM72.0922 79.8009L70.6818 77.3328H82.7286V59.8209L84.6678 61.9364L72.0922 79.8009ZM104.068 84.5105C103.103 84.5105 102.28 84.2805 101.599 83.8203C100.926 83.3513 100.413 82.7141 100.059 81.9088C99.705 81.0947 99.528 80.1655 99.528 79.1213C99.528 77.5372 99.9439 76.2717 100.776 75.3249C101.608 74.3691 102.705 73.8913 104.068 73.8913C105.439 73.8913 106.537 74.3691 107.36 75.3249C108.192 76.2717 108.607 77.5372 108.607 79.1213C108.607 80.1655 108.426 81.0947 108.063 81.9088C107.709 82.7141 107.192 83.3513 106.51 83.8203C105.838 84.2805 105.023 84.5105 104.068 84.5105ZM104.068 82.2008C104.652 82.2008 105.103 81.9354 105.422 81.4044C105.74 80.8646 105.9 80.1035 105.9 79.1213C105.9 78.139 105.731 77.4089 105.395 76.931C105.068 76.4443 104.625 76.201 104.068 76.201C103.51 76.201 103.063 76.4443 102.727 76.931C102.4 77.4089 102.236 78.139 102.236 79.1213C102.236 80.1035 102.386 80.8646 102.687 81.4044C102.988 81.9354 103.448 82.2008 104.068 82.2008ZM103.723 92.8467L114.687 74.2629H117.315L106.377 92.8467H103.723ZM116.944 93.2184C115.979 93.2184 115.156 92.9883 114.475 92.5281C113.802 92.0591 113.289 91.4219 112.935 90.6166C112.581 89.8025 112.404 88.8733 112.404 87.8291C112.404 86.245 112.82 84.9796 113.652 84.0327C114.483 83.0769 115.581 82.5991 116.944 82.5991C118.315 82.5991 119.413 83.0769 120.236 84.0327C121.067 84.9796 121.483 86.245 121.483 87.8291C121.483 88.8733 121.302 89.8025 120.939 90.6166C120.585 91.4219 120.067 92.0591 119.386 92.5281C118.714 92.9883 117.899 93.2184 116.944 93.2184ZM116.944 90.9087C117.528 90.9087 117.979 90.6432 118.298 90.1122C118.616 89.5724 118.775 88.8114 118.775 87.8291C118.775 86.8468 118.607 86.1167 118.271 85.6388C117.944 85.1521 117.501 84.9088 116.944 84.9088C116.386 84.9088 115.939 85.1521 115.603 85.6388C115.276 86.1167 115.112 86.8468 115.112 87.8291C115.112 88.8114 115.262 89.5724 115.563 90.1122C115.864 90.6432 116.324 90.9087 116.944 90.9087Z" fill="white"/>
<defs>
<linearGradient id="paint0_linear_3842_6801" x1="144.925" y1="6.00001" x2="-4.33686" y2="162.925" gradientUnits="userSpaceOnUse">
<stop offset="0.422408" stop-color="#EF5DA8"/>
<stop offset="1" stop-color="#FFDA44"/>
</linearGradient>
<linearGradient id="paint1_linear_3842_6801" x1="153.495" y1="0.0459488" x2="-36.256" y2="151.656" gradientUnits="userSpaceOnUse">
<stop offset="0.317465" stop-color="#5DA0EF"/>
<stop offset="1" stop-color="#44FF78"/>
</linearGradient>
</defs>
</svg>
