<svg width="120" height="121" viewBox="0 0 120 121" fill="none" xmlns="http://www.w3.org/2000/svg">
<path d="M92.2199 45.6981C91.1557 45.3348 90.0824 44.9981 89.0012 44.6886C89.1828 43.95 89.35 43.2203 89.4984 42.5035C91.9352 30.7321 90.3422 21.2488 84.9012 18.1265C79.6844 15.1332 71.1527 18.2544 62.5363 25.717C61.6871 26.4538 60.8568 27.2118 60.0461 27.9903C59.5034 27.4726 58.9511 26.965 58.3895 26.4677C49.359 18.4884 40.3074 15.1254 34.8723 18.2567C29.6602 21.2593 28.1168 30.1743 30.3105 41.3303C30.5288 42.4352 30.7752 43.5344 31.0496 44.6268C29.7684 44.9891 28.532 45.3747 27.3488 45.7852C16.7613 49.4588 10 55.2156 10 61.187C10 67.3544 17.2586 73.5403 28.2859 77.2913C29.1799 77.5941 30.0814 77.8748 30.9895 78.1329C30.6945 79.3095 30.4327 80.494 30.2043 81.6852C28.1129 92.6476 29.7461 101.352 34.9441 104.335C40.3129 107.417 49.3238 104.25 58.0977 96.617C58.8091 95.9965 59.5049 95.3584 60.1844 94.7033C61.0623 95.5463 61.9637 96.3647 62.8875 97.1577C71.3867 104.436 79.7805 107.375 84.9734 104.383C90.3371 101.293 92.0805 91.942 89.8172 80.5656C89.6389 79.6744 89.439 78.7875 89.2176 77.9059C89.8504 77.7193 90.4715 77.5272 91.077 77.3274C102.541 73.5477 110 67.4368 110 61.187C110 55.1938 103.02 49.3981 92.2199 45.6981ZM89.7336 73.2923C89.1867 73.4723 88.6258 73.6461 88.0539 73.8152C86.7883 69.8279 85.0805 65.5883 82.9902 61.2076C84.9848 56.9315 86.627 52.746 87.857 48.7847C88.8801 49.0794 89.8727 49.39 90.8297 49.7177C100.084 52.8882 105.728 57.5753 105.728 61.187C105.728 65.034 99.632 70.0281 89.7336 73.2923ZM85.6266 81.3913C86.6273 86.4216 86.7699 90.9698 86.107 94.5256C85.5117 97.7206 84.3141 99.8505 82.8328 100.704C79.6816 102.519 72.9422 100.16 65.6738 93.9351C64.8146 93.1978 63.9761 92.4369 63.1594 91.6532C65.9773 88.5865 68.7934 85.0213 71.5418 81.0617C76.3762 80.6348 80.9434 79.9366 85.0852 78.9839C85.2891 79.8029 85.4703 80.6061 85.6266 81.3913ZM44.0922 100.39C41.0133 101.472 38.5609 101.503 37.0785 100.653C33.9242 98.8422 32.6129 91.853 34.4016 82.4782C34.6142 81.3704 34.8576 80.2687 35.1316 79.1743C39.2277 80.0762 43.7617 80.7246 48.6074 81.1157C51.3746 84.9902 54.2719 88.5515 57.1918 91.6699C56.5713 92.2675 55.9361 92.8497 55.2867 93.4161C51.4066 96.7912 47.5187 99.1858 44.0922 100.39ZM29.668 73.2686C24.7918 71.6099 20.7648 69.4543 18.0047 67.1021C15.5242 64.9885 14.2723 62.8897 14.2723 61.187C14.2723 57.5632 19.7008 52.9411 28.7551 49.7997C29.8539 49.4188 31.0039 49.0592 32.1973 48.7217C33.4488 52.7724 35.0902 57.0077 37.0711 61.2904C35.0645 65.6365 33.3996 69.9395 32.1359 74.0379C31.3071 73.8017 30.4842 73.5451 29.668 73.2686ZM34.5031 40.5135C32.6238 30.9556 33.8719 23.7457 37.0129 21.9361C40.3582 20.0088 47.7559 22.7568 55.5531 29.6468C56.0616 30.0971 56.5618 30.5565 57.0535 31.0248C54.148 34.1297 51.2773 37.6645 48.5348 41.5161C43.8316 41.9499 39.3297 42.6465 35.1906 43.5799C34.9356 42.5638 34.7064 41.5415 34.5031 40.5139V40.5135ZM77.6387 51.1137C76.661 49.4331 75.6471 47.7737 74.5977 46.1366C77.7883 46.5382 80.8453 47.0712 83.716 47.7227C82.8543 50.4718 81.7801 53.3458 80.5156 56.2924C79.5914 54.5473 78.6322 52.8207 77.6387 51.1137ZM60.048 34.0632C62.0184 36.1877 63.9918 38.5594 65.9328 41.1328C61.9953 40.9477 58.0512 40.947 54.1137 41.1305C56.0566 38.5807 58.0469 36.2122 60.048 34.0632ZM42.3445 51.1428C41.3634 52.8361 40.4221 54.5519 39.5215 56.2889C38.2777 53.3528 37.2133 50.4656 36.3441 47.6776C39.1973 47.0424 42.2398 46.523 45.4102 46.1289C44.349 47.7759 43.3268 49.4476 42.3445 51.1424V51.1428ZM45.5012 76.5476C42.2258 76.1838 39.1375 75.6912 36.2852 75.0731C37.168 72.2354 38.2559 69.2868 39.5266 66.2877C40.4308 68.0259 41.376 69.7428 42.3613 71.4369C43.3746 73.1784 44.4238 74.8842 45.5012 76.5476ZM60.166 88.6102C58.141 86.4363 56.1215 84.0312 54.1492 81.4446C56.0641 81.5192 58.016 81.5573 60 81.5573C62.0383 81.5573 64.0531 81.5118 66.0363 81.424C64.0891 84.0573 62.123 86.4659 60.166 88.6102ZM80.5559 66.1345C81.8926 69.1667 83.0191 72.0997 83.9137 74.8889C81.0145 75.5474 77.884 76.0776 74.5855 76.4714C75.6425 74.804 76.666 73.1157 77.6555 71.4077C78.6615 69.6716 79.6285 67.9134 80.5559 66.1345ZM73.9551 69.2837C72.4403 71.9024 70.8404 74.4713 69.1578 76.9865C66.11 77.2013 63.0555 77.308 60 77.3064C56.8879 77.3064 53.8609 77.21 50.9461 77.0219C49.2196 74.5125 47.5892 71.939 46.0582 69.307H46.0586C44.5348 66.6889 43.1115 64.0141 41.7918 61.2885C43.1082 58.5622 44.5272 55.8862 46.0457 53.2661L46.0453 53.2665C47.5633 50.6457 49.1807 48.0832 50.8941 45.5846C53.868 45.3607 56.9176 45.2441 59.9996 45.2441H60C63.0961 45.2441 66.1496 45.3619 69.1227 45.5873C70.8188 48.0822 72.4259 50.6359 73.941 53.2435C75.4646 55.8579 76.9024 58.5209 78.252 61.2282C76.9162 63.9633 75.483 66.6501 73.9551 69.2837ZM82.7676 21.8094C86.116 23.7313 87.4184 31.4816 85.3145 41.6452C85.1801 42.2936 85.0293 42.954 84.8652 43.6238C80.716 42.6706 76.2109 41.962 71.4941 41.5215C68.7465 37.6275 65.8992 34.0873 63.041 31.0225C63.7901 30.3039 64.557 29.604 65.341 28.9233C72.7238 22.5297 79.6238 20.0053 82.7676 21.8094ZM60 52.3005C64.9316 52.3005 68.9297 56.2792 68.9297 61.187C68.9297 66.0948 64.9316 70.0736 60 70.0736C55.0684 70.0736 51.0703 66.0948 51.0703 61.187C51.0703 56.2792 55.0684 52.3005 60 52.3005Z" fill="#00D8FF"/>
</svg>
