<svg width="120" height="121" viewBox="0 0 120 121" fill="none" xmlns="http://www.w3.org/2000/svg">
<path d="M105.71 74.6683C105.274 74.5206 104.834 74.3837 104.39 74.2579C104.465 73.9575 104.534 73.6609 104.594 73.3694C105.593 68.5833 104.94 64.7275 102.709 63.458C100.571 62.241 97.0726 63.51 93.5399 66.5442C93.1917 66.8438 92.8513 67.152 92.5189 67.4685C92.2964 67.2581 92.0699 67.0516 91.8397 66.8494C88.1372 63.6052 84.426 62.2378 82.1976 63.511C80.0607 64.7318 79.4279 68.3565 80.3273 72.8924C80.4168 73.3416 80.5178 73.7886 80.6303 74.2327C80.105 74.38 79.5981 74.5368 79.113 74.7037C74.7721 76.1974 72 78.538 72 80.9659C72 83.4735 74.976 85.9886 79.4972 87.5137C79.8638 87.6369 80.2334 87.751 80.6057 87.8559C80.4848 88.3343 80.3774 88.8159 80.2838 89.3002C79.4263 93.7574 80.0959 97.2965 82.2271 98.5096C84.4283 99.7623 88.1228 98.4748 91.72 95.3713C92.0117 95.119 92.297 94.8596 92.5756 94.5932C92.9356 94.936 93.3051 95.2688 93.6839 95.5912C97.1686 98.5503 100.61 99.7452 102.739 98.5288C104.938 97.2724 105.653 93.4706 104.725 88.845C104.652 88.4827 104.57 88.1221 104.479 87.7636C104.739 87.6877 104.993 87.6097 105.242 87.5284C109.942 85.9916 113 83.507 113 80.9659C113 78.5292 110.138 76.1727 105.71 74.6683ZM104.691 85.8878C104.467 85.961 104.237 86.0316 104.002 86.1004C103.483 84.4792 102.783 82.7554 101.926 80.9743C102.744 79.2357 103.417 77.5339 103.921 75.9233C104.341 76.0431 104.748 76.1694 105.14 76.3026C108.934 77.5917 111.249 79.4974 111.249 80.9659C111.249 82.5301 108.749 84.5606 104.691 85.8878ZM103.007 89.1807C103.417 91.226 103.476 93.0753 103.204 94.521C102.96 95.8201 102.469 96.6861 101.861 97.033C100.569 97.7711 97.8063 96.8117 94.8263 94.2809C94.474 93.9811 94.1302 93.6718 93.7953 93.3531C94.9507 92.1062 96.1053 90.6567 97.2321 89.0467C99.2142 88.8732 101.087 88.5893 102.785 88.2019C102.869 88.5349 102.943 88.8615 103.007 89.1807ZM85.9778 96.9054C84.7154 97.3453 83.71 97.358 83.1022 97.0121C81.8089 96.2761 81.2713 93.4344 82.0046 89.6227C82.0918 89.1723 82.1916 88.7243 82.304 88.2794C83.9834 88.646 85.8423 88.9097 87.829 89.0687C88.9636 90.644 90.1515 92.092 91.3486 93.3599C91.0942 93.6029 90.8338 93.8396 90.5676 94.0699C88.9767 95.4422 87.3827 96.4158 85.9778 96.9054ZM80.0639 85.8782C78.0646 85.2037 76.4136 84.3273 75.2819 83.3709C74.2649 82.5116 73.7516 81.6582 73.7516 80.9659C73.7516 79.4925 75.9773 77.6132 79.6896 76.336C80.1401 76.1811 80.6116 76.0349 81.1009 75.8977C81.614 77.5446 82.287 79.2667 83.0991 81.008C82.2764 82.775 81.5938 84.5246 81.0757 86.191C80.7359 86.0949 80.3985 85.9906 80.0639 85.8782ZM82.0463 72.5603C81.2758 68.6742 81.7875 65.7427 83.0753 65.007C84.4469 64.2233 87.4799 65.3406 90.6768 68.142C90.8852 68.3251 91.0903 68.5119 91.2919 68.7023C90.1007 69.9647 88.9237 71.4019 87.7993 72.968C85.871 73.1443 84.0252 73.4276 82.3282 73.8071C82.2236 73.3939 82.1296 72.9783 82.0463 72.5605V72.5603ZM99.7319 76.8702C99.331 76.1869 98.9153 75.5122 98.485 74.8466C99.7932 75.0099 101.047 75.2266 102.224 75.4915C101.87 76.6093 101.43 77.7778 100.911 78.9758C100.532 78.2663 100.139 77.5643 99.7319 76.8702ZM92.5197 69.9377C93.3275 70.8015 94.1366 71.7658 94.9325 72.8121C93.3181 72.7369 91.701 72.7366 90.0866 72.8112C90.8832 71.7745 91.6992 70.8114 92.5197 69.9377ZM85.2613 76.8821C84.859 77.5705 84.4731 78.2682 84.1038 78.9744C83.5939 77.7806 83.1574 76.6067 82.8011 75.4731C83.9709 75.2149 85.2183 75.0037 86.5182 74.8435C86.0831 75.5131 85.664 76.1928 85.2613 76.8819V76.8821ZM86.5555 87.2114C85.2126 87.0634 83.9464 86.8632 82.7769 86.6119C83.1389 85.458 83.5849 84.2592 84.1059 83.0398C84.4766 83.7465 84.8642 84.4446 85.2681 85.1334C85.6836 85.8415 86.1138 86.535 86.5555 87.2114ZM92.5681 92.1159C91.7378 91.232 90.9098 90.2541 90.1012 89.2024C90.8863 89.2327 91.6866 89.2482 92.5 89.2482C93.3357 89.2482 94.1618 89.2297 94.9749 89.194C94.1765 90.2647 93.3704 91.244 92.5681 92.1159ZM100.928 82.9775C101.476 84.2103 101.938 85.4029 102.305 86.5369C101.116 86.8047 99.8324 87.0203 98.4801 87.1804C98.9134 86.5024 99.3331 85.816 99.7387 85.1215C100.151 84.4157 100.548 83.7008 100.928 82.9775ZM98.2216 84.2579C97.6005 85.3227 96.9446 86.3672 96.2547 87.3898C95.0051 87.4772 93.7527 87.5205 92.5 87.5199C91.224 87.5199 89.983 87.4807 88.7879 87.4042C88.08 86.3839 87.4116 85.3376 86.7839 84.2674H86.784C86.1593 83.2029 85.5757 82.1154 85.0346 81.0072C85.5744 79.8987 86.1561 78.8107 86.7787 77.7454L86.7786 77.7455C87.4009 76.6799 88.0641 75.6381 88.7666 74.6222C89.9859 74.5311 91.2362 74.4837 92.4998 74.4837H92.5C93.7694 74.4837 95.0213 74.5316 96.2403 74.6233C96.9357 75.6377 97.5946 76.6759 98.2158 77.7362C98.8405 78.7992 99.43 79.8819 99.9833 80.9827C99.4356 82.0947 98.848 83.1872 98.2216 84.2579ZM101.835 64.9554C103.208 65.7369 103.742 68.888 102.879 73.0204C102.824 73.2841 102.762 73.5526 102.695 73.8249C100.994 73.4374 99.1465 73.1492 97.2126 72.9702C96.0861 71.3869 94.9187 69.9475 93.7468 68.7014C94.0539 68.4092 94.3684 68.1246 94.6898 67.8479C97.7168 65.2483 100.546 64.2219 101.835 64.9554ZM92.5 77.3528C94.522 77.3528 96.1612 78.9705 96.1612 80.9659C96.1612 82.9614 94.522 84.5791 92.5 84.5791C90.478 84.5791 88.8388 82.9614 88.8388 80.9659C88.8388 78.9705 90.478 77.3528 92.5 77.3528Z" fill="#00D8FF"/>
<g clip-path="url(#clip0_3238_5101)">
<path d="M53.4239 67.5201C55.8964 67.2636 57.7721 65.1275 57.6868 62.5638C57.6017 60.0004 55.47 57.9495 52.9123 57.9495H52.7419C50.0985 58.035 48.0524 60.2567 48.1377 62.9056C48.2231 64.1874 48.7345 65.2982 49.5018 66.0673C46.603 71.7927 42.1695 75.9797 35.5192 79.4831C31.0004 81.8758 26.3112 82.7304 21.622 82.1323C17.7852 81.6195 14.801 79.9107 12.925 77.0905C10.1969 72.9035 9.94119 68.3744 12.2433 63.8456C13.8633 60.5984 16.4208 58.2058 18.0409 57.0094C17.6998 55.8986 17.1882 54.0188 16.9325 52.6517C4.56968 61.624 5.8487 73.758 9.60017 79.4831C12.4136 83.7559 18.1262 86.4049 24.4354 86.4049C26.1405 86.4049 27.8456 86.2338 29.551 85.8068C40.4644 83.6704 48.7347 77.176 53.4239 67.5201ZM68.4298 56.9242C61.9499 49.3189 52.4009 45.1319 41.4875 45.1319H40.1234C39.356 43.5938 37.736 42.5683 35.9456 42.5683H35.7749C33.1321 42.6538 31.086 44.8754 31.171 47.5246C31.2564 50.088 33.3878 52.1389 35.9456 52.1389H36.1159C37.9917 52.0534 39.6117 50.857 40.2938 49.2334H41.8285C48.3084 49.2334 54.447 51.1133 59.9891 54.7878C64.252 57.6077 67.3215 61.2822 69.0266 65.7255C70.476 69.3145 70.3906 72.818 68.8559 75.8089C66.4688 80.3377 62.4616 82.8159 57.1754 82.8159C53.7649 82.8159 50.5251 81.7903 48.8198 81.0212C47.882 81.8758 46.1767 83.2429 44.983 84.0977C48.6494 85.8066 52.4009 86.7466 55.9817 86.7466C64.1667 86.7466 70.2203 82.2176 72.5223 77.6888C74.9948 72.7325 74.8242 64.1874 68.4298 56.9242ZM25.1175 68.9725C25.2028 71.5361 27.3342 73.5868 29.892 73.5868H30.0627C32.7058 73.5015 34.7519 71.2796 34.6665 68.6307C34.5815 66.067 32.4498 64.0164 29.892 64.0164H29.7216C29.551 64.0164 29.295 64.0164 29.1249 64.1016C25.6291 58.291 24.1797 51.9679 24.6914 45.1317C25.0322 40.0046 26.7375 35.561 29.7216 31.8866C32.1941 28.7249 36.9686 27.1868 40.2087 27.1015C49.2461 26.9305 53.0826 38.21 53.3386 42.739C54.447 42.9953 56.3227 43.5936 57.6017 44.0209C56.5784 30.178 48.0524 23 39.8677 23C32.1941 23 25.1175 28.5544 22.3037 36.7576C18.3819 47.6953 20.9397 58.2058 25.7142 66.4946C25.2881 67.0926 25.0322 68.0327 25.1175 68.9727V68.9725Z" fill="#A67FE3"/>
</g>
<defs>
<clipPath id="clip0_3238_5101">
<rect width="67" height="64" fill="white" transform="translate(7 23)"/>
</clipPath>
</defs>
</svg>
