<svg width="1440" height="603" viewBox="0 0 1440 603" fill="none" xmlns="http://www.w3.org/2000/svg">
<path d="M1184.17 496.373C1183.54 480.093 1196.22 466.383 1212.5 465.751L1441.68 456.857L1443.97 515.813L1214.79 524.707C1198.51 525.338 1184.8 512.653 1184.17 496.373Z" fill="#EF9A5D"/>
<path d="M1161.15 481.254C1160.52 464.974 1173.2 451.264 1189.48 450.633L1441.06 440.87L1443.35 499.825L1191.77 509.588C1175.49 510.22 1161.78 497.535 1161.15 481.254Z" fill="#EF5DA8"/>
<path d="M1138.05 464.137C1137.42 447.857 1150.1 434.148 1166.38 433.516L1440.37 422.884L1442.65 481.839L1168.67 492.471C1152.39 493.103 1138.68 480.418 1138.05 464.137Z" fill="#5DA0EF"/>
<path d="M254.867 84.6706C255.499 100.951 242.814 114.661 226.533 115.292L27.2007 123.028C10.9205 123.66 -2.78928 110.974 -3.42105 94.6939L-4.56498 65.216L224.246 56.3367C240.526 55.7049 254.236 68.3905 254.867 84.6706Z" fill="#EF9A5D"/>
<path d="M275.986 99.8632C276.618 116.143 263.933 129.853 247.653 130.485L27.8208 139.016C11.5406 139.648 -2.1692 126.962 -2.80098 110.682L-3.94491 81.2041L245.365 71.5293C261.645 70.8976 275.355 83.5831 275.986 99.8632Z" fill="#EF5DA8"/>
<path d="M297.184 117.054C297.815 133.334 285.13 147.044 268.85 147.676L28.5189 157.002C12.2388 157.634 -1.47104 144.949 -2.10281 128.668L-3.24674 99.1905L266.562 88.7202C282.842 88.0885 296.552 100.774 297.184 117.054Z" fill="#5DA0EF"/>
<rect x="121" y="237.778" width="186" height="301" rx="40" fill="url(#paint0_linear_3238_4370)"/>
<circle cx="1233" cy="121" r="93" fill="url(#paint1_linear_3238_4370)"/>
<rect x="-19.6426" y="116.874" width="1476.76" height="404.151" transform="rotate(-2.22232 -19.6426 116.874)" fill="url(#paint2_linear_3238_4370)"/>
<g filter="url(#filter0_f_3238_4370)">
<rect x="293" y="123" width="854" height="357" rx="82" fill="#5DA0EF" fill-opacity="0.34"/>
</g>
<g opacity="0.13">
<path d="M1245.21 261.903C1245.99 263.308 1247.9 267.554 1245.54 271.259C1243.23 274.892 1244 277.243 1244.76 279.594M1264.79 305.33C1264.01 303.925 1262.1 299.679 1264.46 295.974C1266.77 292.341 1266 289.99 1265.24 287.639M1245.21 305.33C1245.99 303.925 1247.9 299.679 1245.54 295.974C1243.23 292.341 1244 289.99 1244.76 287.639M1264.79 261.903C1264.01 263.308 1262.1 267.554 1264.46 271.259C1266.77 274.892 1266 277.243 1265.24 279.594M1255.13 306L1255.13 260.409M1260.3 283.204H1249.96M1245.21 196.199C1245.99 197.604 1247.9 201.85 1245.54 205.554C1243.23 209.187 1244 211.538 1244.76 213.889M1264.79 239.625C1264.01 238.22 1262.1 233.974 1264.46 230.269C1266.77 226.636 1266 224.286 1265.24 221.935M1245.21 239.625C1245.99 238.22 1247.9 233.974 1245.54 230.269C1243.23 226.636 1244 224.286 1244.76 221.935M1264.79 196.199C1264.01 197.604 1262.1 201.85 1264.46 205.554C1266.77 209.187 1266 211.538 1265.24 213.889M1255.13 240.295L1255.13 194.704M1260.3 217.5L1249.96 217.5M1245.21 130.494C1245.99 131.899 1247.9 136.145 1245.54 139.85C1243.23 143.483 1244 145.834 1244.76 148.184M1264.79 173.92C1264.01 172.515 1262.1 168.27 1264.46 164.565C1266.77 160.932 1266 158.581 1265.24 156.23M1245.21 173.92C1245.99 172.515 1247.9 168.27 1245.54 164.565C1243.23 160.932 1244 158.581 1244.76 156.23M1264.79 130.494C1264.01 131.899 1262.1 136.145 1264.46 139.85C1266.77 143.483 1266 145.834 1265.24 148.184M1255.13 174.591L1255.13 129M1260.3 151.795L1249.96 151.795" stroke="#D2BFF0" stroke-width="4" stroke-linejoin="round"/>
<path d="M1245.21 456.903C1245.99 458.308 1247.9 462.554 1245.54 466.259C1243.23 469.892 1244 472.243 1244.76 474.594M1264.79 500.33C1264.01 498.925 1262.1 494.679 1264.46 490.974C1266.77 487.341 1266 484.99 1265.24 482.639M1245.21 500.33C1245.99 498.925 1247.9 494.679 1245.54 490.974C1243.23 487.341 1244 484.99 1244.76 482.639M1264.79 456.903C1264.01 458.308 1262.1 462.554 1264.46 466.259C1266.77 469.892 1266 472.243 1265.24 474.594M1255.13 501L1255.13 455.409M1260.3 478.204H1249.96M1245.21 391.199C1245.99 392.604 1247.9 396.85 1245.54 400.554C1243.23 404.187 1244 406.538 1244.76 408.889M1264.79 434.625C1264.01 433.22 1262.1 428.974 1264.46 425.269C1266.77 421.636 1266 419.286 1265.24 416.935M1245.21 434.625C1245.99 433.22 1247.9 428.974 1245.54 425.269C1243.23 421.636 1244 419.286 1244.76 416.935M1264.79 391.199C1264.01 392.604 1262.1 396.85 1264.46 400.554C1266.77 404.187 1266 406.538 1265.24 408.889M1255.13 435.295L1255.13 389.704M1260.3 412.5L1249.96 412.5M1245.21 325.494C1245.99 326.899 1247.9 331.145 1245.54 334.85C1243.23 338.483 1244 340.834 1244.76 343.184M1264.79 368.92C1264.01 367.515 1262.1 363.27 1264.46 359.565C1266.77 355.932 1266 353.581 1265.24 351.23M1245.21 368.92C1245.99 367.515 1247.9 363.27 1245.54 359.565C1243.23 355.932 1244 353.581 1244.76 351.23M1264.79 325.494C1264.01 326.899 1262.1 331.145 1264.46 334.85C1266.77 338.483 1266 340.834 1265.24 343.184M1255.13 369.591L1255.13 324M1260.3 346.795L1249.96 346.795" stroke="#D2BFF0" stroke-width="4" stroke-linejoin="round"/>
<path d="M1287.27 261.903C1288.08 263.308 1290.08 267.554 1287.61 271.259C1285.2 274.892 1286 277.243 1286.8 279.594M1307.73 305.33C1306.92 303.925 1304.92 299.679 1307.39 295.974C1309.8 292.341 1309 289.99 1308.2 287.639M1287.27 305.33C1288.08 303.925 1290.08 299.679 1287.61 295.974C1285.2 292.341 1286 289.99 1286.8 287.639M1307.73 261.903C1306.92 263.308 1304.92 267.554 1307.39 271.259C1309.8 274.892 1309 277.243 1308.2 279.594M1297.64 306L1297.64 260.409M1303.04 283.204H1292.24M1287.27 196.199C1288.08 197.604 1290.08 201.85 1287.61 205.554C1285.2 209.187 1286 211.538 1286.8 213.889M1307.73 239.625C1306.92 238.22 1304.92 233.974 1307.39 230.269C1309.8 226.636 1309 224.286 1308.2 221.935M1287.27 239.625C1288.08 238.22 1290.08 233.974 1287.61 230.269C1285.2 226.636 1286 224.286 1286.8 221.935M1307.73 196.199C1306.92 197.604 1304.92 201.85 1307.39 205.554C1309.8 209.187 1309 211.538 1308.2 213.889M1297.64 240.295L1297.64 194.704M1303.04 217.5L1292.24 217.5M1287.27 130.494C1288.08 131.899 1290.08 136.145 1287.61 139.85C1285.2 143.483 1286 145.834 1286.8 148.184M1307.73 173.92C1306.92 172.515 1304.92 168.27 1307.39 164.565C1309.8 160.932 1309 158.581 1308.2 156.23M1287.27 173.92C1288.08 172.515 1290.08 168.27 1287.61 164.565C1285.2 160.932 1286 158.581 1286.8 156.23M1307.73 130.494C1306.92 131.899 1304.92 136.145 1307.39 139.85C1309.8 143.483 1309 145.834 1308.2 148.184M1297.64 174.591L1297.64 129M1303.04 151.795L1292.24 151.795" stroke="#D2BFF0" stroke-width="4" stroke-linejoin="round"/>
<path d="M1287.27 456.903C1288.08 458.308 1290.08 462.554 1287.61 466.259C1285.2 469.892 1286 472.243 1286.8 474.594M1307.73 500.33C1306.92 498.925 1304.92 494.679 1307.39 490.974C1309.8 487.341 1309 484.99 1308.2 482.639M1287.27 500.33C1288.08 498.925 1290.08 494.679 1287.61 490.974C1285.2 487.341 1286 484.99 1286.8 482.639M1307.73 456.903C1306.92 458.308 1304.92 462.554 1307.39 466.259C1309.8 469.892 1309 472.243 1308.2 474.594M1297.64 501L1297.64 455.409M1303.04 478.204H1292.24M1287.27 391.199C1288.08 392.604 1290.08 396.85 1287.61 400.554C1285.2 404.187 1286 406.538 1286.8 408.889M1307.73 434.625C1306.92 433.22 1304.92 428.974 1307.39 425.269C1309.8 421.636 1309 419.286 1308.2 416.935M1287.27 434.625C1288.08 433.22 1290.08 428.974 1287.61 425.269C1285.2 421.636 1286 419.286 1286.8 416.935M1307.73 391.199C1306.92 392.604 1304.92 396.85 1307.39 400.554C1309.8 404.187 1309 406.538 1308.2 408.889M1297.64 435.295L1297.64 389.704M1303.04 412.5L1292.24 412.5M1287.27 325.494C1288.08 326.899 1290.08 331.145 1287.61 334.85C1285.2 338.483 1286 340.834 1286.8 343.184M1307.73 368.92C1306.92 367.515 1304.92 363.27 1307.39 359.565C1309.8 355.932 1309 353.581 1308.2 351.23M1287.27 368.92C1288.08 367.515 1290.08 363.27 1287.61 359.565C1285.2 355.932 1286 353.581 1286.8 351.23M1307.73 325.494C1306.92 326.899 1304.92 331.145 1307.39 334.85C1309.8 338.483 1309 340.834 1308.2 343.184M1297.64 369.591L1297.64 324M1303.04 346.795L1292.24 346.795" stroke="#D2BFF0" stroke-width="4" stroke-linejoin="round"/>
<path d="M233.212 261.903C233.994 263.308 235.9 267.554 233.543 271.259C231.232 274.892 231.998 277.243 232.765 279.594M252.788 305.33C252.006 303.925 250.1 299.679 252.457 295.974C254.768 292.341 254.002 289.99 253.235 287.639M233.212 305.33C233.994 303.925 235.9 299.679 233.543 295.974C231.232 292.341 231.998 289.99 232.765 287.639M252.788 261.903C252.006 263.308 250.1 267.554 252.457 271.259C254.768 274.892 254.002 277.243 253.235 279.594M243.132 306L243.132 260.409M248.299 283.204H237.964M233.212 196.199C233.994 197.604 235.9 201.85 233.543 205.554C231.232 209.187 231.998 211.538 232.765 213.889M252.788 239.625C252.006 238.22 250.1 233.974 252.457 230.269C254.768 226.636 254.002 224.286 253.235 221.935M233.212 239.625C233.994 238.22 235.9 233.974 233.543 230.269C231.232 226.636 231.998 224.286 232.765 221.935M252.788 196.199C252.006 197.604 250.1 201.85 252.457 205.554C254.768 209.187 254.002 211.538 253.235 213.889M243.132 240.295L243.132 194.704M248.299 217.5L237.964 217.5M233.212 130.494C233.994 131.899 235.9 136.145 233.543 139.85C231.232 143.483 231.998 145.834 232.765 148.184M252.788 173.92C252.006 172.515 250.1 168.27 252.457 164.565C254.768 160.932 254.002 158.581 253.235 156.23M233.212 173.92C233.994 172.515 235.9 168.27 233.543 164.565C231.232 160.932 231.998 158.581 232.765 156.23M252.788 130.494C252.006 131.899 250.1 136.145 252.457 139.85C254.768 143.483 254.002 145.834 253.235 148.184M243.132 174.591L243.132 129M248.299 151.795L237.964 151.795" stroke="#D2BFF0" stroke-width="4" stroke-linejoin="round"/>
<path d="M233.212 456.903C233.994 458.308 235.9 462.554 233.543 466.259C231.232 469.892 231.998 472.243 232.765 474.594M252.788 500.33C252.006 498.925 250.1 494.679 252.457 490.974C254.768 487.341 254.002 484.99 253.235 482.639M233.212 500.33C233.994 498.925 235.9 494.679 233.543 490.974C231.232 487.341 231.998 484.99 232.765 482.639M252.788 456.903C252.006 458.308 250.1 462.554 252.457 466.259C254.768 469.892 254.002 472.243 253.235 474.594M243.132 501L243.132 455.409M248.299 478.204H237.964M233.212 391.199C233.994 392.604 235.9 396.85 233.543 400.554C231.232 404.187 231.998 406.538 232.765 408.889M252.788 434.625C252.006 433.22 250.1 428.974 252.457 425.269C254.768 421.636 254.002 419.286 253.235 416.935M233.212 434.625C233.994 433.22 235.9 428.974 233.543 425.269C231.232 421.636 231.998 419.286 232.765 416.935M252.788 391.199C252.006 392.604 250.1 396.85 252.457 400.554C254.768 404.187 254.002 406.538 253.235 408.889M243.132 435.295L243.132 389.704M248.299 412.5L237.964 412.5M233.212 325.494C233.994 326.899 235.9 331.145 233.543 334.85C231.232 338.483 231.998 340.834 232.765 343.184M252.788 368.92C252.006 367.515 250.1 363.27 252.457 359.565C254.768 355.932 254.002 353.581 253.235 351.23M233.212 368.92C233.994 367.515 235.9 363.27 233.543 359.565C231.232 355.932 231.998 353.581 232.765 351.23M252.788 325.494C252.006 326.899 250.1 331.145 252.457 334.85C254.768 338.483 254.002 340.834 253.235 343.184M243.132 369.591L243.132 324M248.299 346.795L237.964 346.795" stroke="#D2BFF0" stroke-width="4" stroke-linejoin="round"/>
<path d="M275.267 261.903C276.084 263.308 278.077 267.554 275.613 271.259C273.197 274.892 273.998 277.243 274.799 279.594M295.733 305.33C294.916 303.925 292.923 299.679 295.387 295.974C297.803 292.341 297.002 289.99 296.201 287.639M275.267 305.33C276.084 303.925 278.077 299.679 275.613 295.974C273.197 292.341 273.998 289.99 274.799 287.639M295.733 261.903C294.916 263.308 292.923 267.554 295.387 271.259C297.803 274.892 297.002 277.243 296.201 279.594M285.638 306L285.638 260.409M291.04 283.204H280.236M275.267 196.199C276.084 197.604 278.077 201.85 275.613 205.554C273.197 209.187 273.998 211.538 274.799 213.889M295.733 239.625C294.916 238.22 292.923 233.974 295.387 230.269C297.803 226.636 297.002 224.286 296.201 221.935M275.267 239.625C276.084 238.22 278.077 233.974 275.613 230.269C273.197 226.636 273.998 224.286 274.799 221.935M295.733 196.199C294.916 197.604 292.923 201.85 295.387 205.554C297.803 209.187 297.002 211.538 296.201 213.889M285.638 240.295L285.638 194.704M291.04 217.5L280.236 217.5M275.267 130.494C276.084 131.899 278.077 136.145 275.613 139.85C273.197 143.483 273.998 145.834 274.799 148.184M295.733 173.92C294.916 172.515 292.923 168.27 295.387 164.565C297.803 160.932 297.002 158.581 296.201 156.23M275.267 173.92C276.084 172.515 278.077 168.27 275.613 164.565C273.197 160.932 273.998 158.581 274.799 156.23M295.733 130.494C294.916 131.899 292.923 136.145 295.387 139.85C297.803 143.483 297.002 145.834 296.201 148.184M285.638 174.591L285.638 129M291.04 151.795L280.236 151.795" stroke="#D2BFF0" stroke-width="4" stroke-linejoin="round"/>
<path d="M275.267 456.903C276.084 458.308 278.077 462.554 275.613 466.259C273.197 469.892 273.998 472.243 274.799 474.594M295.733 500.33C294.916 498.925 292.923 494.679 295.387 490.974C297.803 487.341 297.002 484.99 296.201 482.639M275.267 500.33C276.084 498.925 278.077 494.679 275.613 490.974C273.197 487.341 273.998 484.99 274.799 482.639M295.733 456.903C294.916 458.308 292.923 462.554 295.387 466.259C297.803 469.892 297.002 472.243 296.201 474.594M285.638 501L285.638 455.409M291.04 478.204H280.236M275.267 391.199C276.084 392.604 278.077 396.85 275.613 400.554C273.197 404.187 273.998 406.538 274.799 408.889M295.733 434.625C294.916 433.22 292.923 428.974 295.387 425.269C297.803 421.636 297.002 419.286 296.201 416.935M275.267 434.625C276.084 433.22 278.077 428.974 275.613 425.269C273.197 421.636 273.998 419.286 274.799 416.935M295.733 391.199C294.916 392.604 292.923 396.85 295.387 400.554C297.803 404.187 297.002 406.538 296.201 408.889M285.638 435.295L285.638 389.704M291.04 412.5L280.236 412.5M275.267 325.494C276.084 326.899 278.077 331.145 275.613 334.85C273.197 338.483 273.998 340.834 274.799 343.184M295.733 368.92C294.916 367.515 292.923 363.27 295.387 359.565C297.803 355.932 297.002 353.581 296.201 351.23M275.267 368.92C276.084 367.515 278.077 363.27 275.613 359.565C273.197 355.932 273.998 353.581 274.799 351.23M295.733 325.494C294.916 326.899 292.923 331.145 295.387 334.85C297.803 338.483 297.002 340.834 296.201 343.184M285.638 369.591L285.638 324M291.04 346.795L280.236 346.795" stroke="#D2BFF0" stroke-width="4" stroke-linejoin="round"/>
<path d="M1144.21 261.903C1144.99 263.308 1146.9 267.554 1144.54 271.259C1142.23 274.892 1143 277.243 1143.76 279.594M1163.79 305.33C1163.01 303.925 1161.1 299.679 1163.46 295.974C1165.77 292.341 1165 289.99 1164.24 287.639M1144.21 305.33C1144.99 303.925 1146.9 299.679 1144.54 295.974C1142.23 292.341 1143 289.99 1143.76 287.639M1163.79 261.903C1163.01 263.308 1161.1 267.554 1163.46 271.259C1165.77 274.892 1165 277.243 1164.24 279.594M1154.13 306L1154.13 260.409M1159.3 283.204H1148.96M1144.21 196.199C1144.99 197.604 1146.9 201.85 1144.54 205.554C1142.23 209.187 1143 211.538 1143.76 213.889M1163.79 239.625C1163.01 238.22 1161.1 233.974 1163.46 230.269C1165.77 226.636 1165 224.286 1164.24 221.935M1144.21 239.625C1144.99 238.22 1146.9 233.974 1144.54 230.269C1142.23 226.636 1143 224.286 1143.76 221.935M1163.79 196.199C1163.01 197.604 1161.1 201.85 1163.46 205.554C1165.77 209.187 1165 211.538 1164.24 213.889M1154.13 240.295L1154.13 194.704M1159.3 217.5L1148.96 217.5M1144.21 130.494C1144.99 131.899 1146.9 136.145 1144.54 139.85C1142.23 143.483 1143 145.834 1143.76 148.184M1163.79 173.92C1163.01 172.515 1161.1 168.27 1163.46 164.565C1165.77 160.932 1165 158.581 1164.24 156.23M1144.21 173.92C1144.99 172.515 1146.9 168.27 1144.54 164.565C1142.23 160.932 1143 158.581 1143.76 156.23M1163.79 130.494C1163.01 131.899 1161.1 136.145 1163.46 139.85C1165.77 143.483 1165 145.834 1164.24 148.184M1154.13 174.591L1154.13 129M1159.3 151.795L1148.96 151.795" stroke="#D2BFF0" stroke-width="4" stroke-linejoin="round"/>
<path d="M1144.21 456.903C1144.99 458.308 1146.9 462.554 1144.54 466.259C1142.23 469.892 1143 472.243 1143.76 474.594M1163.79 500.33C1163.01 498.925 1161.1 494.679 1163.46 490.974C1165.77 487.341 1165 484.99 1164.24 482.639M1144.21 500.33C1144.99 498.925 1146.9 494.679 1144.54 490.974C1142.23 487.341 1143 484.99 1143.76 482.639M1163.79 456.903C1163.01 458.308 1161.1 462.554 1163.46 466.259C1165.77 469.892 1165 472.243 1164.24 474.594M1154.13 501L1154.13 455.409M1159.3 478.204H1148.96M1144.21 391.199C1144.99 392.604 1146.9 396.85 1144.54 400.554C1142.23 404.187 1143 406.538 1143.76 408.889M1163.79 434.625C1163.01 433.22 1161.1 428.974 1163.46 425.269C1165.77 421.636 1165 419.286 1164.24 416.935M1144.21 434.625C1144.99 433.22 1146.9 428.974 1144.54 425.269C1142.23 421.636 1143 419.286 1143.76 416.935M1163.79 391.199C1163.01 392.604 1161.1 396.85 1163.46 400.554C1165.77 404.187 1165 406.538 1164.24 408.889M1154.13 435.295L1154.13 389.704M1159.3 412.5L1148.96 412.5M1144.21 325.494C1144.99 326.899 1146.9 331.145 1144.54 334.85C1142.23 338.483 1143 340.834 1143.76 343.184M1163.79 368.92C1163.01 367.515 1161.1 363.27 1163.46 359.565C1165.77 355.932 1165 353.581 1164.24 351.23M1144.21 368.92C1144.99 367.515 1146.9 363.27 1144.54 359.565C1142.23 355.932 1143 353.581 1143.76 351.23M1163.79 325.494C1163.01 326.899 1161.1 331.145 1163.46 334.85C1165.77 338.483 1165 340.834 1164.24 343.184M1154.13 369.591L1154.13 324M1159.3 346.795L1148.96 346.795" stroke="#D2BFF0" stroke-width="4" stroke-linejoin="round"/>
<path d="M1186.27 261.903C1187.08 263.308 1189.08 267.554 1186.61 271.259C1184.2 274.892 1185 277.243 1185.8 279.594M1206.73 305.33C1205.92 303.925 1203.92 299.679 1206.39 295.974C1208.8 292.341 1208 289.99 1207.2 287.639M1186.27 305.33C1187.08 303.925 1189.08 299.679 1186.61 295.974C1184.2 292.341 1185 289.99 1185.8 287.639M1206.73 261.903C1205.92 263.308 1203.92 267.554 1206.39 271.259C1208.8 274.892 1208 277.243 1207.2 279.594M1196.64 306L1196.64 260.409M1202.04 283.204H1191.24M1186.27 196.199C1187.08 197.604 1189.08 201.85 1186.61 205.554C1184.2 209.187 1185 211.538 1185.8 213.889M1206.73 239.625C1205.92 238.22 1203.92 233.974 1206.39 230.269C1208.8 226.636 1208 224.286 1207.2 221.935M1186.27 239.625C1187.08 238.22 1189.08 233.974 1186.61 230.269C1184.2 226.636 1185 224.286 1185.8 221.935M1206.73 196.199C1205.92 197.604 1203.92 201.85 1206.39 205.554C1208.8 209.187 1208 211.538 1207.2 213.889M1196.64 240.295L1196.64 194.704M1202.04 217.5L1191.24 217.5M1186.27 130.494C1187.08 131.899 1189.08 136.145 1186.61 139.85C1184.2 143.483 1185 145.834 1185.8 148.184M1206.73 173.92C1205.92 172.515 1203.92 168.27 1206.39 164.565C1208.8 160.932 1208 158.581 1207.2 156.23M1186.27 173.92C1187.08 172.515 1189.08 168.27 1186.61 164.565C1184.2 160.932 1185 158.581 1185.8 156.23M1206.73 130.494C1205.92 131.899 1203.92 136.145 1206.39 139.85C1208.8 143.483 1208 145.834 1207.2 148.184M1196.64 174.591L1196.64 129M1202.04 151.795L1191.24 151.795" stroke="#D2BFF0" stroke-width="4" stroke-linejoin="round"/>
<path d="M1186.27 456.903C1187.08 458.308 1189.08 462.554 1186.61 466.259C1184.2 469.892 1185 472.243 1185.8 474.594M1206.73 500.33C1205.92 498.925 1203.92 494.679 1206.39 490.974C1208.8 487.341 1208 484.99 1207.2 482.639M1186.27 500.33C1187.08 498.925 1189.08 494.679 1186.61 490.974C1184.2 487.341 1185 484.99 1185.8 482.639M1206.73 456.903C1205.92 458.308 1203.92 462.554 1206.39 466.259C1208.8 469.892 1208 472.243 1207.2 474.594M1196.64 501L1196.64 455.409M1202.04 478.204H1191.24M1186.27 391.199C1187.08 392.604 1189.08 396.85 1186.61 400.554C1184.2 404.187 1185 406.538 1185.8 408.889M1206.73 434.625C1205.92 433.22 1203.92 428.974 1206.39 425.269C1208.8 421.636 1208 419.286 1207.2 416.935M1186.27 434.625C1187.08 433.22 1189.08 428.974 1186.61 425.269C1184.2 421.636 1185 419.286 1185.8 416.935M1206.73 391.199C1205.92 392.604 1203.92 396.85 1206.39 400.554C1208.8 404.187 1208 406.538 1207.2 408.889M1196.64 435.295L1196.64 389.704M1202.04 412.5L1191.24 412.5M1186.27 325.494C1187.08 326.899 1189.08 331.145 1186.61 334.85C1184.2 338.483 1185 340.834 1185.8 343.184M1206.73 368.92C1205.92 367.515 1203.92 363.27 1206.39 359.565C1208.8 355.932 1208 353.581 1207.2 351.23M1186.27 368.92C1187.08 367.515 1189.08 363.27 1186.61 359.565C1184.2 355.932 1185 353.581 1185.8 351.23M1206.73 325.494C1205.92 326.899 1203.92 331.145 1206.39 334.85C1208.8 338.483 1208 340.834 1207.2 343.184M1196.64 369.591L1196.64 324M1202.04 346.795L1191.24 346.795" stroke="#D2BFF0" stroke-width="4" stroke-linejoin="round"/>
<path d="M132.212 261.903C132.994 263.308 134.9 267.554 132.543 271.259C130.232 274.892 130.998 277.243 131.765 279.594M151.788 305.33C151.006 303.925 149.1 299.679 151.457 295.974C153.768 292.341 153.002 289.99 152.235 287.639M132.212 305.33C132.994 303.925 134.9 299.679 132.543 295.974C130.232 292.341 130.998 289.99 131.765 287.639M151.788 261.903C151.006 263.308 149.1 267.554 151.457 271.259C153.768 274.892 153.002 277.243 152.235 279.594M142.132 306L142.132 260.409M147.299 283.204H136.964M132.212 196.199C132.994 197.604 134.9 201.85 132.543 205.554C130.232 209.187 130.998 211.538 131.765 213.889M151.788 239.625C151.006 238.22 149.1 233.974 151.457 230.269C153.768 226.636 153.002 224.286 152.235 221.935M132.212 239.625C132.994 238.22 134.9 233.974 132.543 230.269C130.232 226.636 130.998 224.286 131.765 221.935M151.788 196.199C151.006 197.604 149.1 201.85 151.457 205.554C153.768 209.187 153.002 211.538 152.235 213.889M142.132 240.295L142.132 194.704M147.299 217.5L136.964 217.5M132.212 130.494C132.994 131.899 134.9 136.145 132.543 139.85C130.232 143.483 130.998 145.834 131.765 148.184M151.788 173.92C151.006 172.515 149.1 168.27 151.457 164.565C153.768 160.932 153.002 158.581 152.235 156.23M132.212 173.92C132.994 172.515 134.9 168.27 132.543 164.565C130.232 160.932 130.998 158.581 131.765 156.23M151.788 130.494C151.006 131.899 149.1 136.145 151.457 139.85C153.768 143.483 153.002 145.834 152.235 148.184M142.132 174.591L142.132 129M147.299 151.795L136.964 151.795" stroke="#D2BFF0" stroke-width="4" stroke-linejoin="round"/>
<path d="M132.212 456.903C132.994 458.308 134.9 462.554 132.543 466.259C130.232 469.892 130.998 472.243 131.765 474.594M151.788 500.33C151.006 498.925 149.1 494.679 151.457 490.974C153.768 487.341 153.002 484.99 152.235 482.639M132.212 500.33C132.994 498.925 134.9 494.679 132.543 490.974C130.232 487.341 130.998 484.99 131.765 482.639M151.788 456.903C151.006 458.308 149.1 462.554 151.457 466.259C153.768 469.892 153.002 472.243 152.235 474.594M142.132 501L142.132 455.409M147.299 478.204H136.964M132.212 391.199C132.994 392.604 134.9 396.85 132.543 400.554C130.232 404.187 130.998 406.538 131.765 408.889M151.788 434.625C151.006 433.22 149.1 428.974 151.457 425.269C153.768 421.636 153.002 419.286 152.235 416.935M132.212 434.625C132.994 433.22 134.9 428.974 132.543 425.269C130.232 421.636 130.998 419.286 131.765 416.935M151.788 391.199C151.006 392.604 149.1 396.85 151.457 400.554C153.768 404.187 153.002 406.538 152.235 408.889M142.132 435.295L142.132 389.704M147.299 412.5L136.964 412.5M132.212 325.494C132.994 326.899 134.9 331.145 132.543 334.85C130.232 338.483 130.998 340.834 131.765 343.184M151.788 368.92C151.006 367.515 149.1 363.27 151.457 359.565C153.768 355.932 153.002 353.581 152.235 351.23M132.212 368.92C132.994 367.515 134.9 363.27 132.543 359.565C130.232 355.932 130.998 353.581 131.765 351.23M151.788 325.494C151.006 326.899 149.1 331.145 151.457 334.85C153.768 338.483 153.002 340.834 152.235 343.184M142.132 369.591L142.132 324M147.299 346.795L136.964 346.795" stroke="#D2BFF0" stroke-width="4" stroke-linejoin="round"/>
<path d="M174.267 261.903C175.084 263.308 177.077 267.554 174.613 271.259C172.197 274.892 172.998 277.243 173.799 279.594M194.733 305.33C193.916 303.925 191.923 299.679 194.387 295.974C196.803 292.341 196.002 289.99 195.201 287.639M174.267 305.33C175.084 303.925 177.077 299.679 174.613 295.974C172.197 292.341 172.998 289.99 173.799 287.639M194.733 261.903C193.916 263.308 191.923 267.554 194.387 271.259C196.803 274.892 196.002 277.243 195.201 279.594M184.638 306L184.638 260.409M190.04 283.204H179.236M174.267 196.199C175.084 197.604 177.077 201.85 174.613 205.554C172.197 209.187 172.998 211.538 173.799 213.889M194.733 239.625C193.916 238.22 191.923 233.974 194.387 230.269C196.803 226.636 196.002 224.286 195.201 221.935M174.267 239.625C175.084 238.22 177.077 233.974 174.613 230.269C172.197 226.636 172.998 224.286 173.799 221.935M194.733 196.199C193.916 197.604 191.923 201.85 194.387 205.554C196.803 209.187 196.002 211.538 195.201 213.889M184.638 240.295L184.638 194.704M190.04 217.5L179.236 217.5M174.267 130.494C175.084 131.899 177.077 136.145 174.613 139.85C172.197 143.483 172.998 145.834 173.799 148.184M194.733 173.92C193.916 172.515 191.923 168.27 194.387 164.565C196.803 160.932 196.002 158.581 195.201 156.23M174.267 173.92C175.084 172.515 177.077 168.27 174.613 164.565C172.197 160.932 172.998 158.581 173.799 156.23M194.733 130.494C193.916 131.899 191.923 136.145 194.387 139.85C196.803 143.483 196.002 145.834 195.201 148.184M184.638 174.591L184.638 129M190.04 151.795L179.236 151.795" stroke="#D2BFF0" stroke-width="4" stroke-linejoin="round"/>
<path d="M174.267 456.903C175.084 458.308 177.077 462.554 174.613 466.259C172.197 469.892 172.998 472.243 173.799 474.594M194.733 500.33C193.916 498.925 191.923 494.679 194.387 490.974C196.803 487.341 196.002 484.99 195.201 482.639M174.267 500.33C175.084 498.925 177.077 494.679 174.613 490.974C172.197 487.341 172.998 484.99 173.799 482.639M194.733 456.903C193.916 458.308 191.923 462.554 194.387 466.259C196.803 469.892 196.002 472.243 195.201 474.594M184.638 501L184.638 455.409M190.04 478.204H179.236M174.267 391.199C175.084 392.604 177.077 396.85 174.613 400.554C172.197 404.187 172.998 406.538 173.799 408.889M194.733 434.625C193.916 433.22 191.923 428.974 194.387 425.269C196.803 421.636 196.002 419.286 195.201 416.935M174.267 434.625C175.084 433.22 177.077 428.974 174.613 425.269C172.197 421.636 172.998 419.286 173.799 416.935M194.733 391.199C193.916 392.604 191.923 396.85 194.387 400.554C196.803 404.187 196.002 406.538 195.201 408.889M184.638 435.295L184.638 389.704M190.04 412.5L179.236 412.5M174.267 325.494C175.084 326.899 177.077 331.145 174.613 334.85C172.197 338.483 172.998 340.834 173.799 343.184M194.733 368.92C193.916 367.515 191.923 363.27 194.387 359.565C196.803 355.932 196.002 353.581 195.201 351.23M174.267 368.92C175.084 367.515 177.077 363.27 174.613 359.565C172.197 355.932 172.998 353.581 173.799 351.23M194.733 325.494C193.916 326.899 191.923 331.145 194.387 334.85C196.803 338.483 196.002 340.834 195.201 343.184M184.638 369.591L184.638 324M190.04 346.795L179.236 346.795" stroke="#D2BFF0" stroke-width="4" stroke-linejoin="round"/>
</g>
<defs>
<filter id="filter0_f_3238_4370" x="170" y="0" width="1100" height="603" filterUnits="userSpaceOnUse" color-interpolation-filters="sRGB">
<feFlood flood-opacity="0" result="BackgroundImageFix"/>
<feBlend mode="normal" in="SourceGraphic" in2="BackgroundImageFix" result="shape"/>
<feGaussianBlur stdDeviation="61.5" result="effect1_foregroundBlur_3238_4370"/>
</filter>
<linearGradient id="paint0_linear_3238_4370" x1="318.367" y1="224.885" x2="-16.1048" y2="390.024" gradientUnits="userSpaceOnUse">
<stop offset="0.317465" stop-color="#5DA0EF"/>
<stop offset="1" stop-color="#44FF78"/>
</linearGradient>
<linearGradient id="paint1_linear_3238_4370" x1="1118.71" y1="21.5965" x2="1300.69" y2="233.267" gradientUnits="userSpaceOnUse">
<stop stop-color="#FF6BDF"/>
<stop offset="1" stop-color="#A400CD"/>
</linearGradient>
<linearGradient id="paint2_linear_3238_4370" x1="-19.6426" y1="107.888" x2="918.647" y2="1021.12" gradientUnits="userSpaceOnUse">
<stop stop-color="#22304C"/>
<stop offset="1" stop-color="#410291"/>
</linearGradient>
</defs>
</svg>
