<svg width="28" height="28" viewBox="0 0 28 28" fill="none" xmlns="http://www.w3.org/2000/svg">
<path d="M26.5697 1.43775C25.9031 0.756419 24.9164 0.504418 23.9964 0.771085L2.54306 6.96975C1.5724 7.23909 0.884397 8.00842 0.699064 8.98442C0.509731 9.97909 1.17106 11.2431 2.03506 11.7711L8.74306 15.8671C9.43106 16.2884 10.3191 16.1831 10.8884 15.6124L18.5697 7.93109C18.9564 7.52975 19.5964 7.52975 19.9831 7.93109C20.3697 8.31642 20.3697 8.94442 19.9831 9.34442L12.2884 17.0258C11.7177 17.5964 11.6111 18.4818 12.0311 19.1711L16.1297 25.9044C16.6097 26.7031 17.4364 27.1578 18.3431 27.1578C18.4497 27.1578 18.5697 27.1578 18.6764 27.1431C19.7164 27.0111 20.5431 26.3031 20.8497 25.3031L27.2097 4.01109C27.4897 3.10442 27.2364 2.11775 26.5697 1.43775" fill="#3A3A3A"/>
<path opacity="0.4" fill-rule="evenodd" clip-rule="evenodd" d="M2.01383 20.4104C1.75783 20.4104 1.50183 20.3131 1.30716 20.1171C0.916493 19.7264 0.916493 19.0944 1.30716 18.7037L3.12716 16.8824C3.51783 16.4931 4.15116 16.4931 4.54183 16.8824C4.93116 17.2731 4.93116 17.9064 4.54183 18.2971L2.72049 20.1171C2.52583 20.3131 2.26983 20.4104 2.01383 20.4104ZM7.02876 22.0003C6.77276 22.0003 6.51676 21.9029 6.32209 21.7069C5.93143 21.3163 5.93143 20.6843 6.32209 20.2936L8.14209 18.4723C8.53276 18.0829 9.16609 18.0829 9.55676 18.4723C9.94609 18.8629 9.94609 19.4963 9.55676 19.8869L7.73543 21.7069C7.54076 21.9029 7.28476 22.0003 7.02876 22.0003ZM7.36703 26.7576C7.56169 26.9536 7.81769 27.0509 8.07369 27.0509C8.32969 27.0509 8.58569 26.9536 8.78036 26.7576L10.6017 24.9376C10.991 24.5469 10.991 23.9136 10.6017 23.5229C10.211 23.1336 9.57769 23.1336 9.18703 23.5229L7.36703 25.3443C6.97636 25.7349 6.97636 26.3669 7.36703 26.7576Z" fill="#3A3A3A"/>
</svg>
