<svg width="26" height="28" viewBox="0 0 26 28" fill="none" xmlns="http://www.w3.org/2000/svg">
<path d="M25.3065 17.1601C25.0476 16.7601 24.6797 16.3601 24.2028 16.1067C23.8213 15.9201 23.576 15.6134 23.358 15.2534C22.6631 14.1067 23.0718 12.6001 24.2301 11.9201C25.5927 11.1601 26.0287 9.46675 25.2384 8.14675L24.3254 6.57341C23.5487 5.25341 21.8455 4.78675 20.4965 5.56008C19.2974 6.20008 17.7577 5.77341 17.0627 4.64008C16.8447 4.26675 16.7221 3.86675 16.7493 3.46675C16.7902 2.94675 16.6267 2.45341 16.3814 2.05341C15.8773 1.22675 14.9643 0.666748 13.956 0.666748H12.0347C11.04 0.693415 10.127 1.22675 9.62288 2.05341C9.36398 2.45341 9.21409 2.94675 9.24135 3.46675C9.2686 3.86675 9.14596 4.26675 8.92795 4.64008C8.23301 5.77341 6.69326 6.20008 5.50779 5.56008C4.14518 4.78675 2.45555 5.25341 1.66523 6.57341L0.752286 8.14675C-0.0244012 9.46675 0.411634 11.1601 1.76062 11.9201C2.91884 12.6001 3.32762 14.1067 2.64631 15.2534C2.41467 15.6134 2.1694 15.9201 1.78787 16.1067C1.32458 16.3601 0.9158 16.7601 0.697782 17.1601C0.193616 17.9867 0.220869 19.0267 0.725034 19.8934L1.66523 21.4934C2.1694 22.3467 3.1096 22.8801 4.09068 22.8801C4.55397 22.8801 5.09901 22.7467 5.53505 22.4801C5.8757 22.2534 6.28448 22.1734 6.73414 22.1734C8.08313 22.1734 9.21409 23.2801 9.24135 24.6001C9.24135 26.1334 10.4949 27.3334 12.0756 27.3334H13.9287C15.4957 27.3334 16.7493 26.1334 16.7493 24.6001C16.7902 23.2801 17.9212 22.1734 19.2702 22.1734C19.7062 22.1734 20.115 22.2534 20.4692 22.4801C20.9053 22.7467 21.4367 22.8801 21.9136 22.8801C22.8811 22.8801 23.8213 22.3467 24.3254 21.4934L25.2793 19.8934C25.7698 19.0001 25.8107 17.9867 25.3065 17.1601Z" fill="white"/>
<path d="M13.0158 17.7733C10.8765 17.7733 9.146 16.1067 9.146 14.0133C9.146 11.92 10.8765 10.24 13.0158 10.24C15.1551 10.24 16.8447 11.92 16.8447 14.0133C16.8447 16.1067 15.1551 17.7733 13.0158 17.7733Z" fill="#3C0985"/>
</svg>
