<svg width="26" height="28" viewBox="0 0 26 28" fill="none" xmlns="http://www.w3.org/2000/svg">
<path d="M25.3065 17.1601C25.0476 16.7601 24.6797 16.3601 24.2028 16.1068C23.8213 15.9201 23.576 15.6135 23.358 15.2535C22.6631 14.1068 23.0718 12.6001 24.2301 11.9201C25.5927 11.1601 26.0287 9.46681 25.2384 8.14681L24.3254 6.57348C23.5487 5.25348 21.8455 4.78681 20.4965 5.56014C19.2974 6.20014 17.7577 5.77348 17.0627 4.64014C16.8447 4.26681 16.7221 3.86681 16.7493 3.46681C16.7902 2.94681 16.6267 2.45348 16.3814 2.05348C15.8773 1.22681 14.9643 0.666809 13.956 0.666809H12.0347C11.04 0.693476 10.127 1.22681 9.62288 2.05348C9.36398 2.45348 9.21409 2.94681 9.24135 3.46681C9.2686 3.86681 9.14596 4.26681 8.92794 4.64014C8.23301 5.77348 6.69326 6.20014 5.50779 5.56014C4.14518 4.78681 2.45555 5.25348 1.66523 6.57348L0.752286 8.14681C-0.0244012 9.46681 0.411634 11.1601 1.76062 11.9201C2.91884 12.6001 3.32762 14.1068 2.64631 15.2535C2.41467 15.6135 2.1694 15.9201 1.78787 16.1068C1.32458 16.3601 0.9158 16.7601 0.697782 17.1601C0.193616 17.9868 0.220869 19.0268 0.725034 19.8935L1.66523 21.4935C2.1694 22.3468 3.1096 22.8801 4.09068 22.8801C4.55397 22.8801 5.09901 22.7468 5.53505 22.4801C5.8757 22.2535 6.28448 22.1735 6.73414 22.1735C8.08313 22.1735 9.21409 23.2801 9.24135 24.6001C9.24135 26.1335 10.4949 27.3335 12.0756 27.3335H13.9287C15.4957 27.3335 16.7493 26.1335 16.7493 24.6001C16.7902 23.2801 17.9212 22.1735 19.2702 22.1735C19.7062 22.1735 20.115 22.2535 20.4692 22.4801C20.9053 22.7468 21.4367 22.8801 21.9136 22.8801C22.8811 22.8801 23.8213 22.3468 24.3254 21.4935L25.2793 19.8935C25.7698 19.0001 25.8107 17.9868 25.3065 17.1601" fill="#3A3A3A"/>
<path d="M13.0158 17.7734C10.8765 17.7734 9.146 16.1068 9.146 14.0134C9.146 11.9201 10.8765 10.2401 13.0158 10.2401C15.1551 10.2401 16.8447 11.9201 16.8447 14.0134C16.8447 16.1068 15.1551 17.7734 13.0158 17.7734" fill="#FFBD11"/>
</svg>
