<svg width="27" height="28" viewBox="0 0 27 28" fill="none" xmlns="http://www.w3.org/2000/svg">
<path d="M19.1932 0.66626H7.63324C3.11324 0.66626 0.0732422 3.83959 0.0732422 8.55959V19.4529C0.0732422 24.1596 3.11324 27.3329 7.63324 27.3329H19.1932C23.7132 27.3329 26.7399 24.1596 26.7399 19.4529V8.55959C26.7399 3.83959 23.7132 0.66626 19.1932 0.66626Z" fill="url(#paint0_linear_4280_1817)"/>
<path d="M11.824 18.3305C11.5253 18.3305 11.2267 18.2171 10.9987 17.9891L7.83468 14.8251C7.37868 14.3691 7.37868 13.6305 7.83468 13.1758C8.29068 12.7198 9.02801 12.7185 9.48401 13.1745L11.824 15.5145L17.328 10.0105C17.784 9.55446 18.5213 9.55446 18.9773 10.0105C19.4333 10.4665 19.4333 11.2051 18.9773 11.6611L12.6493 17.9891C12.4213 18.2171 12.1227 18.3305 11.824 18.3305Z" fill="white"/>
<defs>
<linearGradient id="paint0_linear_4280_1817" x1="0.0732422" y1="0.66626" x2="10.1696" y2="32.5759" gradientUnits="userSpaceOnUse">
<stop stop-color="#5162FF"/>
<stop offset="1" stop-color="#778DFF"/>
</linearGradient>
</defs>
</svg>
