<svg width="35" height="35" viewBox="0 0 35 35" fill="none" xmlns="http://www.w3.org/2000/svg">
<path d="M15.4931 21.6339C15.1826 21.6339 14.8721 21.5161 14.6351 21.279L11.3458 17.9897C10.8717 17.5157 10.8717 16.7478 11.3458 16.2751C11.8198 15.8011 12.5864 15.7997 13.0604 16.2737L15.4931 18.7064L21.215 12.9844C21.6891 12.5104 22.4556 12.5104 22.9296 12.9844C23.4037 13.4585 23.4037 14.2264 22.9296 14.7005L16.3511 21.279C16.1141 21.5161 15.8036 21.6339 15.4931 21.6339Z" fill="#059FBA"/>
<path d="M17.1318 31.2637C9.32704 31.2637 3 24.9366 3 17.1318H-3C-3 28.2503 6.01333 37.2637 17.1318 37.2637V31.2637ZM31.2637 17.1318C31.2637 24.9366 24.9366 31.2637 17.1318 31.2637V37.2637C28.2503 37.2637 37.2637 28.2503 37.2637 17.1318H31.2637ZM17.1318 3C24.9366 3 31.2637 9.32704 31.2637 17.1318H37.2637C37.2637 6.01333 28.2503 -3 17.1318 -3V3ZM17.1318 -3C6.01333 -3 -3 6.01333 -3 17.1318H3C3 9.32704 9.32704 3 17.1318 3V-3Z" fill="#059FBA"/>
</svg>
