<svg width="28" height="28" viewBox="0 0 28 28" fill="none" xmlns="http://www.w3.org/2000/svg">
<path d="M27.3332 13.9998C27.3332 21.3652 21.3638 27.3332 13.9998 27.3332C6.63584 27.3332 0.666504 21.3652 0.666504 13.9998C0.666504 6.63717 6.63584 0.666504 13.9998 0.666504C21.3638 0.666504 27.3332 6.63717 27.3332 13.9998Z" fill="url(#paint0_linear_4280_1780)"/>
<path d="M18.7646 19.0859C18.5899 19.0859 18.4139 19.0406 18.2526 18.9459L13.0179 15.8232C12.7166 15.6419 12.5312 15.3152 12.5312 14.9632V8.23389C12.5312 7.68189 12.9793 7.23389 13.5312 7.23389C14.0833 7.23389 14.5312 7.68189 14.5312 8.23389V14.3952L19.2779 17.2259C19.7513 17.5099 19.9073 18.1232 19.6246 18.5979C19.4366 18.9112 19.1046 19.0859 18.7646 19.0859Z" fill="white"/>
<defs>
<linearGradient id="paint0_linear_4280_1780" x1="0.666504" y1="0.666504" x2="10.7629" y2="32.5761" gradientUnits="userSpaceOnUse">
<stop stop-color="#5162FF"/>
<stop offset="1" stop-color="#778DFF"/>
</linearGradient>
</defs>
</svg>
