<svg width="40" height="41" viewBox="0 0 40 41" fill="none" xmlns="http://www.w3.org/2000/svg">
<path opacity="0.4" d="M35.5514 12.9043C34.853 12.4643 33.9947 12.4254 33.263 12.7977L30.793 14.0447C29.8797 14.5049 29.313 15.4356 29.313 16.4711V26.1936C29.313 27.2291 29.8797 28.1581 30.793 28.6217L33.2614 29.867C33.5964 30.0396 33.9547 30.1225 34.313 30.1225C34.743 30.1225 35.1697 30.0007 35.5514 29.7621C36.2497 29.3239 36.6664 28.5642 36.6664 27.7317V14.9364C36.6664 14.1039 36.2497 13.3442 35.5514 12.9043Z" fill="url(#paint0_linear_3238_5417)"/>
<path d="M19.842 33.8335H10.1886C6.15186 33.8335 3.3335 31.0501 3.3335 27.0653V15.6017C3.3335 11.6152 6.15186 8.8335 10.1886 8.8335H19.842C23.8787 8.8335 26.6971 11.6152 26.6971 15.6017V27.0653C26.6971 31.0501 23.8787 33.8335 19.842 33.8335Z" fill="url(#paint1_linear_3238_5417)"/>
<defs>
<linearGradient id="paint0_linear_3238_5417" x1="37.1158" y1="11.791" x2="22.3219" y2="16.7356" gradientUnits="userSpaceOnUse">
<stop offset="0.317465" stop-color="#5DA0EF"/>
<stop offset="1" stop-color="#44FF78"/>
</linearGradient>
<linearGradient id="paint1_linear_3238_5417" x1="28.1249" y1="7.76262" x2="-5.42438" y2="32.8137" gradientUnits="userSpaceOnUse">
<stop offset="0.317465" stop-color="#5DA0EF"/>
<stop offset="1" stop-color="#44FF78"/>
</linearGradient>
</defs>
</svg>
