<svg width="27" height="21" viewBox="0 0 27 21" fill="none" xmlns="http://www.w3.org/2000/svg">
<path opacity="0.4" d="M26.0454 3.9235C25.4867 3.57156 24.8001 3.54042 24.2147 3.83822L22.2387 4.83585C21.508 5.20404 21.0547 5.94855 21.0547 6.77697V14.555C21.0547 15.3834 21.508 16.1265 22.2387 16.4974L24.2134 17.4937C24.4814 17.6318 24.7681 17.6981 25.0547 17.6981C25.3987 17.6981 25.7401 17.6007 26.0454 17.4098C26.6041 17.0592 26.9374 16.4514 26.9374 15.7854V5.54922C26.9374 4.88323 26.6041 4.27545 26.0454 3.9235Z" fill="url(#paint0_linear_4280_1813)"/>
<path d="M13.4778 20.6665H5.75505C2.52568 20.6665 0.270996 18.4398 0.270996 15.2519V6.08105C0.270996 2.89188 2.52568 0.666504 5.75505 0.666504H13.4778C16.7072 0.666504 18.9618 2.89188 18.9618 6.08105V15.2519C18.9618 18.4398 16.7072 20.6665 13.4778 20.6665Z" fill="url(#paint1_linear_4280_1813)"/>
<defs>
<linearGradient id="paint0_linear_4280_1813" x1="21.0547" y1="3.63525" x2="29.9615" y2="15.4108" gradientUnits="userSpaceOnUse">
<stop stop-color="#5162FF"/>
<stop offset="1" stop-color="#778DFF"/>
</linearGradient>
<linearGradient id="paint1_linear_4280_1813" x1="0.270996" y1="0.666504" x2="8.26815" y2="24.287" gradientUnits="userSpaceOnUse">
<stop stop-color="#5162FF"/>
<stop offset="1" stop-color="#778DFF"/>
</linearGradient>
</defs>
</svg>
