<svg width="28" height="24" viewBox="0 0 28 24" fill="none" xmlns="http://www.w3.org/2000/svg">
<path fill-rule="evenodd" clip-rule="evenodd" d="M27.3284 7.16684H21.6822C19.0547 7.17146 16.9261 9.24686 16.9213 11.8088C16.9178 14.3764 19.0487 16.4611 21.6822 16.4645H27.3332V16.8725C27.3332 21.3514 24.6179 24 20.0229 24H7.97791C3.38176 24 0.666504 21.3514 0.666504 16.8725V7.11715C0.666504 2.63816 3.38176 0 7.97791 0H20.0182C24.6132 0 27.3284 2.63816 27.3284 7.11715V7.16684ZM6.98579 7.15642H14.5058H14.5105H14.52C15.083 7.15411 15.5381 6.70691 15.5357 6.15686C15.5333 5.60796 15.0735 5.16422 14.5105 5.16653H6.98579C6.42638 5.16884 5.97245 5.61143 5.97008 6.15801C5.96771 6.70691 6.42282 7.15411 6.98579 7.15642Z" fill="url(#paint0_linear_4280_2662)"/>
<path opacity="0.4" d="M19.3829 12.3955C19.6617 13.6638 20.7736 14.556 22.0431 14.5328H26.3764C26.9046 14.5328 27.333 14.0954 27.333 13.5547V10.1793C27.3319 9.63972 26.9046 9.20111 26.3764 9.19995H21.9411C20.4971 9.20459 19.3307 10.4032 19.333 11.8803C19.333 12.0532 19.35 12.2261 19.3829 12.3955Z" fill="url(#paint1_linear_4280_2662)"/>
<circle cx="21.9998" cy="11.8668" r="1.33333" fill="url(#paint2_linear_4280_2662)"/>
<defs>
<linearGradient id="paint0_linear_4280_2662" x1="0.666504" y1="0" x2="8.98848" y2="29.2239" gradientUnits="userSpaceOnUse">
<stop stop-color="#5162FF"/>
<stop offset="1" stop-color="#778DFF"/>
</linearGradient>
<linearGradient id="paint1_linear_4280_2662" x1="19.333" y1="9.19995" x2="20.7509" y2="15.9217" gradientUnits="userSpaceOnUse">
<stop stop-color="#5162FF"/>
<stop offset="1" stop-color="#778DFF"/>
</linearGradient>
<linearGradient id="paint2_linear_4280_2662" x1="20.6665" y1="10.5334" x2="21.6761" y2="13.7244" gradientUnits="userSpaceOnUse">
<stop stop-color="#5162FF"/>
<stop offset="1" stop-color="#778DFF"/>
</linearGradient>
</defs>
</svg>
