<svg width="41" height="41" viewBox="0 0 41 41" fill="none" xmlns="http://www.w3.org/2000/svg">
<g id="Iconly/Bulk/Wallet">
<g id="Wallet">
<path id="Fill 1" fill-rule="evenodd" clip-rule="evenodd" d="M37.5169 14.4585H30.4591C27.1746 14.4643 24.5139 17.0586 24.508 20.2609C24.5035 23.4705 27.1672 26.0763 30.4591 26.0807H37.5228V26.5906C37.5228 32.1893 34.1287 35.5 28.385 35.5H13.3287C7.58353 35.5 4.18945 32.1893 4.18945 26.5906V14.3964C4.18945 8.7977 7.58353 5.5 13.3287 5.5H28.3791C34.1228 5.5 37.5169 8.7977 37.5169 14.3964V14.4585ZM12.0887 14.4455H21.4887H21.4946H21.5065C22.2102 14.4426 22.7791 13.8836 22.7761 13.1961C22.7732 12.51 22.1984 11.9553 21.4946 11.9582H12.0887C11.3895 11.9611 10.8221 12.5143 10.8191 13.1975C10.8161 13.8836 11.385 14.4426 12.0887 14.4455Z" fill="url(#paint0_linear_3238_5427)"/>
<path id="Fill 4" opacity="0.4" d="M27.5853 20.9944C27.9338 22.5798 29.3237 23.6951 30.9106 23.6661H36.3271C36.9874 23.6661 37.5229 23.1193 37.5229 22.4434V18.2242C37.5215 17.5497 36.9874 17.0015 36.3271 17H30.7831C28.978 17.0058 27.5201 18.5041 27.523 20.3505C27.523 20.5666 27.5442 20.7827 27.5853 20.9944Z" fill="url(#paint1_linear_3238_5427)"/>
<ellipse id="Oval" cx="30.8561" cy="20.3332" rx="1.66667" ry="1.66667" fill="url(#paint2_linear_3238_5427)"/>
</g>
</g>
<defs>
<linearGradient id="paint0_linear_3238_5427" x1="39.5599" y1="4.21495" x2="-2.1332" y2="41.2289" gradientUnits="userSpaceOnUse">
<stop offset="0.317465" stop-color="#5DA0EF"/>
<stop offset="1" stop-color="#44FF78"/>
</linearGradient>
<linearGradient id="paint1_linear_3238_5427" x1="38.1341" y1="16.7144" x2="28.9541" y2="27.7166" gradientUnits="userSpaceOnUse">
<stop offset="0.317465" stop-color="#5DA0EF"/>
<stop offset="1" stop-color="#44FF78"/>
</linearGradient>
<linearGradient id="paint2_linear_3238_5427" x1="32.7265" y1="18.5237" x2="28.1761" y2="22.1595" gradientUnits="userSpaceOnUse">
<stop offset="0.317465" stop-color="#5DA0EF"/>
<stop offset="1" stop-color="#44FF78"/>
</linearGradient>
</defs>
</svg>
