<svg width="32" height="32" viewBox="0 0 32 32" fill="none" xmlns="http://www.w3.org/2000/svg">
<path fill-rule="evenodd" clip-rule="evenodd" d="M29.3284 11.1668H23.6822C21.0547 11.1715 18.9261 13.2469 18.9213 15.8088C18.9178 18.3764 21.0487 20.4611 23.6822 20.4645H29.3332V20.8725C29.3332 25.3514 26.6179 28 22.0229 28H9.97791C5.38176 28 2.6665 25.3514 2.6665 20.8725V11.1171C2.6665 6.63816 5.38176 4 9.97791 4H22.0182C26.6132 4 29.3284 6.63816 29.3284 11.1171V11.1668ZM8.98583 11.1565H16.5058H16.5106H16.5201C17.083 11.1542 17.5381 10.707 17.5358 10.1569C17.5334 9.60801 17.0735 9.16427 16.5106 9.16658H8.98583C8.42643 9.16889 7.9725 9.61147 7.97013 10.1581C7.96776 10.707 8.42287 11.1542 8.98583 11.1565Z" fill="white"/>
<path opacity="0.4" d="M21.3829 16.3955C21.6617 17.6638 22.7736 18.556 24.0431 18.5328H28.3764C28.9046 18.5328 29.333 18.0954 29.333 17.5547V14.1793C29.3319 13.6397 28.9046 13.2011 28.3764 13.2H23.9411C22.4971 13.2046 21.3307 14.4032 21.333 15.8803C21.333 16.0532 21.35 16.2261 21.3829 16.3955Z" fill="white"/>
<ellipse cx="23.9998" cy="15.8665" rx="1.33333" ry="1.33333" fill="white"/>
</svg>
