<svg width="209" height="278" viewBox="0 0 209 278" fill="none" xmlns="http://www.w3.org/2000/svg">
<g filter="url(#filter0_d_3842_6434)">
<rect x="41" y="25.8755" width="125" height="175" rx="12" fill="#A8B1FF"/>
</g>
<path d="M58.4243 174.207V55.613H142.643" stroke="white" stroke-width="2" stroke-dasharray="8.52 8.52"/>
<circle cx="58.2676" cy="55.613" r="2.65625" fill="white"/>
<circle cx="58.2676" cy="167.8" r="2.65625" fill="white"/>
<circle cx="58.2914" cy="141.607" r="1.5551" fill="white"/>
<circle cx="58.2914" cy="116.3" r="1.5551" fill="white"/>
<circle cx="58.2914" cy="90.9926" r="1.5551" fill="white"/>
<circle cx="58.2914" cy="68.6197" r="1.5551" fill="white"/>
<rect x="47.1753" y="38.6528" width="112.965" height="50.6142" rx="8" fill="white" fill-opacity="0.4"/>
<rect x="47.1753" y="94.4017" width="112.965" height="21.2726" rx="8" fill="white" fill-opacity="0.4"/>
<rect x="47.1753" y="122.276" width="112.965" height="21.2726" rx="8" fill="white" fill-opacity="0.4"/>
<rect x="47.1753" y="150.151" width="112.965" height="21.2726" rx="8" fill="white" fill-opacity="0.4"/>
<g filter="url(#filter1_d_3842_6434)">
<rect x="16" y="142.082" width="64.1847" height="64.9182" rx="12" fill="#687CFF"/>
</g>
<path d="M31.6255 150.563V31.9693H115.844" stroke="white" stroke-width="2" stroke-dasharray="8.52 8.52"/>
<circle cx="31.4692" cy="31.9692" r="2.65625" fill="white"/>
<circle cx="31.4692" cy="144.157" r="2.65625" fill="white"/>
<circle cx="31.4931" cy="117.963" r="1.5551" fill="white"/>
<circle cx="31.4931" cy="92.6559" r="1.5551" fill="white"/>
<circle cx="31.4931" cy="67.3488" r="1.5551" fill="white"/>
<circle cx="31.4931" cy="44.9759" r="1.5551" fill="white"/>
<rect x="22.2349" y="149.05" width="19.1244" height="20.1355" rx="3" fill="white" fill-opacity="0.26"/>
<rect x="43.5073" y="149.05" width="19.1244" height="20.1355" rx="3" fill="white" fill-opacity="0.12"/>
<rect x="22.2349" y="173.875" width="51.3477" height="2.48246" fill="white"/>
<rect x="22.2349" y="179.943" width="51.3477" height="2.48246" fill="white" fill-opacity="0.78"/>
<rect x="22.2349" y="186.011" width="51.3477" height="2.48246" fill="white" fill-opacity="0.6"/>
<rect x="22.2349" y="192.08" width="39.0348" height="2.48246" fill="white" fill-opacity="0.44"/>
<rect x="116" y="0.875519" width="74.9999" height="99.9999" rx="12" fill="#D9DDFF"/>
<rect x="120.164" y="6.01029" width="66.3853" height="59.7834" rx="6" fill="white"/>
<rect x="120.164" y="69.8282" width="66.7521" height="4.40123" fill="white"/>
<rect x="120.164" y="77.5303" width="66.7521" height="4.40123" fill="white" fill-opacity="0.69"/>
<rect x="120.164" y="85.2325" width="44.3791" height="4.40123" fill="white" fill-opacity="0.41"/>
<defs>
<filter id="filter0_d_3842_6434" x="-1.60162" y="17.3552" width="210.203" height="260.203" filterUnits="userSpaceOnUse" color-interpolation-filters="sRGB">
<feFlood flood-opacity="0" result="BackgroundImageFix"/>
<feColorMatrix in="SourceAlpha" type="matrix" values="0 0 0 0 0 0 0 0 0 0 0 0 0 0 0 0 0 0 127 0" result="hardAlpha"/>
<feOffset dy="34.0813"/>
<feGaussianBlur stdDeviation="21.3008"/>
<feColorMatrix type="matrix" values="0 0 0 0 0.133819 0 0 0 0 0.173145 0 0 0 0 0.257847 0 0 0 1 0"/>
<feBlend mode="normal" in2="BackgroundImageFix" result="effect1_dropShadow_3842_6434"/>
<feBlend mode="normal" in="SourceGraphic" in2="effect1_dropShadow_3842_6434" result="shape"/>
</filter>
<filter id="filter1_d_3842_6434" x="-18.0813" y="137.822" width="132.347" height="133.081" filterUnits="userSpaceOnUse" color-interpolation-filters="sRGB">
<feFlood flood-opacity="0" result="BackgroundImageFix"/>
<feColorMatrix in="SourceAlpha" type="matrix" values="0 0 0 0 0 0 0 0 0 0 0 0 0 0 0 0 0 0 127 0" result="hardAlpha"/>
<feOffset dy="29.8211"/>
<feGaussianBlur stdDeviation="17.0406"/>
<feColorMatrix type="matrix" values="0 0 0 0 0.158889 0 0 0 0 0.219245 0 0 0 0 0.374444 0 0 0 0.11 0"/>
<feBlend mode="normal" in2="BackgroundImageFix" result="effect1_dropShadow_3842_6434"/>
<feBlend mode="normal" in="SourceGraphic" in2="effect1_dropShadow_3842_6434" result="shape"/>
</filter>
</defs>
</svg>
