<svg width="28" height="28" viewBox="0 0 28 28" fill="none" xmlns="http://www.w3.org/2000/svg">
<path opacity="0.4" d="M0.666992 12.7715C0.733659 15.8888 0.920326 21.2208 0.946992 21.8088C1.04166 23.0662 1.52299 24.3368 2.27233 25.2328C3.31499 26.4901 4.59899 27.0515 6.38966 27.0515C8.86433 27.0648 11.5923 27.0648 14.2417 27.0648C16.9017 27.0648 19.483 27.0648 21.663 27.0515C23.4283 27.0515 24.7523 26.4755 25.7817 25.2328C26.531 24.3368 27.0123 23.0528 27.0803 21.8088C27.107 21.3142 27.2403 15.5262 27.3203 12.7715H0.666992Z" fill="white"/>
<path d="M12.9941 18.5122V20.2375C12.9941 20.7895 13.4421 21.2375 13.9941 21.2375C14.5461 21.2375 14.9941 20.7895 14.9941 20.2375V18.5122C14.9941 17.9602 14.5461 17.5122 13.9941 17.5122C13.4421 17.5122 12.9941 17.9602 12.9941 18.5122Z" fill="white"/>
<path fill-rule="evenodd" clip-rule="evenodd" d="M11.615 17.4086C11.4817 17.8926 11.0163 18.2019 10.5123 18.1352C7.11099 17.6606 3.86033 16.4539 1.11633 14.6419C0.834992 14.4579 0.666992 14.1432 0.666992 13.8072V9.1859C0.666992 6.3859 2.94966 4.10857 5.75633 4.10857H8.37899C8.62966 2.17257 10.2697 0.667236 12.2723 0.667236H15.715C17.7163 0.667236 19.3577 2.17257 19.6083 4.10857H22.2443C25.043 4.10857 27.3203 6.3859 27.3203 9.1859V13.8072C27.3203 14.1432 27.151 14.4566 26.8723 14.6419C24.123 16.4619 20.859 17.6739 17.435 18.1472C17.3883 18.1539 17.343 18.1566 17.2977 18.1566C16.8457 18.1566 16.4417 17.8512 16.3283 17.4032C16.059 16.3419 15.095 15.5992 13.987 15.5992C12.8643 15.5992 11.911 16.3259 11.615 17.4086ZM15.715 2.66724H12.2723C11.375 2.66724 10.6257 3.28057 10.4017 4.10857H17.5843C17.3603 3.28057 16.611 2.66724 15.715 2.66724Z" fill="white"/>
</svg>
