<svg width="28" height="28" viewBox="0 0 28 28" fill="none" xmlns="http://www.w3.org/2000/svg">
<path opacity="0.4" d="M0.666992 12.7713C0.733659 15.8886 0.920326 21.2206 0.946992 21.8086C1.04166 23.066 1.52299 24.3366 2.27233 25.2326C3.31499 26.49 4.59899 27.0513 6.38966 27.0513C8.86433 27.0646 11.5923 27.0646 14.2417 27.0646C16.9017 27.0646 19.483 27.0646 21.663 27.0513C23.4283 27.0513 24.7523 26.4753 25.7817 25.2326C26.531 24.3366 27.0123 23.0526 27.0803 21.8086C27.107 21.314 27.2403 15.526 27.3203 12.7713H0.666992Z" fill="#3A3A3A"/>
<path d="M12.9941 18.5123V20.2376C12.9941 20.7896 13.4421 21.2376 13.9941 21.2376C14.5461 21.2376 14.9941 20.7896 14.9941 20.2376V18.5123C14.9941 17.9603 14.5461 17.5123 13.9941 17.5123C13.4421 17.5123 12.9941 17.9603 12.9941 18.5123" fill="#3A3A3A"/>
<path fill-rule="evenodd" clip-rule="evenodd" d="M11.615 17.4085C11.4817 17.8925 11.0163 18.2018 10.5123 18.1352C7.11099 17.6605 3.86033 16.4538 1.11633 14.6418C0.834992 14.4578 0.666992 14.1432 0.666992 13.8072V9.18584C0.666992 6.38584 2.94966 4.10851 5.75633 4.10851H8.37899C8.62966 2.17251 10.2697 0.667175 12.2723 0.667175H15.715C17.7163 0.667175 19.3577 2.17251 19.6083 4.10851H22.2443C25.043 4.10851 27.3203 6.38584 27.3203 9.18584V13.8072C27.3203 14.1432 27.151 14.4565 26.8723 14.6418C24.123 16.4618 20.859 17.6738 17.435 18.1472C17.3883 18.1538 17.343 18.1565 17.2977 18.1565C16.8457 18.1565 16.4417 17.8512 16.3283 17.4032C16.059 16.3418 15.095 15.5992 13.987 15.5992C12.8643 15.5992 11.911 16.3258 11.615 17.4085ZM15.715 2.66718H12.2723C11.375 2.66718 10.6257 3.28051 10.4017 4.10851H17.5843C17.3603 3.28051 16.611 2.66718 15.715 2.66718Z" fill="#3A3A3A"/>
</svg>
