<svg width="187" height="30" viewBox="0 0 187 30" fill="none" xmlns="http://www.w3.org/2000/svg">
<g clip-path="url(#clip0_5814_418)">
<path d="M36.6091 17.1219C36.6091 12.3024 40.3078 8.9172 45.3474 8.9172C48.4192 8.9172 50.8396 10.0395 52.387 12.0563L49.0461 15.0363C48.1272 13.8727 47.0293 13.1984 45.6165 13.1984C43.4209 13.1984 41.9408 14.7244 41.9408 17.1219C41.9408 19.5194 43.4209 21.0453 45.6165 21.0453C47.0293 21.0453 48.1272 20.3725 49.0461 19.2059L52.387 22.1875C50.8457 24.2058 48.4192 25.3265 45.3474 25.3265C40.3078 25.3204 36.6091 21.9352 36.6091 17.1219Z" fill="#2B2B2B"/>
<path d="M62.5458 12.4752V16.9583C62.1757 16.8986 61.8011 16.868 61.425 16.868C59.9006 16.868 58.8242 17.5637 58.8242 19.5132V24.9596H53.7585V12.7H58.5765V14.0241C59.474 12.9905 60.8409 12.4752 62.5458 12.4752Z" fill="#2B2B2B"/>
<path d="M76.8465 20.0071H68.3284C68.6862 20.949 69.5394 21.4428 70.7947 21.4428C71.9154 21.4428 72.5439 21.1508 73.3512 20.5438L75.9964 23.2119C74.8083 24.5116 73.0836 25.1843 70.6387 25.1843C66.1343 25.1843 63.22 22.4719 63.22 18.8191C63.22 15.0929 66.2015 12.4752 70.1693 12.4752C73.8007 12.4752 76.9153 14.6709 76.9153 18.8191C76.9138 19.1784 76.8694 19.6478 76.8465 20.0071ZM68.2382 17.5653H72.183C71.9812 16.5378 71.2412 15.9277 70.2106 15.9277C69.1602 15.9262 68.4431 16.5317 68.2412 17.5638L68.2382 17.5653Z" fill="#2B2B2B"/>
<path d="M90.2972 18.3711V24.9596H85.591V23.348C85.0069 24.5804 83.8418 25.1859 82.1216 25.1859C79.1171 25.1859 77.5713 23.4825 77.5713 21.374C77.5713 18.998 79.3633 17.6754 83.1751 17.6754H85.2148C85.0573 16.7335 84.3417 16.2412 82.9014 16.2412C81.8021 16.2412 80.5712 16.5989 79.7639 17.2044L78.1493 13.8635C79.5835 12.9645 81.7592 12.4737 83.6629 12.4737C87.8768 12.4752 90.2972 14.2947 90.2972 18.3711ZM85.2332 20.9765V20.1248H83.9778C82.9014 20.1248 82.4366 20.4826 82.4366 21.1523C82.4366 21.712 82.8846 22.1385 83.6476 22.1385C84.3356 22.134 84.9625 21.7777 85.2332 20.9765Z" fill="#2B2B2B"/>
<path d="M101.529 24.5345C100.745 24.9825 99.6013 25.1843 98.4133 25.1843C95.0281 25.1843 93.0556 23.5926 93.0556 20.2074V17.0699H91.3752V13.3727H93.0556V9.94315H98.1228V13.3727H100.633V17.0714H98.1228V20.1646C98.1228 20.926 98.5708 21.3526 99.1763 21.3526C99.5814 21.3557 99.979 21.2379 100.318 21.0162L101.529 24.5345Z" fill="#2B2B2B"/>
<path d="M102.292 9.13583C102.292 7.67869 103.48 6.55792 105.34 6.55792C107.199 6.55792 108.388 7.58542 108.388 9.04562C108.388 10.5869 107.2 11.7137 105.34 11.7137C103.479 11.7137 102.292 10.593 102.292 9.13583ZM102.806 12.7H107.873V24.9611H102.808L102.806 12.7Z" fill="#2B2B2B"/>
<path d="M123.766 12.6999L118.835 24.9611H113.587L108.656 12.6984H113.856L116.324 19.2686L118.969 12.6999H123.766Z" fill="#2B2B2B"/>
<path d="M137.193 20.0071H128.675C129.035 20.949 129.886 21.4428 131.142 21.4428C132.262 21.4428 132.891 21.1508 133.698 20.5438L136.343 23.2119C135.155 24.5116 133.431 25.1843 130.986 25.1843C126.481 25.1843 123.567 22.4719 123.567 18.8191C123.567 15.0929 126.548 12.4752 130.516 12.4752C134.148 12.4752 137.264 14.6709 137.264 18.8191C137.262 19.1784 137.216 19.6478 137.193 20.0071ZM128.584 17.5653H132.528C132.327 16.5378 131.587 15.9277 130.556 15.9277C129.506 15.9262 128.788 16.5317 128.587 17.5638L128.584 17.5653Z" fill="#2B2B2B"/>
<path d="M154.477 9.27039V24.9611H149.187V19.1784H144.297V24.9611H139.01V9.27039H144.297V14.8299H149.179V9.27039H154.477Z" fill="#2B2B2B"/>
<path d="M170.281 12.7V24.9611H165.462V23.7945C164.543 24.7363 163.31 25.1843 161.992 25.1843C159.055 25.1843 156.837 23.4581 156.837 19.4689V12.7H161.904V18.5958C161.904 20.345 162.509 20.926 163.494 20.926C164.369 20.926 165.22 20.2777 165.22 18.4613V12.7H170.281Z" fill="#2B2B2B"/>
<path d="M186.623 18.819C186.623 22.7639 183.912 25.1843 180.706 25.1843C179.182 25.1843 178.084 24.7807 177.344 23.9504V24.9596H172.526V8.32851H177.591V13.5241C178.332 12.807 179.362 12.4706 180.708 12.4706C183.912 12.4752 186.623 14.8742 186.623 18.819ZM181.492 18.819C181.492 17.2274 180.617 16.42 179.497 16.42C178.376 16.42 177.501 17.2274 177.501 18.819C177.501 20.4107 178.376 21.2395 179.497 21.2395C180.617 21.2395 181.49 20.4107 181.492 18.819Z" fill="#2B2B2B"/>
<path d="M14.7595 0C6.60838 0 0 6.60838 0 14.7595C0 22.9107 6.60838 29.5191 14.7595 29.5191C22.9107 29.5191 29.5191 22.9137 29.5191 14.7595C29.5191 6.60532 22.9092 0 14.7595 0ZM20.7701 14.7794C20.3052 15.1158 19.7747 15.3497 19.2135 15.4659L19.1218 15.4843V19.4719H16.2075V15.2779L15.7549 15.1708C15.2075 15.0439 14.6418 14.914 14.1388 14.8834C14.0271 14.8788 13.9155 14.8803 13.8039 14.8895L13.6969 14.8987V22.6202H10.7872V15.8665L9.88811 16.5057L8.2062 14.1265L9.14195 13.4583C9.60677 13.122 10.1373 12.888 10.6985 12.7718L10.7902 12.7535V7.72303H13.7045V11.9798L13.8238 11.9752C13.8911 11.9721 13.9599 11.9721 14.0271 11.9721C14.1265 11.9706 14.2259 11.9752 14.3253 11.9859H14.3345C14.9201 12.0211 15.5026 12.1098 16.073 12.2504L16.2106 12.2841V7.69398H19.1249V12.3712L20.0239 11.7321L21.7089 14.1097L20.7701 14.7794Z" fill="#2B2B2B"/>
</g>
<defs>
<clipPath id="clip0_5814_418">
<rect width="186.623" height="29.5175" fill="white"/>
</clipPath>
</defs>
</svg>
