<svg width="19" height="19" viewBox="0 0 19 19" fill="none" xmlns="http://www.w3.org/2000/svg">
<path d="M13.623 0.710052H5.3865C2.166 0.710052 0 2.80206 0 5.9137V13.0951C0 16.1979 2.166 18.2899 5.3865 18.2899H13.623C16.8435 18.2899 19 16.1979 19 13.0951V5.9137C19 2.80206 16.8435 0.710052 13.623 0.710052Z" fill="black"/>
<path d="M13.4716 11.6673L11.129 9.50098L13.4703 7.33461C13.9207 6.91913 13.9207 6.2429 13.4703 5.82741C13.02 5.40828 12.2917 5.40949 11.8414 5.8262L9.49869 7.99256L7.15601 5.82376C6.70565 5.40706 5.97611 5.40949 5.52575 5.82376C5.0767 6.24046 5.0767 6.91669 5.52575 7.33217L7.86975 9.50098L5.53102 11.6637C5.08065 12.0804 5.08065 12.7566 5.53102 13.1709C5.7562 13.3805 6.04986 13.484 6.34483 13.484C6.64112 13.484 6.93478 13.3805 7.15996 13.1721L9.49869 11.0082L11.8427 13.1758C12.0679 13.3841 12.3615 13.4877 12.6565 13.4877C12.9515 13.4877 13.2465 13.3829 13.4716 13.1758C13.922 12.7591 13.922 12.084 13.4716 11.6673Z" fill="white"/>
</svg>
