<svg width="1440" height="734" viewBox="0 0 1440 734" fill="none" xmlns="http://www.w3.org/2000/svg">
<mask id="mask0_999_138" style="mask-type:alpha" maskUnits="userSpaceOnUse" x="-12" y="0" width="1466" height="734">
<rect x="-12" y="0.53418" width="1466" height="733" fill="#C4C4C4"/>
</mask>
<g mask="url(#mask0_999_138)">
<path d="M1635 750.75L-441 739.72C-420.751 664.458 -474.457 450.956 -251.428 269.359C-201.363 243.535 -165.571 250.959 -129.971 262.896C-68.546 283.49 -4.72272 272.836 56.8998 252.718C72.2937 247.692 86.2246 245.281 102.333 247.734C170.585 258.128 260.713 248.482 314.401 209.48C389.949 154.597 490.665 127.998 594.252 143.773C608.554 145.951 622.503 148.875 636.059 152.492C724.125 175.991 838.34 166.352 912.837 118.316C1009.34 56.0885 1132.73 27.1579 1259.39 46.4462C1605.56 118.316 1602.81 584.393 1635 750.75Z" fill="black" fill-opacity="0.1"/>
<path d="M-118.414 703.016L1885.99 499.652C1844.92 431.472 1835.92 212.806 1568.41 87.8756C1512.62 74.2793 1480.13 89.5913 1449.11 109.224C1395.59 143.096 1330.83 147.296 1265.5 141.843C1249.17 140.481 1235.02 141.315 1220.14 147.348C1157.1 172.908 1067.19 184.059 1004.14 158.542C915.422 122.635 810.434 119.799 714.765 158.592C701.557 163.948 688.902 169.945 676.826 176.523C598.371 219.258 485.17 235.89 399.419 206.366C288.332 168.119 160.754 168.179 43.7805 215.611C-270.467 363.772 -134.775 534.831 -118.414 703.016Z" fill="black" fill-opacity="0.13"/>
<path d="M1729 752.534L-347 741.505C-326.751 666.242 -380.457 452.74 -157.428 271.144C-107.363 245.32 -71.5713 252.744 -35.9705 264.68C25.454 285.274 89.2773 274.62 150.9 254.502C166.294 249.476 180.225 247.065 196.333 249.518C264.585 259.913 354.713 250.267 408.401 211.264C483.949 156.381 584.665 129.782 688.252 145.558C702.554 147.735 716.503 150.659 730.059 154.276C818.125 177.775 932.34 168.136 1006.84 120.101C1103.34 57.8727 1226.73 28.9421 1353.39 48.2303C1699.56 120.101 1696.81 586.177 1729 752.534Z" fill="black"/>
<path fill-rule="evenodd" clip-rule="evenodd" d="M-12 743.535H1454V402.014C1444.93 397.806 1435.63 393.908 1426.12 390.335C1280.34 335.596 1122.64 372.151 1015.88 471.467C986.746 498.568 937.857 498.722 906.778 473.876C882.528 454.49 854.854 438.541 824.213 427.036C713.283 385.383 593.292 413.177 512.028 488.72C481.122 517.449 426.055 519.991 388.332 501.082C382.438 498.128 376.33 495.454 370.019 493.084C327.704 477.196 283.262 477.601 243.591 491.169C196.435 507.297 108.474 496.34 62.3423 477.481C61.043 476.949 59.7319 476.435 58.4091 475.939C35.1272 467.197 11.0054 464.892 -12 468.135L-12 743.535Z" fill="#FF6BDF" fill-opacity="0.18"/>
<rect x="-2" y="732" width="1443" height="31" fill="#F4F3EC"/>
<rect x="-12" y="700" width="1466" height="68" fill="#F4F3EC"/>
</g>
</svg>
