<svg width="411" height="346" viewBox="0 0 411 346" fill="none" xmlns="http://www.w3.org/2000/svg">
<g clip-path="url(#clip0_4014_4077)">
<mask id="mask0_4014_4077" style="mask-type:alpha" maskUnits="userSpaceOnUse" x="-2" y="0" width="416" height="383">
<rect x="-1.10059" width="414.774" height="382.501" fill="#C4C4C4"/>
</mask>
<g mask="url(#mask0_4014_4077)">
<path d="M456.525 260.092L-129.012 203.202C-121.349 182.488 -130.973 120.849 -63.333 75.382C-48.5362 69.3917 -38.6286 72.4138 -28.8916 76.7043C-12.0918 84.107 6.19436 82.7538 24.1047 78.6729C28.5788 77.6534 32.5724 77.3341 37.0544 78.4436C56.0452 83.1447 81.7282 82.7575 97.8886 73.1421C120.629 59.6118 149.739 54.715 178.561 61.8499C182.541 62.835 186.401 64.0213 190.133 65.3932C214.375 74.3056 246.855 74.5442 269.122 62.919C297.967 47.8589 333.535 42.8914 368.776 51.6152C464.601 80.8637 451.752 212.314 456.525 260.092Z" fill="black" fill-opacity="0.1"/>
<path d="M-58.4083 355.787L514.14 266.371C504.23 227.392 507.182 103.926 434.594 30.0748C419.144 21.7008 409.56 29.9282 400.285 40.6114C384.281 59.0437 365.842 60.5952 347.484 56.6944C342.898 55.7199 338.869 56.0119 334.505 59.227C316.018 72.85 290.284 78.0057 273.077 62.8153C248.864 41.4398 219.214 38.5146 191.155 59.1903C187.281 62.0448 183.547 65.268 179.963 68.8263C156.678 91.9431 124.213 99.8962 100.68 82.1589C70.1945 59.181 34.0765 57.6046 -0.231119 82.8847C-92.9197 162.497 -58.809 260.705 -58.4083 355.787Z" fill="black" fill-opacity="0.13"/>
<path d="M471.672 421.492L-244.004 309.36C-231.685 274.678 -235.1 170.569 -145.268 95.8552C-126.161 86.1753 -114.335 91.5422 -102.894 99.0412C-83.1537 111.98 -60.3729 110.209 -37.6812 103.832C-32.0126 102.239 -27.0341 101.812 -21.6487 103.806C1.16999 112.254 32.9577 112.317 54.2483 96.5678C84.2077 74.4066 120.85 66.9671 155.482 79.789C160.264 81.5592 164.871 83.6653 169.293 86.0803C198.022 101.769 238.122 103.075 267.233 84.1099C304.946 59.5416 349.578 52.1627 391.923 67.8399C506.303 119.78 472.346 340.87 471.672 421.492Z" fill="black"/>
<path fill-rule="evenodd" clip-rule="evenodd" d="M-56.665 355.049H469.407V232.098C468.437 231.708 467.46 231.328 466.475 230.958L452.329 225.646C400.305 206.112 343.818 220.791 307.598 258.454C299.822 266.539 286.186 266.993 277.48 259.919C269.09 253.102 259.472 247.504 248.794 243.495L238.026 239.451C197.64 224.287 153.72 236.21 126.235 266.153C118.14 274.973 102.836 276.219 92.3702 270.406C89.643 268.892 86.7704 267.559 83.7621 266.429L77.0839 263.922C59.8889 257.465 41.6609 258.926 26.407 266.485C13.7504 272.758 -9.55861 270.231 -21.842 263.257C-24.0507 262.003 -26.3862 260.905 -28.8394 259.984L-33.9566 258.062C-41.4584 255.246 -49.2168 254.395 -56.6651 255.255L-56.665 355.049Z" fill="#FF6BDF" fill-opacity="0.18"/>
</g>
</g>
<defs>
<clipPath id="clip0_4014_4077">
<rect width="412" height="346" fill="white" transform="translate(-1)"/>
</clipPath>
</defs>
</svg>
