<svg width="34" height="35" viewBox="0 0 34 35" fill="none" xmlns="http://www.w3.org/2000/svg">
<path d="M17 22.8467C19.934 22.8467 22.3125 20.4682 22.3125 17.5342C22.3125 14.6002 19.934 12.2217 17 12.2217C14.066 12.2217 11.6875 14.6002 11.6875 17.5342C11.6875 20.4682 14.066 22.8467 17 22.8467Z" stroke="#EFEFEF" stroke-width="2.83333" stroke-miterlimit="10"/>
<path d="M22.8438 5.31543H11.1562C7.63543 5.31543 4.78125 8.16961 4.78125 11.6904V23.3779C4.78125 26.8987 7.63543 29.7529 11.1562 29.7529H22.8438C26.3646 29.7529 29.2188 26.8987 29.2188 23.3779V11.6904C29.2188 8.16961 26.3646 5.31543 22.8438 5.31543Z" stroke="#EFEFEF" stroke-width="2.83333" stroke-linecap="round" stroke-linejoin="round"/>
<path d="M23.9062 12.2217C24.7865 12.2217 25.5 11.5081 25.5 10.6279C25.5 9.74773 24.7865 9.03418 23.9062 9.03418C23.026 9.03418 22.3125 9.74773 22.3125 10.6279C22.3125 11.5081 23.026 12.2217 23.9062 12.2217Z" fill="#EFEFEF"/>
</svg>
