<svg width="34" height="35" viewBox="0 0 34 35" fill="none" xmlns="http://www.w3.org/2000/svg">
<path d="M27.625 5.84668H6.375C5.7882 5.84668 5.3125 6.32238 5.3125 6.90918V28.1592C5.3125 28.746 5.7882 29.2217 6.375 29.2217H27.625C28.2118 29.2217 28.6875 28.746 28.6875 28.1592V6.90918C28.6875 6.32238 28.2118 5.84668 27.625 5.84668Z" stroke="#EFEFEF" stroke-width="2.83333" stroke-linecap="round" stroke-linejoin="round"/>
<path d="M15.9375 15.4092V23.9092" stroke="#EFEFEF" stroke-width="2.83333" stroke-linecap="round" stroke-linejoin="round"/>
<path d="M11.6875 15.4092V23.9092" stroke="#EFEFEF" stroke-width="2.83333" stroke-linecap="round" stroke-linejoin="round"/>
<path d="M15.9375 19.1279C15.9375 18.1417 16.3293 17.1958 17.0267 16.4984C17.7241 15.801 18.67 15.4092 19.6562 15.4092C20.6425 15.4092 21.5884 15.801 22.2858 16.4984C22.9832 17.1958 23.375 18.1417 23.375 19.1279V23.9092" stroke="#EFEFEF" stroke-width="2.83333" stroke-linecap="round" stroke-linejoin="round"/>
<path d="M11.6875 12.7529C12.5677 12.7529 13.2812 12.0394 13.2812 11.1592C13.2812 10.279 12.5677 9.56543 11.6875 9.56543C10.8073 9.56543 10.0938 10.279 10.0938 11.1592C10.0938 12.0394 10.8073 12.7529 11.6875 12.7529Z" fill="#EFEFEF"/>
</svg>
