<svg width="29" height="29" viewBox="0 0 29 29" fill="none" xmlns="http://www.w3.org/2000/svg">
<path d="M14.2083 0.720154C6.5115 0.720154 0.271484 6.96016 0.271484 14.6569C0.271484 22.3537 6.5115 28.5937 14.2083 28.5937C21.9051 28.5937 28.1451 22.3566 28.1451 14.6569C28.1451 6.95728 21.9036 0.720154 14.2083 0.720154ZM19.8838 14.6757C19.4449 14.9933 18.9439 15.2142 18.414 15.324L18.3274 15.3413V19.1067H15.5755V15.1464L15.1482 15.0453C14.6313 14.9255 14.0971 14.8028 13.6221 14.7739C13.5167 14.7696 13.4113 14.771 13.3059 14.7797L13.2049 14.7883V22.0794H10.4573V15.7022L9.6084 16.3057L8.02024 14.0592L8.90384 13.4283C9.34274 13.1107 9.84374 12.8898 10.3736 12.78L10.4602 12.7627V8.01268H13.2121V12.0322L13.3247 12.0278C13.3882 12.0249 13.4532 12.0249 13.5167 12.0249C13.6106 12.0235 13.7044 12.0278 13.7982 12.0379H13.8069C14.3599 12.0711 14.91 12.1549 15.4485 12.2877L15.5784 12.3195V7.98525H18.3303V12.4018L19.1792 11.7983L20.7703 14.0433L19.8838 14.6757Z" fill="white"/>
</svg>
