<svg width="182" height="30" viewBox="0 0 182 30" fill="none" xmlns="http://www.w3.org/2000/svg">
<g clip-path="url(#clip0_1638_18443)">
<path d="M36.3662 17.2841C36.3662 12.628 39.9395 9.35757 44.8083 9.35757C47.7759 9.35757 50.1143 10.4418 51.6092 12.3902L48.3816 15.2692C47.4938 14.1451 46.4332 13.4937 45.0683 13.4937C42.947 13.4937 41.5171 14.9679 41.5171 17.2841C41.5171 19.6003 42.947 21.0746 45.0683 21.0746C46.4332 21.0746 47.4938 20.4246 48.3816 19.2975L51.6092 22.178C50.1202 24.1279 47.7759 25.2107 44.8083 25.2107C39.9395 25.2047 36.3662 21.9343 36.3662 17.2841Z" fill="#F4F3EC"/>
<path d="M61.4239 12.795V17.126C61.0664 17.0684 60.7045 17.0389 60.3411 17.0389C58.8684 17.0389 57.8285 17.711 57.8285 19.5944V24.8561H52.9346V13.0121H57.5892V14.2913C58.4563 13.2928 59.7769 12.795 61.4239 12.795Z" fill="#F4F3EC"/>
<path d="M75.2398 20.0715H67.0104C67.3561 20.9815 68.1804 21.4586 69.3931 21.4586C70.4759 21.4586 71.083 21.1765 71.863 20.59L74.4185 23.1677C73.2707 24.4233 71.6045 25.0733 69.2425 25.0733C64.8907 25.0733 62.0752 22.4527 62.0752 18.9238C62.0752 15.3239 64.9557 12.795 68.789 12.795C72.2973 12.795 75.3063 14.9162 75.3063 18.9238C75.3048 19.2709 75.262 19.7244 75.2398 20.0715ZM66.9233 17.7125H70.7344C70.5394 16.7198 69.8245 16.1304 68.8289 16.1304C67.814 16.1289 67.1212 16.7139 66.9262 17.711L66.9233 17.7125Z" fill="#F4F3EC"/>
<path d="M88.234 18.4909V24.8561H83.6873V23.2992C83.123 24.4898 81.9974 25.0747 80.3355 25.0747C77.4329 25.0747 75.9395 23.4291 75.9395 21.3921C75.9395 19.0966 77.6707 17.8188 81.3533 17.8188H83.3239C83.1717 16.9089 82.4804 16.4332 81.0889 16.4332C80.0268 16.4332 78.8377 16.7789 78.0577 17.3638L76.4978 14.1362C77.8834 13.2676 79.9854 12.7935 81.8245 12.7935C85.8956 12.7949 88.234 14.5528 88.234 18.4909ZM83.3416 21.008V20.1853H82.1288C81.0889 20.1853 80.6398 20.5309 80.6398 21.1779C80.6398 21.7186 81.0727 22.1307 81.8098 22.1307C82.4745 22.1263 83.0801 21.7821 83.3416 21.008Z" fill="#F4F3EC"/>
<path d="M99.0853 24.4454C98.3275 24.8783 97.2226 25.0732 96.0748 25.0732C92.8044 25.0732 90.8988 23.5355 90.8988 20.265V17.2339H89.2754V13.662H90.8988V10.3487H95.7942V13.662H98.2197V17.2353H95.7942V20.2237C95.7942 20.9593 96.227 21.3714 96.812 21.3714C97.2034 21.3744 97.5875 21.2606 97.9154 21.0465L99.0853 24.4454Z" fill="#F4F3EC"/>
<path d="M99.8223 9.5688C99.8223 8.16105 100.97 7.07828 102.766 7.07828C104.563 7.07828 105.712 8.07094 105.712 9.48165C105.712 10.9706 104.564 12.0593 102.766 12.0593C100.969 12.0593 99.8223 10.9766 99.8223 9.5688ZM100.319 13.0121H105.214V24.8576H100.32L100.319 13.0121Z" fill="#F4F3EC"/>
<path d="M120.568 13.0121L115.804 24.8576H110.735L105.971 13.0106H110.995L113.379 19.3581L115.934 13.0121H120.568Z" fill="#F4F3EC"/>
<path d="M133.541 20.0715H125.311C125.658 20.9815 126.481 21.4586 127.694 21.4586C128.777 21.4586 129.384 21.1765 130.164 20.59L132.719 23.1677C131.572 24.4233 129.905 25.0733 127.543 25.0733C123.191 25.0733 120.376 22.4527 120.376 18.9238C120.376 15.3239 123.256 12.795 127.09 12.795C130.598 12.795 133.609 14.9162 133.609 18.9238C133.607 19.2709 133.563 19.7244 133.541 20.0715ZM125.223 17.7125H129.034C128.839 16.7198 128.124 16.1304 127.128 16.1304C126.113 16.1289 125.421 16.7139 125.226 17.711L125.223 17.7125Z" fill="#F4F3EC"/>
<path d="M150.239 9.69879V24.8576H145.128V19.2709H140.404V24.8576H135.296V9.69879H140.404V15.0698H145.121V9.69879H150.239Z" fill="#F4F3EC"/>
<path d="M165.507 13.0121V24.8576H160.851V23.7305C159.964 24.6404 158.773 25.0732 157.5 25.0732C154.662 25.0732 152.519 23.4055 152.519 19.5516V13.0121H157.414V18.7081C157.414 20.398 157.999 20.9593 158.95 20.9593C159.795 20.9593 160.618 20.333 160.618 18.5781V13.0121H165.507Z" fill="#F4F3EC"/>
<path d="M181.295 18.9238C181.295 22.7349 178.676 25.0733 175.579 25.0733C174.106 25.0733 173.045 24.6833 172.33 23.8812V24.8561H167.676V8.78885H172.57V13.8083C173.285 13.1155 174.28 12.7905 175.58 12.7905C178.676 12.795 181.295 15.1127 181.295 18.9238ZM176.338 18.9238C176.338 17.386 175.493 16.6061 174.41 16.6061C173.327 16.6061 172.483 17.386 172.483 18.9238C172.483 20.4615 173.327 21.2621 174.41 21.2621C175.493 21.2621 176.336 20.4615 176.338 18.9238Z" fill="#F4F3EC"/>
<path d="M15.2573 0.742645C7.38241 0.742645 0.998047 7.12701 0.998047 15.0019C0.998047 22.8767 7.38241 29.2611 15.2573 29.2611C23.1321 29.2611 29.5165 22.8796 29.5165 15.0019C29.5165 7.12406 23.1306 0.742645 15.2573 0.742645ZM21.064 15.0211C20.615 15.346 20.1024 15.572 19.5603 15.6843L19.4716 15.702V19.5545H16.6561V15.5026L16.2189 15.3992C15.6901 15.2766 15.1435 15.151 14.6575 15.1215C14.5497 15.1171 14.4418 15.1185 14.334 15.1274L14.2306 15.1363V22.596H11.4195V16.0713L10.551 16.6888L8.92606 14.3903L9.8301 13.7448C10.2792 13.4198 10.7917 13.1938 11.3339 13.0815L11.4225 13.0638V8.20387H14.238V12.3163L14.3532 12.3119C14.4182 12.309 14.4847 12.309 14.5497 12.309C14.6457 12.3075 14.7417 12.3119 14.8377 12.3222H14.8466C15.4124 12.3562 15.9752 12.4419 16.5261 12.5778L16.6591 12.6103V8.17581H19.4746V12.6945L20.3432 12.077L21.971 14.374L21.064 15.0211Z" fill="#F4F3EC"/>
</g>
<defs>
<clipPath id="clip0_1638_18443">
<rect width="180.297" height="28.5169" fill="white" transform="translate(0.998047 0.742645)"/>
</clipPath>
</defs>
</svg>
