<svg width="35" height="35" viewBox="0 0 35 35" fill="none" xmlns="http://www.w3.org/2000/svg">
<path fill-rule="evenodd" clip-rule="evenodd" d="M29.858 11.1633C29.5636 10.0323 28.6961 9.14163 27.5946 8.83937C25.5984 8.29004 17.593 8.29004 17.593 8.29004C17.593 8.29004 9.58759 8.29004 7.59122 8.83937C6.4897 9.14163 5.62221 10.0323 5.32781 11.1633C4.79297 13.2131 4.79297 17.49 4.79297 17.49C4.79297 17.49 4.79297 21.7669 5.32781 23.8168C5.62221 24.9478 6.4897 25.8384 7.59122 26.1409C9.58759 26.69 17.593 26.69 17.593 26.69C17.593 26.69 25.5984 26.69 27.5946 26.1409C28.6961 25.8384 29.5636 24.9478 29.858 23.8168C30.393 21.7669 30.393 17.49 30.393 17.49C30.393 17.49 30.393 13.2131 29.858 11.1633Z" stroke="#EFEFEF" stroke-width="2.83"/>
<path d="M15.1934 21.8633V13.8633L21.5934 17.8634L15.1934 21.8633Z" fill="#EFEFEF"/>
</svg>
